<svg version="1.2" xmlns="http://www.w3.org/2000/svg" viewBox="0 0 384 384" width="384" height="384">
	<title>새 프로젝트</title>
	<style>
		.s0 { fill: #f3cf94 } 
		.s1 { fill: #ebc484 } 
		.s2 { fill: #fbdcac } 
		.s3 { opacity: .2;mix-blend-mode: multiply;fill: #f3cf94 } 
		.s4 { fill: #9ad07d } 
		.s5 { fill: #bae3a4 } 
		.s6 { fill: #66bc6c } 
		.s7 { fill: #5ba85f } 
		.s8 { fill: #303179 } 
		.s9 { opacity: .2;mix-blend-mode: multiply;fill: #303179 } 
		.s10 { fill: #12144c } 
		.s11 { fill: #85bc67 } 
	</style>
	<g id="&lt;Group&gt;">
		<path id="&lt;Path&gt;" class="s0" d="m332.9 189.7c0.1-4 0-8.2-1.7-11.9q0-0.1-0.1-0.3c-2.6-4.4-6-8.6-10.1-11.6-5-3.6-11.6-5.6-17.3-7.9-12.7-5.2-25.7-9.7-39-13.4-26.1-7.3-53-10.8-79.9-13.8-26.5-2.9-53.1-3.4-79.6-0.6q-10.4 1.1-20.7 2.8c-6 0.9-12.4 1.4-17.8 4.3-9.2 4.9-13.6 11.5-15 21.6-1.7 11.7 0.6 24 1.4 35.7 0.9 12.7 1.8 25.5 3.8 38.1 2.1 12.6 5.1 25.5 10 37.3 5.2 12.3 15.6 17.6 27.5 22.1 26.8 10.3 55.5 12.9 83.7 16.3 28.5 3.4 57.5 7.3 86.1 2.7 6-1 12.4-2.1 17.8-5.2 4.9-2.8 8.5-7 11.6-11.7 7.2-10.7 13-22.3 17.9-34.3 4.8-12.1 8.7-24.6 12.6-37.1 3.4-10.8 8.2-21.7 8.8-33.1z"/>
		<g id="&lt;Group&gt;">
			<g id="&lt;Group&gt;">
				<path id="&lt;Path&gt;" class="s1" d="m88.8 262.9c3.9 0.4 4.6-5.7 0.7-6.1-3.9-0.5-4.7 5.6-0.7 6.1z"/>
			</g>
			<g id="&lt;Group&gt;">
				<path id="&lt;Path&gt;" class="s1" d="m105.9 286.1c6.8 0.8 8-9.7 1.2-10.5-6.7-0.8-8 9.7-1.2 10.5z"/>
			</g>
			<g id="&lt;Group&gt;">
				<path id="&lt;Path&gt;" class="s1" d="m117.6 269.7q0.2-0.3 0.5-0.6c0.9-1.3 1.1-2.9 0.5-4.4-0.6-1.4-2-2.5-3.5-2.6-1.6-0.2-3.1 0.4-4.1 1.7-1 1.3-1.1 2.9-0.5 4.4q0.1 0.4 0.3 0.7c1 2.8 5.2 3.3 6.8 0.8z"/>
			</g>
			<g id="&lt;Group&gt;">
				<path id="&lt;Path&gt;" class="s1" d="m139.8 289.4c5.8 0.7 6.9-8.4 1.1-9-5.8-0.7-6.9 8.3-1.1 9z"/>
			</g>
			<g id="&lt;Group&gt;">
				<path id="&lt;Path&gt;" class="s1" d="m157 273.9c5.4 0.6 6.4-7.7 1-8.4-5.4-0.6-6.4 7.8-1 8.4z"/>
			</g>
			<g id="&lt;Group&gt;">
				<path id="&lt;Path&gt;" class="s1" d="m75.9 272.3c4.1 0.5 4.8-5.8 0.8-6.3-4.1-0.5-4.9 5.8-0.8 6.3z"/>
			</g>
			<g id="&lt;Group&gt;">
				<path id="&lt;Path&gt;" class="s1" d="m167.6 292.6q0 0.4 0 0.9c-0.1 1.1 0.1 2.3 0.8 3.2 0.7 0.8 1.8 1.5 2.9 1.6 2.4 0.1 4.4-1.4 4.8-3.8q0.1-0.4 0.1-0.9c0.2-1-0.2-2.3-0.9-3.2-0.6-0.8-1.8-1.5-2.9-1.6-1.1-0.1-2.3 0.2-3.2 0.9-0.8 0.7-1.5 1.7-1.6 2.9z"/>
			</g>
			<g id="&lt;Group&gt;">
				<path id="&lt;Path&gt;" class="s1" d="m187.3 277.4c5.3 0.6 6.3-7.6 1-8.2-5.3-0.6-6.2 7.6-1 8.2z"/>
			</g>
			<g id="&lt;Group&gt;">
				<path id="&lt;Path&gt;" class="s1" d="m207.5 305.5c5.8 0.7 6.9-8.3 1.1-9-5.8-0.7-6.9 8.3-1.1 9z"/>
			</g>
			<g id="&lt;Group&gt;">
				<path id="&lt;Path&gt;" class="s1" d="m198.4 290.7c5.6 0.7 6.6-8 1-8.7-5.6-0.6-6.6 8-1 8.7z"/>
			</g>
			<g id="&lt;Group&gt;">
				<path id="&lt;Path&gt;" class="s1" d="m230.2 281.8c5.5 0.6 6.5-8 1-8.6-5.5-0.7-6.6 7.9-1 8.6z"/>
			</g>
			<g id="&lt;Group&gt;">
				<path id="&lt;Path&gt;" class="s1" d="m239.3 298q-0.3-0.6-0.6-1.1-0.5-1.1-1.5-1.8-0.9-0.8-2.2-0.9c-1.2-0.1-2.3 0.2-3.3 0.9-0.9 0.8-1.6 1.9-1.7 3.1q-0.1 1.2 0.3 2.3 0.5 1.1 1.5 1.8 0.4 0.4 0.9 0.9 0.5 0.2 1 0.5 0.8 0.4 1.7 0.3c0.9 0 1.9-0.3 2.6-0.9q0.8-0.7 1.3-1.8c0.4-0.9 0.5-2.4 0-3.3z"/>
			</g>
			<g id="&lt;Group&gt;">
				<path id="&lt;Path&gt;" class="s1" d="m257.9 291.5c5.8 0.7 6.9-8.2 1.1-8.9-5.8-0.7-6.8 8.3-1.1 8.9z"/>
			</g>
			<g id="&lt;Group&gt;">
				<path id="&lt;Path&gt;" class="s1" d="m280.6 283c6.4 0.7 7.6-9.2 1.2-9.9-6.4-0.8-7.6 9.1-1.2 9.9z"/>
			</g>
			<g id="&lt;Group&gt;">
				<path id="&lt;Path&gt;" class="s1" d="m278.4 301.5c6.1 0.7 7.2-8.8 1.2-9.5-6.1-0.7-7.2 8.7-1.2 9.5z"/>
			</g>
			<g id="&lt;Group&gt;">
				<path id="&lt;Path&gt;" class="s1" d="m71.1 252.2c5.6 0.7 6.6-8.1 1-8.8-5.7-0.6-6.7 8.1-1 8.8z"/>
			</g>
		</g>
		<g id="&lt;Group&gt;">
			<g id="&lt;Group&gt;">
				<path id="&lt;Path&gt;" class="s2" d="m130.9 273.1c4.8 0.5 5.7-6.9 0.9-7.5-4.8-0.5-5.7 6.9-0.9 7.5z"/>
			</g>
			<g id="&lt;Group&gt;">
				<path id="&lt;Path&gt;" class="s2" d="m154.6 294.7c5.7 0.7 6.8-8.3 1-9-5.7-0.6-6.8 8.3-1 9z"/>
			</g>
			<g id="&lt;Group&gt;">
				<path id="&lt;Path&gt;" class="s2" d="m217.1 285.9q0.2-0.4 0.4-0.8c0.6-1.2 0.3-3-0.6-4-0.7-0.9-1.6-1.4-2.7-1.6-1.1-0.1-2.2 0.2-3 0.9q-0.9 0.7-1.3 1.7-0.4 1-0.2 2.1 0.1 0.4 0.2 0.8c0.2 0.9 0.5 1.5 1.1 2.1 0.6 0.6 1.3 1 2.2 1.1q1 0.1 1.9-0.3c0.9-0.4 1.5-1.2 2-2z"/>
			</g>
			<g id="&lt;Group&gt;">
				<path id="&lt;Path&gt;" class="s2" d="m181.4 289.7c4.6 0.6 5.4-6.6 0.8-7.1-4.6-0.6-5.5 6.6-0.8 7.1z"/>
			</g>
			<g id="&lt;Group&gt;">
				<path id="&lt;Path&gt;" class="s2" d="m254.2 277.5q0-0.2 0.1-0.5c1.4-5.7-7.7-6.7-9.1-1.1q0 0.3-0.1 0.6c-1.3 5.8 9.2 7 9.2 1.1q0-0.3 0-0.6c0-5.8-9-7-9.1-1.1q0 0.3 0 0.6c0 5.8 7.7 6.7 9 1z"/>
			</g>
			<g id="&lt;Group&gt;">
				<path id="&lt;Path&gt;" class="s2" d="m253.5 306c5.3 0.6 6.3-7.6 1-8.2-5.3-0.6-6.3 7.6-1 8.2z"/>
			</g>
			<g id="&lt;Group&gt;">
				<path id="&lt;Path&gt;" class="s2" d="m287 290.6c4.7 0.5 5.6-6.8 0.8-7.4-4.7-0.5-5.6 6.8-0.8 7.4z"/>
			</g>
			<g id="&lt;Group&gt;">
				<path id="&lt;Path&gt;" class="s2" d="m123.2 285.7q-0.4-0.1-0.9-0.3c-1.2-0.4-2.6-0.4-3.7 0.5-0.7 0.7-1.3 1.5-1.4 2.5-0.1 1 0.2 2.1 0.8 2.8 0.9 1.1 2.1 1.5 3.5 1.4q0.4 0 0.9-0.1 0.4-0.1 0.8-0.2 0.7-0.3 1.2-0.8c0.5-0.6 0.9-1.3 1-2.1q0-0.9-0.3-1.8c-0.3-0.8-1.2-1.7-1.9-1.9z"/>
			</g>
			<g id="&lt;Group&gt;">
				<path id="&lt;Path&gt;" class="s2" d="m87 277.7c5.9 0.7 7-8.4 1.1-9.1-5.9-0.6-7 8.5-1.1 9.1z"/>
			</g>
			<g id="&lt;Group&gt;">
				<path id="&lt;Path&gt;" class="s2" d="m75.6 259.5c3.9 0.4 4.6-5.6 0.7-6-3.8-0.5-4.6 5.5-0.7 6z"/>
			</g>
		</g>
		<path id="&lt;Path&gt;" class="s3" d="m56.9 232.7q0.5 2.9 1.1 5.8c3.6 2.3 7.6 4.2 11.5 5.8 7.9 3.4 16.2 6 24.5 8.2 21 5.6 42.8 8.4 64.4 11.5 10.8 1.6 21.7 3.1 32.5 5 10.6 1.8 21 4.1 31.6 5.1 10.3 1 20.4 0.5 30.6 0.2 7.5-0.3 15 0 22.4-0.1 11.2-0.1 22.4-1.3 32.3-5.6q1.9-4.3 3.7-8.7c4.8-12.1 8.7-24.6 12.6-37.1 3.4-10.8 8.2-21.7 8.8-33.1 0.1-4 0-8.2-1.7-11.9q0-0.1-0.1-0.3c-2.6-4.4-6-8.6-10.1-11.6-5-3.6-11.6-5.6-17.3-7.9-12.7-5.2-25.7-9.7-39-13.4-26.1-7.3-53-10.8-79.9-13.8-26.5-2.9-53.1-3.4-79.6-0.6q-10.4 1.1-20.7 2.8c-6 0.9-12.4 1.4-17.8 4.3-9.2 4.9-13.6 11.5-15 21.6-1.7 11.7 0.6 24 1.4 35.7 0.9 12.7 1.8 25.5 3.8 38.1z"/>
		<path id="&lt;Path&gt;" class="s4" d="m333 178.7c-3.4-9.7-13-15.8-22-19.3-12.3-4.9-24.8-9.7-37.5-13.7-26.6-8.1-54-12.3-81.5-15.4-27.2-3.1-54.5-4.4-81.8-1.9-7.5 0.6-15 1.6-22.4 2.7-6.4 1-13.1 1.4-19.1 3.8-9.3 3.7-15.9 11.4-17.9 21.3-2.9 13.8 0.2 28.5 1.3 42.3 0.6 9.1 0.4 19.6 3.3 28.3q0 0.2 0.1 0.3 0.1 0.2 0.2 0.4c4.1 8.7 13.7 11.4 22.3 14 12.8 3.8 26.1 6.5 39.2 9.2 28 5.6 56.3 9.6 84.7 11.9 13.9 1.1 27.9 1.8 41.8 2.2 13.1 0.4 26.3 1 39.4-0.1 5.2-0.4 10.5-1.1 15.6-2 4.5-0.8 9.8-1.8 13.2-5 1.2-1.1 1.5-2.2 2.1-3.7q2.3-5.6 4.4-11.3c3.8-10 7.2-20.1 10.6-30.2 3.5-10.3 7.8-23 4-33.8z"/>
		<g id="&lt;Group&gt;">
			<path id="&lt;Path&gt;" class="s5" d="m64.3 156.2c11.3 8.1 25 12.2 38.3 15.7 16.8 4.6 33.9 7.9 51 10.7 37 6.2 74.5 10.4 112 11 19.7 0.2 39.6-0.5 59.1-4 2.6-0.5 2-4.6-0.7-4.1-35.9 6.3-73.5 4.2-109.6 0.8-34.8-3.3-69.8-8.2-103.8-16.3-15.4-3.7-31.4-8-45.6-15.1-0.8-0.4-1.4 0.8-0.7 1.3z"/>
		</g>
		<g id="&lt;Group&gt;">
			<path id="&lt;Path&gt;" class="s6" d="m166.1 86.2c3 11.2 11 20.1 19.1 28 4.8 4.3 10.7 8.5 17.4 8.4 1.1 0 2.1-1.1 2.3-2.2 3.2-20.5-9.1-44.5-31-48.7-9.6-1.8-9.7 7.6-7.8 14.5z"/>
			<g id="&lt;Group&gt;">
				<path id="&lt;Path&gt;" class="s7" d="m174.7 81.2c11.5 10.2 19 25.7 24.4 39.9 0.8 2.1 4.1 0.8 3.2-1.2-6-14.8-13.2-30.6-26.1-40.6-1.2-1-2.6 0.8-1.5 1.9z"/>
			</g>
			<path id="&lt;Path&gt;" class="s6" d="m249.9 103.4c-7.4 8.9-18.5 13.6-29.1 17.4-6.1 2-12.4 3.2-18.4 0.3-1-0.4-0.6-2-0.3-3 5.7-20 25.1-36.5 46.7-31.1 9.6 2.3 5.7 10.9 1.1 16.4z"/>
			<g id="&lt;Group&gt;">
				<path id="&lt;Path&gt;" class="s7" d="m244.1 95.2c-14.7 4.5-28 15.5-38.8 26.1-1.6 1.6-4-1-2.4-2.5 11.6-10.9 24.8-22.2 40.6-25.9 1.6-0.4 2.1 1.8 0.6 2.3z"/>
			</g>
		</g>
		<g id="&lt;Group&gt;">
			<path id="&lt;Path&gt;" class="s8" d="m252.9 160.1q0.2-0.2 0.4-0.4 0-0.1 0-0.1c7.9-10.7 7.8-27.8-0.8-38.1-10.7-12.7-30.2-15.6-43.8-5.7-14.6 10.7-10.3 32.8 0.9 44.5 12.1 12.6 31.4 12.5 43.3-0.2z"/>
			<path id="&lt;Path&gt;" class="s9" d="m226.8 162.2c-7-3.4-9.8-10.8-10-18.2-0.1-7.8 1.5-15.5-0.9-23.2-0.9-2.7-2.3-5-3.9-7q-1.7 0.9-3.3 2c-14.6 10.7-10.3 32.8 0.9 44.5 11.5 12 29.5 12.5 41.5 1.6-8.2 3-16.9 3.9-24.3 0.3z"/>
			<path id="&lt;Path&gt;" class="s10" d="m249.8 135.8c0.4-2.5-0.5-5.2-2.3-7-1-0.9-2.3-1.8-3.6-2.1-1.3-0.3-2.8-0.5-4.1-0.1-1.7 0.5-3 1.5-4.1 2.8q-0.1 0.2-0.2 0.3-0.1 0.1-0.2 0.2-0.1 0.2-0.2 0.3-0.1 0.2-0.2 0.4-0.1 0.2-0.2 0.3-0.1 0.2-0.1 0.3c-1.2 2.3-1.1 5 0.2 7.5 1.5 3 5.7 4.8 9 3.9 3.2-1 5.5-3.5 6-6.8z"/>
			<g id="&lt;Group&gt;" style="opacity: .2;mix-blend-mode: screen">
				<path id="&lt;Path&gt;" class="s8" d="m242.9 157.4q0.5-0.1 1-0.3c1.7-0.7 3.3-1.8 3.8-3.8 0.3-1.3 0.2-2.7-0.5-4-0.7-1.2-1.9-2.1-3.2-2.5-2-0.5-3.6 0.1-5.2 1.4q-0.4 0.3-0.8 0.6c-0.8 0.7-1.3 1.9-1.4 2.9-0.2 1.1 0 2.3 0.6 3.3q0.7 1.2 1.9 1.9c0.9 0.6 2.7 0.9 3.8 0.5z"/>
			</g>
		</g>
		<g id="&lt;Group&gt;">
			<path id="&lt;Path&gt;" class="s8" d="m207.9 143.4q0-0.3 0.1-0.6 0 0 0 0c1.7-13.9-7.3-29.6-20.5-34.6-16.4-6.1-35.9 1.3-43.2 17.5-7.8 17.3 7.5 35.4 23.9 40.3 17.6 5.4 35.3-4.7 39.7-22.6z"/>
			<path id="&lt;Path&gt;" class="s9" d="m202.4 152c-10.9 6.3-25.2 5.2-36-0.7-9.9-5.5-20.2-17-17.9-29.2 0.3-1.7 0.8-3.4 1.5-5-2.3 2.5-4.2 5.3-5.7 8.6-7.8 17.3 7.5 35.4 23.9 40.3 15.5 4.7 31-2.5 37.5-16.4-1 0.8-2.1 1.6-3.3 2.4z"/>
			<path id="&lt;Path&gt;" class="s10" d="m192.4 122.7c-1-2.5-3.1-4.5-5.8-5.2-1.3-0.4-3-0.5-4.3-0.1-1.4 0.4-2.8 1-3.8 2-1.3 1.4-2 3-2.3 4.7q-0.1 0.3-0.1 0.5 0 0.1 0 0.2 0 0.2-0.1 0.4 0 0.2 0 0.4 0 0.2 0 0.5 0 0.1 0 0.2c0.2 2.8 1.7 5.2 4.1 6.8 3 2 7.8 1.5 10.3-1.1 2.4-2.5 3.3-6 2-9.3z"/>
			<g id="&lt;Group&gt;" style="opacity: .2;mix-blend-mode: screen">
				<path id="&lt;Path&gt;" class="s8" d="m200.5 145.2q0.3-0.4 0.7-0.9c1.3-1.5 2.2-3.3 1.6-5.4-0.5-1.4-1.3-2.6-2.6-3.4-1.2-0.8-2.8-1-4.2-0.7-2.1 0.6-3.3 2-4.1 4q-0.2 0.5-0.4 1c-0.4 1-0.2 2.4 0.2 3.4 0.4 1.1 1.2 2.1 2.2 2.7q1.3 0.7 2.8 0.8c1.1 0 3-0.6 3.8-1.5z"/>
			</g>
		</g>
		<g id="&lt;Group&gt;">
			<path id="&lt;Path&gt;" class="s11" d="m108 146.3c5.2 0.6 6.1-7.5 0.9-8.1-5.2-0.6-6.2 7.5-0.9 8.1z"/>
		</g>
		<g id="&lt;Group&gt;">
			<path id="&lt;Path&gt;" class="s11" d="m117.1 155.9q0.8 1 1.6 2c0.7 0.8 1.7 1.4 2.8 1.5 1 0.2 2.3-0.2 3-0.8 0.9-0.7 1.5-1.7 1.6-2.8 0.1-1.1-0.2-2.2-0.9-3.1q-0.8-1-1.5-2c-0.7-0.8-1.8-1.4-2.8-1.5-1-0.1-2.3 0.2-3.1 0.8-0.8 0.7-1.5 1.7-1.5 2.8-0.1 1.1 0.1 2.2 0.8 3.1z"/>
		</g>
		<g id="&lt;Group&gt;">
			<path id="&lt;Path&gt;" class="s11" d="m198.4 173.6c2.1-1.4 4-3.3 5.5-5.4 1.2-1.7 1-4.3-0.7-5.5-1.7-1.1-4.3-1-5.5 0.8q-0.9 1.4-2 2.6c0.3-0.3 0.1-0.1 0 0q-0.3 0.3-0.6 0.5-0.7 0.6-1.4 1.1c-1.6 1.2-1.9 3.8-0.6 5.3 1.4 1.6 3.5 1.8 5.3 0.6z"/>
		</g>
		<g id="&lt;Group&gt;">
			<path id="&lt;Path&gt;" class="s11" d="m228.5 181.5q0.3 0.1 0.6 0.1c0.8 0.2 1.8-0.2 2.5-0.7 0.6-0.5 1.2-1.4 1.3-2.3 0-0.8-0.2-1.8-0.8-2.5-0.5-0.6-1.3-1.2-2.2-1.2q-0.3 0-0.6-0.1c-0.9 0-1.8 0.2-2.5 0.7-0.7 0.5-1.2 1.4-1.3 2.3 0 0.9 0.1 1.8 0.7 2.5 0.6 0.7 1.4 1 2.3 1.2z"/>
		</g>
		<g id="&lt;Group&gt;">
			<path id="&lt;Path&gt;" class="s11" d="m268.5 169.6q0.7-1.1 1.5-2.2c1.1-1.5 1-3.9-0.7-5.1-0.8-0.5-1.7-0.8-2.7-0.6-0.9 0.1-1.9 0.6-2.3 1.4q-0.7 1.1-1.4 2.3c-0.5 0.8-0.8 1.6-0.7 2.6 0.2 0.8 0.7 1.8 1.4 2.3 1.5 1 3.7 0.9 4.9-0.7z"/>
		</g>
		<g id="&lt;Group&gt;">
			<path id="&lt;Path&gt;" class="s11" d="m296.1 179.3q1.8-0.2 3.6-0.3c2.1-0.2 3.8-2.6 3.4-4.6-0.2-1-0.7-2-1.6-2.6-0.9-0.7-1.8-0.8-3-0.8q-1.8 0-3.7 0c-0.9 0.1-2.1 0.9-2.6 1.7-0.7 0.8-1 2.1-0.8 3.1 0.4 2.3 2.4 3.7 4.7 3.5z"/>
		</g>
		<g id="&lt;Group&gt;">
			<path id="&lt;Path&gt;" class="s11" d="m61.9 178.3q0.3 0.7 0.5 1.3c0.3 0.8 1.1 1.6 1.9 1.9 0.8 0.3 2 0.3 2.8-0.1 1.8-0.9 2.5-2.8 1.8-4.7q-0.2-0.6-0.4-1.2c-0.3-0.8-1.2-1.6-1.9-1.9-0.9-0.3-2-0.4-2.8 0-1.9 0.9-2.6 2.8-1.9 4.7z"/>
		</g>
		<g id="&lt;Group&gt;">
			<path id="&lt;Path&gt;" class="s11" d="m79.2 204.3q0.6 0.3 1.1 0.7c0.9 0.6 1.9 0.9 3 0.8 1-0.2 2-0.8 2.6-1.6 0.6-0.8 0.9-1.9 0.7-2.9-0.2-1-0.6-2-1.5-2.6q-0.5-0.4-1.1-0.7c-0.9-0.6-1.9-1-3-0.8-0.9 0.2-2 0.7-2.5 1.5-0.6 0.9-1 2-0.8 3 0.2 1 0.7 2 1.5 2.6z"/>
		</g>
		<g id="&lt;Group&gt;">
			<path id="&lt;Path&gt;" class="s11" d="m106.3 190.6q0.3 0 0.6 0.1c1.8 0.2 3.7-1.2 3.8-3 0.2-1.8-1.1-3.6-3-3.8q-0.3 0-0.6-0.1c-1.7-0.2-3.6 1.2-3.7 3-0.2 1.9 1 3.6 2.9 3.8z"/>
		</g>
		<g id="&lt;Group&gt;">
			<path id="&lt;Path&gt;" class="s11" d="m123.9 221.1q0.6 0.4 1.1 0.8c0.7 0.5 1.7 0.8 2.6 0.6 0.8-0.1 1.7-0.6 2.2-1.3 0.5-0.7 0.8-1.7 0.6-2.6-0.1-0.8-0.5-1.7-1.3-2.2q-0.6-0.3-1.1-0.7c-0.8-0.5-1.6-0.8-2.6-0.6-0.8 0.1-1.7 0.6-2.1 1.3-1 1.4-0.9 3.6 0.6 4.7z"/>
		</g>
		<g id="&lt;Group&gt;">
			<path id="&lt;Path&gt;" class="s11" d="m85.4 233.9q0.5 0.4 1.1 0.7c0.9 0.6 1.9 1 3 0.8 0.9-0.1 2-0.7 2.5-1.5 0.6-0.9 1-2 0.8-3-0.2-1-0.7-2-1.6-2.6q-0.5-0.3-1.1-0.7c-0.9-0.6-1.9-0.9-3-0.8-0.9 0.2-2 0.8-2.5 1.6-0.6 0.8-1 1.9-0.8 3 0.2 0.9 0.7 2 1.6 2.5z"/>
		</g>
		<g id="&lt;Group&gt;">
			<path id="&lt;Path&gt;" class="s11" d="m174.4 205.4q0.3-0.2 0.7-0.5c0.8-0.7 1.4-1.7 1.5-2.8 0.2-1-0.2-2.3-0.8-3-0.7-0.9-1.7-1.5-2.8-1.6-1.1-0.1-2.2 0.2-3.1 0.9q-0.3 0.2-0.6 0.5c-0.9 0.6-1.5 1.7-1.6 2.8-0.1 1 0.2 2.2 0.9 3 0.7 0.8 1.6 1.5 2.7 1.6 1.1 0.1 2.2-0.2 3.1-0.9z"/>
		</g>
		<g id="&lt;Group&gt;">
			<path id="&lt;Path&gt;" class="s11" d="m170.7 237.1c4 0.4 4.7-5.7 0.7-6.2-3.9-0.5-4.7 5.7-0.7 6.2z"/>
		</g>
		<g id="&lt;Group&gt;">
			<path id="&lt;Path&gt;" class="s11" d="m229.7 211.6q0.4-0.5 0.8-1.1c0.9-1.2 0.7-3-0.5-3.9-1.2-0.8-3.2-0.8-4 0.5q-0.3 0.6-0.7 1.2c-0.4 0.6-0.6 1.3-0.5 2.1 0.1 0.6 0.5 1.4 1.1 1.8 1.2 0.8 3 0.7 3.8-0.6z"/>
		</g>
		<g id="&lt;Group&gt;">
			<path id="&lt;Path&gt;" class="s11" d="m244.2 236.7c4 0.5 4.8-5.7 0.8-6.1-4-0.5-4.7 5.7-0.8 6.1z"/>
		</g>
		<g id="&lt;Group&gt;">
			<path id="&lt;Path&gt;" class="s11" d="m275.5 217c4.8 0.5 5.7-6.9 0.9-7.5-4.8-0.5-5.7 6.9-0.9 7.5z"/>
		</g>
		<g id="&lt;Group&gt;">
			<path id="&lt;Path&gt;" class="s11" d="m300 207.1q0 0.3 0 0.6c0 1.1 0.2 2.2 0.9 3.1 0.6 0.8 1.8 1.5 2.8 1.6 1.1 0.1 2.3-0.2 3.2-0.9 0.8-0.8 1.3-1.7 1.5-2.8q0.1-0.3 0.2-0.6c0.2-1.1-0.3-2.4-0.9-3.2-0.7-0.8-1.8-1.5-2.9-1.6-1.1-0.1-2.3 0.2-3.2 0.9-0.8 0.7-1.5 1.7-1.6 2.9z"/>
		</g>
		<g id="&lt;Group&gt;">
			<path id="&lt;Path&gt;" class="s11" d="m296.3 241q0 0.3-0.1 0.6c-0.1 1 0.2 2.1 0.9 2.9 0.6 0.8 1.6 1.5 2.7 1.5 1 0.1 2.1-0.1 2.9-0.8 0.8-0.7 1.4-1.6 1.5-2.7q0.1-0.3 0.1-0.6c0.1-1-0.2-2.2-0.8-3-0.6-0.7-1.7-1.4-2.7-1.5-1.1-0.1-2.2 0.2-3 0.9-0.8 0.7-1.4 1.6-1.5 2.7z"/>
		</g>
		<g id="&lt;Group&gt;">
			<path id="&lt;Path&gt;" class="s11" d="m267.2 256.5c4.9 0.6 5.9-7.1 0.9-7.7-4.9-0.6-5.9 7.1-0.9 7.7z"/>
		</g>
		<g id="&lt;Group&gt;">
			<path id="&lt;Path&gt;" class="s11" d="m208.2 249.3q1.1 0.5 2.3 0.9c1.5 0.7 3.5-0.1 4.1-1.7 0.6-1.6-0.1-3.6-1.7-4.2q-1.2-0.4-2.4-0.8c-1.5-0.6-3.5 0.1-4.1 1.7-0.5 1.6 0.1 3.5 1.8 4.1z"/>
		</g>
		<g id="&lt;Group&gt;">
			<path id="&lt;Path&gt;" class="s11" d="m202 228.5q2.6-0.7 5.2-1.5c1.5-0.4 2.2-2.6 1.5-4-0.7-1.5-2.4-2.2-4-1.5q-2.4 1-4.9 2.1c-1.3 0.6-1.9 2.2-1.3 3.5 0.6 1.5 2.1 1.8 3.5 1.4z"/>
		</g>
		<g id="&lt;Group&gt;">
			<path id="&lt;Path&gt;" class="s11" d="m277.6 234.9q2.1 0.2 4.2 0.3c2.2 0.1 4.2-1.5 4.2-3.8-0.1-2.3-2.1-4-4.4-3.7q-2 0.3-4.1 0.6c-1.7 0.2-2.9 1.7-2.9 3.4 0.1 1.5 1.3 3.1 3 3.2z"/>
		</g>
		<g id="&lt;Group&gt;">
			<path id="&lt;Path&gt;" class="s11" d="m135.8 204.1q1.5 1.6 3 3.1c0.7 0.6 1.3 1.1 2.2 1.2 1.1 0.2 2.1-0.3 2.8-1 1.4-1.4 1.3-3.9-0.3-5q-1.8-1.2-3.6-2.4c-1.2-0.9-2.8-0.8-3.9 0.3-0.9 0.9-1.2 2.8-0.2 3.8z"/>
		</g>
		<g id="&lt;Group&gt;">
			<path id="&lt;Path&gt;" class="s11" d="m137.9 242q1.5-0.7 3.1-1.5c1.9-0.9 3.1-3.2 2.1-5.2-1-2-3.2-3-5.3-2.1q-1.6 0.7-3.2 1.4c-2 0.8-3.1 3.4-2.1 5.3 0.9 2 3.3 3.1 5.4 2.1z"/>
		</g>
		<g id="&lt;Group&gt;">
			<path id="&lt;Path&gt;" class="s5" d="m147.6 171.7q0.3 0.3 0.6 0.7c0.6 0.8 1.8 1.5 2.9 1.6 1 0.1 2.4-0.2 3.2-0.9 0.9-0.8 1.5-1.8 1.6-2.9 0.1-1.2-0.1-2.3-0.9-3.3q-0.2-0.3-0.5-0.6c-0.7-0.9-1.8-1.5-2.9-1.7-1.1-0.1-2.4 0.2-3.2 0.9-0.9 0.8-1.6 1.8-1.7 3-0.1 1.1 0.2 2.3 0.9 3.2z"/>
		</g>
		<g id="&lt;Group&gt;">
			<path id="&lt;Path&gt;" class="s5" d="m78 147.9q0.8 1.1 1.5 2.1c0.7 0.9 1.9 1.5 3.1 1.7 1.1 0.1 2.4-0.2 3.3-1 0.9-0.7 1.6-1.8 1.7-3 0.1-1.2-0.2-2.4-0.9-3.3q-0.9-1-1.7-2c-0.7-0.9-1.8-1.5-3-1.7-1-0.1-2.4 0.2-3.2 1-0.9 0.7-1.6 1.8-1.7 3q-0.1 1.8 0.9 3.2z"/>
		</g>
		<g id="&lt;Group&gt;">
			<path id="&lt;Path&gt;" class="s5" d="m95.6 159.4c5.3 0.6 6.3-7.7 1-8.3-5.4-0.6-6.3 7.7-1 8.3z"/>
		</g>
		<g id="&lt;Group&gt;">
			<path id="&lt;Path&gt;" class="s5" d="m315.8 176.8c4.3 0.5 5.1-6.2 0.8-6.7-4.3-0.5-5.1 6.2-0.8 6.7z"/>
		</g>
		<g id="&lt;Group&gt;">
			<path id="&lt;Path&gt;" class="s5" d="m280.9 161.4q0.2 0.3 0.5 0.7c1 1.4 3.4 1.7 4.7 0.5 1.3-1.1 1.8-3.3 0.6-4.7q-0.3-0.3-0.6-0.6c-0.6-0.7-1.3-1.2-2.2-1.3-0.8-0.1-1.8 0.2-2.5 0.7-1.4 1.3-1.6 3.2-0.5 4.7z"/>
		</g>
		<g id="&lt;Group&gt;">
			<path id="&lt;Path&gt;" class="s5" d="m275.4 173.6q-0.8 0.8-1.5 1.5c-0.7 0.7-1.1 1.3-1.3 2.2-0.2 1.1 0.3 2.1 1 2.8 1.4 1.3 3.8 1.3 5-0.4q0.6-0.9 1.2-1.8c0.9-1.2 0.8-2.9-0.3-4-1-1-3-1.3-4.1-0.3z"/>
		</g>
		<g id="&lt;Group&gt;">
			<path id="&lt;Path&gt;" class="s5" d="m242.3 181.6c5.4 0.7 6.5-7.8 1-8.4-5.4-0.6-6.4 7.8-1 8.4z"/>
		</g>
		<g id="&lt;Group&gt;">
			<path id="&lt;Path&gt;" class="s5" d="m134.2 143.1c5.7 0.7 6.7-8.1 1.1-8.7-5.7-0.7-6.7 8.1-1.1 8.7z"/>
		</g>
		<g id="&lt;Group&gt;">
			<path id="&lt;Path&gt;" class="s5" d="m135.6 150.9q1 1.7 1.9 3.3c0.6 0.9 1.1 1.5 2 1.9 1.1 0.5 2.3 0.3 3.3-0.2q1.2-0.8 1.6-2.2c0.3-1.2 0-2.2-0.6-3.2q-1.1-1.6-2.1-3.2c-0.5-0.7-1.6-1.3-2.4-1.4-0.8 0-1.5 0.1-2.2 0.5-1.4 0.9-2.4 3-1.5 4.5z"/>
		</g>
		<g id="&lt;Group&gt;">
			<path id="&lt;Path&gt;" class="s5" d="m190.1 201.2q0.8 0.5 1.7 0.9c0.9 0.5 2.3 0.4 3.3 0 0.9-0.5 1.8-1.4 2.2-2.3 0.4-1.1 0.5-2.3 0-3.3-0.5-1-1.3-1.9-2.3-2.3q-0.9-0.3-1.8-0.7c-1-0.4-2.2-0.4-3.2 0.1-0.9 0.4-1.9 1.2-2.2 2.2-0.4 1-0.5 2.2 0 3.2 0.5 1.1 1.3 1.7 2.3 2.2z"/>
		</g>
		<g id="&lt;Group&gt;">
			<path id="&lt;Path&gt;" class="s5" d="m206.2 217c6 0.7 7.2-8.7 1.1-9.4-6-0.7-7.1 8.7-1.1 9.4z"/>
		</g>
		<g id="&lt;Group&gt;">
			<path id="&lt;Path&gt;" class="s5" d="m227.9 230.1q-0.5 0.5-0.9 1c-1.2 1.5-0.6 3.8 1 4.8q1.2 0.6 2.5 0.3c1-0.3 1.6-1 2.1-1.9q0.3-0.6 0.6-1.2c0.4-0.6 0.3-1.7 0-2.4q-0.4-0.9-1.3-1.4c-1.4-0.8-3.1-0.4-4 0.8z"/>
		</g>
		<g id="&lt;Group&gt;">
			<path id="&lt;Path&gt;" class="s5" d="m240.3 254.8q0.3 0.3 0.5 0.7c1.1 1.4 3.4 1.7 4.8 0.5 1.3-1.2 1.7-3.2 0.5-4.7q-0.2-0.3-0.5-0.7c-1.1-1.3-3.4-1.7-4.7-0.5-1.4 1.2-1.8 3.2-0.6 4.7z"/>
		</g>
		<g id="&lt;Group&gt;">
			<path id="&lt;Path&gt;" class="s5" d="m254.7 219.6q1.8 0.3 3.5 0.6c1.9 0.4 3.9-1.3 4.1-3.1 0.1-1.9-1.2-3.9-3.2-4.1q-1.8-0.1-3.6-0.2c-1.8-0.1-3.6 1.1-3.8 3-0.1 1.9 1.1 3.5 3 3.8z"/>
		</g>
		<g id="&lt;Group&gt;">
			<path id="&lt;Path&gt;" class="s5" d="m301.8 220q-0.4 0.9-0.9 1.7c-0.5 0.9-0.3 2.3 0.1 3.2 0.4 0.9 1.2 1.9 2.2 2.2 1 0.4 2.2 0.5 3.2 0 1-0.5 1.8-1.2 2.2-2.3q0.4-0.9 0.7-1.7c0.4-1 0.4-2.2 0-3.2-0.4-0.9-1.3-1.8-2.2-2.1-1-0.4-2.2-0.4-3.2 0q-0.4 0.3-0.8 0.6-0.9 0.6-1.3 1.6z"/>
		</g>
		<g id="&lt;Group&gt;">
			<path id="&lt;Path&gt;" class="s5" d="m320.9 210.1c6.8 0.8 8.1-9.8 1.2-10.6-6.8-0.8-8.1 9.8-1.2 10.6z"/>
		</g>
		<g id="&lt;Group&gt;">
			<path id="&lt;Path&gt;" class="s5" d="m151.8 218.9c5.1 0.6 6.1-7.4 0.9-8-5.1-0.6-6.1 7.4-0.9 8z"/>
		</g>
		<g id="&lt;Group&gt;">
			<path id="&lt;Path&gt;" class="s5" d="m174.8 250.7c0.9 0.7 1.9 1.2 3 1.5 1.5 0.5 2.7 0.6 4.3 0.5 1 0 2.2-0.9 2.8-1.7 0.6-0.8 1-2.1 0.8-3.2-0.5-2.4-2.5-3.9-4.9-3.6-1 0 0.8 0.1 0 0q-0.5-0.1-1-0.2-0.5-0.1 0.4 0.1-0.2 0-0.4-0.1-0.5-0.2-0.9-0.4c-0.9-0.5-2.4-0.4-3.3 0-0.8 0.4-1.4 1-1.9 1.8-1 1.7-0.6 4.2 1.1 5.3z"/>
		</g>
		<g id="&lt;Group&gt;">
			<path id="&lt;Path&gt;" class="s5" d="m158.1 242.2c4.7 0.6 5.6-6.8 0.8-7.4-4.7-0.5-5.6 6.8-0.8 7.4z"/>
		</g>
		<g id="&lt;Group&gt;">
			<path id="&lt;Path&gt;" class="s5" d="m124.8 197.1c5.3 0.7 6.3-7.5 1-8.2-5.3-0.6-6.2 7.6-1 8.2z"/>
		</g>
		<g id="&lt;Group&gt;">
			<path id="&lt;Path&gt;" class="s5" d="m99.6 205.5q-0.4 0.2-0.7 0.5c-1.5 1.2-1.9 3.6-0.6 5.1 1.3 1.5 3.5 1.9 5.1 0.6q0.4-0.2 0.7-0.5c1.5-1.2 1.9-3.6 0.6-5.1-1.3-1.5-3.5-1.9-5.1-0.6z"/>
		</g>
		<g id="&lt;Group&gt;">
			<path id="&lt;Path&gt;" class="s5" d="m103.6 220.1c-2.3 1.4-2.6 5-0.9 6.9 0.6 0.7 1.3 1.2 2.2 1.3 0.8 0.1 1.8-0.2 2.5-0.7 0.6-0.6 1.1-1.3 1.2-2.2 0.1-0.8-0.1-1.9-0.7-2.5q-0.1-0.1-0.2-0.2 0.2 0.3 0.4 0.7-0.1-0.2-0.1-0.3 0.1 0.4 0.2 0.8 0-0.2-0.1-0.5 0.1 0.5 0.1 0.9 0-0.2 0-0.4-0.1 0.4-0.2 0.8 0.1-0.2 0.1-0.3-0.2 0.3-0.4 0.7 0.1-0.2 0.3-0.4-0.3 0.3-0.6 0.6 0.1 0 0.2-0.1c1.4-1 1.6-3.3 0.5-4.6-0.5-0.6-1.3-1.1-2.1-1.2-0.9 0-1.7 0.2-2.4 0.7z"/>
		</g>
		<g id="&lt;Group&gt;">
			<path id="&lt;Path&gt;" class="s5" d="m62.9 212.1q0.6 2.2 1.2 4.4c0.3 1.2 0.7 2 1.7 2.8 1 0.9 2.5 1 3.8 0.7 2.5-0.8 3.6-3.4 2.7-5.9q-0.7-2.1-1.5-4.3c-0.7-1.9-3.1-2.8-5-2.3-1.8 0.6-3.5 2.6-2.9 4.6z"/>
		</g>
		<g id="&lt;Group&gt;">
			<path id="&lt;Path&gt;" class="s5" d="m81.5 186.8c5.5 0.7 6.6-7.9 1-8.6-5.5-0.7-6.5 7.9-1 8.6z"/>
		</g>
		<g id="&lt;Group&gt;">
			<path id="&lt;Path&gt;" class="s5" d="m287.4 258.8c4.9 0.6 5.8-7 0.9-7.6-4.9-0.6-5.8 7-0.9 7.6z"/>
		</g>
		<g id="&lt;Group&gt;">
			<path id="&lt;Path&gt;" class="s5" d="m59.1 167.7c3.7 0.4 4.4-5.4 0.7-5.9-3.8-0.4-4.5 5.4-0.7 5.9z"/>
		</g>
	</g>
</svg>