<svg version="1.2" xmlns="http://www.w3.org/2000/svg" viewBox="0 0 384 384" width="384" height="384">
	<title>새 프로젝트</title>
	<style>
		.s0 { fill: #cdf0ff } 
		.s1 { fill: #bbe7fb } 
		.s2 { opacity: .5;mix-blend-mode: multiply;fill: #cdf0ff } 
		.s3 { fill: #f3cf94 } 
		.s4 { fill: #ebc484 } 
		.s5 { fill: #fbdcac } 
		.s6 { opacity: .3;mix-blend-mode: multiply;fill: #f3cf94 } 
		.s7 { fill: #9ad07d } 
		.s8 { fill: #85bc67 } 
		.s9 { opacity: .2;mix-blend-mode: multiply;fill: #9ad07d } 
		.s10 { fill: #bae3a4 } 
	</style>
	<g id="&lt;Group&gt;">
		<path id="&lt;Path&gt;" class="s0" d="m296 186q0-0.1 0-0.2c-0.1-0.6-0.5-1.2-1.4-1.2-6.5-0.1-13.5 2.4-19.7 3.9-14.6 3.4-29.2 6.7-44 9.4-36.3 6.9-73 11.1-109.9 13.2-7.7 0.5-16.8-0.2-24.3 2.1-0.7 0.2-1 1.1-1 1.7 0.9 14 7 27.9 12 40.8q7.6 19.7 17 38.7 4.7 9.4 9.8 18.7c2.8 5 5.6 10.3 9.7 14.4 7.1 6.9 16.3 8.3 25.8 8.5 27.2 0.4 54.7-2.9 80.9-10.5 9-2.6 19.2-4.9 26-11.8 8.2-8.4 9.6-21.6 11.8-32.5 3.2-15.7 5.5-31.7 7-47.7 1.4-15.3 3.7-32.3 0.3-47.5z"/>
		<g id="&lt;Group&gt;">
			<g id="&lt;Group&gt;">
				<path id="&lt;Path&gt;" class="s1" d="m202.6 226.9c-0.8 9.3 1.2 19 2.3 28.2 1 9 2.2 17.9 3.4 26.8 2 15.8 3.9 31.7 6.6 47.5 0.5 2.6 4.5 2.1 4.2-0.6-1.9-15.9-4.6-31.7-7-47.4-1.3-8.9-2.6-17.9-4-26.8-1.4-9.1-2.1-19-5.2-27.7-0.1-0.2-0.3-0.1-0.3 0z"/>
			</g>
			<g id="&lt;Group&gt;">
				<path id="&lt;Path&gt;" class="s1" d="m160.7 229.3c8 34.1 17.9 67.9 27.8 101.5 0.7 2.1 4.4 1.1 3.8-1.1-9.6-33.6-17.9-67.9-29.4-101-0.4-1.2-2.5-0.6-2.2 0.6z"/>
			</g>
			<g id="&lt;Group&gt;">
				<path id="&lt;Path&gt;" class="s1" d="m122.6 228.4c3.2 17.7 11 35.2 17.8 51.7 7.1 17.5 15 34.6 22.9 51.7 1 2.1 4.3 0.7 3.3-1.5-7.6-16.8-15.2-33.7-22.3-50.8-7.1-17-12.3-34.8-19.7-51.7-0.4-1.1-2.3-0.6-2 0.6z"/>
			</g>
			<g id="&lt;Group&gt;">
				<path id="&lt;Path&gt;" class="s1" d="m242 217.3c-1.7 34.9 0 70.2 0.4 105.2 0.1 2.2 3.9 2.1 3.9-0.1 0.1-35 0-70.2-2.1-105.2 0-1.2-2.1-1.2-2.2 0.1z"/>
			</g>
			<g id="&lt;Group&gt;">
				<path id="&lt;Path&gt;" class="s1" d="m277.4 205.7c-2.3 18.3-2.3 36.9-4.3 55.2-2 18.4-4.5 36.7-7 55-0.3 2.4 3.3 2.8 3.6 0.5 2.8-18.6 5.5-37.3 7.4-56 1.8-17.9 4.3-36.8 2.4-54.7-0.1-1.2-2-1.2-2.1 0z"/>
			</g>
		</g>
		<path id="&lt;Path&gt;" class="s2" d="m112.7 240.3c10.5 4.5 22.2 6.3 33.5 7.1 34.6 2.3 71.1-2.5 104.6-12.5 17-5 35.5-11.2 46.8-24.9 0.4-8.2 0.2-16.3-1.6-24q0-0.1 0-0.2c-0.1-0.6-0.5-1.2-1.4-1.2-6.5-0.1-13.5 2.4-19.7 3.9-14.6 3.4-29.2 6.7-44 9.4-36.3 6.9-73 11.1-109.9 13.2-7.7 0.5-16.8-0.2-24.3 2.1-0.7 0.2-1 1.1-1 1.7 0.4 5.4 1.5 10.8 3 16.1 4.4 3.5 8.7 7.1 14 9.3z"/>
		<path id="&lt;Path&gt;" class="s3" d="m287.6 170.1c-12.8-9.2-29.3-9.9-44.5-10.7-18.6-1-36.9-0.1-55.4 2.6-18.4 2.7-36.3 8-53.6 14.4-13.1 4.9-28.3 10.8-35.6 23.6-5.5 10-5.5 24.6 4.5 31.7 5.8 4.1 13.7 5.3 20.6 6.5 8.3 1.4 16.7 2.1 25.1 2.3 32.2 0.9 65.7-3.8 96.8-12.7 9.3-2.6 18.4-5.8 27.3-9.8 7.1-3.3 15.5-6.9 20.9-12.8 9.9-10.7 4.1-26.9-6.1-35.1z"/>
		<g id="&lt;Group&gt;">
			<g id="&lt;Group&gt;">
				<path id="&lt;Path&gt;" class="s4" d="m111.2 221.9c7.1-1 5.6-12.1-1.6-11.1-7.1 1.1-5.5 12.1 1.6 11.1z"/>
			</g>
			<g id="&lt;Group&gt;">
				<path id="&lt;Path&gt;" class="s4" d="m126.8 234.4c5.6-0.9 4.3-9.5-1.3-8.7-5.6 0.8-4.3 9.5 1.3 8.7z"/>
			</g>
			<g id="&lt;Group&gt;">
				<path id="&lt;Path&gt;" class="s4" d="m139.6 223c5.5-0.8 4.3-9.3-1.2-8.5-5.5 0.8-4.3 9.3 1.2 8.5z"/>
			</g>
			<g id="&lt;Group&gt;">
				<path id="&lt;Path&gt;" class="s4" d="m162.3 234.6c5-0.7 3.9-8.6-1.2-7.9-5 0.8-3.9 8.6 1.2 7.9z"/>
			</g>
			<g id="&lt;Group&gt;">
				<path id="&lt;Path&gt;" class="s4" d="m171.8 220.7c4.8-0.7 3.7-8.1-1-7.4-4.8 0.7-3.7 8.1 1 7.4z"/>
			</g>
			<g id="&lt;Group&gt;">
				<path id="&lt;Path&gt;" class="s4" d="m191 232.9c6.3-0.9 4.9-10.8-1.4-9.8-6.4 0.9-5 10.7 1.4 9.8z"/>
			</g>
			<g id="&lt;Group&gt;">
				<path id="&lt;Path&gt;" class="s4" d="m218.9 230.7c4-0.6 3.1-6.9-0.9-6.3-4.1 0.6-3.2 6.9 0.9 6.3z"/>
			</g>
			<g id="&lt;Group&gt;">
				<path id="&lt;Path&gt;" class="s4" d="m208.3 217.3c4.3-0.7 3.3-7.4-1-6.8-4.4 0.6-3.4 7.4 1 6.8z"/>
			</g>
			<g id="&lt;Group&gt;">
				<path id="&lt;Path&gt;" class="s4" d="m242.2 222c6.5-0.9 5.1-11-1.4-10.1-6.5 1-5.1 11 1.4 10.1z"/>
			</g>
			<g id="&lt;Group&gt;">
				<path id="&lt;Path&gt;" class="s4" d="m253.8 205.2q0.2-0.7 0.3-1.4c0.4-2.4-1.9-4.5-4.2-4.1-2.3 0.3-4 3-2.9 5.2q0.3 0.6 0.6 1.2c0.6 1.2 2 2.2 3.5 1.9 1.4-0.3 2.5-1.3 2.7-2.8z"/>
			</g>
			<g id="&lt;Group&gt;">
				<path id="&lt;Path&gt;" class="s4" d="m271 211q0.7-0.1 1.5-0.2c1.2-0.2 2.4-0.9 3.1-1.9 0.7-0.9 1.1-2.3 0.9-3.5-0.5-2.6-2.8-4.5-5.4-4.1q-0.7 0.1-1.4 0.2c-1.2 0.2-2.4 0.9-3.2 1.9-0.7 0.9-1.1 2.4-0.9 3.6 0.5 2.5 2.8 4.4 5.4 4z"/>
			</g>
			<g id="&lt;Group&gt;">
				<path id="&lt;Path&gt;" class="s4" d="m285.4 195.1c5.9-0.9 4.6-10.2-1.4-9.3-5.9 0.9-4.6 10.1 1.4 9.3z"/>
			</g>
			<g id="&lt;Group&gt;">
				<path id="&lt;Path&gt;" class="s4" d="m288.5 206.6c4.6-0.7 3.6-7.9-1-7.2-4.7 0.7-3.6 7.9 1 7.2z"/>
			</g>
		</g>
		<g id="&lt;Group&gt;">
			<g id="&lt;Group&gt;">
				<path id="&lt;Path&gt;" class="s5" d="m225.8 213.2c6-0.9 4.6-10.3-1.4-9.4-6 0.9-4.7 10.2 1.4 9.4z"/>
			</g>
			<g id="&lt;Group&gt;">
				<path id="&lt;Path&gt;" class="s5" d="m188.4 219.8c3.9-0.5 3.1-6.7-0.9-6.1-4 0.5-3.1 6.7 0.9 6.1z"/>
			</g>
			<g id="&lt;Group&gt;">
				<path id="&lt;Path&gt;" class="s5" d="m258.4 218.7c5.3-0.8 4.1-8.9-1.2-8.2-5.2 0.8-4.1 8.9 1.2 8.2z"/>
			</g>
			<g id="&lt;Group&gt;">
				<path id="&lt;Path&gt;" class="s5" d="m274.4 199.1c5.4-0.8 4.2-9.1-1.2-8.4-5.4 0.8-4.2 9.2 1.2 8.4z"/>
			</g>
			<g id="&lt;Group&gt;">
				<path id="&lt;Path&gt;" class="s5" d="m147.1 234.9c5.5-0.8 4.3-9.2-1.2-8.4-5.5 0.7-4.2 9.2 1.2 8.4z"/>
			</g>
			<g id="&lt;Group&gt;">
				<path id="&lt;Path&gt;" class="s5" d="m115.1 233.5c5-0.8 3.9-8.6-1.2-7.9-5 0.7-3.9 8.6 1.2 7.9z"/>
			</g>
			<g id="&lt;Group&gt;">
				<path id="&lt;Path&gt;" class="s5" d="m125.1 218c3.8-0.6 3-6.5-0.8-5.9-3.8 0.5-3 6.4 0.8 5.9z"/>
			</g>
			<g id="&lt;Group&gt;">
				<path id="&lt;Path&gt;" class="s5" d="m101.1 211.8c2.6-0.3 2-4.4-0.6-4-2.6 0.3-2 4.4 0.6 4z"/>
			</g>
			<g id="&lt;Group&gt;">
				<path id="&lt;Path&gt;" class="s5" d="m161.8 221.6c4.1-0.6 3.2-6.9-0.9-6.3-4 0.6-3.1 6.8 0.9 6.3z"/>
			</g>
			<g id="&lt;Group&gt;">
				<path id="&lt;Path&gt;" class="s5" d="m294 195c3.8-0.6 3-6.4-0.8-5.9-3.8 0.6-2.9 6.4 0.8 5.9z"/>
			</g>
			<g id="&lt;Group&gt;">
				<path id="&lt;Path&gt;" class="s5" d="m179.2 236.3c3.8-0.6 2.9-6.6-0.9-6-3.9 0.5-3 6.5 0.9 6z"/>
			</g>
			<g id="&lt;Group&gt;">
				<path id="&lt;Path&gt;" class="s5" d="m205.3 231.6c4.4-0.7 3.4-7.7-1.1-7-4.4 0.6-3.4 7.6 1.1 7z"/>
			</g>
		</g>
		<path id="&lt;Path&gt;" class="s6" d="m126.5 213.9c27.7 5.3 76.1 1.4 103.4-6.7 14.3-4.3 29.5-8.1 42.7-15.3 8.9-4.9 19.6-9.9 21.9-14-1.9-3-4.2-5.6-6.9-7.8-12.8-9.2-29.3-9.9-44.5-10.7-18.6-1-36.9-0.1-55.4 2.6-18.4 2.7-36.3 8-53.6 14.4-13.1 4.9-28.3 10.8-35.6 23.6-1.4 2.5 0.8 8.7 28 13.9z"/>
		<path id="&lt;Path&gt;" class="s7" d="m294.2 133.9q0 0 0-0.1-0.1-0.1-0.2-0.2c-8.9-13.4-25.1-17.2-40.4-16.5 7.1-5.9 10.8-16.6 8.1-25.4-3.6-12.4-20.6-14.4-31.4-13.1-5.7 0.7-11 3.5-13.3-4.2-1.2-3.7-2.5-7.3-4.6-10.7-3.4-5.5-8.2-10.2-14-13-11.4-5.4-28.5-3.1-36.3 7.4-0.9 1.2 0.1 2.7 1.5 2.6 2.5-0.3 5-0.9 7.5-1 5-0.2 5.9 3.7 5.3 8.2-0.9 7.2-6.3 13.2-12.2 17-10.5 6.7-22.8 6.8-34.1 11.5-9.4 3.9-18.6 11.3-19.5 22.2-0.5 6.9 2.1 14.3 7.8 18-8.6 2.1-17.2 4.9-23.7 11.4-6.6 6.5-9.9 16.2-9.7 25.4 0.6 22.3 23.6 31.5 42.4 34 24.6 3.3 50.9-0.9 75.3-4.5 24.4-3.5 49.5-8.4 72-18.7 9.7-4.4 16.8-11.3 20.7-21.4 3.6-9.3 4-20.1-1.2-28.9z"/>
		<g id="&lt;Group&gt;">
			<path id="&lt;Path&gt;" class="s8" d="m173.8 54.6c8 0.7 11.1 9.6 11.5 16.7 0.4 7.9-3 15.9-8.5 21.4-10.4 10.5-26.1 13.7-36.9 23.8-18.9 17.8-22.2 48.4-8.2 70.1 6.7 10.3 19.2 20.2 32.3 19 2.6-0.2 2-4.2-0.6-4-6 0.4-13.4-3.1-18.2-6.4-6.2-4.2-11.1-11.4-14-18.3-6-13.8-5.6-31.1 1.3-44.5 3.1-6.2 7.7-11.6 13.1-15.9 6.1-4.9 13.2-7.6 19.7-11.5 11-6.6 20.6-13.5 22.8-27.1 1.5-9.6-2.4-25.3-14.3-24.9-0.9 0.1-0.9 1.5 0 1.6z"/>
		</g>
		<g id="&lt;Group&gt;">
			<path id="&lt;Path&gt;" class="s8" d="m173.8 54.6c8.5 1.4 16.1 6.1 19.8 14 3.5 7.3 5.1 16.6 4.5 24.7-1.2 13.9-11.7 23.7-21.1 32.8-8.9 8.9-14.9 19.1-15.2 32-0.2 11.6 4.1 22.8 12.6 30.8 10 9.3 24.3 13.5 37.6 10.7 2.5-0.6 2-4.5-0.5-4-17.9 3.3-37.2-6.3-43.5-23.8-3-8.6-2.7-18.4 0.6-26.8 3.2-8.4 9.5-14.1 15.7-20.3 10.6-10.4 18.7-22.9 17.4-38.3-0.6-8.3-2.8-18.3-8.4-24.7-4.6-5.5-12.3-8.3-19.3-8.7-1-0.1-1.2 1.5-0.2 1.6z"/>
		</g>
		<g id="&lt;Group&gt;">
			<path id="&lt;Path&gt;" class="s8" d="m174 54.4c8.2-0.6 16.6-0.2 23.6 4.6 5 3.5 8.4 8.7 11.5 13.9 4.9 8.3 7.9 17.3 8.1 27 0.2 10.5-3.5 19.6-7.3 29.1-6.4 15.5-8.2 32.6 1.2 47.4 5.9 9.2 17.2 12.9 27.5 14.2 14.6 1.8 29.9-2.2 38.7-14.7 1.5-2.1-1.6-4.4-3.2-2.4-9.2 12.1-24.4 15-38.7 12.2-5.6-1-11.4-2.9-16.1-6.2-6-4.4-9.1-12.8-10.4-19.9-3.3-19.3 9.6-34.6 11.3-53.2 1.4-14.8-3.6-28.5-12.1-40.5-8.3-11.7-20.4-15.4-34.3-12.6-0.6 0.1-0.5 1.1 0.2 1.1z"/>
		</g>
		<g id="&lt;Group&gt;">
			<path id="&lt;Path&gt;" class="s8" d="m220.8 85c10.2 1.4 28.2 4.7 26.2 18.9-1.2 8.4-7.7 15.5 0.1 22.9 7.2 6.9 18.5 5 26.2 11.3 8.3 6.9 8.3 17.8 4.6 27.1-1.1 2.6 3 4.2 4 1.6 3.4-8.4 4.3-18.2-0.7-26.2-2.3-3.7-5.6-6.6-9.5-8.6-5.8-3.1-12.5-3-18.3-5.9-9.2-4.6-4.9-11.8-2.8-19.1 1.2-4.3 0.7-8.6-1.5-12.5-5.8-10.2-17.7-11.6-28.4-10.8-0.7 0-0.7 1.2 0.1 1.3z"/>
		</g>
		<g id="&lt;Group&gt;">
			<path id="&lt;Path&gt;" class="s8" d="m138.8 97.4c-16.5 4-25.1 21.6-18.1 37.1 1.1 2.4 4.7 0.8 3.7-1.6-5.9-13.8 0.7-28.7 14.9-33.7 1-0.4 0.5-2.1-0.5-1.8z"/>
		</g>
		<g id="&lt;Group&gt;">
			<path id="&lt;Path&gt;" class="s8" d="m116.7 141.8c-11.3 6.5-16.6 19.7-15 32.5 1.8 13.7 11.7 25.5 24 31.4 2.5 1.1 3.9-2.7 1.6-3.9-10.6-5.7-19.2-15.2-21.3-27.4-1.9-11.6 2.8-23.4 11.5-31.2 0.6-0.6 0-1.9-0.8-1.4z"/>
		</g>
		<path id="&lt;Path&gt;" class="s9" d="m262.5 95.9c-3.7 6.2-9.2 11.6-15.3 15.6-3.2 2.2-15.6 8.3-13.9 13.8 1.2 4.1 11.2 2.3 14.2 1.9 11.1-1.3 22.3-3.3 33.4-0.7 4.8 1.1 8.9 3.2 12.3 5.9-9.1-12.4-24.8-16-39.6-15.3 6-5 9.5-13.4 8.9-21.2z"/>
		<path id="&lt;Path&gt;" class="s9" d="m102.7 147.3c4.9-1.9 10.1-3.1 15.3-4 3.4-0.6 11.4-1.6 12.8-5.6 2.3-6.8-10.1-7.4-13.8-9-3.2-1.3-5.3-3.9-6.4-7 0.3 5.9 3 11.7 7.8 14.9-8.6 2.1-17.2 4.9-23.7 11.4-2 1.9-3.6 4.1-5 6.5 3.9-3.1 8.4-5.5 13-7.2z"/>
		<path id="&lt;Path&gt;" class="s9" d="m176.2 86.4c8.6-4.6 9.6-13.5 5.1-22-4.2-8.2-11.4-10-18.9-6.7q-0.2 0.2-0.3 0.4c-0.9 1.2 0.1 2.7 1.5 2.6 2.5-0.3 5-0.9 7.5-1 5-0.2 5.9 3.7 5.3 8.2-0.9 7.2-6.3 13.2-12.2 17-2.3 1.5-4.7 2.6-7.1 3.6 6.5 1.3 13.5 0.8 19.1-2.1z"/>
		<path id="&lt;Path&gt;" class="s9" d="m275 174.1c-27 16.5-59.7 24.5-92.1 25.9-17 0.8-34.6 2.6-51.5-0.1-11.7-1.9-23.1-5.4-33.2-11.6-4.9-3-9-6.4-11.9-11.4q-0.7-1.2-1.3-2.5c1.3 21.6 23.9 30.6 42.4 33 24.6 3.3 50.9-0.9 75.3-4.5 24.4-3.5 49.5-8.4 72-18.7 9.7-4.4 16.8-11.3 20.7-21.4 1.2-3.1 2.1-6.4 2.5-9.7-4.1 8.7-14.2 15.7-22.9 21z"/>
		<g id="&lt;Group&gt;">
			<g id="&lt;Group&gt;">
				<path id="&lt;Path&gt;" class="s10" d="m230.8 171.3c4.2 5.3 10.7 7.5 17.3 6.3 3.1-0.6 5.4-3.4 4.9-6.6-0.4-2.8-3.5-5.6-6.6-4.9-3.7 1-7.7 0.8-11.3-0.6-3.4-1.4-6.6 2.8-4.3 5.8z"/>
			</g>
			<g id="&lt;Group&gt;">
				<path id="&lt;Path&gt;" class="s10" d="m265.4 166.7q0.4-0.3 0.8-0.6c1.4-0.8 2.1-2.9 1.8-4.4-0.3-1.2-0.9-2.3-1.9-3.1-1-0.7-2.3-1-3.5-0.9-1.5 0.3-3.2 1.4-3.7 2.9q-0.1 0.5-0.3 1c-0.3 1-0.4 1.8-0.1 2.8 0.3 0.9 0.8 1.8 1.6 2.3q0.9 0.7 2 0.9c1.2 0.2 2.3-0.3 3.3-0.9z"/>
			</g>
			<g id="&lt;Group&gt;">
				<path id="&lt;Path&gt;" class="s10" d="m249.3 91.6q0.5 1.1 1 2.1c0.4 0.9 1.2 1.7 2.1 2.1 1 0.4 2.2 0.4 3.1-0.1 1.9-0.9 3.1-3.2 2.1-5.2q-0.5-1-1.1-2c-0.4-0.9-1.1-1.7-2.1-2.1-0.9-0.3-2.1-0.4-3 0.1-1.9 0.9-3 3.1-2.1 5.1z"/>
			</g>
			<g id="&lt;Group&gt;">
				<path id="&lt;Path&gt;" class="s10" d="m150.9 102.8q1.1-0.4 2.2-0.8c1.2-0.4 2.1-1.5 2.6-2.7 0.7-1.4 0.4-3.1-0.4-4.4-0.7-1.2-1.7-2-3-2.3-1.6-0.4-3 0-4.4 0.9q-0.9 0.6-1.8 1.2c-0.9 0.7-1.7 2.1-1.8 3.2 0 1 0.2 2 0.7 3 0.5 0.8 1.3 1.6 2.3 1.9 1.2 0.5 2.4 0.4 3.6 0z"/>
			</g>
			<g id="&lt;Group&gt;">
				<path id="&lt;Path&gt;" class="s10" d="m168.4 96.5c6.2-0.9 4.8-10.7-1.5-9.8-6.2 0.9-4.8 10.7 1.5 9.8z"/>
			</g>
			<g id="&lt;Group&gt;">
				<path id="&lt;Path&gt;" class="s10" d="m97.4 176.6c6.8-1 5.3-11.5-1.5-10.5-6.7 1-5.2 11.4 1.5 10.5z"/>
			</g>
			<g id="&lt;Group&gt;">
				<path id="&lt;Path&gt;" class="s10" d="m136.8 161c-0.4 3.6 0.6 6.9 2.5 9.9 1.2 1.9 4.2 1.9 5.8 0.6 1.6-1.2 2.2-4.2 0.7-5.8-1.5-1.4-2.1-2.7-2.3-4.8-0.4-3.8-6.3-3.7-6.7 0.1z"/>
			</g>
			<g id="&lt;Group&gt;">
				<path id="&lt;Path&gt;" class="s10" d="m149.8 179.7q0.4 0.7 0.8 1.4c0.9 1.7 2.9 2.5 4.6 1.5 1.6-1 2.3-3.4 0.9-4.9q-0.5-0.6-1.1-1.1c-1-1.2-2.6-1.6-3.9-0.7-1.3 0.7-2 2.4-1.3 3.8z"/>
			</g>
			<g id="&lt;Group&gt;">
				<path id="&lt;Path&gt;" class="s10" d="m191.3 139.8c1.2-2.5 3.2-4.7 5.4-6.3 3.9-3.1-0.9-9.2-4.9-6.1-3.2 2.5-5.6 5.9-6.9 9.8-1.4 4.2 4.4 6.6 6.4 2.6z"/>
			</g>
			<g id="&lt;Group&gt;">
				<path id="&lt;Path&gt;" class="s10" d="m204.5 121.5c2.5-0.3 2-4.2-0.5-3.9-2.5 0.4-2 4.3 0.5 3.9z"/>
			</g>
			<g id="&lt;Group&gt;">
				<path id="&lt;Path&gt;" class="s10" d="m243.8 137.6c3.5-0.5 2.7-5.9-0.8-5.4-3.5 0.5-2.8 6 0.8 5.4z"/>
			</g>
			<g id="&lt;Group&gt;">
				<path id="&lt;Path&gt;" class="s10" d="m291.5 147.1c4.9-0.7 3.8-8.4-1.1-7.7-5 0.7-3.9 8.4 1.1 7.7z"/>
			</g>
		</g>
	</g>
</svg>