<svg version="1.2" xmlns="http://www.w3.org/2000/svg" viewBox="0 0 384 384" width="384" height="384">
	<title>새 프로젝트</title>
	<style>
		.s0 { fill: #6fa54f } 
		.s1 { fill: #76af53 } 
		.s2 { fill: #f3cf94 } 
		.s3 { fill: #85bc67 } 
		.s4 { fill: #8bc66b } 
		.s5 { fill: #9ad07d } 
		.s6 { fill: #ffffff } 
	</style>
	<g id="&lt;Group&gt;">
		<path id="&lt;Path&gt;" class="s0" d="m291.8 194c-5.4-38.1-11.3-76.2-16.6-114.3q-2-14.2-3.9-28.4c-0.9-6.4-1.9-13.2-5.5-18.7-3.4-5.2-8.9-9.8-13.5-13.9-4-3.6-8.7-7.2-14.2-7.8-4.3-0.4-5.8 1.3-7.9 4.8-1.3 2.1-2.4 4.4-3.8 6.5-0.5 0.8-1.1 2.1-1.9 2.6-1.6 1.1-5.9 0.9-7.8 1.2-9.2 1.2-18.3 2.3-27.4 3.6-18.3 2.5-36.5 5.5-54.7 8.1-11.9 1.7-27.4 3.7-32.8 16.2-2.6 6.1-2 13-1.2 19.4 1.1 7.8 2.3 15.5 3.2 23.3 3.9 33.1 5.9 66.4 8.2 99.6 1.2 16.5 2.4 32.9 3.9 49.3q1.2 12.1 2.6 24.1c0.6 4.6 0.9 9.4 2.1 13.9 2.5 9.4 11.7 15.3 19.6 19.9 6.8 4 13.7 7.8 21.7 7.7 11-0.1 22.3-2.4 33.2-3.9 13-1.7 26-3.7 39-5.6 12.3-1.8 24.9-3.2 37.2-5.5 9.5-1.8 22.6-4.6 26.7-14.7 4.5-10.9 2.4-24.7 0.9-36-2.2-17.2-4.6-34.3-7.1-51.4z"/>
		<path id="&lt;Path&gt;" class="s1" d="m268.1 255.2c-5-5.5-10.1-11-17.3-13.6-6.6-2.3-14-2.3-20.8-1.9-19.8 1.4-39.7 6.2-59.1 10.2-14.8 3-29.4 6.2-44 9.9-3 0.7-6.1 1.5-9.2 2.2q0.4 3.8 0.8 7.6c0.6 4.6 0.9 9.4 2.1 13.9 2.5 9.4 11.7 15.3 19.6 19.9 6.8 4 13.7 7.8 21.7 7.7 11-0.1 22.3-2.4 33.2-3.9 13-1.7 26-3.7 39-5.6 12.3-1.8 24.9-3.2 37.2-5.5 7-1.4 15.9-3.2 21.8-8.1-6.7-12-16-22.8-25-32.8z"/>
		<g id="&lt;Group&gt;">
			<path id="&lt;Path&gt;" class="s2" d="m219.8 296l-28.2 4c-0.2 0-0.3 0.2-0.2 0.3 0.4 3.3 4.6 35.2 7.3 51.4 0.8 5.4 0.9 13.5 4 18.5 5.6 10.6 23.4 8.1 25.9-3.6 1.4-4.9-0.3-11.2-0.9-16q-1.6-12.9-3.5-25.7c-1.3-9-3.7-26.3-4-28.7-0.1-0.1-0.2-0.2-0.4-0.2z"/>
		</g>
		<g id="&lt;Group&gt;" style="opacity: .5;mix-blend-mode: multiply">
			<path id="&lt;Path&gt;" class="s2" d="m221.5 316.5q1 1.4 1.9 3c-1.3-9.2-3-21.3-3.2-23.3-0.1-0.1-0.2-0.2-0.4-0.2l-28.2 4c-0.2 0-0.3 0.2-0.2 0.3 0.1 0.9 0.5 4 1.1 8.4 10.7-2.8 22.4-1.8 29 7.8z"/>
		</g>
		<path id="&lt;Path&gt;" class="s3" d="m273.3 166.6c-5-34.4-10.2-68.8-15-103.2q-1.9-13.2-3.6-26.4c-1.6-11.4-4.7-23.4-17-27.2-12.5-3.7-27.1 0.5-39.6 2.2-16.6 2.2-33.3 4.3-49.9 6.9-8.4 1.3-16.9 2.6-25.3 3.8-6.9 1-13.8 1.7-20.5 3.7-11.5 3.4-19 11.1-19.1 23.5 0 6.9 1.4 13.8 2.5 20.6q1.9 13.1 3.8 26.3c5 34.4 9.6 68.9 14.4 103.3 2.3 16.3 4.8 32.6 7.2 48.9 1.7 11.3 3.2 23.1 7.8 33.6 4.1 9.1 10.3 13.4 20.2 14.1 11.2 0.8 22.5-1.5 33.5-3 22.4-3.2 44.7-6.5 67.1-9.6 11.1-1.6 23.3-2.6 33.2-8.1 8.7-4.8 10.5-13.6 10.8-22.9 0.3-11.7-1.7-23.3-3.2-34.9-2.3-17.2-4.8-34.4-7.3-51.6z"/>
		<g id="&lt;Group&gt;">
			<g id="&lt;Group&gt;">
				<g id="&lt;Group&gt;">
					<path id="&lt;Path&gt;" class="s1" d="m164.9 27.6c3.1 31.2 8.1 62.3 12.4 93.4 5.3 38.8 10.7 77.6 16.4 116.4 2 13.7 4 27.5 6.3 41.1 0.3 1.8 3.1 1.4 2.8-0.4-11.1-69-19.8-138.4-30-207.6-2.1-14.3-3.9-28.8-6.6-43-0.2-0.8-1.3-0.6-1.3 0.1z"/>
				</g>
				<g id="&lt;Group&gt;">
					<g id="&lt;Group&gt;">
						<path id="&lt;Path&gt;" class="s1" d="m98.9 99.8c12.7-0.3 25.2-2.5 37.8-4.3q18.8-2.6 37.6-5.4c25.1-3.7 50.2-7.4 75.3-11.2 1.9-0.2 1.5-3.3-0.5-3-25.1 3.6-50.2 7.2-75.3 10.8q-18.8 2.8-37.6 5.6c-12.5 1.9-25.2 3.4-37.4 6.8-0.5 0.1-0.4 0.7 0.1 0.7z"/>
					</g>
					<g id="&lt;Group&gt;">
						<path id="&lt;Path&gt;" class="s1" d="m258.5 141.5c-25.9 2.1-51.9 6.1-77.6 9.6q-36.6 5.1-73.2 10.6c-2.3 0.3-1.8 4 0.5 3.6 24.4-3.7 48.8-7.2 73.2-10.7 25.7-3.7 51.7-6.8 77.4-11.4 1.1-0.2 0.9-1.8-0.3-1.7z"/>
					</g>
					<g id="&lt;Group&gt;">
						<path id="&lt;Path&gt;" class="s1" d="m117.1 228.1c12.2 0.2 24.6-1.9 36.7-3.4q19.7-2.4 39.5-5.2c24.9-3.6 49.8-7.4 74.8-11.2 2.2-0.3 1.7-3.8-0.5-3.5-24.7 3.5-49.3 7.2-73.9 10.9-12.9 1.9-25.7 3.9-38.5 5.7-12.7 1.8-25.7 2.9-38.1 6-0.4 0-0.4 0.6 0 0.7z"/>
					</g>
				</g>
			</g>
			<g id="&lt;Group&gt;">
				<g id="&lt;Group&gt;">
					<path id="&lt;Path&gt;" class="s4" d="m93.5 40c0.2 2.6 3 4.9 5 6.5 2.5 1.9 5.2 3.6 7.9 5.2 5.5 3.4 10.1-4.6 4.4-7.7-2.8-1.5-5.6-3.1-8.4-4.4-2.4-1.1-5.3-2.4-7.9-1.6-0.7 0.3-1.1 1.2-1 2z"/>
				</g>
				<g id="&lt;Group&gt;">
					<path id="&lt;Path&gt;" class="s4" d="m153.5 29.7c-4.6 3-8.8 6.4-12.3 10.7-3.6 4.4 3.8 10 7 5.3 3.1-4.4 6.7-8.5 8.3-13.8 0.7-1.9-1.3-3.3-3-2.2z"/>
				</g>
				<g id="&lt;Group&gt;">
					<path id="&lt;Path&gt;" class="s4" d="m102.8 96c2.7 0 5.1-2 7.1-3.7 2.4-2.1 4.6-4.4 6.8-6.6 4.6-4.5-2-11-6.3-6.2-2.2 2.3-4.3 4.7-6.2 7.3-1.4 2.1-3.4 5-3 7.6 0.2 0.8 0.8 1.6 1.6 1.6z"/>
				</g>
				<g id="&lt;Group&gt;">
					<path id="&lt;Path&gt;" class="s4" d="m164.1 84.5c-3.1-4.6-7.7-7.5-11.9-10.9-4.4-3.6-10 3.8-5.3 7 4.6 3.2 9.6 5.2 14.9 6.9 1.9 0.6 3.4-1.4 2.3-3z"/>
				</g>
			</g>
			<g id="&lt;Group&gt;">
				<g id="&lt;Group&gt;">
					<path id="&lt;Path&gt;" class="s4" d="m174.8 28.3c0.3 2.7 3 4.9 5 6.5 2.5 2 5.2 3.7 8 5.3 5.4 3.4 10-4.6 4.3-7.7-2.8-1.5-5.5-3.1-8.4-4.4-2.4-1.1-5.2-2.4-7.8-1.6-0.8 0.2-1.2 1.2-1.1 1.9z"/>
				</g>
				<g id="&lt;Group&gt;">
					<path id="&lt;Path&gt;" class="s4" d="m234.9 18.1c-4.6 3-8.8 6.4-12.4 10.7-3.6 4.4 3.9 10 7.1 5.3 3.1-4.4 6.6-8.5 8.3-13.8 0.6-1.9-1.4-3.4-3-2.2z"/>
				</g>
				<g id="&lt;Group&gt;">
					<path id="&lt;Path&gt;" class="s4" d="m184.2 84.4c2.7 0 5.1-2 7-3.7 2.4-2.1 4.6-4.4 6.9-6.6 4.5-4.5-2-11-6.4-6.2-2.1 2.3-4.3 4.7-6.1 7.3-1.5 2.1-3.5 5-3 7.6 0.1 0.7 0.8 1.6 1.6 1.6z"/>
				</g>
				<g id="&lt;Group&gt;">
					<path id="&lt;Path&gt;" class="s4" d="m245.4 72.8c-3.1-4.5-7.6-7.4-11.8-10.9-4.5-3.6-10 3.9-5.3 7.1 4.6 3.1 9.6 5.2 14.8 6.9 1.9 0.6 3.4-1.4 2.3-3.1z"/>
				</g>
			</g>
			<g id="&lt;Group&gt;">
				<g id="&lt;Group&gt;">
					<path id="&lt;Path&gt;" class="s4" d="m102.5 103c0.2 2.7 3 4.9 5 6.5 2.5 2 5.2 3.6 7.9 5.3 5.5 3.3 10.1-4.7 4.4-7.7-2.8-1.5-5.6-3.1-8.4-4.5-2.4-1.1-5.3-2.4-7.8-1.6-0.8 0.3-1.2 1.3-1.1 2z"/>
				</g>
				<g id="&lt;Group&gt;">
					<path id="&lt;Path&gt;" class="s4" d="m162.5 92.7c-4.6 3.1-8.8 6.5-12.3 10.8-3.6 4.4 3.8 10 7 5.3 3.1-4.5 6.7-8.6 8.4-13.8 0.6-1.9-1.4-3.4-3.1-2.3z"/>
				</g>
				<g id="&lt;Group&gt;">
					<path id="&lt;Path&gt;" class="s4" d="m111.8 159c2.7 0.1 5.1-1.9 7.1-3.7 2.4-2.1 4.6-4.4 6.8-6.6 4.6-4.5-2-11-6.3-6.2-2.2 2.4-4.3 4.7-6.2 7.3-1.4 2.1-3.4 5-2.9 7.7 0.1 0.7 0.7 1.5 1.5 1.5z"/>
				</g>
				<g id="&lt;Group&gt;">
					<path id="&lt;Path&gt;" class="s4" d="m173.1 147.5c-3.1-4.6-7.7-7.5-11.9-10.9-4.4-3.6-10 3.8-5.3 7.1 4.6 3.1 9.6 5.2 14.9 6.8 1.9 0.6 3.4-1.3 2.3-3z"/>
				</g>
			</g>
			<g id="&lt;Group&gt;">
				<g id="&lt;Group&gt;">
					<path id="&lt;Path&gt;" class="s4" d="m183.8 91.4c0.3 2.7 3 4.9 5 6.5 2.5 1.9 5.3 3.6 8 5.3 5.4 3.3 10.1-4.7 4.3-7.8-2.8-1.4-5.5-3.1-8.4-4.4-2.3-1.1-5.2-2.4-7.8-1.6-0.8 0.3-1.2 1.2-1.1 2z"/>
				</g>
				<g id="&lt;Group&gt;">
					<path id="&lt;Path&gt;" class="s4" d="m243.9 81.1c-4.6 3-8.8 6.4-12.4 10.7-3.6 4.4 3.9 10 7.1 5.3 3.1-4.4 6.6-8.5 8.3-13.7 0.6-2-1.4-3.4-3-2.3z"/>
				</g>
				<g id="&lt;Group&gt;">
					<path id="&lt;Path&gt;" class="s4" d="m193.2 147.4c2.7 0.1 5.1-2 7-3.7 2.4-2.1 4.6-4.4 6.9-6.6 4.5-4.5-2-11-6.4-6.2-2.1 2.4-4.3 4.7-6.1 7.3-1.5 2.1-3.5 5-3 7.6 0.1 0.8 0.8 1.6 1.6 1.6z"/>
				</g>
				<g id="&lt;Group&gt;">
					<path id="&lt;Path&gt;" class="s4" d="m254.4 135.9c-3.1-4.6-7.6-7.5-11.8-10.9-4.4-3.6-10 3.8-5.3 7 4.6 3.2 9.6 5.3 14.8 6.9 1.9 0.6 3.4-1.4 2.3-3z"/>
				</g>
			</g>
			<g id="&lt;Group&gt;">
				<g id="&lt;Group&gt;">
					<path id="&lt;Path&gt;" class="s4" d="m111.6 167.1c0.3 2.6 3 4.9 5 6.4 2.5 2 5.3 3.7 8 5.3 5.4 3.4 10.1-4.6 4.3-7.7-2.8-1.5-5.5-3.1-8.4-4.4-2.3-1.1-5.2-2.4-7.8-1.6-0.8 0.3-1.2 1.2-1.1 2z"/>
				</g>
				<g id="&lt;Group&gt;">
					<path id="&lt;Path&gt;" class="s4" d="m171.7 156.8c-4.6 3-8.8 6.4-12.4 10.7-3.6 4.4 3.9 10 7.1 5.3 3.1-4.4 6.6-8.5 8.3-13.8 0.6-1.9-1.4-3.3-3-2.2z"/>
				</g>
				<g id="&lt;Group&gt;">
					<path id="&lt;Path&gt;" class="s4" d="m121 223.1c2.7 0 5.1-2 7-3.7 2.4-2.1 4.6-4.4 6.9-6.6 4.5-4.5-2-11-6.4-6.2-2.1 2.3-4.3 4.7-6.1 7.3-1.5 2.1-3.5 5-3 7.6 0.1 0.8 0.8 1.6 1.6 1.6z"/>
				</g>
				<g id="&lt;Group&gt;">
					<path id="&lt;Path&gt;" class="s4" d="m182.2 211.6c-3.1-4.6-7.6-7.5-11.8-11-4.4-3.5-10 3.9-5.3 7.1 4.6 3.2 9.6 5.2 14.8 6.9 1.9 0.6 3.4-1.4 2.3-3z"/>
				</g>
			</g>
			<g id="&lt;Group&gt;">
				<g id="&lt;Group&gt;">
					<path id="&lt;Path&gt;" class="s4" d="m193 155.4c0.2 2.7 3 4.9 5 6.5 2.5 2 5.2 3.7 7.9 5.3 5.5 3.4 10.1-4.6 4.4-7.7-2.8-1.5-5.6-3.1-8.4-4.4-2.4-1.1-5.3-2.4-7.8-1.6-0.8 0.2-1.2 1.2-1.1 1.9z"/>
				</g>
				<g id="&lt;Group&gt;">
					<path id="&lt;Path&gt;" class="s4" d="m253 145.1c-4.6 3.1-8.8 6.5-12.3 10.8-3.6 4.4 3.8 10 7.1 5.3 3-4.4 6.6-8.5 8.3-13.8 0.6-1.9-1.4-3.4-3.1-2.3z"/>
				</g>
				<g id="&lt;Group&gt;">
					<path id="&lt;Path&gt;" class="s4" d="m202.3 211.5c2.7 0 5.1-2 7.1-3.7 2.4-2.1 4.6-4.4 6.8-6.7 4.6-4.4-2-11-6.3-6.1-2.2 2.3-4.3 4.7-6.2 7.3-1.4 2-3.4 5-2.9 7.6 0.1 0.7 0.7 1.6 1.5 1.6z"/>
				</g>
				<g id="&lt;Group&gt;">
					<path id="&lt;Path&gt;" class="s4" d="m263.6 199.9c-3.1-4.5-7.7-7.5-11.9-10.9-4.4-3.6-10 3.9-5.3 7.1 4.6 3.1 9.6 5.2 14.9 6.9 1.9 0.6 3.4-1.4 2.3-3.1z"/>
				</g>
			</g>
			<g id="&lt;Group&gt;">
				<g id="&lt;Group&gt;">
					<path id="&lt;Path&gt;" class="s4" d="m120.9 232.1c0.3 2.7 3 4.9 5 6.5 2.5 2 5.3 3.7 8 5.3 5.4 3.4 10.1-4.6 4.3-7.7-2.8-1.5-5.5-3.1-8.4-4.4-2.3-1.1-5.2-2.4-7.8-1.6-0.8 0.2-1.2 1.2-1.1 1.9z"/>
				</g>
				<g id="&lt;Group&gt;">
					<path id="&lt;Path&gt;" class="s4" d="m181 221.9c-4.6 3-8.8 6.4-12.4 10.7-3.6 4.4 3.9 10 7.1 5.3 3.1-4.4 6.6-8.5 8.3-13.8 0.6-1.9-1.4-3.4-3-2.2z"/>
				</g>
				<g id="&lt;Group&gt;">
					<path id="&lt;Path&gt;" class="s4" d="m130.3 288.2c2.7 0 5.1-2 7-3.7 2.4-2.1 4.6-4.4 6.9-6.6 4.5-4.5-2-11-6.4-6.2-2.1 2.3-4.3 4.7-6.1 7.3-1.5 2.1-3.5 5-3 7.6 0.1 0.7 0.8 1.6 1.6 1.6z"/>
				</g>
				<g id="&lt;Group&gt;">
					<path id="&lt;Path&gt;" class="s4" d="m191.5 276.6c-3.1-4.5-7.6-7.5-11.8-10.9-4.5-3.6-10 3.9-5.3 7.1 4.6 3.1 9.6 5.2 14.8 6.9 1.9 0.6 3.4-1.4 2.3-3.1z"/>
				</g>
			</g>
			<g id="&lt;Group&gt;">
				<g id="&lt;Group&gt;">
					<path id="&lt;Path&gt;" class="s4" d="m202.3 220.5c0.2 2.7 3 4.9 5 6.5 2.5 2 5.2 3.6 7.9 5.3 5.5 3.4 10.1-4.6 4.4-7.7-2.8-1.5-5.6-3.1-8.4-4.5-2.4-1.1-5.3-2.3-7.8-1.5-0.8 0.2-1.2 1.2-1.1 1.9z"/>
				</g>
				<g id="&lt;Group&gt;">
					<path id="&lt;Path&gt;" class="s4" d="m262.3 210.2c-4.6 3.1-8.8 6.5-12.3 10.8-3.6 4.4 3.8 10 7 5.3 3.1-4.5 6.7-8.6 8.4-13.8 0.6-1.9-1.4-3.4-3.1-2.3z"/>
				</g>
				<g id="&lt;Group&gt;">
					<path id="&lt;Path&gt;" class="s4" d="m211.6 276.6c2.7 0 5.1-2 7.1-3.7 2.4-2.1 4.6-4.5 6.8-6.7 4.6-4.5-2-11-6.3-6.1-2.2 2.3-4.3 4.7-6.2 7.3-1.4 2-3.4 4.9-2.9 7.6 0.1 0.7 0.7 1.5 1.5 1.6z"/>
				</g>
				<g id="&lt;Group&gt;">
					<path id="&lt;Path&gt;" class="s4" d="m272.9 265c-3.1-4.5-7.7-7.5-11.9-10.9-4.4-3.6-10 3.9-5.3 7.1 4.6 3.1 9.6 5.2 14.9 6.9 1.9 0.5 3.4-1.4 2.3-3.1z"/>
				</g>
			</g>
			<path id="&lt;Path&gt;" class="s5" d="m153.4 63c-0.4-2.5-0.8-4.9-1.2-7.4q-0.4-2.8-0.7-5.6c-0.5-3.2-1.3-6.5-4.7-7.5-3.4-1-7.4 0.1-10.8 0.6-4.6 0.6-9.2 1.2-13.7 1.9q-3.5 0.5-7 1c-1.9 0.3-3.8 0.5-5.6 1-3.2 1-5.2 3.1-5.2 6.5-0.1 3.3 0.8 6.8 1.3 10.1 0.3 2.3 0.6 4.6 0.9 6.9 0.4 3 0.9 6.1 1.3 9.1 0.5 3.1 0.9 6.3 2.2 9.2 1.1 2.5 2.8 3.7 5.5 3.9 3.1 0.2 6.2-0.4 9.2-0.9q9.2-1.3 18.4-2.6c3.1-0.4 6.4-0.7 9.1-2.2 2.4-1.3 2.9-3.7 3-6.3 0.1-3.2-0.5-6.4-0.9-9.5q-0.5-4.1-1.1-8.2z"/>
			<path id="&lt;Path&gt;" class="s5" d="m162.8 123.3c0.4 2.5 0.7 5 1 7.4q0.4 2.8 0.9 5.7c0.4 3.1 0.6 6.5-2.4 8.4-3 2-7.2 2-10.6 2.5-4.6 0.7-9.1 1.4-13.7 2q-3.5 0.5-6.9 1c-1.9 0.2-3.8 0.6-5.7 0.6-3.3 0-5.9-1.5-6.9-4.8-0.9-3.2-1-6.7-1.5-10-0.3-2.3-0.7-4.6-1.1-6.9-0.4-3.1-0.8-6.1-1.2-9.1-0.5-3.1-1-6.3-0.5-9.5 0.3-2.7 1.6-4.3 4.2-5.2 2.9-1.1 6-1.4 9-1.8q9.2-1.3 18.5-2.6c3-0.5 6.3-1.1 9.3-0.5 2.7 0.6 3.8 2.8 4.6 5.3 1 3 1.4 6.2 1.9 9.3q0.6 4.1 1.1 8.2z"/>
			<path id="&lt;Path&gt;" class="s5" d="m171.7 185.1c-0.4-2.4-0.8-4.9-1.2-7.4q-0.3-2.8-0.7-5.6c-0.5-3.2-1.3-6.5-4.7-7.5-3.4-1-7.4 0.1-10.8 0.6-4.6 0.6-9.2 1.2-13.7 1.9q-3.5 0.5-7 1.1c-1.9 0.2-3.8 0.4-5.6 1-3.2 0.9-5.2 3-5.2 6.4-0.1 3.3 0.8 6.8 1.3 10.1 0.3 2.3 0.6 4.6 0.9 7 0.4 3 0.9 6 1.3 9 0.5 3.1 0.9 6.3 2.2 9.2 1.1 2.5 2.8 3.7 5.5 3.9 3.1 0.2 6.2-0.4 9.2-0.8q9.2-1.4 18.4-2.7c3.1-0.4 6.4-0.7 9.1-2.2 2.4-1.3 2.9-3.7 3-6.3 0.1-3.2-0.5-6.4-0.9-9.5q-0.5-4.1-1.1-8.2z"/>
			<path id="&lt;Path&gt;" class="s5" d="m181.2 251.4c0.3 2.5 0.6 5 0.9 7.5q0.4 2.8 0.9 5.6c0.4 3.1 0.6 6.5-2.4 8.5-3 1.9-7.2 1.9-10.6 2.4-4.5 0.7-9.1 1.5-13.7 2.1q-3.5 0.4-6.9 0.9c-1.9 0.3-3.8 0.6-5.7 0.6-3.3 0-5.9-1.5-6.8-4.7-1-3.2-1.1-6.8-1.6-10.1-0.3-2.3-0.7-4.6-1.1-6.9-0.4-3-0.8-6.1-1.2-9.1-0.4-3.1-1-6.3-0.5-9.4 0.3-2.8 1.6-4.3 4.2-5.3 2.9-1.1 6-1.3 9-1.8q9.3-1.3 18.5-2.6c3-0.5 6.3-1.1 9.3-0.4 2.7 0.6 3.8 2.7 4.6 5.2 1 3 1.4 6.2 1.9 9.4q0.6 4 1.2 8.1z"/>
			<path id="&lt;Path&gt;" class="s5" d="m233.7 47.8c0.3 2.5 0.6 5 1 7.4q0.4 2.9 0.8 5.7c0.5 3.1 0.6 6.5-2.4 8.4-3 2-7.1 2-10.6 2.5-4.5 0.7-9.1 1.4-13.6 2q-3.5 0.5-7 1c-1.9 0.2-3.8 0.6-5.7 0.6-3.3 0-5.8-1.5-6.8-4.7-1-3.3-1.1-6.8-1.6-10.1-0.3-2.3-0.7-4.6-1-6.9-0.5-3.1-0.9-6.1-1.3-9.1-0.4-3.1-0.9-6.3-0.5-9.5 0.4-2.7 1.7-4.3 4.2-5.2 2.9-1.1 6.1-1.4 9.1-1.8q9.2-1.3 18.4-2.6c3-0.5 6.3-1.1 9.4-0.4 2.6 0.6 3.8 2.7 4.6 5.2 0.9 3 1.3 6.2 1.8 9.4q0.6 4 1.2 8.1z"/>
			<path id="&lt;Path&gt;" class="s5" d="m242.5 109.6c-0.3-2.4-0.8-4.9-1.1-7.4q-0.4-2.8-0.8-5.6c-0.4-3.2-1.3-6.5-4.6-7.5-3.5-1-7.5 0.1-10.9 0.6-4.6 0.6-9.1 1.2-13.7 1.9q-3.5 0.6-6.9 1.1c-1.9 0.2-3.8 0.4-5.7 1-3.1 0.9-5.2 3-5.2 6.4 0 3.4 0.9 6.8 1.3 10.1 0.4 2.3 0.6 4.6 0.9 7 0.5 3 0.9 6 1.4 9 0.4 3.1 0.9 6.3 2.1 9.2 1.1 2.5 2.8 3.7 5.6 3.9 3 0.2 6.1-0.4 9.1-0.8q9.3-1.4 18.5-2.7c3-0.4 6.4-0.7 9.1-2.2 2.4-1.3 2.9-3.7 2.9-6.3 0.1-3.2-0.4-6.3-0.8-9.5q-0.6-4.1-1.2-8.2z"/>
			<path id="&lt;Path&gt;" class="s5" d="m252 175.9c0.3 2.5 0.6 5 1 7.5q0.4 2.8 0.8 5.6c0.5 3.1 0.6 6.5-2.4 8.5-3 1.9-7.1 1.9-10.5 2.4-4.6 0.7-9.1 1.5-13.7 2.1q-3.5 0.4-7 0.9c-1.9 0.3-3.8 0.6-5.7 0.6-3.2 0-5.8-1.5-6.8-4.7-1-3.2-1.1-6.8-1.6-10.1-0.3-2.3-0.7-4.6-1-6.9-0.5-3-0.9-6.1-1.3-9.1-0.4-3.1-0.9-6.3-0.5-9.4 0.4-2.8 1.7-4.3 4.2-5.3 2.9-1.1 6.1-1.3 9.1-1.8q9.2-1.3 18.4-2.6c3-0.4 6.3-1.1 9.4-0.4 2.6 0.6 3.8 2.7 4.6 5.2 1 3 1.3 6.2 1.8 9.4q0.6 4.1 1.2 8.1z"/>
			<path id="&lt;Path&gt;" class="s5" d="m260.8 237.8c-0.3-2.5-0.8-5-1.1-7.4q-0.4-2.9-0.8-5.7c-0.4-3.1-1.3-6.4-4.6-7.5-3.5-1-7.5 0.2-10.9 0.6-4.6 0.6-9.1 1.2-13.7 1.9q-3.5 0.6-6.9 1.1c-1.9 0.3-3.8 0.5-5.6 1-3.2 0.9-5.3 3-5.3 6.4 0 3.4 0.9 6.8 1.3 10.1 0.4 2.4 0.6 4.7 0.9 7 0.5 3 0.9 6 1.4 9 0.4 3.1 0.9 6.4 2.1 9.3 1.1 2.5 2.9 3.6 5.6 3.8 3 0.3 6.1-0.4 9.2-0.8q9.2-1.3 18.4-2.6c3-0.5 6.4-0.7 9.1-2.3 2.4-1.3 2.9-3.7 2.9-6.2 0.1-3.2-0.4-6.4-0.8-9.6q-0.6-4.1-1.2-8.1z"/>
			<g id="&lt;Group&gt;">
				<path id="&lt;Path&gt;" class="s6" d="m115.4 55.3q0.3-0.7 0.6-1.4 0.2-0.4 0.3-0.8 0.1-0.1 0.2-0.3-0.1 0.3 0 0 1-1.5 2.1-2.7c1.8-1.9 0.7-5.2-1.3-6.3-2.4-1.3-4.9-0.2-6.1 2.1-1.2 2.4-2 5.1-2.1 7.8-0.1 1.6 0.8 3.1 2.4 3.6 1.6 0.3 3.4-0.4 3.9-2z"/>
			</g>
			<g id="&lt;Group&gt;">
				<path id="&lt;Path&gt;" class="s6" d="m127.1 47.4c4-0.6 3.1-6.8-0.9-6.2-4 0.5-3.1 6.8 0.9 6.2z"/>
			</g>
			<g id="&lt;Group&gt;">
				<path id="&lt;Path&gt;" class="s6" d="m196.6 38.5c-0.1 0.1-0.3 0.3 0 0.1 0.2-0.2-0.6 0.4-0.2 0.1 0.4-0.2-0.3 0.1-0.3 0.1 0-0.1 0.4 0 0.4 0q-0.3 0-0.7 0c0.2 0 0.6 0.1-0.3-0.1 1.1 0.3 2.2 0.3 3.1-0.5 0.8-0.6 1.1-1.5 1.1-2.4 0-2.2-2.2-3.7-4.2-2.8-1.6 0.7-2.8 2.1-2.9 3.9 0 0.9 0.4 2 1.4 2.3 1 0.4 1.9 0.1 2.6-0.7z"/>
			</g>
			<g id="&lt;Group&gt;">
				<path id="&lt;Path&gt;" class="s6" d="m207.6 36.3c0.6-0.1 1.1 0 1.7 0 0.2 0.1 1 0.2 0.7 0.2-0.4-0.1 1.2 0.2 1.5 0.3 2.1 0.2 4-1.4 4-3.7 0-2.2-1.9-3.7-4.1-3.5-2 0.1-4 1.5-5.5 2.8-1.6 1.5-0.5 4.1 1.7 3.9z"/>
			</g>
			<g id="&lt;Group&gt;">
				<path id="&lt;Path&gt;" class="s6" d="m123.3 120.3c0.6-3 3.2-3.9 5-6.1 2.8-3.2-1.4-8.7-5.3-6.7-4.5 2.4-5.8 8.2-4.8 12.9 0.6 2.9 4.5 2.8 5.1-0.1z"/>
			</g>
			<g id="&lt;Group&gt;">
				<path id="&lt;Path&gt;" class="s6" d="m135.9 113c3.7-0.6 2.9-6.3-0.8-5.8-3.7 0.6-2.9 6.3 0.8 5.8z"/>
			</g>
			<g id="&lt;Group&gt;">
				<path id="&lt;Path&gt;" class="s6" d="m205.9 106.6c-0.2 0.4 0.2-0.2 0.2-0.3q0.1-0.1 0.3-0.3c0.4-0.6-0.4 0.3 0.1-0.2q0.3-0.2 0.5-0.4c0 0 0.5-0.3 0.5-0.3 0 0-0.7 0.3 0 0 0.6-0.3 1.2-0.6 1.7-1 1.5-0.9 1.6-3.1 0.8-4.4-0.9-1.6-2.6-2-4.3-1.4-2.7 0.9-4.4 4.2-4.8 6.9-0.2 1.3 0.7 2.6 1.9 2.9 1.4 0.4 2.5-0.3 3.1-1.5z"/>
			</g>
			<g id="&lt;Group&gt;">
				<path id="&lt;Path&gt;" class="s6" d="m213 168.7c3.1 0.1 5.8-0.3 8.8-1.1 2.1-0.5 3.7-2.4 3-4.7-0.6-2.2-3-3.3-5.1-2.5-2.8 1.2-5.4 2.5-7.8 4.3-1.5 1.1-0.9 4 1.1 4z"/>
			</g>
			<g id="&lt;Group&gt;">
				<path id="&lt;Path&gt;" class="s6" d="m229.7 164.4q0.3 0.3-0.1-0.4 0.2 0.6 0.7 1c0.5 0.5 1.1 0.7 1.8 0.8 1 0.3 2.3-0.3 2.9-1.1 0.4-0.7 0.7-1.5 0.5-2.3-0.1-0.8-0.5-1.5-1.2-2-0.8-0.6-2.1-0.9-3-0.4-0.7 0.4-1.2 0.7-1.5 1.4q-0.4 0.5-0.4 1.1 0.2-0.7 0-0.4c-0.3 0.7-0.2 1.8 0.3 2.3z"/>
			</g>
			<g id="&lt;Group&gt;">
				<path id="&lt;Path&gt;" class="s6" d="m133.9 181.1c2.2-1.3 4.6-2 7-3.1 1.6-0.7 2.3-2.6 1.6-4.2-0.7-1.7-2.5-2.1-4.2-1.6-2.6 0.8-5.1 2.5-7.3 4.2-2.4 1.8 0.1 6.2 2.9 4.7z"/>
			</g>
			<g id="&lt;Group&gt;">
				<path id="&lt;Path&gt;" class="s6" d="m143.5 245.4c1.6-1.8 3.9-2.1 6-2.8 2.7-0.9 2-5.3-0.8-5.5-3.8-0.3-7.2 2.2-9.1 5.4-1.6 2.7 1.8 5.2 3.9 2.9z"/>
			</g>
			<g id="&lt;Group&gt;">
				<path id="&lt;Path&gt;" class="s6" d="m158 239.5q0.4 0.1 0.9 0.3c0.9 0.3 1.9 0.2 2.7-0.4 0.8-0.6 1.2-1.6 1.1-2.6-0.2-1-0.8-1.8-1.7-2.2-1-0.4-2-0.2-2.8 0.4q-0.4 0.2-0.8 0.5c-1.4 0.9-1 3.5 0.6 4z"/>
			</g>
			<g id="&lt;Group&gt;">
				<path id="&lt;Path&gt;" class="s6" d="m223.1 230.9c2.7-1.1 5.5-1.9 8.4-2.3 4.5-0.7 2.8-7.5-1.7-6.1-3.3 1-6.2 2.6-8.8 4.8-1.9 1.5-0.1 4.5 2.1 3.6z"/>
			</g>
			<g id="&lt;Group&gt;">
				<path id="&lt;Path&gt;" class="s6" d="m239.2 227.5c3.3-0.5 2.6-5.7-0.8-5.2-3.4 0.4-2.6 5.7 0.8 5.2z"/>
			</g>
			<g id="&lt;Group&gt;">
				<path id="&lt;Path&gt;" class="s6" d="m216 101.5c3-0.4 2.3-5.1-0.7-4.6-3 0.4-2.3 5 0.7 4.6z"/>
			</g>
			<g id="&lt;Group&gt;">
				<path id="&lt;Path&gt;" class="s6" d="m164.6 207q0.3-0.2 0.5-0.5c0.7-0.7 0.4-2-0.3-2.5-0.8-0.5-2-0.5-2.5 0.4q-0.2 0.3-0.4 0.6c-0.5 0.8-0.5 1.8 0.3 2.4 0.9 0.5 1.8 0.3 2.4-0.4z"/>
			</g>
			<g id="&lt;Group&gt;">
				<path id="&lt;Path&gt;" class="s6" d="m248.4 194.1c2.3-0.3 1.8-3.9-0.5-3.5-2.2 0.3-1.7 3.8 0.5 3.5z"/>
			</g>
			<g id="&lt;Group&gt;">
				<path id="&lt;Path&gt;" class="s6" d="m172.7 271.8c3.9-0.6 3-6.7-0.9-6.1-3.9 0.5-3.1 6.6 0.9 6.1z"/>
			</g>
			<g id="&lt;Group&gt;">
				<path id="&lt;Path&gt;" class="s6" d="m255.5 257.9q-0.1-0.3-0.1-0.5c-0.2-1.4-1.6-2.5-2.9-2.2-1.4 0.2-2.4 1.5-2.2 2.9q0 0.2 0.1 0.5c0.2 1.3 1.5 2.4 2.9 2.2 1.3-0.3 2.4-1.5 2.2-2.9z"/>
			</g>
			<g id="&lt;Group&gt;">
				<path id="&lt;Path&gt;" class="s6" d="m235.5 132.7c3.8-0.6 3-6.5-0.9-6-3.8 0.6-2.9 6.5 0.9 6z"/>
			</g>
			<g id="&lt;Group&gt;">
				<path id="&lt;Path&gt;" class="s6" d="m156.8 142.2c2.9-0.4 2.3-5.1-0.7-4.6-3 0.4-2.4 5.1 0.7 4.6z"/>
			</g>
			<g id="&lt;Group&gt;">
				<path id="&lt;Path&gt;" class="s6" d="m145.9 77.1c2.2-0.3 1.7-3.8-0.5-3.5-2.2 0.4-1.7 3.8 0.5 3.5z"/>
			</g>
			<g id="&lt;Group&gt;">
				<path id="&lt;Path&gt;" class="s6" d="m228 65.9c3.5-0.5 2.8-6-0.7-5.5-3.6 0.5-2.8 6 0.7 5.5z"/>
			</g>
		</g>
		<g id="&lt;Group&gt;">
			<path id="&lt;Path&gt;" class="s6" d="m94.1 53.7c0.4-4.8 1.6-9 4.1-13.1 2.6-4.4-2.9-8.5-6.4-4.8-4.4 4.9-5.5 12.9-2.2 18.5 1.1 1.8 4.2 1.9 4.5-0.6z"/>
		</g>
		<g id="&lt;Group&gt;">
			<path id="&lt;Path&gt;" class="s6" d="m104.6 35.3c3.2-0.4 2.5-5.3-0.7-4.8-3.1 0.4-2.4 5.3 0.7 4.8z"/>
		</g>
		<g id="&lt;Group&gt;">
			<path id="&lt;Path&gt;" class="s6" d="m271.1 270.9c3.4-3.6 6.6-9 6.3-14-0.2-3.6-5.8-4.2-6.9-0.9-0.7 2-0.7 4-1.5 6-0.6 1.9-1.6 3.6-2.9 5.2-2.5 3.2 2.3 6.4 5 3.7z"/>
		</g>
		<g id="&lt;Group&gt;">
			<path id="&lt;Path&gt;" class="s6" d="m124.8 278.4c4.4-0.6 3.4-7.4-1-6.7-4.3 0.6-3.4 7.4 1 6.7z"/>
		</g>
		<g id="&lt;Group&gt;">
			<path id="&lt;Path&gt;" class="s6" d="m240.5 33.4q0.7 1.5 1.4 3c0.6 1.4 2.4 2.2 3.8 1.5 1.3-0.7 2.3-2.4 1.5-3.8q-0.8-1.5-1.5-2.9c-0.7-1.3-2.3-2.2-3.7-1.5-1.4 0.7-2.1 2.3-1.5 3.7z"/>
		</g>
	</g>
</svg>