<svg xmlns="http://www.w3.org/2000/svg" width="152.6698mm" height="226.90735mm" viewBox="0 0 152.6698 226.90735"><g style="stroke-width:.534207"><g style="stroke-width:.534207"><path d="M0 0h-24.167l-67.75 142.917h24.167z" style="fill:#231916;fill-opacity:1;fill-rule:nonzero;stroke:none;stroke-width:.534207" transform="matrix(.66038 0 0 -.66038 128.89 132)"/></g><g style="stroke-width:.534207"><path d="M0 0h7.167l67.75 142.917H67.75Z" style="fill:#231916;fill-opacity:1;fill-rule:nonzero;stroke:none;stroke-width:.534207" transform="matrix(.66038 0 0 -.66038 28.017 132)"/></g><g style="stroke-width:.534207"><path d="M0 0c-24.669 0-44.667 21.192-44.667 47.333 0 26.142 19.998 47.334 44.667 47.334 24.668 0 44.666-21.192 44.666-47.334C44.666 21.192 24.668 0 0 0m.083 98C-28.682 98-52 75.428-52 47.583-52 19.739-28.682-2.833.083-2.833c28.765 0 52.083 22.572 52.083 50.416C52.166 75.428 28.848 98 .083 98" style="fill:#231916;fill-opacity:1;fill-rule:nonzero;stroke:none;stroke-width:.534207" transform="matrix(.66038 0 0 -.66038 64.833 131.45)"/></g><g style="stroke-width:.534207"><path d="M0 0c-61.505 0-111.543-50.038-111.543-111.543v-113.145c0-61.506 50.038-111.545 111.543-111.545h.729c61.505 0 111.543 50.039 111.543 111.545v113.145C112.272-50.038 62.234 0 .729 0Zm.729-339.918H0c-63.537 0-115.228 51.691-115.228 115.23v113.145C-115.228-48.006-63.537 3.685 0 3.685h.729c63.537 0 115.229-51.691 115.229-115.228v-113.145c0-63.539-51.692-115.23-115.229-115.23" style="fill:#231916;fill-opacity:1;fill-rule:nonzero;stroke:none;stroke-width:.534207" transform="matrix(.66038 0 0 -.66038 76.094 2.433)"/></g><g style="stroke-width:.534207"><path d="m0 0 5.6 5.179-.948-.019c-.38-.008-.865-.014-1.457-.019-.607-.012-1.335-.019-2.183-.022-.848-.003-1.865-.01-3.049-.021Zm-4.097-8.559-1.391 3.482 3.283 3.071-2.832 7.087a51.285 51.285 0 0 0-.932-.025l-.91-.018a77.26 77.26 0 0 1-1.316-.021c-.488-.012-.927-.02-1.317-.022l-1.291 3.234 20.009-.024 1.143-2.86z" style="fill:#231916;fill-opacity:1;fill-rule:nonzero;stroke:none;stroke-width:.534207" transform="matrix(.66038 0 0 -.66038 24.902 170.611)"/></g><g style="stroke-width:.534207"><path d="m0 0 4.403 15.576-10.282-8.242-2.144 2.675L6.468 21.625l2.044-2.55L4.119 3.713l10.172 8.154 2.126-2.654L1.926-2.403Z" style="fill:#231916;fill-opacity:1;fill-rule:nonzero;stroke:none;stroke-width:.534207" transform="matrix(.66038 0 0 -.66038 32.418 191.18)"/></g><g style="stroke-width:.534207"><path d="M0 0c-1.094-.088-2.268.063-3.523.453-1.255.391-2.53.998-3.824 1.824-1.369.874-2.419 1.877-3.148 3.007-.73 1.13-1.194 2.302-1.394 3.515a8.91 8.91 0 0 0 .071 3.618c.27 1.203.727 2.31 1.373 3.319a9.359 9.359 0 0 0 2.453 2.575 9.494 9.494 0 0 0 3.308 1.522c1.206.297 2.48.344 3.824.142 1.342-.203 2.676-.727 4-1.573 1.084-.691 1.991-1.467 2.723-2.328a10.028 10.028 0 0 0 1.715-2.863L4.784 12.02c-.377.969-.806 1.773-1.29 2.409-.483.635-1.109 1.199-1.876 1.689-.978.625-1.922.98-2.831 1.065-.911.085-1.75-.011-2.519-.287a6.005 6.005 0 0 1-2.114-1.247 8.905 8.905 0 0 1-1.562-1.824 9.128 9.128 0 0 1-1.017-2.214 6.23 6.23 0 0 1-.26-2.472c.064-.827.321-1.637.769-2.428.448-.791 1.161-1.499 2.139-2.124A11.131 11.131 0 0 1-3.783 3.58c.698-.267 1.314-.432 1.847-.491l2.241 3.51-3.453 2.205 1.477 2.312 6.23-3.977z" style="fill:#231916;fill-opacity:1;fill-rule:nonzero;stroke:none;stroke-width:.534207" transform="matrix(.66038 0 0 -.66038 51.302 204.781)"/></g><g style="stroke-width:.534207"><path d="m0 0-12.02 2.932 4.366 17.905 11.786-2.874-.633-2.598-8.404 2.05-1.132-4.644 7.493-1.827-.611-2.505-7.493 1.828-1.362-5.586L.628 2.574Z" style="fill:#231916;fill-opacity:1;fill-rule:nonzero;stroke:none;stroke-width:.534207" transform="matrix(.66038 0 0 -.66038 67.29 211.108)"/></g><g style="stroke-width:.534207"><path d="m0 0 8.523.585.18-2.62-12.023-.826-1.263 18.387 3.5.241z" style="fill:#231916;fill-opacity:1;fill-rule:nonzero;stroke:none;stroke-width:.534207" transform="matrix(.66038 0 0 -.66038 78.93 209.906)"/></g><g style="stroke-width:.534207"><path d="m0 0-1.52-.523-5.565 16.174 1.519.524z" style="fill:#231916;fill-opacity:1;fill-rule:nonzero;stroke:none;stroke-width:.534207" transform="matrix(.66038 0 0 -.66038 94.701 207.962)"/></g><g style="stroke-width:.534207"><path d="m0 0-17.762 6.053L-8.92-6.355l-1.222-.871-9.926 13.931 1.396.994 17.617-6.127-8.827 12.39 1.221.87L1.265.901z" style="fill:#231916;fill-opacity:1;fill-rule:nonzero;stroke:none;stroke-width:.534207" transform="matrix(.66038 0 0 -.66038 111.952 198.38)"/></g><g style="stroke-width:.534207"><path d="M0 0c.271-1.811-.336-3.733-1.818-5.768-1.536-2.105-3.2-3.323-4.991-3.652-1.792-.328-3.669.223-5.631 1.654l-9.291 6.775 2.051 2.812 9.061-6.606c1.364-.995 2.568-1.432 3.613-1.31 1.045.121 2.016.796 2.91 2.022.821 1.126 1.139 2.213.957 3.262C-3.32.238-4.01 1.2-5.207 2.073l-9.33 6.803 1.973 2.705 9.156-6.678C-1.406 3.444-.271 1.81 0 0" style="fill:#231916;fill-opacity:1;fill-rule:nonzero;stroke:none;stroke-width:.534207" transform="matrix(.66038 0 0 -.66038 125.607 182.49)"/></g><g style="stroke-width:.534207"><path d="M0 0a32.395 32.395 0 0 0-1.51-1.619A10.94 10.94 0 0 0-3.289-3.08a5.733 5.733 0 0 0-1.972-.901c-.695-.167-1.411-.111-2.149.168a3.678 3.678 0 0 0-1.724 1.294 5.255 5.255 0 0 0-.877 2.064 7.949 7.949 0 0 0-.114 2.476c.09.883.295 1.75.616 2.602.272.718.587 1.362.946 1.933.359.57.718 1.064 1.078 1.482.36.417.706.764 1.038 1.039.331.276.601.488.81.639l1.547-2.331a7.411 7.411 0 0 1-.704-.592 12.451 12.451 0 0 1-.79-.818 8.754 8.754 0 0 1-.761-1.044 7.005 7.005 0 0 1-.599-1.219 6.178 6.178 0 0 1-.336-1.291 5.221 5.221 0 0 1-.045-1.257c.036-.395.14-.745.312-1.048.172-.303.412-.513.723-.631.34-.129.713-.097 1.122.091.408.19.81.448 1.203.777.403.306.781.65 1.136 1.031.355.381.648.7.88.956a77.074 77.074 0 0 0 1.86 1.945 11.701 11.701 0 0 0 1.86 1.544 5.945 5.945 0 0 0 1.966.818c.668.138 1.378.066 2.131-.218A4.583 4.583 0 0 0 7.69 5.196c.494-.549.844-1.216 1.053-2.001.209-.785.266-1.684.17-2.697-.097-1.014-.375-2.13-.835-3.349a10.208 10.208 0 0 0-1.016-2.021 12.605 12.605 0 0 0-1.194-1.553A10.245 10.245 0 0 0 3.72-8.161L2.238-5.655a6.897 6.897 0 0 1 1.621 1.277c.323.317.632.691.93 1.123.298.432.548.914.75 1.449.239.634.39 1.222.45 1.762.061.54.047 1.027-.042 1.462a2.65 2.65 0 0 1-.474 1.053 1.83 1.83 0 0 1-.797.601c-.384.145-.789.131-1.218-.042a5.14 5.14 0 0 1-1.254-.742c-.415-.34-.811-.72-1.189-1.14A76.76 76.76 0 0 1 0 0" style="fill:#231916;fill-opacity:1;fill-rule:nonzero;stroke:none;stroke-width:.534207" transform="matrix(.66038 0 0 -.66038 127.892 168.062)"/></g></g></svg>