<svg xmlns="http://www.w3.org/2000/svg" width="117.77491mm" height="139.43845mm" viewBox="0 0 117.77491 139.43845"><g style="stroke-width:.254721"><g style="stroke-width:.254721"><path d="M0 0h-3.131v5.204h3.084v-.829h-2.33V3.08h2.213v-.815h-2.213V.83H0Z" style="fill:#189294;fill-opacity:1;fill-rule:nonzero;stroke:none;stroke-width:.254721" transform="matrix(1.38495 0 0 -1.38495 21.787 37.993)"/></g><g style="stroke-width:.254721"><path d="M0 0h-3.131v5.204h3.084v-.829h-2.33V3.08h2.213v-.815h-2.213V.83H0Z" style="fill:none;stroke:#188c8f;stroke-width:.0764164;stroke-linecap:butt;stroke-linejoin:miter;stroke-miterlimit:10;stroke-dasharray:none;stroke-opacity:1" transform="matrix(1.38495 0 0 -1.38495 21.787 37.993)"/></g><g style="stroke-width:.254721"><path d="M0 0q-.83 0-1.404.495-.617.535-.611 1.401v.036h.837q.012-.503.341-.819.33-.316.804-.315.38 0 .658.219a.78.78 0 0 1 .309.639q0 .413-.721.639-1.218.377-1.333.439-.721.386-.721 1.182 0 .721.515 1.147.477.385 1.171.385.747 0 1.262-.426.56-.465.547-1.229l-.006-.082H.824q0 .432-.263.689a.92.92 0 0 1-.67.258.94.94 0 0 1-.574-.179.63.63 0 0 1-.27-.535q0-.426.715-.667 1.262-.425 1.327-.46.707-.379.708-1.141 0-.784-.541-1.25Q.746 0 0 0" style="fill:#189294;fill-opacity:1;fill-rule:nonzero;stroke:none;stroke-width:.254721" transform="matrix(1.38495 0 0 -1.38495 25.457 38.162)"/></g><g style="stroke-width:.254721"><path d="M0 0q-.83 0-1.404.495-.617.535-.611 1.401v.036h.837q.012-.503.341-.819.33-.316.804-.315.38 0 .658.219a.78.78 0 0 1 .309.639q0 .413-.721.639-1.218.377-1.333.439-.721.386-.721 1.182 0 .721.515 1.147.477.385 1.171.385.747 0 1.262-.426.56-.465.547-1.229l-.006-.082H.824q0 .432-.263.689a.92.92 0 0 1-.67.258.94.94 0 0 1-.574-.179.63.63 0 0 1-.27-.535q0-.426.715-.667 1.262-.425 1.327-.46.707-.379.708-1.141 0-.784-.541-1.25Q.746 0 0 0Z" style="fill:none;stroke:#188c8f;stroke-width:.0789637;stroke-linecap:butt;stroke-linejoin:miter;stroke-miterlimit:10;stroke-dasharray:none;stroke-opacity:1" transform="matrix(1.38495 0 0 -1.38495 25.457 38.162)"/></g><g style="stroke-width:.254721"><path d="M0 0h-1.48v-4.374h-.813V0h-1.461v.83H0Z" style="fill:#189294;fill-opacity:1;fill-rule:nonzero;stroke:none;stroke-width:.254721" transform="matrix(1.38495 0 0 -1.38495 33.593 31.935)"/></g><g style="stroke-width:.254721"><path d="M0 0h-1.48v-4.374h-.813V0h-1.461v.83H0Z" style="fill:none;stroke:#188c8f;stroke-width:.0789637;stroke-linecap:butt;stroke-linejoin:miter;stroke-miterlimit:10;stroke-dasharray:none;stroke-opacity:1" transform="matrix(1.38495 0 0 -1.38495 33.593 31.935)"/></g><path d="M390.564 692.65h-.794v.831h.794z" style="fill:#189294;fill-opacity:1;fill-rule:nonzero;stroke:#188c8f;stroke-width:.0764164;stroke-linecap:butt;stroke-linejoin:miter;stroke-miterlimit:10;stroke-dasharray:none;stroke-opacity:1" transform="matrix(1.38495 0 0 -1.38495 -506.222 997.08)"/><g style="stroke-width:.254721"><path d="M0 0h-3.382v.622l.075.06q.046.034.093.073l.1.081q.052.044.107.105.185.163.452.424a9.5 9.5 0 0 1 1.092 1.272q.264.373.447.77.066.147.096.365.033.218.033.374 0 .11-.041.264a.85.85 0 0 1-.394.536.77.77 0 0 1-.412.102q-.43 0-.668-.277a.85.85 0 0 1-.213-.625h-.807q0 .186.076.439.075.253.268.486.192.234.519.396.328.165.832.164a1.68 1.68 0 0 0 1.12-.42q.224-.195.359-.486a1.5 1.5 0 0 0 .137-.649 3 3 0 0 0-.036-.413 1.8 1.8 0 0 0-.117-.428 3.2 3.2 0 0 0-.387-.699 8 8 0 0 0-.556-.684q-.303-.335-.624-.638l-.583-.56H0Z" style="fill:#189294;fill-opacity:1;fill-rule:nonzero;stroke:none;stroke-width:.254721" transform="matrix(1.38495 0 0 -1.38495 18.381 49.172)"/></g><g style="stroke-width:.254721"><path d="M0 0h-3.382v.622l.075.06q.046.034.093.073l.1.081q.052.044.107.105.185.163.452.424a9.5 9.5 0 0 1 1.092 1.272q.264.373.447.77.066.147.096.365.033.218.033.374 0 .11-.041.264a.85.85 0 0 1-.394.536.77.77 0 0 1-.412.102q-.43 0-.668-.277a.85.85 0 0 1-.213-.625h-.807q0 .186.076.439.075.253.268.486.192.234.519.396.328.165.832.164a1.68 1.68 0 0 0 1.12-.42q.224-.195.359-.486a1.5 1.5 0 0 0 .137-.649 3 3 0 0 0-.036-.413 1.8 1.8 0 0 0-.117-.428 3.2 3.2 0 0 0-.387-.699 8 8 0 0 0-.556-.684q-.303-.335-.624-.638l-.583-.56H0Z" style="fill:none;stroke:#188c8f;stroke-width:.0787089;stroke-linecap:butt;stroke-linejoin:miter;stroke-miterlimit:10;stroke-dasharray:none;stroke-opacity:1" transform="matrix(1.38495 0 0 -1.38495 18.381 49.172)"/></g><g style="stroke-width:.254721"><path d="M0 0q0 .378-.022.77a3 3 0 0 1-.121.709q-.09.324-.281.528-.193.204-.522.203a.64.64 0 0 1-.496-.203 1.3 1.3 0 0 1-.285-.522 3.2 3.2 0 0 1-.128-.709 10 10 0 0 1 0-1.569q.03-.391.135-.708.097-.318.282-.514a.64.64 0 0 1 .492-.196q.33 0 .522.192.19.193.281.51.098.317.121.713T0 0m.722 0q0-.513-.065-1.011a3 3 0 0 0-.244-.89 1.6 1.6 0 0 0-.507-.634q-.327-.241-.852-.241-.474-.007-.79.222-.314.231-.51.615a3 3 0 0 0-.278.891A6.525 6.525 0 0 0-2.536.95q.073.49.26.899.188.407.51.667.324.26.82.26.494 0 .818-.241t.512-.634q.187-.392.262-.889Q.722.512.722 0" style="fill:#189294;fill-opacity:1;fill-rule:nonzero;stroke:none;stroke-width:.254721" transform="matrix(1.38495 0 0 -1.38495 23.334 45.435)"/></g><g style="stroke-width:.254721"><path d="M0 0q0 .378-.022.77a3 3 0 0 1-.121.709q-.09.324-.281.528-.193.204-.522.203a.64.64 0 0 1-.496-.203 1.3 1.3 0 0 1-.285-.522 3.2 3.2 0 0 1-.128-.709 10 10 0 0 1 0-1.569q.03-.391.135-.708.097-.318.282-.514a.64.64 0 0 1 .492-.196q.33 0 .522.192.19.193.281.51.098.317.121.713T0 0Zm.722 0q0-.513-.065-1.011a3 3 0 0 0-.244-.89 1.6 1.6 0 0 0-.507-.634q-.327-.241-.852-.241-.474-.007-.79.222-.314.231-.51.615a3 3 0 0 0-.278.891A6.525 6.525 0 0 0-2.536.95q.073.49.26.899.188.407.51.667.324.26.82.26.494 0 .818-.241t.512-.634q.187-.392.262-.889Q.722.512.722 0Z" style="fill:none;stroke:#188c8f;stroke-width:.0751428;stroke-linecap:butt;stroke-linejoin:miter;stroke-miterlimit:10;stroke-dasharray:none;stroke-opacity:1" transform="matrix(1.38495 0 0 -1.38495 23.334 45.435)"/></g><g style="stroke-width:.254721"><path d="M0 0q0 .378-.021.77a3 3 0 0 1-.122.709 1.2 1.2 0 0 1-.282.528q-.19.204-.52.203a.64.64 0 0 1-.496-.203 1.3 1.3 0 0 1-.287-.522 3.3 3.3 0 0 1-.127-.709 10 10 0 0 1 0-1.569q.03-.391.134-.708.1-.318.284-.514a.64.64 0 0 1 .492-.196q.33 0 .52.192.194.193.282.51a3 3 0 0 1 .122.713Q0-.4 0 0m.722 0q0-.513-.065-1.011a3 3 0 0 0-.243-.89 1.6 1.6 0 0 0-.508-.634q-.327-.241-.851-.241-.475-.007-.789.222a1.7 1.7 0 0 0-.512.615q-.195.384-.277.891A6.53 6.53 0 0 0-2.535.95q.071.49.26.899.188.407.509.667.324.26.821.26.495 0 .818-.241t.512-.634a3.2 3.2 0 0 0 .261-.889Q.722.512.722 0" style="fill:#189294;fill-opacity:1;fill-rule:nonzero;stroke:none;stroke-width:.254721" transform="matrix(1.38495 0 0 -1.38495 29.35 45.435)"/></g><g style="stroke-width:.254721"><path d="M0 0q0 .378-.021.77a3 3 0 0 1-.122.709 1.2 1.2 0 0 1-.282.528q-.19.204-.52.203a.64.64 0 0 1-.496-.203 1.3 1.3 0 0 1-.287-.522 3.3 3.3 0 0 1-.127-.709 10 10 0 0 1 0-1.569q.03-.391.134-.708.1-.318.284-.514a.64.64 0 0 1 .492-.196q.33 0 .52.192.194.193.282.51a3 3 0 0 1 .122.713Q0-.4 0 0Zm.722 0q0-.513-.065-1.011a3 3 0 0 0-.243-.89 1.6 1.6 0 0 0-.508-.634q-.327-.241-.851-.241-.475-.007-.789.222a1.7 1.7 0 0 0-.512.615q-.195.384-.277.891A6.53 6.53 0 0 0-2.535.95q.071.49.26.899.188.407.509.667.324.26.821.26.495 0 .818-.241t.512-.634a3.2 3.2 0 0 0 .261-.889Q.722.512.722 0Z" style="fill:none;stroke:#188c8f;stroke-width:.0751428;stroke-linecap:butt;stroke-linejoin:miter;stroke-miterlimit:10;stroke-dasharray:none;stroke-opacity:1" transform="matrix(1.38495 0 0 -1.38495 29.35 45.435)"/></g><g style="stroke-width:.254721"><path d="M0 0q0 .423-.237.665-.236.241-.626.241a.8.8 0 0 1-.596-.245q-.236-.246-.236-.653 0-.363.187-.651.188-.286.659-.286.45 0 .649.264Q0-.401 0 0m.097-2.509q0 .4-.242.699-.237.3-.71.314a.9.9 0 0 1-.671-.275q-.267-.277-.274-.73 0-.173.037-.358a.9.9 0 0 1 .144-.337.84.84 0 0 1 .299-.249 1 1 0 0 1 .488-.099q.426 0 .67.269.243.268.259.766m.726-.052q0-.733-.461-1.137-.46-.405-1.217-.411-.713 0-1.185.387-.472.391-.48 1.183 0 .318.09.555.09.24.226.397.134.16.295.25.162.091.304.128v.03a5 5 0 0 0-.228.086.8.8 0 0 0-.274.194q-.13.128-.221.354-.094.227-.094.606 0 .263.109.513.108.25.311.446.203.188.494.306.293.116.667.117a1.7 1.7 0 0 0 .593-.106q.285-.105.502-.287.21-.181.341-.431T.726.076q0-.286-.079-.511a1.4 1.4 0 0 0-.198-.38 1 1 0 0 0-.548-.372v-.022a1 1 0 0 0 .245-.09q.154-.077.303-.235.15-.159.262-.412.112-.254.112-.615" style="fill:#189294;fill-opacity:1;fill-rule:nonzero;stroke:none;stroke-width:.254721" transform="matrix(1.38495 0 0 -1.38495 35.236 43.434)"/></g><g style="stroke-width:.254721"><path d="M0 0q0 .423-.237.665-.236.241-.626.241a.8.8 0 0 1-.596-.245q-.236-.246-.236-.653 0-.363.187-.651.188-.286.659-.286.45 0 .649.264Q0-.401 0 0Zm.097-2.509q0 .4-.242.699-.237.3-.71.314a.9.9 0 0 1-.671-.275q-.267-.277-.274-.73 0-.173.037-.358a.9.9 0 0 1 .144-.337.84.84 0 0 1 .299-.249 1 1 0 0 1 .488-.099q.426 0 .67.269.243.268.259.766zm.726-.052q0-.733-.461-1.137-.46-.405-1.217-.411-.713 0-1.185.387-.472.391-.48 1.183 0 .318.09.555.09.24.226.397.134.16.295.25.162.091.304.128v.03a5 5 0 0 0-.228.086.8.8 0 0 0-.274.194q-.13.128-.221.354-.094.227-.094.606 0 .263.109.513.108.25.311.446.203.188.494.306.293.116.667.117a1.7 1.7 0 0 0 .593-.106q.285-.105.502-.287.21-.181.341-.431T.726.076q0-.286-.079-.511a1.4 1.4 0 0 0-.198-.38 1 1 0 0 0-.548-.372v-.022a1 1 0 0 0 .245-.09q.154-.077.303-.235.15-.159.262-.412.112-.254.112-.615z" style="fill:none;stroke:#188c8f;stroke-width:.0748881;stroke-linecap:butt;stroke-linejoin:miter;stroke-miterlimit:10;stroke-dasharray:none;stroke-opacity:1" transform="matrix(1.38495 0 0 -1.38495 35.236 43.434)"/></g><g style="stroke-width:.254721"><path d="M0 0c0-1.248 2.201-1.385 4.803-1.385 2.6 0 4.895.24 4.895 1.385 0 1.104-2.295 1.668-4.895 1.668C2.201 1.668 0 1.062 0 0" style="fill:#188c8f;fill-opacity:1;fill-rule:nonzero;stroke:none;stroke-width:.254721" transform="matrix(1.38495 0 0 -1.38495 69.251 70.04)"/></g><g style="stroke-width:.254721"><path d="M0 0c.01.01 1.481.993 1.185.158-.001-.023-.009-.059-.009-.084 0-.842.699-1.524 1.56-1.524.733 0 1.346.492 1.514 1.157.06.203.055.365.04.52a1.56 1.56 0 0 1-.302.806c-.201.424-.832.639-1.202.66C1.007 1.797-.182.349-.261.271-.336.199-.445-.042-.373-.117-.301-.191-.074-.072 0 0" style="fill:#188c8f;fill-opacity:1;fill-rule:nonzero;stroke:none;stroke-width:.254721" transform="matrix(1.38495 0 0 -1.38495 73.376 35.328)"/></g><g style="stroke-width:.254721"><path d="M0 0c.01.011 1.726 1.156 1.381.184-.002-.029-.012-.071-.012-.099 0-.981.815-1.777 1.819-1.777A1.81 1.81 0 0 1 4.952-.343c.069.238.064.426.046.606-.034.341-.147.682-.351.94-.235.494-.969.744-1.401.769C1.172 2.092-.213.405-.305.315-.392.23-.52-.05-.435-.137S-.088-.084 0 0" style="fill:#188c8f;fill-opacity:1;fill-rule:nonzero;stroke:none;stroke-width:.254721" transform="matrix(1.38495 0 0 -1.38495 58.802 35.282)"/></g><g style="stroke-width:.254721"><path d="M0 0c-1.939 0-3.415.747-3.43.754a.1.1 0 0 1-.049.014.11.11 0 0 1-.09-.047.11.11 0 0 1 .014-.145C-2.309-.579-1.037-1.164.22-1.164c2.484 0 4.031 2.246 4.096 2.342a.11.11 0 0 1-.013.14.109.109 0 0 1-.142.011A7 7 0 0 0 1.026.071c.172.742.495 2.158.6 2.712.366.131.848.374 1.062.783l-.653.341c-.131-.25-.629-.436-.92-.511-.537.194-1.132.805-1.323 1.036l-.566-.471C-.741 3.92.02 3.014.862 2.707.747 2.151.497 1.043.256.004Q.128.001 0 0" style="fill:#188c8f;fill-opacity:1;fill-rule:nonzero;stroke:none;stroke-width:.254721" transform="matrix(1.38495 0 0 -1.38495 70.25 44.89)"/></g><g style="stroke-width:.254721"><path d="m0 0-.111-.565-16.048 16.161c1.629.303 2.933.851 3.898 1.644 1.239 1.015 1.483 2.092 1.528 2.397.488 1.814-.71 3.896-3.563 6.189-1.681 1.352-3.428 2.365-4.021 2.697-.958.546-1.495 1.101-1.555 1.607-.075.649.648 1.32 1.08 1.721l.063.058a1.7 1.7 0 0 1 .541 1.089c.071.856-.172 1.607-.705 2.169-.781.825-2.017 1.069-2.768 1.141.328 3.94-1.09 7.778-1.529 8.854 1.448 3.184 1.046 6.817 1.029 6.975l-.121 1.043-7.186-4.513c-3.574-1.202-8.41-.192-9.285.007l-.511.417.171 13.354.129-.002.05-.002.05.006c.034.004 3.587.413 8.535-.352 4.566-.706 11.264-2.586 17.238-7.531C-4.572 47.515.291 36.255 1.366 21.089 1.373 20.99 2.137 11.08 0 0m-18.889-28.75-.055-.027c-.051-.028-5.111-2.827-13.061-3.959-7.224-1.028-18.327-.831-30.48 5.817.512.746.918 1.293 1.133 1.503l.05.054c.028.033 2.143 2.561 6.394 4.973.175-3.506 1.185-6.113 3.011-7.754 1.763-1.584 3.873-1.876 5.192-1.876.322 0 .599.018.809.039a1.88 1.88 0 0 1 1.407.845c1.574 2.421-1.432 6.834-1.854 7.431-.434.724-.584 1.305-.41 1.598.242.409 1.15.501 1.55.483l.028-.001.028.001c8.925.283 16.022.47 16.092.472l.049.001.048.008c8.828 1.532 9.548 6.776 9.594 7.238.527 3.79-5.178 6.476-7.137 7.281.44 1.292.705 3.053.779 3.587 1.514.153 4.532.791 5.762 3.413l.063.135v11.32c.013.205-.007.795-.54 1.471.211 0 .442.009.879.009q.918 0 1.746.067L-.442-2.112c-2.212-9.806-7.204-21.636-18.447-26.638m-49.471-4.923c-1.021-1.232-2.079-1.835-3.141-1.791-1.89.079-3.326 2.136-3.34 2.154l-.035.047c-.41.501-.562 1.035-.467 1.63.291 1.82 2.817 3.781 3.765 4.383l.079.051.062.07c5.555 6.294 6.684 10.63 6.729 10.811l.014.081c.775 6.393 5.079 12.6 5.303 12.921 1.406 1.777 4.412 6.946 5.525 8.884.867-.717 3.116-2.106 7.495-2.106q.849-.001 1.809.073c.489-.012 4.7-.075 7.235 1.255q.156-.283.404-.513c.782-.72 2.069-.839 2.831-.839h.009c.139-.89.311-1.609.525-2.027.178-.579 1.168-2.5 6.475-2.501l.032.001c-.106-.684-.428-2.572-.911-3.637l-.299-.657.679-.242c2.059-.736 7.313-3.27 6.904-6.107l-.005-.038c-.017-.191-.531-4.666-8.455-6.056-.64-.017-7.497-.199-16.026-.471-.314.013-2.037.026-2.726-1.128-.455-.762-.311-1.768.427-2.987l.027-.041c.774-1.089 2.77-4.52 1.835-5.958a.56.56 0 0 0-.423-.249c-.899-.087-3.185-.114-4.989 1.506-1.656 1.487-2.527 3.999-2.593 7.463a33 33 0 0 0 3.652 1.576c.365.123 6.704 2.314 7.465 6.072l-1.3.264c-.51-2.522-4.933-4.523-6.594-5.081l-.013-.004c-7.71-2.779-11.547-7.199-11.908-7.629-1.163-1.179-5.451-8.187-6.056-9.18m-7.904 25.626c1.439-1.111 3.113-1.947 5.001-2.488.398-.186 2.642-1.153 6.221-1.242a23.5 23.5 0 0 1-.961-4.252c-.082-.287-.717-2.358-2.806-5.526-4.376 5.047-6.534 10.561-7.455 13.508M-80.87 6.362c.01.197.006.382-.001.603-.071 2.182.822 2.935 1.583 3.183.256.083.53.069.795-.039 1.633-.671 1.459-3.401 1.458-3.418-.542-6.094 3.022-9.248 4.129-10.069.235-.175.475-.375.757-.632 2.843-2.588 7.41-2.498 9.416-2.309a36 36 0 0 1-1.854-4.138c-3.809.016-6.125 1.127-6.146 1.139l-.055.027-.06.018C-80.97-6.415-80.973 4.253-80.87 6.362m1.798 19.167c.835 7.582 3.32 18.261 10.415 26.078 6.615 7.289 16.113 10.937 28.24 10.861l-.158-12.308-5.642 4.603-.294-.051c-.576-.096-.881-.762-.91-1.978l-1.01-11.717c-.8-4.57-3.281-16.781-5.209-18.861-.316-.341-1.349-1.631-1.594-1.967-1.287-1.777-4.938-7.873.391-13.657-.92-1.605-4.192-7.269-5.597-9.038l-.02-.027a31 31 0 0 1-1.504-2.385l-.005.029c-.059-.009-6.122-1.02-9.29 1.862-.313.286-.587.512-.859.714-1.236.92-4.066 3.626-3.598 8.895.012.152.25 3.717-2.274 4.754a2.5 2.5 0 0 1-1.269.172c-.179 1.966-.54 7.428.187 14.021m42.755-15.302a5 5 0 0 1-.289.279c.541.225 1.384.208 2.02.123.045-1.812.14-4.017.334-5.858-.597.017-1.386.125-1.775.485a.66.66 0 0 0-.2.319c.591.593.882 1.3.868 2.101.022.297.042 1.48-.958 2.551m15.601 3.502V2.793c-1.451-3.091-5.902-3.01-5.902-3.01-5.826-.121-6.188 2.033-6.188 2.033-1.004 1.667-1.004 11.913-1.004 11.913-.041 2.744 5.023 3.114 6.272 3.164q.26.01.517-.017c6.618-.686 6.305-3.147 6.305-3.147m-18.642 33.728.142-.036c.241-.062 5.945-1.475 10.251.016l.072.024 5.468 3.435c.01-1.29-.137-3.505-1.085-5.424l-.138-.281.127-.284c.035-.077 3.377-7.734.211-12.694l-.031-.05-.022-.053c-.007-.016-.716-1.662-2.805-3.026-2.792-1.824-6.785-2.328-11.548-1.461l-.237-1.305c5.898-1.075 9.681.026 11.94 1.309.483-3.048 4.233-5.135 4.413-5.234l.636 1.164c-.041.022-3.974 2.218-3.765 4.927 1.718 1.336 2.422 2.746 2.563 3.059.683 1.082 1.099 2.257 1.326 3.448.543-.044 1.478-.199 1.986-.737.273-.288.384-.662.345-1.145a.37.37 0 0 0-.123-.229l-.06-.056c-.577-.534-1.65-1.529-1.495-2.848.108-.927.776-1.747 2.04-2.501l-.004-.006.154-.084q.026-.016.051-.03l.001.001c2.238-1.239 7.653-4.865 6.924-7.403l-.015-.05-.007-.063c-.005-.039-.14-.993-1.436-1.854-1.273-.841-3.902-1.725-9.207-1.172q-1.664.657-4.26.926a4 4 0 0 1-.626.02c-1.667-.067-7.108-.545-7.057-3.903 0-.366.003-1.037.016-1.887-.911.101-2.36.105-3.214-.687-1.408.645-3.368.886-5.863.713a1.9 1.9 0 0 0-.882.166c-1.407.638-2.268 1.406-2.3 2.057-.03.59.632 1.306 1.864 2.02l-.664 1.149c-1.732-1.003-2.581-2.092-2.524-3.236.076-1.527 1.717-2.583 3.08-3.198a3.15 3.15 0 0 1 1.517-.28c3.889.267 5.567-.573 6.289-1.327.711-.742.634-1.535.63-1.56l-.007-.056.002-.056c.014-.444-.142-.823-.48-1.162-1.488-1.493-5.842-1.698-7.393-1.651l-.038.001-.037-.002c-6.412-.521-8.634 1.95-8.651 1.97l-.049.053c-5.26 5.073-2.332 10.449-.828 12.526.24.331 1.231 1.564 1.491 1.844 2.548 2.749 5.249 17.85 5.55 19.563l.004.029 1.017 11.795.002.044q.003.143.012.258zM2.687 21.189c-1.1 15.536-6.125 27.109-14.934 34.399-6.207 5.136-13.149 7.086-17.88 7.817-4.86.752-8.365.416-8.844.366-13.208.388-23.529-3.406-30.671-11.277-3.247-3.577-5.836-8.015-7.698-13.189-1.484-4.123-2.512-8.72-3.054-13.664-.787-7.177-.309-13.044-.146-14.649-.815-.557-1.732-1.711-1.655-4.071.007-.189.008-.345.002-.496-.047-.961-.096-4.379 1.241-7.957.688-1.842 1.644-3.447 2.844-4.794.276-1.27 2.199-9.211 8.526-16.358a45 45 0 0 0-2.787-3.499c-.581-.382-3.864-2.647-4.282-5.237-.157-.972.091-1.867.734-2.662.201-.288 1.903-2.6 4.352-2.707l.179-.003c1.448 0 2.821.777 4.079 2.313l.053.076a225 225 0 0 0 4.027 6.381c5.453-2.999 11.15-4.988 16.944-5.91a48.5 48.5 0 0 1 14.465-.118c7.972 1.135 13.03 3.844 13.494 4.1 5.559 2.481 10.124 6.729 13.568 12.628C-2.017-12.629.021-6.886 1.302-.252c2.17 11.257 1.392 21.349 1.385 21.441" style="fill:#188c8f;fill-opacity:1;fill-rule:nonzero;stroke:none;stroke-width:.254721" transform="matrix(1.38495 0 0 -1.38495 113.858 88.483)"/></g></g></svg>