<svg xmlns="http://www.w3.org/2000/svg" xml:space="preserve" width="119.37386" height="119.35346" viewBox="0 0 119.37386 119.35346"><defs><clipPath id="a" clipPathUnits="userSpaceOnUse"><path d="M0 595.28h419.53V0H0Z"/></clipPath></defs><g clip-path="url(#a)" transform="matrix(1.33333 0 0 -1.33333 -221.446 476.901)"><path d="M0 0c-14.758 0-26.725 11.967-26.725 26.727S-14.758 53.455 0 53.455c14.764 0 26.732-11.968 26.732-26.728C26.732 11.967 14.764 0 0 0m41.661 26.727c0 23.005-18.653 41.657-41.661 41.657-23.003 0-41.655-18.652-41.655-41.657 0-23.006 18.652-41.659 41.655-41.659 23.008 0 41.661 18.653 41.661 41.659" style="fill:#dcdddd;fill-opacity:1;fill-rule:nonzero;stroke:none" transform="translate(210.848 286.198)"/><path d="M0 0c13.96 0 25.281 11.317 25.281 25.277 0 13.964-11.321 25.28-25.281 25.28-13.959 0-25.277-11.316-25.277-25.28C-25.277 11.317-13.959 0 0 0" style="fill:#dcdddd;fill-opacity:1;fill-rule:nonzero;stroke:none" transform="translate(210.848 287.647)"/><path d="m0 0 2.771-.1-1.278 2.463Zm-3.926-4.945 2.725-.514-.897 2.627zm2.053 2.398 2.76-.307L-.208-.303zm3.55 5.225 2.77.107-1.458 2.361zm5.168 14.89 2.537 1.116-2.225 1.659zM-6.154-7.189l2.681-.711-.704 2.681ZM3.15 5.475l2.753.312-1.632 2.248Zm1.255 2.899 2.726.518-1.794 2.117zm1.037 2.986 2.677.719-1.944 1.978zm-35.465-32.069 1.122 2.537-2.778-.314zM-8.54-9.262l2.626-.91-.508 2.733zm-18.183-10.951.926 2.617-2.741-.519zm-6.627-.75 1.306 2.451-2.788-.109zm9.884 1.496.727 2.68-2.699-.727zm12.394 8.313 2.551-1.098-.303 2.76zm-2.667-1.694 2.459-1.283-.094 2.772zm-3.434-4.41.32 2.76-2.561-1.125zm-3.107-1.221.525 2.725-2.636-.926zm6.111 2.674.109 2.772-2.465-1.307zM6.265 14.439l2.613.923-2.094 1.822zm-17.332 47.147-2.466-1.27 2.353-1.502zm2.747-1.898-2.554-1.083 2.232-1.676zm2.077-4.819.52 2.721-2.631-.89zm2.235-2.237.718 2.678-2.689-.694zm-25.811 15.647-1.672-2.22 2.777-.327zm15.874-5.006-2.366-1.449 2.46-1.321zm-9.278 3.715-1.982-1.94 2.69-.742zm-3.278.769-1.828-2.084 2.736-.537zm9.562-3.011-2.253-1.626 2.554-1.135zm14.985-14.51.92 2.618-2.731-.492zm-18.087 15.749-2.122-1.787 2.63-.941zM6.817 30.196l2.104 1.812-2.616.936Zm.355-3.138 2.236 1.647-2.539 1.129zm.125-3.159 2.348 1.477-2.446 1.317zm-.11-3.17 2.45 1.3-2.342 1.491zM1.613 45.02l1.294 2.453-2.772-.082ZM-.07 47.693l1.109 2.543-2.763-.289zm3.162-5.466 1.477 2.35-2.778.125zm2.315-5.877 1.815 2.106-2.728.536zm-1.046 2.982 1.645 2.234-2.757.333zm1.866-6.03 1.962 1.961-2.675.738zm-39.394 35.244-1.498-2.336 2.789-.119z" style="fill:#dcdddd;fill-opacity:1;fill-rule:nonzero;stroke:none" transform="translate(245.97 289.124)"/><path d="m0 0 2.118 1.789-2.632.936zm-8.987 4.381 2.469 1.277-2.359 1.498zm2.882-1.682 2.363 1.453-2.46 1.323zm3.001-1.465 2.248 1.627-2.554 1.131zm16.231-3.777 1.5 2.342-2.796.115zm-24.86 8.818 2.555 1.086-2.241 1.672zm21.518-8.55 1.664 2.22-2.776.321zM3.182-1 5.161.945l-2.695.737Zm3.28-.764L8.288.326 5.544.854zm-30.911 28.373-1.64-2.236 2.755-.326zm-2.961 15.432-2.347-1.483 2.449-1.308zm1.908-12.449-1.806-2.111 2.729-.53zm-1.781 9.293-2.229-1.652 2.539-1.128zm.365-3.142-2.101-1.813 2.614-.934zm.597-3.103-1.962-1.966 2.675-.735zm8.202-16.921-.913-2.619 2.729.494zm2.068-2.393-.718-2.68 2.685.698zm-7.126 10.393-1.473-2.354 2.776-.121zm3.172-5.461-1.103-2.547 2.76.295zm-1.685 2.672-1.292-2.455 2.776.086zm7.874-9.838-.517-2.727 2.631.899zM9.842 86.714 8.727 84.17l2.776.321zm-31.666-23.436-2.772-.114 1.465-2.358zm1.672 2.676-2.768.1 1.281-2.462zm1.871 2.555-2.763.302 1.103-2.553zm2.049 2.401-2.727.508.907-2.626zm-7.058-10.435-2.753-.318 1.634-2.24zm-3.674-12.097-2.539-1.119 2.225-1.659zm.577 3.132-2.618-.927 2.096-1.821zm1.842 6.065-2.726-.522 1.804-2.115zm-1.033-2.985-2.677-.726 1.955-1.975zm11.572 18.569-2.684.705.708-2.683zM3.292 85.458l-.725-2.68 2.699.73zm3.249.749-.923-2.617 2.747.527zm-18.166-10.976-2.623.905.507-2.728zM13.17 86.972l-1.299-2.454 2.79.112zm-40.477-41.756-2.447-1.305 2.344-1.488zM.102 84.468l-.518-2.728 2.635.933Zm-6.53-5.643-2.462 1.283.099-2.777zm-2.665-1.7-2.547 1.097.304-2.761zm3.089 4.659-.107-2.774 2.465 1.31zm3 1.458-.314-2.761 2.562 1.128z" style="fill:#dcdddd;fill-opacity:1;fill-rule:nonzero;stroke:none" transform="translate(195.841 270.704)"/><path d="M0 0c11.608 0 21.016 9.411 21.016 21.016 0 11.609-9.408 21.015-21.016 21.015-11.607 0-21.014-9.406-21.014-21.015C-21.014 9.411-11.607 0 0 0" style="fill:#012061;fill-opacity:1;fill-rule:nonzero;stroke:none" transform="translate(210.848 291.91)"/><path d="m0 0-1.927-2.727c-1.194.326-1.779 1.211-1.232 2.366.192.528.388 1.058.231 1.664-1.441-.272-2.574-2.558-4.16-1.429.458 1.166.557 2.715 1.698 3.384 1.25.295 2.32-.701 3.455-1.04C-1.15 1.561.282 1.28 0 0" style="fill:#dcdddd;fill-opacity:1;fill-rule:nonzero;stroke:none" transform="translate(222.628 328.403)"/><path d="M0 0c.03-1.734-2.07-1.628-3.082-2.485-1.78 1.213.699 2.622.777 3.983l-.249.162c-1.167-.249-2.766-1.931-3.683-.476.572 1.038 1.29 2.839 2.84 2.74C-2.13 2.694-.735 1.585 0 0" style="fill:#dcdddd;fill-opacity:1;fill-rule:nonzero;stroke:none" transform="translate(227.9 323.869)"/><path d="M0 0c-.738.025-1.959.014-1.766 1.246.245.602-.257 1.23-.287 1.802l-.431-.122C-3.52 2.187-3.68-.077-5.324.188c-.3 1.553-.74 3.354.536 4.387 1.874.247 3.655.041 5.387-.478C1.878 2.81.171 1.35 0 0" style="fill:#dcdddd;fill-opacity:1;fill-rule:nonzero;stroke:none" transform="translate(214.531 328.582)"/><path d="M0 0c.074-1.664 1.93-4.078-.071-5.298l-2.692-.414c-.426.424-.166 1.061-.405 1.622.623.957 1.943 1.358 2.173 2.569-1.057.233-2.943-.807-3.17.701C-4.798.298-3.416.406-2.882.765-1.89 1.28-.286 1.346 0 0" style="fill:#dcdddd;fill-opacity:1;fill-rule:nonzero;stroke:none" transform="translate(229.636 320.57)"/><path d="M0 0c-.279-.119-.545-.299-.931-.351-.781.661-1.317 1.614-2.134 2.145-.793-1.146.699-3.731-1.751-3.854-.682 1.049-1.677 2-1.595 3.36.94 1.909 3.314 2.381 5.218 2.753C.34 3.31-.226 1.356 0 0" style="fill:#dcdddd;fill-opacity:1;fill-rule:nonzero;stroke:none" transform="translate(208.105 328.628)"/><path d="M0 0c-.268-1.034-.229-2.371-1.346-3.003-1.299-.214-2.351.569-3.539.839-.268.677.256 1.396.352 2.089C-3.422.16-2.477.607-1.449.945c-.608.697-1.747 1.035-2.619 1.554-.087.406.201.774-.014 1.218 1.195.132 3 1.122 3.929-.237C.067 2.428.071 1.114 0 0" style="fill:#dcdddd;fill-opacity:1;fill-rule:nonzero;stroke:none" transform="translate(230.898 310.06)"/><path d="M0 0c-1.084-1.515-2.644.508-4.037.458-.15-1.313 1.84-2.911.221-3.771-1.136.889-2.572 1.622-2.548 3.217 1.36 1.233 2.619 3.792 4.597 2.959z" style="fill:#dcdddd;fill-opacity:1;fill-rule:nonzero;stroke:none" transform="translate(202.382 325.951)"/><path d="M0 0c-.365-.72-1.289-1.126-2.016-.853-.678.74-1.854 1.104-2.39 1.905.658 1.791 2.548.511 3.868.91-.372.899-1.283 1.44-1.865 2.173.183.436.235.905.583 1.284L1.3 4.247C2.464 2.784.43 1.434 0 0" style="fill:#dcdddd;fill-opacity:1;fill-rule:nonzero;stroke:none" transform="translate(227.538 301.51)"/><path d="M0 0c-.5-2.397-2.566-.451-3.917-.982.157-1.311 2.894-1.984 1.329-3.536-1.047.481-2.654.568-3.089 1.91.436 1.529 1.193 3.155 2.198 4.467C-1.94 2.522-1.042.726 0 0" style="fill:#dcdddd;fill-opacity:1;fill-rule:nonzero;stroke:none" transform="translate(197.859 321.786)"/><path d="M0 0c-.972-1.334-2.18-2.262-3.413-3.227C-5.27-3.68-5.166-1.429-5.984-.444c-.134.34.216.717.48.898 1.102.142 1.991-1.043 3.062-1.03-.121.982-1.473 2.618-.16 3.478C-1.456 2.105.102 1.396 0 0" style="fill:#dcdddd;fill-opacity:1;fill-rule:nonzero;stroke:none" transform="translate(224.885 298.81)"/><path d="M0 0c-.886-.584-2.067-.774-2.891-1.497C-2.03-2.11-.88-2.202.068-3.07c.091-.562-.173-1.197-.761-1.168-.89-.13-2.216-.776-2.862.249-.418 1.682-.107 3.398.095 5.029.24.601.81.936 1.361.929C-1.411 1.32 1.121 1.49 0 0" style="fill:#dcdddd;fill-opacity:1;fill-rule:nonzero;stroke:none" transform="translate(194.521 315.337)"/><path d="M0 0c-1.766-.469-4.072-1.84-5.598-.393-.319 1.063-.37 2.459-.087 3.587C-4.028 3.88-3.479 1.859-2.65.967l.295.06c.456 1.164.082 3.223 1.742 3.455C-.364 3.009 1.988 1.277 0 0" style="fill:#dcdddd;fill-opacity:1;fill-rule:nonzero;stroke:none" transform="translate(218.353 293.935)"/><path d="M0 0c-.616-.556-1.455-.919-2.008-1.617.969-.983 3.473.308 3.476-1.857-1.05-.377-1.913-1.781-3.22-1.08-.884 1.279-1.208 2.951-1.879 4.396.154.554.364.873.829 1.277l2.548.508C-.292 1.1-.088.563 0 0" style="fill:#dcdddd;fill-opacity:1;fill-rule:nonzero;stroke:none" transform="translate(194.994 308.626)"/><path d="M0 0c-1.595-.123-3.621-.215-4.817.965-.319 1.219.63 2.215.971 3.355 1.558-.006 1.217-2.004 1.906-2.804 1.154.609.99 2.528 2.421 2.405C.708 2.715 1.065 1.021 0 0" style="fill:#dcdddd;fill-opacity:1;fill-rule:nonzero;stroke:none" transform="translate(210.898 293.087)"/><path d="M0 0c-.064-.411.332-.268.53-.347 1.068.013 2.552 1.52 3.388.015-.836-.818-1.253-2.158-2.446-2.441C.147-1.86-.921-.409-1.977.833c-.223 1.052.817 1.334 1.49 1.903.649.688 1.352.378 1.62-.449Z" style="fill:#dcdddd;fill-opacity:1;fill-rule:nonzero;stroke:none" transform="translate(196.355 300.956)"/><path d="M0 0c-.618-1.11-.495-2.855-2.048-3.156l-.728-.031C-4.031-2.166-6.838-1.599-6.519.36l1.453 2.078 1.456-.944c-.123-.882-.663-1.79-.316-2.57C-2.566-.853-1.462 1.157 0 0" style="fill:#dcdddd;fill-opacity:1;fill-rule:nonzero;stroke:none" transform="translate(205.968 297.524)"/><path d="M0 0c1.05.527 2.716.147 4.087.162L1.622-.452Z" style="fill:#dcdddd;fill-opacity:1;fill-rule:nonzero;stroke:none" transform="translate(208.826 327.697)"/><path d="M0 0c-2.772-1.622-5.914-1.342-9.078-2.408l-.177.115C-6.714-.015-3.77 1.8-.084 2.275.158 1.565.085.754 0 0" style="fill:#dcdddd;fill-opacity:1;fill-rule:nonzero;stroke:none" transform="translate(214.202 324.8)"/><path d="M0 0c-1.276-1.341-2.912-.526-4.414-.508C-3.185.607-1.426.525 0 0" style="fill:#dcdddd;fill-opacity:1;fill-rule:nonzero;stroke:none" transform="translate(209.064 326.585)"/><path d="M0 0c2.098-1.453 3.801-3.032 5.086-5.782.249-.751-.091-1.149-.689-1.216-2.082-.409-2.497-.341-4.673-.437-.165-1.766-.229-5.523-.229-5.523-1.143-.369-4.637.625-5.983 1.255-.235.102-.767.454-1.022.218-.338-.287-.095-.494.083-.762 2.369-1.439 3.746-1.523 6.942-1.877-.421-3.357.087-3.615-.203-7.004-3.992-.174-8.252 2.192-10.551 5.554-2.757 3.203-3.136 7.886-3.184 12 .228 1.822 1.32 3.883 2.666 5.177C-9.119.235-6.221-.339-3.635-2.023c.307.004.549.148.678.418C-3.688-.477-1.939-.351-1.928.75c.106.787.069 2.122-.759 2.56l-.175.114 1.379.413C-1.234 2.668-1.928.75 0 0" style="fill:#dcdddd;fill-opacity:1;fill-rule:nonzero;stroke:none" transform="translate(215.574 319.475)"/><path d="M0 0c-.379-.813-1.195-.987-1.937-.807-.646.321-1.208.785-1.058 1.547.412.638.849 1.614 1.776 1.263C-.246 2.024.296.917 0 0" style="fill:#dcdddd;fill-opacity:1;fill-rule:nonzero;stroke:none" transform="translate(212.543 320.237)"/><path d="M0 0c-1.227-1.726-3.117-1.299-4.887-1.155L-3.126.469C-2.059.482-1.07.141 0 0" style="fill:#dcdddd;fill-opacity:1;fill-rule:nonzero;stroke:none" transform="translate(206.235 324.795)"/><path d="m0 0-3.181 1.312 3.731.852C.02 1.5-.292.793 0 0" style="fill:#dcdddd;fill-opacity:1;fill-rule:nonzero;stroke:none" transform="translate(208.63 320.11)"/><path d="M0 0c-.508-.627-1.099-1.149-1.485-1.905l-3.346.211c.169.798 1.155 1.465 1.748 2.139C-2.064.234-.996.247 0 0" style="fill:#dcdddd;fill-opacity:1;fill-rule:nonzero;stroke:none" transform="translate(203.515 322.327)"/><path d="m0 0-3.905.122c.272 1.035.957 1.85 1.589 2.595l3.16-.339C.626 1.661.262.791 0 0" style="fill:#dcdddd;fill-opacity:1;fill-rule:nonzero;stroke:none" transform="translate(200.446 317.064)"/><path d="M0 0c-1.545-.052-3.008-.36-4.536-.073-.206.841.146 1.773.486 2.606 1.283-.276 2.698-.041 4.012-.342Z" style="fill:#dcdddd;fill-opacity:1;fill-rule:nonzero;stroke:none" transform="translate(200.286 313.793)"/><path d="M0 0c-1.522-.168-3.406-.506-4.839-.23l-.167 2.53c1.524.019 3.242.26 4.782-.088z" style="fill:#dcdddd;fill-opacity:1;fill-rule:nonzero;stroke:none" transform="translate(200.63 310.292)"/><path d="m0 0-4.287-.236c-.638.413-.72 1.525-1.231 2.212 1.332.495 3.056.281 4.541.473C-.383 1.811-.335.721 0 0" style="fill:#dcdddd;fill-opacity:1;fill-rule:nonzero;stroke:none" transform="translate(201.547 306.824)"/><path d="M0 0c-1.147-.364-2.585-.334-3.982-.536-.917.447-1.115 1.381-1.64 2.126l4.43.296z" style="fill:#dcdddd;fill-opacity:1;fill-rule:nonzero;stroke:none" transform="translate(203.138 304.074)"/><path d="M0 0c-1.688.191-3.851-1.272-4.986.928C-3.328 1.158-.248 2.481 0 0" style="fill:#dcdddd;fill-opacity:1;fill-rule:nonzero;stroke:none" transform="translate(204.837 301.657)"/><path d="M0 0c1.709 1.308 3.203-.572 4.823-.72C3.195-.668 1.555-.556 0 0" style="fill:#dcdddd;fill-opacity:1;fill-rule:nonzero;stroke:none" transform="translate(206.492 298.615)"/><path d="M0 0c-1.301-.212-2.568-1.155-3.588.065l-.995.646C-3.094.751-.951 2.028 0 0" style="fill:#dcdddd;fill-opacity:1;fill-rule:nonzero;stroke:none" transform="translate(207.102 299.782)"/><path d="M0 0c-.625.326-1.272.614-1.929.866a4.963 4.963 0 0 1-1.21-.047c.01-.332.018-.665.014-.996C-2.13-.414-1.037-.04 0 0" style="fill:#dcdddd;fill-opacity:1;fill-rule:nonzero;stroke:none" transform="translate(218.365 326.115)"/><path d="M0 0a15.97 15.97 0 0 1-2.12 1.624c-1.027-.06-3.028-.274-4.616-.455a6.19 6.19 0 0 0-.109-.616 2.32 2.32 0 0 0 .107-.87C-5.16-.432-1.188-.097 0 0" style="fill:#dcdddd;fill-opacity:1;fill-rule:nonzero;stroke:none" transform="translate(221.914 323.663)"/><path d="M0 0c-1.096-.137-5.211-.172-7.704-.276-.094-.776-.15-1.526.536-2.035l8.767.183A12.842 12.842 0 0 1 0 0" style="fill:#dcdddd;fill-opacity:1;fill-rule:nonzero;stroke:none" transform="translate(222.798 322.78)"/><path d="m0 0-7.793-.273a13.931 13.931 0 0 0 2.656-2.403l6.065.07A11.71 11.71 0 0 1 0 0" style="fill:#dcdddd;fill-opacity:1;fill-rule:nonzero;stroke:none" transform="translate(224.865 319.802)"/><path d="m0 0 .058 1.245c-.013.473-.055.935-.122 1.387-1.194-.079-3.429-.078-5.499-.092.429-.618.82-1.292 1.167-2.04.051-.149.093-.321.123-.5C-2.668-.03-1.085-.041 0 0" style="fill:#dcdddd;fill-opacity:1;fill-rule:nonzero;stroke:none" transform="translate(226.02 313.634)"/><path d="M0 0c-2.188-.952-2.618-.519-4.932-.733.012-.333.021-.654.025-.966 2.117-.143 7.059-.328 9.501-.256.099.406.187.815.262 1.225L4.92.689C3.871.71 2.302.743.688.758.604.387.396.085 0 0" style="fill:#dcdddd;fill-opacity:1;fill-rule:nonzero;stroke:none" transform="translate(221.05 311.93)"/><path d="m0 0 8.387-.183c.355.78.652 1.582.9 2.397-2.4.207-7.2.143-9.227.228A67.716 67.716 0 0 0 0 0" style="fill:#dcdddd;fill-opacity:1;fill-rule:nonzero;stroke:none" transform="translate(216.089 306.78)"/><path d="M0 0c2.319-.092 5.29-.128 6.784-.213.482.661.914 1.365 1.298 2.099L.1 2.099C.064 1.393.03.701 0 0" style="fill:#dcdddd;fill-opacity:1;fill-rule:nonzero;stroke:none" transform="translate(215.95 303.797)"/><path d="M0 0a1.335 1.335 0 0 1-.146-.075c-.008-.399-.012-.808-.008-1.227 1.275-.035 3.264-.337 4.82-.07.456.413.887.859 1.289 1.333C4.229.151.92.417 0 0" style="fill:#dcdddd;fill-opacity:1;fill-rule:nonzero;stroke:none" transform="translate(216.059 302.699)"/><path d="M0 0c.008-.236.019-.479.032-.724.478-.108.947-.242 1.401-.285.843.368 1.63.828 2.356 1.37C2.535.499.966 1.044 0 0" style="fill:#dcdddd;fill-opacity:1;fill-rule:nonzero;stroke:none" transform="translate(215.932 300.136)"/><path d="M0 0c-.091-.293-.269-.179-.479-.192-.204.078-.18.268-.241.407C-.597.792.368.416 0 0" style="fill:#012061;fill-opacity:1;fill-rule:nonzero;stroke:none" transform="translate(221.31 328.355)"/><path d="M0 0c-.081-.2-.246-.296-.454-.311-.178.115-.365.289-.265.524.069.258.364.321.525.265C-.154.302.173.189 0 0" style="fill:#012061;fill-opacity:1;fill-rule:nonzero;stroke:none" transform="translate(224.486 326.188)"/><path d="M0 0c-.113-.331-.37-.416-.64-.289 0 .152-.158.302-.088.408C-.649.626.088.445 0 0" style="fill:#012061;fill-opacity:1;fill-rule:nonzero;stroke:none" transform="translate(218.112 330.184)"/><path d="M0 0c-.234-.201-.711-.242-.765.144-.059.292.35.532.57.489C.054.469.069.259 0 0" style="fill:#012061;fill-opacity:1;fill-rule:nonzero;stroke:none" transform="translate(226.776 323.587)"/><path d="M0 0c-.117-.176-.241-.294-.453-.31-.214.139-.449.241-.416.522C-.665.534.016.492 0 0" style="fill:#012061;fill-opacity:1;fill-rule:nonzero;stroke:none" transform="translate(214.281 331.113)"/><path d="M0 0c-.162-.246-.369-.26-.626-.191-.132.032-.113.221-.138.337C-.711.766.044.376 0 0" style="fill:#012061;fill-opacity:1;fill-rule:nonzero;stroke:none" transform="translate(210.838 331.787)"/><path d="M0 0c-.11-.329-.365-.417-.636-.289-.141.09-.214.29-.123.432.147.155.216.414.452.31C-.13.339-.011.211 0 0" style="fill:#012061;fill-opacity:1;fill-rule:nonzero;stroke:none" transform="translate(228.218 320.228)"/><path d="M0 0c-.105-.235-.324-.495-.594-.368-.038.174-.17.362-.194.475a.44.44 0 0 0 .559.244C-.041.329-.064.141 0 0" style="fill:#012061;fill-opacity:1;fill-rule:nonzero;stroke:none" transform="translate(228.92 316.65)"/><path d="M0 0c-.175-.038-.266-.18-.478-.193-.327.113-.214.29-.193.476C-.488.721.276.424 0 0" style="fill:#012061;fill-opacity:1;fill-rule:nonzero;stroke:none" transform="translate(206.629 330.898)"/><path d="M0 0c-.101-.389-.404-.239-.629-.194-.264.218-.196.781.261.788C-.158.455.128.27 0 0" style="fill:#012061;fill-opacity:1;fill-rule:nonzero;stroke:none" transform="translate(229.877 312.487)"/><path d="M0 0c-.235-.05-.513-.171-.659.073-.013.213.158.708.438.522C.135.518.046.225 0 0" style="fill:#012061;fill-opacity:1;fill-rule:nonzero;stroke:none" transform="translate(203.519 329.292)"/><path d="m0 0-.206-.318c-.33-.04-.743.332-.443.639C-.536.651.286.519 0 0" style="fill:#012061;fill-opacity:1;fill-rule:nonzero;stroke:none" transform="translate(229.148 308.575)"/><path d="M0 0c-.162-.249-.374-.263-.63-.195-.131.033-.109.22-.134.339C-.569.52.018.493 0 0" style="fill:#012061;fill-opacity:1;fill-rule:nonzero;stroke:none" transform="translate(200.106 327.38)"/><path d="M0 0c-.066-.258-.466-.251-.633-.194-.034.176-.377.35-.109.527a.386.386 0 0 0 .525.263C.042.529.06.165 0 0" style="fill:#012061;fill-opacity:1;fill-rule:nonzero;stroke:none" transform="translate(210.3 317.015)"/><path d="M0 0c-.176-.038-.303-.309-.49-.135-.106.07-.378.194-.204.385C-.604.696.158.553 0 0" style="fill:#012061;fill-opacity:1;fill-rule:nonzero;stroke:none" transform="translate(197.658 325.09)"/><path d="m0 0-.529.346c.017.341.387.756.72.49A.527.527 0 0 0 0 0" style="fill:#012061;fill-opacity:1;fill-rule:nonzero;stroke:none" transform="translate(210.76 315.859)"/><path d="M0 0c-.173-.343-.74-.125-.833.189-.13.338.326.345.461.555A.588.588 0 0 0 0 0" style="fill:#012061;fill-opacity:1;fill-rule:nonzero;stroke:none" transform="translate(209.043 317.33)"/><path d="M0 0c-.242-.295-.443-.062-.692.1-.198.231.076.655.393.603C.021.645.043.225 0 0" style="fill:#012061;fill-opacity:1;fill-rule:nonzero;stroke:none" transform="translate(228.103 304.365)"/><path d="M0 0a.384.384 0 0 0-.525-.264c-.259.065-.253.467-.194.629C-.514.835.274.423 0 0" style="fill:#012061;fill-opacity:1;fill-rule:nonzero;stroke:none" transform="translate(211.566 315.085)"/><path d="M0 0c-.091-.293-.372-.262-.597-.371-.444.243-.252.772.109.94C-.169.515-.038.328 0 0" style="fill:#012061;fill-opacity:1;fill-rule:nonzero;stroke:none" transform="translate(207.624 317.547)"/><path d="M0 0c-.177-.342-.708-.546-.88-.033-.018.21.145.612.497.534C-.207.385.029.283 0 0" style="fill:#012061;fill-opacity:1;fill-rule:nonzero;stroke:none" transform="translate(211.617 313.841)"/><path d="M0 0c-.065-.26-.464-.252-.63-.197-.141.094-.097.319-.155.459C-.689.798.475.648 0 0" style="fill:#012061;fill-opacity:1;fill-rule:nonzero;stroke:none" transform="translate(206.103 317.074)"/><path d="M0 0a.383.383 0 0 0-.523-.264c-.19.022-.167.208-.227.348C-.62.755.262.483 0 0" style="fill:#012061;fill-opacity:1;fill-rule:nonzero;stroke:none" transform="translate(204.975 316.499)"/><path d="m0 0-.565-.09c-.212.291.087.751.439.674C.018.338.029.28 0 0" style="fill:#012061;fill-opacity:1;fill-rule:nonzero;stroke:none" transform="translate(195.387 321.982)"/><path d="M0 0c-.138-.214-.324-.496-.594-.37-.388.256-.301.701.038.833C-.348.475.077.352 0 0" style="fill:#012061;fill-opacity:1;fill-rule:nonzero;stroke:none" transform="translate(226.223 301.86)"/><path d="M0 0c-.066-.259-.336-.133-.559-.24-.317.207-.358.688.076.809C-.215.596.174.343 0 0" style="fill:#012061;fill-opacity:1;fill-rule:nonzero;stroke:none" transform="translate(204.094 315.457)"/><path d="M0 0c-.222-.109-.38-.356-.597-.216-.236.102-.494.323-.369.593C-.688.802.413.638 0 0" style="fill:#012061;fill-opacity:1;fill-rule:nonzero;stroke:none" transform="translate(210.52 311.075)"/><path d="M0 0c-.221-.11-.382-.357-.594-.219-.237.104-.498.324-.371.594C-.688.801.416.637 0 0" style="fill:#012061;fill-opacity:1;fill-rule:nonzero;stroke:none" transform="translate(211.219 312.41)"/><path d="M0 0c-.228.197-.753.239-.441.64C-.062 1.3.722.337 0 0" style="fill:#012061;fill-opacity:1;fill-rule:nonzero;stroke:none" transform="translate(203.246 313.994)"/><path d="M0 0c-.125-.422-.477-.345-.771-.254-.204.384.099.844.506.779A.385.385 0 0 0 0 0" style="fill:#012061;fill-opacity:1;fill-rule:nonzero;stroke:none" transform="translate(209.605 310.208)"/><path d="M0 0c-.063-.258-.335-.285-.522-.419-.178.12-.296.247-.307.455C-.768.601.079.505 0 0" style="fill:#012061;fill-opacity:1;fill-rule:nonzero;stroke:none" transform="translate(203.276 313.116)"/><path d="M0 0c-.082-.204-.242-.298-.455-.311-.247.162-.259.373-.194.63C-.44.64.125.27 0 0" style="fill:#012061;fill-opacity:1;fill-rule:nonzero;stroke:none" transform="translate(193.813 319.023)"/><path d="M0 0c-.078-.2-.204-.317-.417-.333-.215.138-.472.206-.442.488C-.688.801.169.494 0 0" style="fill:#012061;fill-opacity:1;fill-rule:nonzero;stroke:none" transform="translate(208.288 309.503)"/><path d="M0 0a.445.445 0 0 0-.563-.242c-.257.221-.041.631.251.695C-.193.324.158.247 0 0" style="fill:#012061;fill-opacity:1;fill-rule:nonzero;stroke:none" transform="translate(223.946 299.118)"/><path d="M0 0c-.113-.178-.182-.437-.464-.405a.776.776 0 0 0-.371.594C-.699.859.287.519 0 0" style="fill:#012061;fill-opacity:1;fill-rule:nonzero;stroke:none" transform="translate(206.976 309.348)"/><path d="M0 0c-.057-.317-.205-.473-.57-.485-.257.066-.272.429-.197.629l.317.25z" style="fill:#012061;fill-opacity:1;fill-rule:nonzero;stroke:none" transform="translate(203.575 311.713)"/><path d="M0 0c-.175-.037-.269-.178-.489-.135-.319.056-.334.418-.291.641C-.468 1.062.379.507 0 0" style="fill:#012061;fill-opacity:1;fill-rule:nonzero;stroke:none" transform="translate(205.547 309.32)"/><path d="M0 0c-.116-.178-.218-.412-.5-.381-.458.147-.25.466-.171.818C-.402.615.022.341 0 0" style="fill:#012061;fill-opacity:1;fill-rule:nonzero;stroke:none" transform="translate(204.21 310.442)"/><path d="M0 0c-.22-.106-.357-.623-.665-.323-.19.325-.043.785.353.777C-.131.339-.016.212 0 0" style="fill:#012061;fill-opacity:1;fill-rule:nonzero;stroke:none" transform="translate(192.665 315.785)"/><path d="M0 0c-.058-.166-.244-.294-.456-.307A.43.43 0 0 0-.694.25C-.562.615.062.413 0 0" style="fill:#012061;fill-opacity:1;fill-rule:nonzero;stroke:none" transform="translate(221.393 296.896)"/><path d="M0 0c-.09-.293-.269-.178-.458-.158-.257.221-.207.69.192.683C-.088.41.312.25 0 0" style="fill:#012061;fill-opacity:1;fill-rule:nonzero;stroke:none" transform="translate(192.406 311.821)"/><path d="M0 0c-.129.035-.22-.105-.267-.176-.256-.09-.505.227-.404.461C-.489.873.242.447 0 0" style="fill:#012061;fill-opacity:1;fill-rule:nonzero;stroke:none" transform="translate(217.858 295.16)"/><path d="M0 0c-.081-.201-.208-.319-.42-.333-.201.079-.293.244-.312.454C-.652.625.086.447 0 0" style="fill:#012061;fill-opacity:1;fill-rule:nonzero;stroke:none" transform="translate(193.157 308.56)"/><path d="M0 0c-.162.057-.522-.113-.54.248-.04.33.345.531.616.408C.265.482.209.166 0 0" style="fill:#012061;fill-opacity:1;fill-rule:nonzero;stroke:none" transform="translate(214.129 294.31)"/><path d="M0 0c-.021-.188-.232-.201-.409-.237l-.319.208.346.529C-.206.384.03.28 0 0" style="fill:#012061;fill-opacity:1;fill-rule:nonzero;stroke:none" transform="translate(194.354 305.362)"/><path d="M0 0c-.128-.115-.228-.506-.453-.309-.259.069-.342.325-.267.526C-.582.582.063.412 0 0" style="fill:#012061;fill-opacity:1;fill-rule:nonzero;stroke:none" transform="translate(210.696 294.374)"/><path d="M0 0c-.043-.222-.229-.199-.406-.237-.191.172-.466.603.004.703C-.146.55.105.234 0 0" style="fill:#012061;fill-opacity:1;fill-rule:nonzero;stroke:none" transform="translate(196.062 302.1)"/><path d="M0 0c-.079-.203-.243-.297-.454-.311-.201.081-.32.209-.331.418C-.676.59.03.436 0 0" style="fill:#012061;fill-opacity:1;fill-rule:nonzero;stroke:none" transform="translate(207.68 294.776)"/><path d="M0 0c-.018-.188-.269-.178-.406-.239-.18.116-.3.242-.309.454C-.641.723.262.484 0 0" style="fill:#012061;fill-opacity:1;fill-rule:nonzero;stroke:none" transform="translate(198.398 299.724)"/><path d="M0 0c-.093-.141-.229-.352-.406-.236-.178.113-.296.242-.311.451C-.524.595.144.46 0 0" style="fill:#012061;fill-opacity:1;fill-rule:nonzero;stroke:none" transform="translate(203.985 295.837)"/><path d="M0 0c-.172-.188-.604-.461-.74.03-.036.174.172.494.43.426C-.113.378-.015.214 0 0" style="fill:#012061;fill-opacity:1;fill-rule:nonzero;stroke:none" transform="translate(201.144 297.432)"/><path d="M0 0c0 12.38 10.071 22.452 22.449 22.452C34.831 22.452 44.901 12.38 44.901 0c0-12.379-10.07-22.452-22.452-22.452C10.071-22.452 0-12.379 0 0m-1.749 0c0-13.345 10.856-24.2 24.198-24.2C35.793-24.2 46.65-13.345 46.65 0c0 13.344-10.857 24.2-24.201 24.2C9.107 24.2-1.749 13.344-1.749 0" style="fill:#012061;fill-opacity:1;fill-rule:nonzero;stroke:none" transform="translate(188.399 312.926)"/><path d="m0 0-4.553 6.861-2.37-1.572s-.488-.262-.282-.578c.177-.264.538-.096.538-.096s.147.065.326-.207l3.302-4.971s.155-.296-.054-.585c0 0-.231-.284-.093-.493.195-.293.509-.134.642-.05z" style="fill:#012061;fill-opacity:1;fill-rule:nonzero;stroke:none" transform="translate(231.972 281.57)"/><path d="m0 0-1.077 1.621L-3.212.205l.315-.473s.639.389 1.379.235C-.771-.188-.303-.459-.303-.459s.213-.178.392.035C.216-.275 0 0 0 0" style="fill:#012061;fill-opacity:1;fill-rule:nonzero;stroke:none" transform="translate(231.038 288.495)"/><path d="m0 0 1.077-1.621-2.135-1.418-.314.475s.604.435.752 1.181C-.472-.639-.543-.1-.543-.1s-.08.262.188.348C-.171.307 0 0 0 0" style="fill:#012061;fill-opacity:1;fill-rule:nonzero;stroke:none" transform="translate(233.442 284.872)"/><path d="M0 0s.341.547.144 1.262c-.195.713.32.58.401.461L2.097-.619c.082-.121.001-.647-.577-.19C.938-.352.299-.451.299-.451Z" style="fill:#012061;fill-opacity:1;fill-rule:nonzero;stroke:none" transform="translate(229.84 285.683)"/><path d="M0 0s-.656.236-.4.889l2.054 5.228c.258.654.9.381.9.381l.228.582S-.669 8.578-2.22 4.625C-3.773.67-.229-.584-.229-.584z" style="fill:#012061;fill-opacity:1;fill-rule:nonzero;stroke:none" transform="translate(196.984 278.413)"/><path d="M0 0s.642-.275.897.379l2.057 5.228c.255.655-.399.891-.399.891l.225.582s3.547-1.252 1.995-5.207C3.219-2.078-.228-.582-.228-.582z" style="fill:#012061;fill-opacity:1;fill-rule:nonzero;stroke:none" transform="translate(197.443 278.233)"/><path d="M0 0s-.581.396-.167.967L3.14 5.506c.413.568.969.139.969.139l.371.505S1.496 8.486-1.006 5.053c-2.502-3.434.634-5.559.634-5.559z" style="fill:#012061;fill-opacity:1;fill-rule:nonzero;stroke:none" transform="translate(189.153 282.704)"/><path d="M0 0c.668 1.814-.428 2.998-.428 2.998l.369.506S.4 3.17.732 2.525c0 0 .266-.63.58-.502.205.084.42.174.579.059a.327.327 0 0 0 .084-.445L.48-.418S.282-.689.04-.506C-.171-.346 0 0 0 0" style="fill:#012061;fill-opacity:1;fill-rule:nonzero;stroke:none" transform="translate(194.079 285.067)"/><path d="M0 0c-1.769-.98-3.226.082-3.226.082l.368.504S-1.651-.193-.327.52c0 0 .359.216.523-.086C.322.199 0 0 0 0" style="fill:#012061;fill-opacity:1;fill-rule:nonzero;stroke:none" transform="translate(192.396 281.835)"/><path d="M0 0c.157-.02.511-.027.563.318.033.248-.3.409-.3.409-.314.169-.303.503-.303.503l.991 6.956-2.83.398s-.541.131-.595-.244c-.044-.313.34-.43.34-.43s.153-.049.107-.371l-.836-5.906s-.081-.326-.432-.403c0 0-.367-.058-.399-.31-.05-.346.294-.438.451-.459z" style="fill:#012061;fill-opacity:1;fill-rule:nonzero;stroke:none" transform="translate(206.001 275.42)"/><path d="m0 0 .275 1.928-2.539.359-.08-.562s.737-.133 1.189-.743c.453-.607.623-1.123.623-1.123s.04-.275.316-.236C-.023-.35 0 0 0 0" style="fill:#012061;fill-opacity:1;fill-rule:nonzero;stroke:none" transform="translate(209.691 281.249)"/><path d="M0 0s.618.186.948.848c.326.662.624.22.603.076l-.392-2.781c-.023-.141-.43-.485-.56.242-.132.73-.674 1.08-.674 1.08z" style="fill:#012061;fill-opacity:1;fill-rule:nonzero;stroke:none" transform="translate(206.925 279.942)"/><path d="M0 0c.157.016.504.094.468.441C.445.693.082.766.082.766c-.346.091-.414.42-.414.42l-.705 6.988-2.84-.289s-.558-.004-.519-.379c.03-.315.432-.338.432-.338s.158-.01.194-.334l.6-5.938s-.002-.332-.324-.49c0 0-.34-.144-.315-.396.037-.348.391-.354.549-.338z" style="fill:#012061;fill-opacity:1;fill-rule:nonzero;stroke:none" transform="translate(215.121 275.356)"/><path d="m0 0-.195 1.936-2.551-.26.056-.567s.749.051 1.334-.433c.585-.483.872-.944.872-.944s.108-.255.364-.154C.063-.348 0 0 0 0" style="fill:#012061;fill-opacity:1;fill-rule:nonzero;stroke:none" transform="translate(217.31 281.9)"/><path d="M0 0s.558.326.719 1.049c.158.721.553.365.569.219l.283-2.793c.014-.145-.302-.575-.603.101-.303.674-.914.885-.914.885Z" style="fill:#012061;fill-opacity:1;fill-rule:nonzero;stroke:none" transform="translate(214.936 279.968)"/><path d="m0 0-2.789 7.746-2.675-.961s-.537-.14-.409-.494c.106-.297.5-.223.5-.223s.156.028.266-.277L-3.085.176s.078-.324-.191-.555c0 0-.294-.223-.209-.459.119-.328.464-.25.611-.197z" style="fill:#012061;fill-opacity:1;fill-rule:nonzero;stroke:none" transform="translate(223.857 277.429)"/><path d="m0 0-.658 1.83-2.411-.867.194-.535s.713.226 1.398-.1C-.793 0-.402-.375-.402-.375s.164-.225.389-.061C.146-.322 0 0 0 0" style="fill:#012061;fill-opacity:1;fill-rule:nonzero;stroke:none" transform="translate(224.598 284.378)"/><path d="m0 0 .661-1.832-2.41-.867-.194.537s.695.279 1.013.969A4.37 4.37 0 0 1-.549.033s-.017.278.263.295C-.092.34 0 0 0 0" style="fill:#012061;fill-opacity:1;fill-rule:nonzero;stroke:none" transform="translate(226.071 280.284)"/><path d="M0 0s.462.451.44 1.191c-.021.739.449.487.498.352l.952-2.645c.048-.136-.152-.63-.608-.046C.827-.566.184-.512.184-.512Z" style="fill:#012061;fill-opacity:1;fill-rule:nonzero;stroke:none" transform="translate(222.768 281.93)"/><path d="M0 0c.079.145.216.489-.106.665C-.339.792-.617.523-.617.523-.9.28-1.224.416-1.224.416l-5.5 2.998c-.301.164-.243.321-.243.321s.14.395-.152.554c-.348.19-.577-.344-.577-.344l-1.435-2.63s-.325-.482.024-.672c.291-.16.546.173.546.173s.105.131.402-.032l5.502-2.999s.288-.198.238-.569c0 0-.076-.378.156-.505.325-.176.538.125.618.272z" style="fill:#012061;fill-opacity:1;fill-rule:nonzero;stroke:none" transform="translate(185.835 328.584)"/><path d="m0 0-8.301 2.42-.834-2.868s-.215-.542.163-.653c.321-.093.499.287.499.287s.076.151.399.055l6.017-1.752s.325-.133.352-.506c0 0 .007-.385.262-.461.352-.103.497.239.545.399z" style="fill:#012061;fill-opacity:1;fill-rule:nonzero;stroke:none" transform="translate(182.518 320.891)"/><path d="M0 0s.226.702-.483.909l-5.66 1.651c-.709.206-.895-.508-.895-.508l-.631.184s.976 3.848 5.261 2.599C1.874 3.588.633-.183.633-.183z" style="fill:#012061;fill-opacity:1;fill-rule:nonzero;stroke:none" transform="translate(182.027 321.56)"/><path d="m0 0 6.206 6.023-2.081 2.143s-.367.455-.65.178c-.239-.23.004-.575.004-.575s.094-.139-.15-.376l-4.493-4.364s-.277-.217-.617-.058c0 0-.338.185-.528.002-.264-.258-.041-.554.076-.672Z" style="fill:#012061;fill-opacity:1;fill-rule:nonzero;stroke:none" transform="translate(232.15 333.29)"/><path d="m0 0 1.466 1.425-1.875 1.929-.428-.416s.526-.584.51-1.38C-.344.761-.535.225-.535.225s-.142-.254.111-.401C-.243-.277 0 0 0 0" style="fill:#012061;fill-opacity:1;fill-rule:nonzero;stroke:none" transform="translate(239.121 335.591)"/><path d="m0 0-1.469-1.423L-3.343.506l.432.416s.564-.543 1.364-.549C-.75.366-.211.539-.211.539S.048.676.188.417C.283.236 0 0 0 0" style="fill:#012061;fill-opacity:1;fill-rule:nonzero;stroke:none" transform="translate(235.863 332.427)"/><path d="M0 0s.633-.244 1.331.096c.697.339.659-.22.55-.325L-.234-2.284c-.109-.105-.665-.126-.308.561.362.688.134 1.327.134 1.327z" style="fill:#012061;fill-opacity:1;fill-rule:nonzero;stroke:none" transform="translate(235.985 336.283)"/><path d="m0 0-2.126 8.382-2.895-.736s-.577-.091-.479-.475c.083-.32.499-.282.499-.282s.168.013.252-.318L-3.207.499s.052-.348-.255-.562c0 0-.331-.201-.266-.458.092-.356.46-.31.621-.268z" style="fill:#012061;fill-opacity:1;fill-rule:nonzero;stroke:none" transform="translate(203.874 341.564)"/><path d="m0 0-.504 1.981-2.607-.662.147-.581s.767.167 1.449-.243C-.833.082-.461-.351-.461-.351s.148-.25.404-.103C.117-.35 0 0 0 0" style="fill:#012061;fill-opacity:1;fill-rule:nonzero;stroke:none" transform="translate(205.356 348.752)"/><path d="m0 0 .502-1.981-2.608-.663-.145.581s.751.22 1.154.908c.406.687.524 1.243.524 1.243s.011.292.305.285C-.064.366 0 0 0 0" style="fill:#012061;fill-opacity:1;fill-rule:nonzero;stroke:none" transform="translate(206.474 344.35)"/><path d="M0 0s.531.425.582 1.2c.053.775.518.465.557.317l.725-2.859c.035-.146-.223-.641-.638.014A1.804 1.804 0 0 1 .142-.55Z" style="fill:#012061;fill-opacity:1;fill-rule:nonzero;stroke:none" transform="translate(203.191 346.38)"/><path d="M0 0s-.032.731.704.748l5.898.123c.736.014.729-.719.729-.719l.659.015s.054 3.947-4.402 3.854C-.871 3.929-.656-.015-.656-.015z" style="fill:#012061;fill-opacity:1;fill-rule:nonzero;stroke:none" transform="translate(240.926 313.848)"/><path d="M0 0s-.003-.735.731-.719l5.9.123c.737.015.699.747.699.747l.657.014S8.21-3.776 3.749-3.87C-.71-3.961-.656-.014-.656-.014z" style="fill:#012061;fill-opacity:1;fill-rule:nonzero;stroke:none" transform="translate(240.938 313.332)"/><path d="M0 0c.16-.044.528-.1.626.255C.696.51.372.719.372.719c-.306.22-.248.569-.248.569l1.972 7.105-2.891.8s-.547.207-.651-.175c-.09-.319.297-.494.297-.494s.15-.072.059-.399l-1.672-6.038s-.129-.328-.504-.36c0 0-.383-.011-.458-.267-.096-.354.247-.496.408-.542z" style="fill:#012061;fill-opacity:1;fill-rule:nonzero;stroke:none" transform="translate(218.62 341.344)"/><path d="m0 0-1.114.309.176.633s.7-.215.895.496l.609 2.187c.195.711-.517.887-.517.887l.176.633 1.11-.307s2.754-.546 2.028-3.161C2.64-.935 0 0 0 0" style="fill:#012061;fill-opacity:1;fill-rule:nonzero;stroke:none" transform="translate(220.98 344.456)"/><path d="M0 0c-.533 1.96-2.195 2.079-2.195 2.079l.007.656s.597-.006 1.275-.355c0 0 .61-.379.801-.076.127.196.251.406.458.404.205-.003.346-.177.343-.331 0-.182-.027-2.443-.027-2.443S.659-.417.342-.408C.063-.399 0 0 0 0" style="fill:#012061;fill-opacity:1;fill-rule:nonzero;stroke:none" transform="translate(213.592 348.312)"/><path d="M0 0c.655-1.918 2.157-1.774 2.157-1.774L2.15-2.43s-.641-.03-1.293.321c0 0-.413.25-.709.036-.188-.136-.331-.332-.535-.329-.206.002-.348.176-.345.33.003.179.024 2.215.024 2.215s.007.269.336.266C-.08.406 0 0 0 0" style="fill:#012061;fill-opacity:1;fill-rule:nonzero;stroke:none" transform="translate(208.653 344.83)"/><path d="M0 0c.341.025.616.111.989.331.402.228.603.55.617.979-.011.566-.451.949-1.347 1.174l-.976.224a8.846 8.846 0 0 0-1.008.264 3.02 3.02 0 0 0-1.037.548 2.15 2.15 0 0 0-.617.815 2.354 2.354 0 0 0-.191 1.001c0 .777.289 1.426.861 1.927.549.482 1.421.725 2.29.73l-.007-.67c-.468-.004-1.01-.106-1.321-.307-.303-.196-.452-.449-.456-.767.003-.27.113-.452.342-.558.233-.106.521-.188.855-.244L.022 5.25c.93-.2 1.592-.544 2.069-.917.617-.484 1.275-1.296 1.265-2.137-.003-.347-.032-.666-.154-.976C2.963.614 2.521.148 1.951-.188 1.384-.521.628-.679-.011-.673Z" style="fill:#012061;fill-opacity:1;fill-rule:nonzero;stroke:none" transform="translate(211.321 343.066)"/><path d="M0 0c1.733 1.059 1.385 2.686 1.385 2.686l.633.176s.16-.575.013-1.322c0 0-.195-.693.147-.79.225-.066.464-.131.518-.329.053-.197-.075-.382-.222-.423L.12-.657s-.34-.094-.418.214C-.368-.174 0 0 0 0" style="fill:#012061;fill-opacity:1;fill-rule:nonzero;stroke:none" transform="translate(245.565 320.157)"/><path d="M0 0c-1.661-1.166-1.101-2.569-1.101-2.569l-.635-.177s-.205.609-.052 1.334c0 0 .126.467-.16.689-.185.145-.412.227-.468.425-.054.196.073.381.223.421.172.049 2.134.595 2.134.595S.2.788.292.469C.368.187 0 0 0 0" style="fill:#012061;fill-opacity:1;fill-rule:nonzero;stroke:none" transform="translate(240.844 323.93)"/><path d="M0 0c.122-.322.28-.563.594-.858.334-.324.698-.428 1.112-.32.541.167.787.7.753 1.621l-.058.999a9.22 9.22 0 0 0-.027 1.04c.012.43.091.816.238 1.147.14.329.345.605.611.825.266.217.572.371.907.461.749.218 1.45.121 2.092-.29.617-.393 1.094-1.164 1.34-1.997l-.646-.179c-.133.448-.385.941-.665 1.185-.272.235-.555.307-.862.222-.256-.078-.404-.235-.44-.483a3.47 3.47 0 0 1 .003-.888l.099-1.046c.067-.948-.078-1.681-.304-2.241-.296-.727-.89-1.588-1.698-1.811-.338-.095-.651-.155-.983-.123-.647.06-1.217.355-1.699.808-.479.452-.842 1.135-1.013 1.749z" style="fill:#012061;fill-opacity:1;fill-rule:nonzero;stroke:none" transform="translate(239.892 320.876)"/><path d="M0 0c1.434 1.438.709 2.937.709 2.937l.574.322s.289-.522.327-1.283c0 0-.026-.719.33-.733.233-.011.48-.018.581-.196a.35.35 0 0 0-.116-.464L.273-.609s-.307-.172-.458.108C-.315-.257 0 0 0 0" style="fill:#012061;fill-opacity:1;fill-rule:nonzero;stroke:none" transform="translate(242.889 328.154)"/><path d="M0 0c-1.337-1.526-.464-2.758-.464-2.758l-.57-.321s-.348.543-.367 1.284c0 0 .011.483-.323.633-.212.094-.452.122-.552.299a.348.348 0 0 0 .114.465L-.229.684s.238.129.4-.159C.313.27 0 0 0 0" style="fill:#012061;fill-opacity:1;fill-rule:nonzero;stroke:none" transform="translate(237.41 330.704)"/><path d="M0 0c.195-.285.405-.48.78-.694.4-.234.78-.251 1.16-.048.484.29.596.866.346 1.755l-.289.956a7.737 7.737 0 0 0-.272 1.004 2.892 2.892 0 0 0-.042 1.171 2.1 2.1 0 0 0 .399.945c.204.272.464.496.772.661.671.389 1.378.462 2.099.215.691-.236 1.336-.873 1.774-1.622l-.588-.328c-.233.402-.591.823-.922.994-.321.164-.613.167-.891.01-.235-.134-.337-.321-.313-.574a3.27 3.27 0 0 1 .214-.861l.341-.992c.287-.904.319-1.651.234-2.249-.114-.778-.488-1.752-1.222-2.164-.303-.169-.596-.3-.925-.351-.641-.095-1.267.058-1.842.385-.57.324-1.086.904-1.398 1.459z" style="fill:#012061;fill-opacity:1;fill-rule:nonzero;stroke:none" transform="translate(237.205 327.511)"/><path d="M0 0c.146-.083.487-.23.671.09C.804.32.54.603.54.603c-.24.289-.097.611-.097.611l3.676 6.392L1.521 9.1s-.48.338-.677-.007c-.163-.287.164-.551.164-.551s.13-.109-.039-.403l-3.123-5.431s-.207-.285-.579-.224c0 0-.376.086-.509-.144-.185-.319.116-.542.26-.627z" style="fill:#012061;fill-opacity:1;fill-rule:nonzero;stroke:none" transform="translate(225.367 338.594)"/><path d="M0 0c-.033-.345.089-.477.089-.477s.207-.18.037-.479c-.198-.344-.78.054-.78.054l-1.679.964s-.525.241-.327.586c.147.256.553.137.553.137s.29-.064.327.237c0 0 .053 2.549.055 2.71.006.16-.157.247-.157.247l.327.57s.626-.384.994.255L.568 6.773c.37.639-.275.987-.275.987l.327.568.997-.574s2.53-1.214 1.177-3.565C1.904 2.638.586 2.792-.204 3.074c0 0 .256-.081.244-.624z" style="fill:#012061;fill-opacity:1;fill-rule:nonzero;stroke:none" transform="translate(229.309 337.618)"/><path d="M0 0c.106.128.304.438.021.673C-.184.841-.504.634-.504.634c-.322-.186-.617.01-.617.01L-2.685 1.94l-4.66 1.011c-.293.089-.177.362-.177.362s.183.38-.046.569c-.304.254-.63-.223-.63-.223l-1.904-2.297s-.409-.409-.103-.662c.229-.189.502-.018.502-.018s.118.063.455-.027l4.661-1.011 1.562-1.296s.249-.25.128-.603c0 0-.145-.356.057-.524.285-.235.551.018.656.144z" style="fill:#012061;fill-opacity:1;fill-rule:nonzero;stroke:none" transform="translate(189.44 333.195)"/><path d="m0 0-.547-.66s-.409-.409-.103-.661c.228-.19.568.062.568.062s.248.164.391-.107l.985-2.593.908-.198L.852-.708C.7-.396.741-.267.741-.267S.858.035.629.224C.327.478 0 0 0 0" style="fill:#012061;fill-opacity:1;fill-rule:nonzero;stroke:none" transform="translate(183.783 339.92)"/><path d="m0 0 1.423 1.063-4.345 3.236-.186.513 2.137 1.597 6.172-4.596s.239-.258.595-.157c0 0 .361.128.52-.084.222-.295-.047-.55-.18-.648l-2.74-2.046c-.132-.099-.452-.282-.673.013-.158.212.068.522.068.522.341.397.018.615.018.615l-.816.611L.407-.544Z" style="fill:#012061;fill-opacity:1;fill-rule:nonzero;stroke:none" transform="translate(190.114 337.956)"/><path d="M0 0c-.466-.205-.594.156-.594.156l-1.704 4.636-1.104.825 2.174-5.931s.179-.302-.019-.615c0 0-.226-.311-.068-.524.221-.294.541-.111.675-.012l.981.733c.131.099.397.353.179.648C.361.129 0 0 0 0" style="fill:#012061;fill-opacity:1;fill-rule:nonzero;stroke:none" transform="translate(190.881 335.859)"/><path d="M0 0h-8.647v-2.986s-.055-.582.341-.582c.331 0 .398.415.398.415s.028.167.369.167h6.267s.348-.036.479-.388c0 0 .114-.368.379-.368.367 0 .414.368.414.534z" style="fill:#012061;fill-opacity:1;fill-rule:nonzero;stroke:none" transform="translate(181.423 313.278)"/><path d="M0 0h-2.045v-2.689h.597s.03.785.595 1.344c.568.56 1.079.813 1.079.813s.278.084.198.365C.368.031 0 0 0 0" style="fill:#012061;fill-opacity:1;fill-rule:nonzero;stroke:none" transform="translate(174.82 316.48)"/><path d="M0 0h2.045v-2.689h-.599s-.028.785-.595 1.344c-.568.56-1.077.813-1.077.813s-.278.084-.198.365C-.368.031 0 0 0 0" style="fill:#012061;fill-opacity:1;fill-rule:nonzero;stroke:none" transform="translate(179.385 316.48)"/><path d="M0 0s-.283.617-1.021.858c-.734.245-.32.618-.17.618h2.952c.152 0 .568-.373-.172-.618C.853.617.569 0 .569 0Z" style="fill:#012061;fill-opacity:1;fill-rule:nonzero;stroke:none" transform="translate(176.585 313.801)"/></g></svg>