<svg xmlns="http://www.w3.org/2000/svg" xml:space="preserve" width="102.58707" height="97.972664" viewBox="0 0 102.58707 97.972663"><defs><clipPath id="a" clipPathUnits="userSpaceOnUse"><path d="M0 737.01h510.24V0H0Z"/></clipPath></defs><g clip-path="url(#a)" transform="matrix(1.33333 0 0 -1.33333 -285.152 608.496)"><path d="m0 0 3.333 6.75h.02L6.685 0l7.466-1.089-5.399-5.27 1.276-7.42-6.675 3.501v-.01l-.03.01-6.665-3.501 1.276 7.42-5.401 5.27z" style="fill:#c13231;fill-opacity:1;fill-rule:nonzero;stroke:none" transform="translate(249.038 449.622)"/><path d="M0 0c0 2.389 1.93 4.329 4.31 4.329A4.326 4.326 0 0 0 8.639 0 4.326 4.326 0 0 0 4.31-4.329C1.93-4.329 0-2.389 0 0" style="fill:#c13231;fill-opacity:1;fill-rule:nonzero;stroke:none" transform="translate(213.864 441.24)"/><path d="M0 0c0 2.389 1.931 4.329 4.311 4.329A4.326 4.326 0 0 0 8.64 0a4.326 4.326 0 0 0-4.329-4.329C1.931-4.329 0-2.389 0 0" style="fill:#c13231;fill-opacity:1;fill-rule:nonzero;stroke:none" transform="translate(282.164 441.24)"/><path d="m0 0-1.815 49.33 15.667-9.959 1.26-37.848C9.767 1.393 4.693.251 0 0" style="fill:#c13231;fill-opacity:1;fill-rule:nonzero;stroke:none" transform="translate(217.837 382.893)"/><path d="M0 0c-4.693.251-9.768 1.393-15.111 1.523l1.258 37.848L1.815 49.33 0 0" style="fill:#c13231;fill-opacity:1;fill-rule:nonzero;stroke:none" transform="translate(286.928 382.893)"/><path d="M0 0c-4.971.111-9.221.467-14.537.467-5.344 0-9.648-.356-14.61-.467l-.87 37.445 15.48 8.462 15.574-8.462z" style="fill:#c13231;fill-opacity:1;fill-rule:nonzero;stroke:none" transform="translate(266.818 384.71)"/></g></svg>