<svg xmlns="http://www.w3.org/2000/svg" xml:space="preserve" width="189.57921" height="245.3627" viewBox="0 0 189.57921 245.3627"><defs><clipPath id="a" clipPathUnits="userSpaceOnUse"><path d="M0 248.458h248.458V0H0Z"/></clipPath></defs><g clip-path="url(#a)" style="stroke-width:.496505" transform="matrix(2.68544 0 0 -2.68544 -238.785 456.29)"><g style="stroke-width:.496505"><path d="M0 0a.085.085 0 0 0-.085.085v5.579H-2.15a.085.085 0 0 0-.085.085v.897c0 .047.038.085.085.085h5.269a.085.085 0 0 0 .085-.085v-.897a.085.085 0 0 0-.085-.085H1.054V.085A.085.085 0 0 0 .969 0Z" style="fill:#063;fill-opacity:1;fill-rule:nonzero;stroke:none;stroke-width:.496505" transform="translate(91.153 84.827)"/></g><g style="stroke-width:.496505"><path d="M0 0a.085.085 0 0 0-.085.085v5.872q-.001.27-.382.627a.09.09 0 0 0-.021.094.08.08 0 0 0 .079.053h4.843a.086.086 0 0 0 .085-.085v-.897a.086.086 0 0 0-.085-.085H1.055V3.943H4.31a.086.086 0 0 0 .085-.085v-.897a.086.086 0 0 0-.085-.085H1.055V1.067h3.451a.085.085 0 0 0 .085-.085V.085A.085.085 0 0 0 4.506 0Z" style="fill:#063;fill-opacity:1;fill-rule:nonzero;stroke:none;stroke-width:.496505" transform="translate(96.56 84.827)"/></g><g style="stroke-width:.496505"><path d="m0 0-2.853 4.712V.085A.085.085 0 0 0-2.938 0h-.969a.085.085 0 0 0-.085.085v5.872q-.001.27-.382.627a.09.09 0 0 0-.022.094.09.09 0 0 0 .08.053h1.329a.45.45 0 0 0 .36-.17l2.5-4.214v3.61q-.001.27-.382.627a.09.09 0 0 0-.021.094.08.08 0 0 0 .079.053H.647q.207 0 .29-.106a.47.47 0 0 0 .076-.284V.085A.085.085 0 0 0 .928 0Z" style="fill:#063;fill-opacity:1;fill-rule:nonzero;stroke:none;stroke-width:.496505" transform="translate(107.428 84.827)"/></g><g style="stroke-width:.496505"><path d="M0 0c.559 0 .97.093 1.222.275.247.179.367.462.367.868 0 .398-.119.672-.365.839-.253.173-.665.261-1.224.261h-1.138V0Zm-2.192-3.421a.085.085 0 0 0-.085.085v5.872q-.001.27-.382.627a.09.09 0 0 0-.022.094.09.09 0 0 0 .079.054h2.88c.746 0 1.346-.183 1.782-.542.443-.366.668-.918.668-1.644 0-.72-.225-1.272-.667-1.642-.437-.365-1.037-.55-1.783-.55h-1.416v-2.269a.085.085 0 0 0-.085-.085z" style="fill:#063;fill-opacity:1;fill-rule:nonzero;stroke:none;stroke-width:.496505" transform="translate(113.165 88.248)"/></g><g style="stroke-width:.496505"><path d="M0 0a.085.085 0 0 0-.085.085v5.872q-.001.27-.382.627a.09.09 0 0 0-.021.094.08.08 0 0 0 .079.053h4.842a.086.086 0 0 0 .085-.085v-.897a.086.086 0 0 0-.085-.085H1.055V3.943H4.31a.086.086 0 0 0 .085-.085v-.897a.086.086 0 0 0-.085-.085H1.055V1.067h3.451a.085.085 0 0 0 .085-.085V.085A.085.085 0 0 0 4.506 0Z" style="fill:#063;fill-opacity:1;fill-rule:nonzero;stroke:none;stroke-width:.496505" transform="translate(118.22 84.827)"/></g><g style="stroke-width:.496505"><path d="M0 0c.556 0 .967.084 1.223.248.246.158.366.409.366.766 0 .348-.118.59-.36.738-.255.152-.669.23-1.229.23h-1.13V0Zm1.904-3.682L.361-1.033l-.082-.043H-1.13v-2.521a.085.085 0 0 0-.085-.085h-.976a.085.085 0 0 0-.085.085v5.872q-.001.279-.382.627a.09.09 0 0 0-.022.094.09.09 0 0 0 .079.054h2.88c.743 0 1.342-.17 1.78-.506.444-.342.67-.863.67-1.548 0-.918-.407-1.545-1.209-1.866l1.566-2.684a.08.08 0 0 0 .001-.085.09.09 0 0 0-.074-.043Z" style="fill:#063;fill-opacity:1;fill-rule:nonzero;stroke:none;stroke-width:.496505" transform="translate(127.371 88.509)"/></g><g style="stroke-width:.496505"><path d="M0 0c-.87 0-1.584.321-2.12.954-.533.626-.804 1.498-.804 2.59 0 1.036.261 1.893.777 2.545.521.657 1.227.99 2.098.99.648 0 1.21-.209 1.67-.622.457-.413.779-.997.958-1.735a.09.09 0 0 0-.016-.073.09.09 0 0 0-.067-.032H1.421a.09.09 0 0 0-.082.064c-.106.412-.281.739-.523.971a1.23 1.23 0 0 1-.881.342c-.499 0-.912-.219-1.225-.648-.318-.442-.481-1.047-.481-1.802 0-.737.162-1.34.478-1.789.315-.444.706-.661 1.195-.661.797 0 1.269.459 1.442 1.402.008.04.043.069.084.069h1.1q.04 0 .066-.03a.1.1 0 0 0 .018-.07c-.14-.771-.454-1.38-.93-1.812A2.44 2.44 0 0 0 0 0" style="fill:#063;fill-opacity:1;fill-rule:nonzero;stroke:none;stroke-width:.496505" transform="translate(135.151 84.653)"/></g><g style="stroke-width:.496505"><path d="M0 0a.085.085 0 0 0-.085.085v5.872q-.001.27-.383.627a.09.09 0 0 0-.021.094.08.08 0 0 0 .079.053h4.843a.086.086 0 0 0 .085-.085v-.897a.086.086 0 0 0-.085-.085H1.054V3.943h3.255a.086.086 0 0 0 .085-.085v-.897a.086.086 0 0 0-.085-.085H1.054V1.067h3.452a.085.085 0 0 0 .085-.085V.085A.085.085 0 0 0 4.506 0Z" style="fill:#063;fill-opacity:1;fill-rule:nonzero;stroke:none;stroke-width:.496505" transform="translate(140.069 84.827)"/></g><g style="stroke-width:.496505"><path d="m0 0-2.853 4.712V.085A.085.085 0 0 0-2.938 0h-.969a.085.085 0 0 0-.085.085v5.872q-.001.27-.382.627a.09.09 0 0 0-.022.094.09.09 0 0 0 .08.053h1.33a.45.45 0 0 0 .36-.169l2.5-4.215v3.61q-.001.27-.383.627a.09.09 0 0 0-.021.094.08.08 0 0 0 .079.053H.648q.206 0 .289-.106a.46.46 0 0 0 .076-.284V.085A.085.085 0 0 0 .928 0Z" style="fill:#063;fill-opacity:1;fill-rule:nonzero;stroke:none;stroke-width:.496505" transform="translate(150.935 84.827)"/></g><g style="stroke-width:.496505"><path d="M0 0a.085.085 0 0 0-.085.085v5.579h-2.064a.085.085 0 0 0-.085.085v.897c0 .047.038.085.085.085H3.12a.085.085 0 0 0 .085-.085v-.897a.085.085 0 0 0-.085-.085H1.055V.085A.085.085 0 0 0 .97 0Z" style="fill:#063;fill-opacity:1;fill-rule:nonzero;stroke:none;stroke-width:.496505" transform="translate(156.309 84.827)"/></g><g style="stroke-width:.496505"><path d="M0 0q0-.423-.294-.622-.293-.2-.786-.199-.428 0-.725.238-.294.237-.365.752h.44q0-.278.204-.451a.7.7 0 0 1 .467-.172q.279 0 .453.103.173.104.173.304a.3.3 0 0 1-.02.12.3.3 0 0 1-.063.094.4.4 0 0 1-.097.074A1 1 0 0 1-.743.3l-.159.049a4 4 0 0 1-.183.046q-.097.021-.202.045-.803.186-.803.807 0 .335.258.526.256.192.717.193.45 0 .712-.22.263-.22.291-.658h-.436q0 .25-.154.379-.152.129-.441.129a.7.7 0 0 1-.375-.084q-.138-.087-.138-.233 0-.095.042-.17a.4.4 0 0 1 .101-.121.7.7 0 0 1 .193-.095q.132-.047.235-.074t.312-.075q.41-.103.591-.275A.62.62 0 0 0 0 0" style="fill:#7a1619;fill-opacity:1;fill-rule:nonzero;stroke:none;stroke-width:.496505" transform="translate(91.125 79.373)"/></g><g style="stroke-width:.496505"><path d="M0 0q0 .257-.173.369-.173.11-.545.11h-.524v-.975h.524q.372 0 .545.118T0 0m.414-.006q0-.424-.272-.639-.272-.214-.74-.214h-.644v-.951h-.414V.564q0 .122-.177.278h1.235q.468 0 .74-.21.272-.213.272-.638" style="fill:#7a1619;fill-opacity:1;fill-rule:nonzero;stroke:none;stroke-width:.496505" transform="translate(95.4 80.426)"/></g><g style="stroke-width:.496505"><path d="M0 0h-1.931v2.374q0 .123-.176.277h2.076v-.362h-1.486v-.765h1.432v-.362h-1.432v-.8H0Z" style="fill:#7a1619;fill-opacity:1;fill-rule:nonzero;stroke:none;stroke-width:.496505" transform="translate(100.362 78.616)"/></g><g style="stroke-width:.496505"><path d="M0 0h.472Q.382-.458.085-.714a1.04 1.04 0 0 0-.697-.255q-.545 0-.881.374T-1.828.431q0 .618.325 1.006t.871.388q.403 0 .691-.244.287-.242.399-.683h-.461a.84.84 0 0 1-.233.41.59.59 0 0 1-.404.147.67.67 0 0 1-.554-.276q-.212-.278-.212-.748-.001-.463.211-.744a.65.65 0 0 1 .542-.282Q-.117-.595 0 0" style="fill:#7a1619;fill-opacity:1;fill-rule:nonzero;stroke:none;stroke-width:.496505" transform="translate(104.74 79.514)"/></g><g style="stroke-width:.496505"><path d="M0 0h-.414v2.374q0 .123-.18.277h.472q.074 0 .099-.027.024-.029.023-.096Z" style="fill:#7a1619;fill-opacity:1;fill-rule:nonzero;stroke:none;stroke-width:.496505" transform="translate(108.292 78.616)"/></g><g style="stroke-width:.496505"><path d="m0 0-.434 1.078L-.866 0Zm.858-1.049H.425l-.278.687h-1.161l-.278-.687h-.432L-.777 1.3q.042.139-.089.303h.65z" style="fill:#7a1619;fill-opacity:1;fill-rule:nonzero;stroke:none;stroke-width:.496505" transform="translate(112.585 79.665)"/></g><g style="stroke-width:.496505"><path d="M0 0h-1.931v2.374q0 .123-.175.277h.47q.07 0 .095-.03.025-.028.025-.093V.362H0Z" style="fill:#7a1619;fill-opacity:1;fill-rule:nonzero;stroke:none;stroke-width:.496505" transform="translate(117.882 78.616)"/></g><g style="stroke-width:.496505"><path d="M0 0h-.923v-2.289h-.414V0h-.922v.362H0Z" style="fill:#7a1619;fill-opacity:1;fill-rule:nonzero;stroke:none;stroke-width:.496505" transform="translate(122.321 80.905)"/></g><g style="stroke-width:.496505"><path d="m0 0-1.059-1.612v-1.039h-.415v1.039l-.885 1.348q-.044.063-.244.264h.529l.808-1.222L-.46 0Z" style="fill:#7a1619;fill-opacity:1;fill-rule:nonzero;stroke:none;stroke-width:.496505" transform="translate(127.262 81.268)"/></g><g style="stroke-width:.496505"><path d="M0 0h.472Q.382-.458.084-.714a1.04 1.04 0 0 0-.696-.255q-.546 0-.881.374-.336.374-.336 1.026 0 .618.325 1.006t.871.388q.403 0 .691-.244.287-.242.4-.683h-.462a.84.84 0 0 1-.233.41.58.58 0 0 1-.404.147.67.67 0 0 1-.553-.276q-.212-.278-.212-.748 0-.463.21-.744a.65.65 0 0 1 .542-.282Q-.117-.595 0 0" style="fill:#7a1619;fill-opacity:1;fill-rule:nonzero;stroke:none;stroke-width:.496505" transform="translate(134.843 79.514)"/></g><g style="stroke-width:.496505"><path d="M0 0q.218.258.218.77 0 .51-.218.766-.218.258-.511.258t-.511-.258q-.216-.256-.215-.766 0-.515.215-.771.217-.255.511-.255.293 0 .511.256m.315 1.786Q.641 1.409.641.77q0-.643-.326-1.021A1.04 1.04 0 0 0-.511-.63a1.04 1.04 0 0 0-.824.379Q-1.66.128-1.66.77q0 .638.325 1.016t.824.378q.5 0 .826-.378" style="fill:#7a1619;fill-opacity:1;fill-rule:nonzero;stroke:none;stroke-width:.496505" transform="translate(139.496 79.175)"/></g><g style="stroke-width:.496505"><path d="M0 0h-1.485v-.766h1.432v-.362h-1.432V-2.29h-.414V.088q0 .12-.177.277H0Z" style="fill:#7a1619;fill-opacity:1;fill-rule:nonzero;stroke:none;stroke-width:.496505" transform="translate(144.652 80.903)"/></g><g style="stroke-width:.496505"><path d="M0 0h-1.484v-.766h1.431v-.362h-1.431V-2.29h-.415V.088q0 .12-.176.277H0Z" style="fill:#7a1619;fill-opacity:1;fill-rule:nonzero;stroke:none;stroke-width:.496505" transform="translate(149.148 80.903)"/></g><g style="stroke-width:.496505"><path d="M0 0h-1.931v2.374q0 .123-.176.277h2.076v-.362h-1.485v-.765h1.432v-.362h-1.432v-.8H0Z" style="fill:#7a1619;fill-opacity:1;fill-rule:nonzero;stroke:none;stroke-width:.496505" transform="translate(153.675 78.616)"/></g><g style="stroke-width:.496505"><path d="M0 0h-1.932v2.374q0 .123-.175.277h2.075v-.362h-1.485v-.765h1.432v-.362h-1.432v-.8H0Z" style="fill:#7a1619;fill-opacity:1;fill-rule:nonzero;stroke:none;stroke-width:.496505" transform="translate(158.24 78.616)"/></g><g style="stroke-width:.496505"><path d="M0 0c.059.097.073.219.059.391C.073.219.059.097 0 0m-11.081-5.788c-.109-.21-.301-.378-.51-.528.209.15.401.318.51.528M6.64 11.15c-.397.383-.783.758-1.193 1.093.41-.335.796-.71 1.193-1.093m34.805 48.83c-.287-.058-.574-.12-.861-.178.287.058.574.12.861.178M21.224 24.068l1.865 2.264 4.37 5.305 1.165 1.414.376.457 1.059 1.284 3.391 4.118.278.336 1.474 1.79.481.583 1.487 1.806.612.743 2.707 3.286.978 1.187.387.469.889 1.079c-1.567 1.196-3.088 2.446-4.467 3.854 1.379-1.408 2.9-2.658 4.467-3.854l3.268 3.967.998 1.212.446.542.881 1.069 2.743 3.33H38.463l-2.697-3.3-1.358-1.661-.372-.454-1.049-1.284-1.841-2.251-1.664-2.035-.695-.851-1.799-2.201-1.826-2.232-.766-.937-12.279-15.018-2.028-2.481-.405-.497-2.28-2.788-6.918-8.461-1.334-1.63-.401-.492-1.548-1.893-2.231-2.73-1.271-1.553-8.023-9.813-3.9-4.769-1.247-1.527h12.176l4.166 5.057 1.786 2.169L3.028 1.98l2.463 2.991.431.522L7.773 7.74l.728.884 3.336 4.049 7.948 9.648 1.024 1.243z" style="fill:#063;fill-opacity:1;fill-rule:nonzero;stroke:none;stroke-width:.496505" transform="translate(108.424 109.604)"/></g><g style="stroke-width:.496505"><path d="M-11.013 5.402A21.4 21.4 0 0 1-9.122.153c2.051-3.95 5.269-6.949 9.157-8.195q.209-.067.422-.066c.377 0 .744.155 1.01.44.685.738 1.526 1.697 2.254 2.825q.214.33.412.677C5.312-2.075 6.542.809 6.847 4.069c.133 1.43.091 2.931-.214 4.47-.05.252-.116.492-.183.731q-.01.042-.021.084c-.053.185-.116.362-.178.539l-.074.21q-.132.345-.283.675c-.063.137-.122.279-.189.412-.108.213-.226.419-.344.623q-.037.068-.073.132c-.607 1.024-1.329 1.945-2.039 2.851l-.053.068q-.422.54-.838 1.095c-.18.242-.361.484-.53.731a9.285 9.285 0 0 0-1.56 4.088c-.221 1.721.041 3.336.42 4.621.159.534.335 1.011.504 1.415.096.227.123.469.094.704a1.37 1.37 0 0 1-.371.785 1.38 1.38 0 0 1-1.477.337q-.209-.081-.416-.167a14.5 14.5 0 0 1-2.628-1.417 16.4 16.4 0 0 1-3.79-3.624 19 19 0 0 1-1.049-1.536 20 20 0 0 1-1.519-3.037q-.265-.663-.489-1.354a22.7 22.7 0 0 1-.891-3.925l-.042-.347a24 24 0 0 1-.162-2.306q-.008-.265-.009-.531.001-.125.004-.25c.018-1.631.203-3.222.54-4.744" style="fill:#063;fill-opacity:1;fill-rule:nonzero;stroke:none;stroke-width:.496505" transform="translate(100.512 140.536)"/></g><g style="stroke-width:.496505"><path d="M0 0c-.396.229-.764.444-1.126.651C-.764.444-.396.229 0 0m3.676-3.681c.055-.083.159-.251.277-.409q.122-.164.167-.311-.045.147-.167.311c-.118.158-.222.326-.277.409-.618-.345-1.175-.73-1.753-1.025.578.295 1.135.68 1.753 1.025m.035-8.167-.012-.011zm5.87 9.005zl-.462.61zM-.396-5.502a16 16 0 0 0-1.75-.347q.002-.016.005-.034.155-.834.426-1.712c.201-.654.448-1.329.752-2.038.102-.237.217-.468.325-.702q.696.194 1.37.467a13.2 13.2 0 0 1 3.82 2.384c.056.049.125.086.285.194-.16-.108-.229-.145-.285-.194a13.2 13.2 0 0 0-3.82-2.384 13 13 0 0 0-1.37-.467c.163-.354.324-.71.495-1.058q.356-.715.713-1.413c.328-.639.651-1.27.952-1.9 1.836.125 3.648.405 5.345 1.191 1.938.898 3.749 2.066 5.634 3.079q.402.218.806.431a21.3 21.3 0 0 1-1.802 4.404c-1.692-1.12-3.31-2.263-5.013-3.258 1.702.995 3.321 2.138 5.013 3.258-.919 1.663-2.047 3.14-3.343 4.371C6.663.194 4.939 1.287 3.061 1.964c-.887.319-1.808.548-2.757.671a1.38 1.38 0 0 1-1.463-.865q-.178-.463-.33-.912a17 17 0 0 1-.577-2.101c-.327-1.612-.349-3.119-.08-4.606q.878.124 1.75.347" style="fill:#063;fill-opacity:1;fill-rule:nonzero;stroke:none;stroke-width:.496505" transform="translate(105.84 167.265)"/></g><g style="stroke-width:.496505"><path d="M0 0q.14-.293.27-.588c.028-.064.052-.129.081-.194q.272-.636.496-1.281c.035-.102.075-.203.107-.305.308-.953.519-1.932.576-2.962.103-1.852-.132-3.745-.547-5.563a31 31 0 0 0-.94-3.247 39 39 0 0 0-1.625-3.934 1.38 1.38 0 0 1 .174-1.462c.098-.123.22-.218.349-.298.217-.135.465-.214.722-.214q.162 0 .322.038l.014.004c2.471.598 4.71 1.907 6.59 3.732a17.5 17.5 0 0 1 2.185 2.59q.646.929 1.191 1.952c1.211 2.27 2.034 4.866 2.369 7.635a23 23 0 0 1 .172 2.798l-.002.098a23.5 23.5 0 0 1-.508 4.763q-.158.746-.363 1.467-.404-.213-.806-.43C8.942 3.585 7.131 2.417 5.193 1.52 3.496.733 1.685.453-.151.328z" style="fill:#063;fill-opacity:1;fill-rule:nonzero;stroke:none;stroke-width:.496505" transform="translate(107.515 152.23)"/></g><g style="stroke-width:.496505"><path d="M3.322 6.374c-1.058-.735-2.111-1.493-3.19-2.21 1.079.717 2.131 1.475 3.19 2.21M-3.29 8.719c-.414-.08-.794-.187-1.179-.21.385.023.765.13 1.179.21m.891 8.321c-.154.227-.281.462-.416.695.135-.233.262-.468.416-.695m5.256-4.347c.688-.368 1.39-.748 2.109-1.1-.719.352-1.421.732-2.109 1.1m8.996-8.538c-.022.127-.038.254-.063.382-.025.124-.061.239-.091.36a10 10 0 0 1-.448 1.434c-.037.091-.08.177-.118.266a13 13 0 0 1-.895 1.674 26 26 0 0 1-1.461 2.045l-.371.477a37 37 0 0 0-1.422 1.895c-.286.416-.52.838-.723 1.26a9 9 0 0 0-.713 2.1 10.1 10.1 0 0 0-.141 3.175c.066.602.174 1.173.309 1.699.185.726.415 1.369.634 1.89a1.38 1.38 0 0 1-1.755 1.825 14.3 14.3 0 0 1-2.782-1.409q-.576-.375-1.122-.804a16.6 16.6 0 0 1-2.775-2.798q-.534-.682-1.011-1.425-.157-.245-.308-.496a19 19 0 0 1-.437-.774c-1.633-3.038-2.56-6.67-2.56-10.538q0-.488.022-.971.012-.313.032-.623a23 23 0 0 1 .434-3.154 22 22 0 0 1 .892-3.104 16.2 16.2 0 0 1 0 0q.412-1.114.933-2.15.644-1.284 1.445-2.427c1.087-1.553 2.379-2.893 3.834-3.955a14.4 14.4 0 0 1 2.758-1.586q.608-.264 1.242-.468a1.38 1.38 0 0 1 1.428.371l.004.004c.23.247.478.521.732.816a18 18 0 0 1 1.477 1.941c.158.241.313.488.457.745l.059.106c1.633 2.933 3.335 7.371 2.504 12.217" style="fill:#063;fill-opacity:1;fill-rule:nonzero;stroke:none;stroke-width:.496505" transform="translate(134.817 111.411)"/></g><g style="stroke-width:.496505"><path d="M0 0c1.365-.741 2.782-1.145 4.271-1.322C2.782-1.145 1.365-.741 0 0m-3.137 1.451C-4.142.128-4.618-1.48-4.622-3.095c.004 1.615.48 3.223 1.485 4.546.118.155.258.296.409.468-.151-.172-.291-.313-.409-.468m-2.374 4.12q-.1.2-.191.37c-.183.343-.333.617-.438.906.105-.289.255-.563.438-.906q.09-.17.191-.37M-5.34 18.5c.108.721.248 1.437.484 2.144-.236-.707-.376-1.423-.484-2.144-.194-1.316-.306-2.631-.276-3.939-.03 1.308.082 2.623.276 3.939m.394-.466q.002.557.021 1.115c.018.476.043.952.066 1.426-.023-.474-.048-.95-.066-1.426a38 38 0 0 1-.021-1.115m-.001-.022c-.005-1.513.098-3.011.39-4.478-.292 1.467-.395 2.965-.39 4.478M1.158 5.568a8.741 8.741 0 0 1 0 0c1.221-.472 2.352-.33 3.166.286-.814-.616-1.945-.758-3.166-.286M4.847 7.79a21.5 21.5 0 0 1-2.184 6.382c-1.516 2.836-3.635 5.145-6.151 6.653q-.337.202-.685.385c-.022-.167-.05-.333-.068-.501.018.168.046.334.068.501a13.3 13.3 0 0 1-4.493 1.439 1.38 1.38 0 0 1-1.462-.866c-.609-1.558-.97-2.993-1.105-4.365a12 12 0 0 1-.038-1.907 12 12 0 0 1 .161-1.379q.169-.916.479-1.885a17.708 17.708 0 0 0 0 0c.192-.601.422-1.219.699-1.865.038-.09.083-.177.122-.266.413-.932.867-1.842 1.319-2.724q.046-.092.093-.183c.308-.604.612-1.198.899-1.792.342-.708.653-1.417.92-2.135.433.325.918.59 1.386.867.155.093.353.113.531.165l.067-.175-.067.175c-.178-.052-.376-.072-.531-.165-.468-.277-.953-.542-1.386-.867q.108-.285.204-.573c.324-.984.55-1.994.609-3.06.256-4.6-1.55-9.469-3.112-12.744-.044-.093-.067-.191-.09-.289q.482-.86 1.073-1.655.129-.027.262-.029.162 0 .323.038c2.849.686 5.389 2.32 7.426 4.598a18 18 0 0 1 1.801 2.387 5.2 5.2 0 0 0-1.601.464c-1.987.941-3.185 3.006-3.263 5.215.078-2.209 1.276-4.274 3.263-5.215q.407-.191.807-.303a5.4 5.4 0 0 1 .794-.161 20.4 20.4 0 0 1 1.947 3.979q.443 1.22.746 2.516a23 23 0 0 1 .598 5.115l.002.116a23.5 23.5 0 0 1-.363 4.109" style="fill:#063;fill-opacity:1;fill-rule:nonzero;stroke:none;stroke-width:.496505" transform="translate(154.273 114.123)"/></g><g style="stroke-width:.496505"><path d="M0 0a1.37 1.37 0 0 1 .81-.482A15 15 0 0 0-.264 1.173 1.37 1.37 0 0 1 0 0" style="fill:#063;fill-opacity:1;fill-rule:nonzero;stroke:none;stroke-width:.496505" transform="translate(145.569 99.567)"/></g><g style="stroke-width:.496505"><path d="m0 0 .861.179zc.298-.468.708-.907 1.201-1.315C.708-.907.298-.468 0 0" style="fill:#432a18;fill-opacity:1;fill-rule:nonzero;stroke:none;stroke-width:.496505" transform="translate(149.008 169.405)"/></g><g style="stroke-width:.496505"><path d="M0 0" style="fill:#432a18;fill-opacity:1;fill-rule:nonzero;stroke:none;stroke-width:.496505" transform="translate(150.838 167.62)"/></g><g style="stroke-width:.496505"><path d="M0 0" style="fill:#432a18;fill-opacity:1;fill-rule:nonzero;stroke:none;stroke-width:.496505" transform="translate(154.85 165.79)"/></g><g style="stroke-width:.496505"><path d="M0 0" style="fill:#432a18;fill-opacity:1;fill-rule:nonzero;stroke:none;stroke-width:.496505" transform="translate(152.058 166.895)"/></g><g style="stroke-width:.496505"><path d="M0 0a310 310 0 0 0-4.774-3.121c-1.123-.718-1.202-.701-2.542-.028C-4.27-2.284-1.682-.72.967.78.646.519.344.229 0 0m-3.527 2.514c.362.599.512.636 1.119.276.675-.4 1.112-1.274.773-1.925-.219-.42-.766-.669-1.12-.956l-1.193 1.912zm1.065 2.038c.094.142.327.281.491.274C-.664 4.765.513 3.343.33 2.056.31 1.908.185 1.74.059 1.65c-.302-.215-.633-.39-.995-.607C-1 2.375-1.584 3.254-2.889 3.624c.147.332.248.655.427.928m10.17 11.367c-.35.216-.703.405-1.06.577l-2.23-2.729q.622-.256 1.224-.579c2.185-1.181 3.239-3.134 3.739-5.457.253-1.177.223-1.184-.908-1.541-.128-.04-.26-.065-.392-.098-.26 2.307-1.686 3.84-3.359 5.167a7.3 7.3 0 0 1-1.575.954L-4.876 2.4C-5.998.682-7.34-.879-8.775-2.369l-1.247-1.527h9.537c.533.635 1.029 1.304 1.57 1.928C3.104.358 5.44 2.126 8.105 3.33l4.37 5.304c-.38 3.094-1.967 5.558-4.767 7.285" style="fill:#7a1619;fill-opacity:1;fill-rule:nonzero;stroke:none;stroke-width:.496505" transform="translate(98.978 102.95)"/></g><g style="stroke-width:.496505"><path d="M0 0c1.694-1.835 2.192-4.079 1.9-6.505-.36-2.993-1.01-5.934-2.117-8.757q-.031-.075-.063-.15l7.948 9.648c-.05.185-.079.373-.072.553.048 1.261-.276 2.428-1 3.424C5.992-.96 5.841-.043 5.81.896c-.039 1.167.052 2.339.11 3.508.007.15.112.333.23.43.639.525 1.296 1.027 1.92 1.518 0-.731.044-1.537-.007-2.337-.187-2.895-.105-5.748.628-8.536l.415.504q-.213.925-.357 1.875c-.4 2.652-.23 5.308-.134 7.967.035.957.079 1.869.517 2.761.314.641.436 1.375.644 2.067l.148.046c.28-1.058.724-2.103.808-3.178.185-2.369.322-4.757.238-7.129a30 30 0 0 1 .002-2.145l4.37 5.305c-.912.598-.836 1.538-.821 2.538.745-.43 1.395-.8 1.986-1.124l.376.457c-.796.461-1.571.962-2.32 1.49-.323.228-.375.84-.549 1.276a67 67 0 0 1 3.927-1.482l3.392 4.118c-3.129 1.16-6.167 2.516-9.054 4.193z" style="fill:#063;fill-opacity:1;fill-rule:nonzero;stroke:none;stroke-width:.496505" transform="translate(120.541 137.689)"/></g><g style="stroke-width:.496505"><path d="m0 0-2.697-3.3c.382-.509.772-1.011 1.182-1.502C.184-6.835 2.19-8.525 4.279-10.119l3.269 3.967q-.226.108-.45.222c-.071.037-.147.067-.208.115-1.741 1.348-3.488 2.687-5.213 4.054-.52.411-.981.898-1.542 1.417.75.026 1.177-.216 1.604-.684 1.848-2.034 4.22-3.201 6.807-3.912l.446.542a19 19 0 0 0-2.201.669c-.57.214-1.114.452-1.62.711-.233.12-.453.246-.669.373q-.285.172-.551.352-.252.173-.484.356-.074.057-.145.115c-.494.408-.903.847-1.201 1.315l.861.179q.431.089.864.164c.125.021.323-.021.394-.108 1.418-1.757 3.419-2.467 5.485-3.02l.148-.037L12.616 0Z" style="fill:#063;fill-opacity:1;fill-rule:nonzero;stroke:none;stroke-width:.496505" transform="translate(146.887 169.912)"/></g><g style="stroke-width:.496505"><path d="M0 0q.111-.054.222-.109L1.11.97C-.979 2.563-2.985 4.254-4.684 6.287c-.41.49-.8.993-1.182 1.502l-1.358-1.661C-5.439 3.513-3.059 1.434 0 0" style="fill:#935f36;fill-opacity:1;fill-rule:nonzero;stroke:none;stroke-width:.496505" transform="translate(150.056 158.823)"/></g><g style="stroke-width:.496505"><path d="M0 0c-.491-1.479-1.187-2.892-1.816-4.323-.148-.336-.173-.542.146-.804.551-.45 1.048-.965 1.603-1.486.066.061.124.094.151.143C2.462-2.365 3.56 2.023 2.829 6.756a4.8 4.8 0 0 1-.263.981L.287 4.949C.687 3.462.607 1.827 0 0" style="fill:#7a1619;fill-opacity:1;fill-rule:nonzero;stroke:none;stroke-width:.496505" transform="translate(115.541 126.974)"/></g><g style="stroke-width:.496505"><path d="M0 0q-.508.228-1.02.442l-1.334-1.63c.708-.276 1.393-.62 2.046-1.046 2.22-1.449 3.909-3.274 4.724-5.689l1.851 2.247C4.934-3.119 2.781-1.256 0 0" style="fill:#7e4e24;fill-opacity:1;fill-rule:nonzero;stroke:none;stroke-width:.496505" transform="translate(109.93 123.02)"/></g><g style="stroke-width:.496505"><path d="m0 0-1.664-2.035C.323-3.596 2.583-4.664 4.957-5.522c.26-.095.526-.175.79-.259.238-.076.478-.149.787-.245C3.898-4.336 1.743-2.32 0 0" style="fill:#7e4e24;fill-opacity:1;fill-rule:nonzero;stroke:none;stroke-width:.496505" transform="translate(139.57 160.963)"/></g><g style="stroke-width:.496505"><path d="M0 0q-.109 1.517-.616 2.737l-.406-.496q.186-.482.263-.981c.731-4.733-.367-9.121-2.745-13.226-.028-.049-.085-.082-.151-.143-.555.521-1.052 1.036-1.603 1.486-.319.262-.294.468-.146.804.629 1.431 1.325 2.843 1.816 4.323.608 1.827.687 3.462.286 4.949l-6.917-8.461q.511-.214 1.02-.442c2.781-1.256 4.933-3.119 6.266-5.676l.729.884c-.396.512-.894.988-.926 1.495-.036.563.563 1.16.861 1.753C-.523-7.534.279-3.865 0 0" style="fill:#b27f4a;fill-opacity:1;fill-rule:nonzero;stroke:none;stroke-width:.496505" transform="translate(119.129 132.47)"/></g><g style="stroke-width:.496505"><path d="M0 0c-.226.275-.442.597-.738.766a20 20 0 0 0-2.616 1.751L-5.152.316C-2.481-1.515.304-3.174 3.062-4.92l.48.583-.036.04C2.31-2.889 1.171-1.431 0 0" style="fill:#b27f4a;fill-opacity:1;fill-rule:nonzero;stroke:none;stroke-width:.496505" transform="translate(140.565 155.56)"/></g><g style="stroke-width:.496505"><path d="M0 0c-2.065.553-4.066 1.263-5.484 3.02-.072.087-.27.129-.395.108a28 28 0 0 1-.863-.164l-.862-.179c.298-.468.708-.907 1.202-1.315l.144-.116q.232-.182.485-.355A12 12 0 0 1-4.554.274c.506-.259 1.05-.497 1.62-.711a19 19 0 0 1 2.202-.669l.88 1.069z" style="fill:#b27f4a;fill-opacity:1;fill-rule:nonzero;stroke:none;stroke-width:.496505" transform="translate(156.611 166.62)"/></g><g style="stroke-width:.496505"><path d="M0 0" style="fill:#432a18;fill-opacity:1;fill-rule:nonzero;stroke:none;stroke-width:.496505" transform="translate(151.389 167.268)"/></g><g style="stroke-width:.496505"><path d="M0 0q-.074.057-.145.115Q-.074.057 0 0" style="fill:#432a18;fill-opacity:1;fill-rule:nonzero;stroke:none;stroke-width:.496505" transform="translate(150.354 167.975)"/></g><g style="stroke-width:.496505"><path d="M0 0" style="fill:#432a18;fill-opacity:1;fill-rule:nonzero;stroke:none;stroke-width:.496505" transform="translate(153.678 166.184)"/></g><g style="stroke-width:.496505"><path d="M0 0q.508-1.22.616-2.737c.28-3.866-.523-7.534-2.268-10.994-.299-.593-.898-1.19-.862-1.753.033-.507.531-.984.926-1.495l3.336 4.048.064.151c1.106 2.822 1.756 5.763 2.117 8.757.292 2.425-.206 4.669-1.901 6.504z" style="fill:#432a18;fill-opacity:1;fill-rule:nonzero;stroke:none;stroke-width:.496505" transform="translate(118.513 135.207)"/></g><g style="stroke-width:.496505"><path d="M0 0c-.653.427-1.338.771-2.046 1.046l-.401-.491-1.549-1.894c.356-.172.71-.361 1.059-.577 2.8-1.727 4.387-4.191 4.767-7.285l2.463 2.99.431.523C3.908-3.273 2.22-1.448 0 0" style="fill:#432a18;fill-opacity:1;fill-rule:nonzero;stroke:none;stroke-width:.496505" transform="translate(109.622 120.785)"/></g><g style="stroke-width:.496505"><path d="M0 0c1.436 1.49 2.777 3.051 3.899 4.77Z" style="fill:#432a18;fill-opacity:1;fill-rule:nonzero;stroke:none;stroke-width:.496505" transform="translate(90.202 100.581)"/></g><g style="stroke-width:.496505"><path d="M0 0q-.602.323-1.224.578l-1.27-1.554A7.3 7.3 0 0 0-.92-1.929c1.673-1.328 3.1-2.86 3.359-5.168.132.034.264.059.392.099 1.132.356 1.161.363.908 1.541C3.239-3.135 2.186-1.181 0 0" style="fill:#432a18;fill-opacity:1;fill-rule:nonzero;stroke:none;stroke-width:.496505" transform="translate(104.62 116.139)"/></g><g style="stroke-width:.496505"><path d="M0 0c-.541-.624-1.037-1.293-1.571-1.928h2.639l4.166 5.057 1.787 2.169C4.355 4.094 2.019 2.326 0 0" style="fill:#432a18;fill-opacity:1;fill-rule:nonzero;stroke:none;stroke-width:.496505" transform="translate(100.063 100.983)"/></g><g style="stroke-width:.496505"><path d="M0 0c.361.217.692.392.994.607.126.09.251.259.272.406.182 1.287-.995 2.709-2.301 2.77-.164.007-.398-.132-.491-.274-.179-.273-.281-.596-.427-.928C-.648 2.211-.064 1.332 0 0" style="fill:#432a18;fill-opacity:1;fill-rule:nonzero;stroke:none;stroke-width:.496505" transform="translate(98.042 103.993)"/></g><g style="stroke-width:.496505"><path d="M0 0c-2.648-1.5-5.236-3.064-8.283-3.93 1.341-.673 1.419-.689 2.542.029 1.602 1.022 3.19 2.07 4.774 3.121.344.228.646.518.967.78" style="fill:#432a18;fill-opacity:1;fill-rule:nonzero;stroke:none;stroke-width:.496505" transform="translate(99.944 103.73)"/></g><g style="stroke-width:.496505"><path d="M0 0c.339.65-.099 1.524-.773 1.925-.607.36-.758.323-1.12-.277l-.42-.692L-1.12-.956C-.767-.669-.219-.42 0 0" style="fill:#432a18;fill-opacity:1;fill-rule:nonzero;stroke:none;stroke-width:.496505" transform="translate(97.343 103.816)"/></g><g style="stroke-width:.496505"><path d="m0 0-.372-.454-1.049-1.283-1.841-2.251c1.743-2.321 3.899-4.336 6.534-6.027-.309.097-.548.169-.787.245-.263.084-.53.165-.79.259-2.374.859-4.633 1.927-6.621 3.488l-.695-.852a20 20 0 0 1 2.615-1.751c.296-.169.513-.49.738-.766 1.171-1.43 2.31-2.888 3.506-4.296l.036-.041 1.488 1.806.612.743 2.707 3.286.978 1.187.386.47c-.074.035-.146.074-.221.109C4.165-4.694 1.784-2.615 0 0" style="fill:#432a18;fill-opacity:1;fill-rule:nonzero;stroke:none;stroke-width:.496505" transform="translate(142.832 164.951)"/></g><g style="stroke-width:.496505"><path d="M0 0c-.084 1.074-.528 2.119-.809 3.178l-.147-.046c-.208-.693-.33-1.427-.645-2.068-.437-.891-.481-1.803-.516-2.76-.097-2.659-.267-5.316.134-7.967q.143-.952.357-1.875L.239-9.274A31 31 0 0 0 .237-7.13C.321-4.758.185-2.369 0 0" style="fill:#432a18;fill-opacity:1;fill-rule:nonzero;stroke:none;stroke-width:.496505" transform="translate(131.274 145.21)"/></g><g style="stroke-width:.496505"><path d="m0 0 1.165 1.414c-.591.324-1.241.694-1.986 1.124C-.836 1.538-.912.599 0 0" style="fill:#432a18;fill-opacity:1;fill-rule:nonzero;stroke:none;stroke-width:.496505" transform="translate(135.883 141.24)"/></g><g style="stroke-width:.496505"><path d="M0 0c.052.801.008 1.606.008 2.337-.624-.49-1.281-.992-1.92-1.518A.67.67 0 0 1-2.143.39c-.057-1.169-.149-2.342-.11-3.509.031-.939.183-1.856.786-2.683.725-.996 1.048-2.163 1-3.424a1.9 1.9 0 0 1 .072-.552L.629-8.535C-.104-5.748-.187-2.895 0 0" style="fill:#432a18;fill-opacity:1;fill-rule:nonzero;stroke:none;stroke-width:.496505" transform="translate(128.604 141.703)"/></g><g style="stroke-width:.496505"><path d="M0 0a31 31 0 0 1 2.32-1.49L3.379-.206A67 67 0 0 0-.549 1.276C-.374.84-.322.228 0 0" style="fill:#432a18;fill-opacity:1;fill-rule:nonzero;stroke:none;stroke-width:.496505" transform="translate(135.104 144.602)"/></g><g style="stroke-width:.496505"><path d="M0 0c-.427.469-.854.71-1.604.685C-1.043.165-.582-.321-.062-.732 1.663-2.1 3.41-3.438 5.15-4.787c.062-.048.138-.077.208-.114q.225-.115.451-.223l.998 1.212C4.22-3.2 1.848-2.033 0 0" style="fill:#432a18;fill-opacity:1;fill-rule:nonzero;stroke:none;stroke-width:.496505" transform="translate(148.626 168.884)"/></g><g style="stroke-width:.496505"><path d="m0 0-.766-.937C2.121-2.614 5.159-3.97 8.288-5.13l.277.336 1.475 1.79C7.282-1.258 4.497.401 1.826 2.232Z" style="fill:#432a18;fill-opacity:1;fill-rule:nonzero;stroke:none;stroke-width:.496505" transform="translate(133.586 153.644)"/></g><g style="stroke-width:.496505"><path d="M0 0a19.6 19.6 0 0 0-1.896 2.131c2.051-3.95 5.27-6.949 9.158-8.195q.208-.067.421-.067c.378 0 .745.155 1.01.441.686.738 1.527 1.697 2.254 2.825-.055-.017-.106-.04-.163-.055C6.664-4.051 3.055-2.935 0 0" style="fill:#432a18;fill-opacity:1;fill-rule:nonzero;stroke:none;stroke-width:.496505" transform="translate(93.285 138.559)"/></g><g style="stroke-width:.496505"><path d="M0 0a9.3 9.3 0 0 0-.412 1.796c-.783.059-1.569.187-2.359.401-1.948.531-3.75 1.241-5.304 2.252a19 19 0 0 1-1.05-1.536q.743-.417 1.52-.787C-5.154.956-2.636.132 0 0" style="fill:#b27f4a;fill-opacity:1;fill-rule:nonzero;stroke:none;stroke-width:.496505" transform="translate(101.192 159.519)"/></g><g style="stroke-width:.496505"><path d="M0 0c-.05.252-.116.492-.183.73q-.01.043-.021.085a9 9 0 0 1-.178.539c-.567-.168-1.223-.36-1.897-.457-.493-.071-1.034.192-1.554.299-1.044.215-2.088.427-2.892.591l6.269-.224q-.132.346-.283.676c-1.467-.056-2.986.094-4.459.225 1.162.564 2.462.442 3.802.238.156-.023.312-.035.468-.051q-.164.318-.344.623-.036.067-.073.132c-.607 1.024-1.329 1.945-2.039 2.851l-.053.068a12 12 0 0 0-.971-.107c-4.659-.33-8.898.591-12.678 2.748a22.6 22.6 0 0 1-.891-3.925c2.161-2.128 4.864-3.322 7.768-4.211a93 93 0 0 0 6.29-2.159A9.24 9.24 0 0 0 .073-4.265c.052-.067.092-.136.141-.205C.348-3.04.306-1.539 0 0" style="fill:#432a18;fill-opacity:1;fill-rule:nonzero;stroke:none;stroke-width:.496505" transform="translate(107.145 149.075)"/></g><g style="stroke-width:.496505"><path d="M0 0c1.052-.429 2.138-.559 3.26-.32.98.208 1.303.795.849 1.681-.222.435-.494.885-.855 1.201-.684.596-1.401 1.184-2.19 1.622a49 49 0 0 1-4.054 1.99c-2.348 1.035-4.393 2.466-6.133 4.322q-.008-.265-.009-.531.001-.125.004-.249a718 718 0 0 1 4.497-6.087C-3.418 2.01-1.888.768 0 0" style="fill:#b27f4a;fill-opacity:1;fill-rule:nonzero;stroke:none;stroke-width:.496505" transform="translate(98.087 140.967)"/></g><g style="stroke-width:.496505"><path d="M0 0c-1.307 1.451-2.98 2.355-4.734 3.134-1.886.836-3.793 1.627-5.658 2.507-1.796.848-3.383 1.991-4.805 3.348a23 23 0 0 1-.162-2.306c1.74-1.857 3.785-3.287 6.132-4.323A49 49 0 0 0-5.172.371c.788-.438 1.506-1.026 2.19-1.623.361-.314.632-.766.855-1.2.454-.887.131-1.474-.85-1.682-1.122-.238-2.208-.108-3.259.321-1.888.767-3.418 2.01-4.631 3.629a717 717 0 0 0-4.497 6.086c.017-1.631.203-3.222.54-4.744 1.848-2.615 3.94-5.038 6.374-7.166 1.423-1.245 3.034-2.145 4.958-2.423 2.475-.357 4.851 1.172 5.177 3.465C1.956-3.052 1.271-1.412 0 0" style="fill:#7a1619;fill-opacity:1;fill-rule:nonzero;stroke:none;stroke-width:.496505" transform="translate(104.323 144.78)"/></g><g style="stroke-width:.496505"><path d="M0 0c-.181.242-.361.484-.53.731a9.3 9.3 0 0 0-1.149 2.292c-2.635.132-5.154.956-7.605 2.126q-.777.37-1.52.788A20 20 0 0 1-12.322 2.9C-9.622 1.367-6.709.353-3.558.02A17.2 17.2 0 0 1 0 0" style="fill:#7a1619;fill-opacity:1;fill-rule:nonzero;stroke:none;stroke-width:.496505" transform="translate(102.87 156.495)"/></g><g style="stroke-width:.496505"><path d="M0 0c.096.227.123.469.094.703a4.3 4.3 0 0 0-2.264.955A14.4 14.4 0 0 1-4.799.241c1.32-.914 2.749-1.485 4.295-1.656C-.346-.882-.169-.404 0 0" style="fill:#7a1619;fill-opacity:1;fill-rule:nonzero;stroke:none;stroke-width:.496505" transform="translate(101.704 167.35)"/></g><g style="stroke-width:.496505"><path d="M0 0c-.221 1.721.041 3.336.421 4.621-1.546.171-2.975.742-4.295 1.656a16.3 16.3 0 0 1-3.789-3.624C-6.109 1.642-4.307.932-2.359.402-1.569.187-.783.06 0 0" style="fill:#063;fill-opacity:1;fill-rule:nonzero;stroke:none;stroke-width:.496505" transform="translate(100.78 161.315)"/></g><g style="stroke-width:.496505"><path d="M0 0c-.382.396-.962.53-1.478.337q-.208-.08-.415-.167A4.3 4.3 0 0 1 .371-.785 1.37 1.37 0 0 1 0 0" style="fill:#063;fill-opacity:1;fill-rule:nonzero;stroke:none;stroke-width:.496505" transform="translate(101.427 168.839)"/></g><g style="stroke-width:.496505"><path d="M0 0a9.25 9.25 0 0 1-3.992 2.936 94 94 0 0 1-6.29 2.159c-2.905.888-5.608 2.083-7.768 4.211l-.042-.347c1.422-1.357 3.009-2.5 4.806-3.349 1.864-.88 3.771-1.671 5.657-2.506 1.754-.779 3.428-1.683 4.734-3.134C-1.623-1.442-.938-3.082-1.21-4.996c-.325-2.293-2.701-3.822-5.177-3.465-1.924.277-3.535 1.178-4.958 2.423-2.433 2.128-4.525 4.551-6.374 7.166a21.4 21.4 0 0 1 1.891-5.249 19.4 19.4 0 0 1 1.895-2.131c3.055-2.935 6.664-4.051 10.785-2.92.056.016.107.038.163.055q.214.33.412.677C-1.395-6.35-.164-3.466.141-.205.092-.137.052-.067 0 0" style="fill:#063;fill-opacity:1;fill-rule:nonzero;stroke:none;stroke-width:.496505" transform="translate(107.218 144.81)"/></g><g style="stroke-width:.496505"><path d="M0 0q.492.036.972.107-.424.54-.838 1.095a17.2 17.2 0 0 0-3.558.02c-3.151.333-6.064 1.347-8.764 2.881q-.265-.664-.49-1.355C-8.897.591-4.659-.33 0 0" style="fill:#063;fill-opacity:1;fill-rule:nonzero;stroke:none;stroke-width:.496505" transform="translate(102.736 155.293)"/></g><g style="stroke-width:.496505"><path d="M0 0c.521-.107 1.061-.37 1.554-.299.674.097 1.33.288 1.897.456l-.074.21C1.324.439-.873.519-2.892.591-2.088.427-1.044.215 0 0" style="fill:#063;fill-opacity:1;fill-rule:nonzero;stroke:none;stroke-width:.496505" transform="translate(103.312 150.272)"/></g><g style="stroke-width:.496505"><path d="M0 0c-.062.137-.121.278-.188.412-.157.016-.313.027-.469.051-1.34.204-2.64.326-3.802-.238C-2.985.094-1.467-.057 0 0" style="fill:#063;fill-opacity:1;fill-rule:nonzero;stroke:none;stroke-width:.496505" transform="translate(106.405 151.315)"/></g><g style="stroke-width:.496505"><path d="m0 0 .462-.609-.836-.686zm-9.261-9.159q.356-.716.713-1.413c.328-.64.651-1.271.952-1.901 1.835.125 3.648.406 5.345 1.192 1.938.897 3.749 2.065 5.634 3.079l.805.431a21 21 0 0 1-1.186 3.189C.304-6.835-2.552-8.742-5.825-10.02c1.181 1.025 1.769 2.558 3.199 3.394 1.702.995 3.32 2.139 5.013 3.259C1.468-1.704.34-.228-.956 1.003c-.009-.55-.128-1.095-.335-1.66l-.287-.79c-.109.218-.202.368-.262.53-.825 2.228-2.309 3.871-4.218 5.114-.886.32-1.807.548-2.756.671a1.38 1.38 0 0 1-1.463-.865 21 21 0 0 1-.33-.911c.479-.266.96-.553 1.489-.859-.579-.706-1.286-1.073-2.067-1.243-.326-1.612-.349-3.119-.08-4.605a17 17 0 0 1 3.482.884c.802.292 1.516.823 2.341 1.284.055-.083.159-.251.277-.409.327-.438.228-.78-.186-1.11-1.486-1.186-3.159-1.971-5.025-2.321-.153-.029-.305-.051-.457-.074a20 20 0 0 1 .752-2.038c.102-.238.217-.468.325-.703 1.857.519 3.598 1.444 5.19 2.851.055.05.125.086.285.194-.046-.791-.186-1.384-.798-1.856-1.297-.999-2.689-1.76-4.182-2.246" style="fill:#063;fill-opacity:1;fill-rule:nonzero;stroke:none;stroke-width:.496505" transform="translate(114.96 165.031)"/></g><g style="stroke-width:.496505"><path d="M0 0c1.211 2.271 2.034 4.866 2.369 7.636q-.245.027-.515.094c-1.129.288-2.235.674-3.34 1.049-2.442.829-4.937.892-7.466.591l-.059-.006c.308-.953.519-1.931.576-2.962.103-1.851-.131-3.745-.546-5.562a5.56 5.56 0 0 0-.941-3.247 39 39 0 0 0-1.625-3.935 1.38 1.38 0 0 1 .174-1.462c.099-.123.22-.217.35-.298.044.254.229.329 1.004.454.01-.209.032-.417.053-.625 2.471.597 4.71 1.907 6.589 3.731q-.476.452-1.031.884c-.418.325-.505.56-.22 1.004.211.327.329.714.486 1.068.886-.041 1.792-.344 2.624-.823q.167.224.328.458a9 9 0 0 1-1.53.636c-.378.119-.754.246-1.129.372-.034.011-.06.046-.073.055l.159 2.55C-2.491 1.131-1.215.616 0 0" style="fill:#063;fill-opacity:1;fill-rule:nonzero;stroke:none;stroke-width:.496505" transform="translate(117.48 140.498)"/></g><g style="stroke-width:.496505"><path d="M0 0c-.479-.833-1.453-1.215-2.462-1.029a8.4 8.4 0 0 0-1.679.478c.662.053 1.328.07 1.984.167C-.981-.208-.498.627-1.049 1.488c-.322.504-.862.678-1.401.626-1.374-.132-2.741-.339-4.112-.518a2 2 0 0 1-.217-.044c1.278.695 2.637 1.452 4.016 2.171.417.216.879.367 1.337.479a1.73 1.73 0 0 0 1.041-.053q-.058.31-.123.614a2.3 2.3 0 0 1-1.257-.107c-1.003-.36-1.977-.824-2.916-1.33-1.759-.948-3.577-1.697-5.571-1.971a16 16 0 0 0-2.252-.154q.14-.293.27-.588c.325-.006.639-.01.921-.023a10 10 0 0 0-.84-.171q.271-.636.496-1.281.88.171 1.762.323c2.117.355 4.128-.146 6.139-.743.728-.216 1.521-.335 2.274-.295.503.026 1.115.293 1.454.659l.015.019q.014.399.015.801z" style="fill:#b27f4a;fill-opacity:1;fill-rule:nonzero;stroke:none;stroke-width:.496505" transform="translate(120.019 151.03)"/></g><g style="stroke-width:.496505"><path d="M0 0c-.118.158-.222.326-.277.409-.825-.461-1.539-.992-2.341-1.284A17 17 0 0 0-6.1-1.759q.003-.017.005-.034a16 16 0 0 1 .427-1.712c.152.024.304.045.457.074 1.866.351 3.539 1.135 5.025 2.322C.229-.779.327-.437 0 0" style="fill:#b27f4a;fill-opacity:1;fill-rule:nonzero;stroke:none;stroke-width:.496505" transform="translate(109.794 163.175)"/></g><g style="stroke-width:.496505"><path d="M0 0c-.753-.04-1.546.079-2.273.295-2.011.598-4.023 1.099-6.139.743a82 82 0 0 1-1.763-.323c.035-.102.075-.202.108-.305q.029.004.058.006c2.53.301 5.025.238 7.466-.591C-1.437-.55-.332-.937.798-1.224q.27-.068.514-.094.122.985.158 1.996L1.454.659C1.115.293.503.026 0 0" style="fill:#432a18;fill-opacity:1;fill-rule:nonzero;stroke:none;stroke-width:.496505" transform="translate(118.536 149.452)"/></g><g style="stroke-width:.496505"><path d="M0 0c.938.506 1.913.97 2.916 1.33a2.3 2.3 0 0 0 1.257.107q-.159.746-.363 1.467-.404-.214-.806-.43C1.119 1.46-.692.292-2.63-.605c-1.697-.787-3.51-1.067-5.345-1.192q.077-.164.152-.328a16 16 0 0 1 2.252.154C-3.577-1.697-1.76-.948 0 0" style="fill:#432a18;fill-opacity:1;fill-rule:nonzero;stroke:none;stroke-width:.496505" transform="translate(115.338 154.356)"/></g><g style="stroke-width:.496505"><path d="M0 0a6 6 0 0 1-1.337-.479c-1.379-.719-2.738-1.476-4.017-2.171-.004 0 .106.029.218.044 1.37.179 2.738.386 4.112.518.539.052 1.079-.122 1.401-.626.551-.861.067-1.696-1.108-1.872-.656-.098-1.323-.114-1.984-.167a8.3 8.3 0 0 1 1.679-.478c1.009-.186 1.983.196 2.462 1.029a23.6 23.6 0 0 1-.385 4.149A1.74 1.74 0 0 1 0 0" style="fill:#432a18;fill-opacity:1;fill-rule:nonzero;stroke:none;stroke-width:.496505" transform="translate(118.593 155.232)"/></g><g style="stroke-width:.496505"><path d="M0 0q.04-.096.081-.194.425.066.84.171C.64-.011.325-.006 0 0" style="fill:#432a18;fill-opacity:1;fill-rule:nonzero;stroke:none;stroke-width:.496505" transform="translate(107.784 151.643)"/></g><g style="stroke-width:.496505"><path d="M0 0c.06-.162.152-.312.262-.53l.287.79c.207.565.326 1.11.335 1.66-1.499 1.425-3.223 2.517-5.102 3.194C-2.31 3.871-.825 2.228 0 0" style="fill:#7a1619;fill-opacity:1;fill-rule:nonzero;stroke:none;stroke-width:.496505" transform="translate(113.12 164.114)"/></g><g style="stroke-width:.496505"><path d="M0 0a31 31 0 0 0-.94-3.247C-.297-2.284.031-1.154 0 0" style="fill:#7a1619;fill-opacity:1;fill-rule:nonzero;stroke:none;stroke-width:.496505" transform="translate(108.498 141.338)"/></g><g style="stroke-width:.496505"><path d="M0 0c.013-.01.039-.044.073-.056.375-.126.751-.253 1.129-.372a9 9 0 0 0 1.529-.635q.646.927 1.191 1.951C2.707 1.504 1.431 2.019.159 2.55z" style="fill:#7a1619;fill-opacity:1;fill-rule:nonzero;stroke:none;stroke-width:.496505" transform="translate(113.558 139.61)"/></g><g style="stroke-width:.496505"><path d="M0 0c-.285-.443-.198-.679.22-1.004.371-.288.712-.583 1.031-.884A17.5 17.5 0 0 1 3.11.245c-.832.48-1.738.782-2.624.823C.329.714.211.327 0 0" style="fill:#7a1619;fill-opacity:1;fill-rule:nonzero;stroke:none;stroke-width:.496505" transform="translate(112.852 137.844)"/></g><g style="stroke-width:.496505"><path d="M0 0c-.16-.108-.229-.145-.285-.194-1.592-1.408-3.333-2.332-5.19-2.851.163-.354.324-.71.496-1.058 1.493.487 2.884 1.248 4.181 2.247C-.186-1.385-.046-.791 0 0" style="fill:#7a1619;fill-opacity:1;fill-rule:nonzero;stroke:none;stroke-width:.496505" transform="translate(110.678 159.975)"/></g><g style="stroke-width:.496505"><path d="M0 0c-.529.306-1.01.594-1.489.858a17 17 0 0 1-.577-2.101C-1.286-1.073-.579-.706 0 0" style="fill:#7a1619;fill-opacity:1;fill-rule:nonzero;stroke:none;stroke-width:.496505" transform="translate(105.84 167.265)"/></g><g style="stroke-width:.496505"><path d="M0 0c-1.692-1.12-3.311-2.264-5.013-3.259-1.429-.836-2.017-2.369-3.199-3.393C-4.938-5.375-2.083-3.468.615-1.215Q.325-.593 0 0" style="fill:#7a1619;fill-opacity:1;fill-rule:nonzero;stroke:none;stroke-width:.496505" transform="translate(117.346 161.664)"/></g><g style="stroke-width:.496505"><path d="M0 0a1.37 1.37 0 0 1 1.044-.176l.014.004c-.022.208-.043.416-.053.625C.229.328.044.254 0 0" style="fill:#7a1619;fill-opacity:1;fill-rule:nonzero;stroke:none;stroke-width:.496505" transform="translate(106.456 132.397)"/></g><g style="stroke-width:.496505"><path d="m0 0-.374-1.295.836.686z" style="fill:#7a1619;fill-opacity:1;fill-rule:nonzero;stroke:none;stroke-width:.496505" transform="translate(114.96 165.031)"/></g><g style="stroke-width:.496505"><path d="M0 0h-3.71l.522 1.469zm-6.266-.249c-.415-.08-.794-.187-1.178-.21-.131-.008-.341.162-.404.301-.562 1.255.08 2.738.84 3.563.068.073.293.074.4.02.297-.154.572-.354.906-.568-.617-.964-1.056-1.926-.564-3.106m3.964 4.062c-.102.125-.212.248-.306.379-.926 1.291-1.876 2.566-2.767 3.88-.256.378-.482.767-.695 1.161a21 21 0 0 1-.309-.496c.908-1.653 2.025-3.175 3.113-4.718q.07-.096.141-.191c-1.204 1.393-2.527 2.7-3.69 4.135-1.633-3.038-2.561-6.67-2.561-10.538q.001-.488.022-.971c1.229.421 2.481.788 3.76 1.089a.4.4 0 0 0 .247-.034 29 29 0 0 1-3.974-1.678q.085-1.247.299-2.45l3.501 2.325c.087.059.196.088.414.184-1.054-.868-2.013-1.632-2.944-2.428a15 15 0 0 1-.837-.785q.284-1.34.715-2.602C-6.22-6.691-3.369-4.358.041-2.706c.101.049.212.078.306.112-1.059-.735-2.112-1.493-3.191-2.21a15.5 15.5 0 0 1-5.151-5.623q.41-1.114.933-2.15 0 .145.002.29c.007.32.151.654.289.955 1.624 3.545 4.443 5.886 7.799 7.661 2.149 1.136 4.546 1.794 6.424 1.805-1.12-.494-2.145-.908-3.139-1.391-2.835-1.379-5.4-3.128-7.289-5.711-1.371-1.873-2.269-3.883-2.641-6.036 1.087-1.553 2.379-2.892 3.834-3.955-.72 6.188 1.971 10.856 6.807 14.544.989.754 2.075 1.38 3.133 2.044a13 13 0 0 1-.895 1.675c-1.101.124-2.2.283-3.263.56C1.551.5-.047 2.216-1.142 4.264.21 3.57 1.607 2.754 3.083 2.119c.882-.38 1.792-.618 2.719-.77l-.371.476A36 36 0 0 0 4.009 3.72a9.5 9.5 0 0 0-.724 1.26c-1.703.673-3.342 1.496-4.882 2.539-.524.355-.819.769-.826 1.392-.005.352-.001.704-.001 1.128A21.6 21.6 0 0 1 2.572 7.08a10.1 10.1 0 0 0-.14 3.175c-1.342.582-2.618 1.308-3.784 2.272-.481.399-.772.652-.932.929a16.6 16.6 0 0 1-2.776-2.798 21.2 21.2 0 0 1 2.461-6.012c.149-.247.259-.517.297-.833" style="fill:#7a1619;fill-opacity:1;fill-rule:nonzero;stroke:none;stroke-width:.496505" transform="translate(137.793 120.38)"/></g><g style="stroke-width:.496505"><path d="M0 0c.162 1.047.513 2.064.818 3.258-2-3.744-2.619-7.575-2.092-11.592.07-.54.17-1.069.284-1.595l.004.004c.229.247.477.521.732.816-.009.041-.022.082-.031.124C-.866-5.984-.46-2.98 0 0" style="fill:#935f36;fill-opacity:1;fill-rule:nonzero;stroke:none;stroke-width:.496505" transform="translate(142.428 109.666)"/></g><g style="stroke-width:.496505"><path d="M0 0c.095-.132.204-.254.307-.38A2.1 2.1 0 0 1 .01.454a21.2 21.2 0 0 0-2.461 6.012 18 18 0 0 1-1.011-1.425c.213-.395.44-.783.695-1.161C-1.876 2.565-.926 1.291 0 0" style="fill:#b27f4a;fill-opacity:1;fill-rule:nonzero;stroke:none;stroke-width:.496505" transform="translate(135.185 124.572)"/></g><g style="stroke-width:.496505"><path d="M0 0c-3.357-1.775-6.176-4.116-7.799-7.661-.138-.301-.282-.634-.289-.955l-.003-.29q.644-1.284 1.445-2.427c.373 2.153 1.271 4.163 2.642 6.036C-2.115-2.714.449-.965 3.285.414c.993.482 2.019.897 3.139 1.391C4.546 1.794 2.148 1.136 0 0" style="fill:#b27f4a;fill-opacity:1;fill-rule:nonzero;stroke:none;stroke-width:.496505" transform="translate(138.821 116.708)"/></g><g style="stroke-width:.496505"><path d="M0 0c-1.089 1.544-2.205 3.065-3.113 4.719a18 18 0 0 1-.437-.775C-2.387 2.51-1.063 1.202.141-.19Q.07-.096 0 0" style="fill:#b27f4a;fill-opacity:1;fill-rule:nonzero;stroke:none;stroke-width:.496505" transform="translate(134.527 124.398)"/></g><g style="stroke-width:.496505"><path d="M0 0c1.54-1.043 3.179-1.865 4.882-2.538a9 9 0 0 0-.713 2.1A21.5 21.5 0 0 0-.827 2.521c0-.424-.004-.777.001-1.128C-.819.77-.524.355 0 0" style="fill:#b27f4a;fill-opacity:1;fill-rule:nonzero;stroke:none;stroke-width:.496505" transform="translate(136.196 127.898)"/></g><g style="stroke-width:.496505"><path d="M0 0a1.378 1.378 0 0 1-1.755 1.825A14.3 14.3 0 0 1-4.536.416c1.259-.89 2.538-1.708 3.901-2.306C-.448-1.163-.219-.521 0 0" style="fill:#063;fill-opacity:1;fill-rule:nonzero;stroke:none;stroke-width:.496505" transform="translate(141.167 134.223)"/></g><g style="stroke-width:.496505"><path d="M0 0c-2.105-2.445-3.163-5.38-3.085-8.816.025-1.149.23-2.292.581-3.401C-.87-9.284.831-4.847 0 0" style="fill:#063;fill-opacity:1;fill-rule:nonzero;stroke:none;stroke-width:.496505" transform="translate(146.67 115.567)"/></g><g style="stroke-width:.496505"><path d="M0 0q.148.122.289.249C.252.34.209.426.171.515-.888-.149-1.974-.775-2.962-1.529c-4.836-3.688-7.527-8.357-6.808-14.544a14.4 14.4 0 0 1 2.758-1.586c-.153 1.954.024 3.918.391 5.884C-5.749-7.103-3.767-3.049 0 0" style="fill:#063;fill-opacity:1;fill-rule:nonzero;stroke:none;stroke-width:.496505" transform="translate(145.78 117.493)"/></g><g style="stroke-width:.496505"><path d="M0 0c-.218-.095-.326-.125-.414-.184l-3.501-2.324q.062-.354.135-.705c.268.271.544.534.837.785C-2.013-1.632-1.054-.867 0 0" style="fill:#063;fill-opacity:1;fill-rule:nonzero;stroke:none;stroke-width:.496505" transform="translate(132.686 116.269)"/></g><g style="stroke-width:.496505"><path d="M0 0c1.095-2.048 2.692-3.764 5.141-4.399 1.063-.278 2.162-.437 3.262-.561a26 26 0 0 1-1.46 2.045c-.926.152-1.837.391-2.718.77C2.749-1.51 1.352-.693 0 0" style="fill:#063;fill-opacity:1;fill-rule:nonzero;stroke:none;stroke-width:.496505" transform="translate(136.651 124.643)"/></g><g style="stroke-width:.496505"><path d="M0 0a40 40 0 0 1-3.76-1.09q.012-.313.032-.623A29 29 0 0 0 .247-.035.4.4 0 0 1 0 0" style="fill:#063;fill-opacity:1;fill-rule:nonzero;stroke:none;stroke-width:.496505" transform="translate(132.2 117.923)"/></g><g style="stroke-width:.496505"><path d="M0 0c-3.41-1.652-6.261-3.985-8.214-7.219q.086-.253.178-.502a15.5 15.5 0 0 0 5.15 5.623C-1.806-1.381-.753-.623.306.112.212.078.101.049 0 0" style="fill:#063;fill-opacity:1;fill-rule:nonzero;stroke:none;stroke-width:.496505" transform="translate(137.834 117.673)"/></g><g style="stroke-width:.496505"><path d="M0 0c-.021.127-.037.254-.062.382-.026.124-.062.239-.091.36a10 10 0 0 1-.449 1.434 8 8 0 0 0-.289-.249C-4.657-1.122-6.64-5.176-7.512-9.849c-.367-1.965-.544-3.929-.39-5.883q.607-.264 1.242-.468.208-.067.421-.067c.376 0 .741.155 1.007.438a20 20 0 0 0-.285 1.595c-.526 4.016.093 7.847 2.093 11.591-.305-1.193-.656-2.211-.818-3.257-.46-2.981-.866-5.985-.285-8.986.008-.042.022-.082.031-.124.49.567 1.005 1.219 1.476 1.942q.24.36.457.745l.059.106a12.2 12.2 0 0 0-.581 3.401C-3.163-5.38-2.105-2.445 0 0" style="fill:#432a18;fill-opacity:1;fill-rule:nonzero;stroke:none;stroke-width:.496505" transform="translate(146.67 115.567)"/></g><g style="stroke-width:.496505"><path d="M0 0c1.166-.964 2.441-1.69 3.783-2.272.066.602.174 1.173.308 1.699C2.728.024 1.448.843.189 1.732Q-.387 1.358-.933.929C-.772.651-.481.398 0 0" style="fill:#432a18;fill-opacity:1;fill-rule:nonzero;stroke:none;stroke-width:.496505" transform="translate(136.441 132.906)"/></g><g style="stroke-width:.496505"><path d="M0 0c-.106.055-.332.053-.399-.02-.76-.825-1.403-2.308-.84-3.563.062-.139.272-.309.403-.301.385.024.764.13 1.179.21-.492 1.18-.054 2.142.563 3.107C.572-.354.298-.153 0 0" style="fill:#432a18;fill-opacity:1;fill-rule:nonzero;stroke:none;stroke-width:.496505" transform="translate(131.185 123.804)"/></g><g style="stroke-width:.496505"><path d="M0 0h3.71L.521 1.469C.341.958.181.509 0 0" style="fill:#432a18;fill-opacity:1;fill-rule:nonzero;stroke:none;stroke-width:.496505" transform="translate(134.083 120.38)"/></g><g style="stroke-width:.496505"><path d="M0 0c-2.938 1.6-4.812 4.084-5.711 7.3-.725 2.592-.672 5.216-.282 7.848.107.721.247 1.437.483 2.144-.023-.498-.05-.996-.068-1.494-.109-3.041.139-6.031 1.375-8.858.952-2.176 2.44-3.843 4.708-4.723 1.628-.631 3.097-.166 3.866 1.054q-.073.59-.178 1.167l-.006-.031c-.374-1.547-1.57-2.239-3.116-1.834-1.604.421-2.718 1.512-3.695 2.769-1.292 1.664-1.88 3.603-2.147 5.657-.275 2.113-.353 4.233-.124 6.358.019.168.046.334.069.501a13.3 13.3 0 0 1-4.493 1.44 1.38 1.38 0 0 1-1.462-.866c-.61-1.559-.97-2.994-1.106-4.366a10.1 10.1 0 0 1 3.091-.104v-2.44c-.677.101-1.328.135-1.943.3q-.596.16-1.185.337c.028-.463.076-.923.16-1.379q.17-.916.48-1.884c.96-.231 1.918-.383 2.855-.451l.392-1.641a4.85 4.85 0 0 0-2.426-.039c.411-.933.866-1.842 1.318-2.725a30 30 0 0 1 1.502-.016c.439.007.695-.101.85-.529.14-.386.361-.742.629-1.275-.713-.045-1.363-.147-1.988-.155.341-.708.653-1.417.92-2.134.433.325.918.59 1.385.867.156.093.354.112.532.165l.067-.176c-.403-.308-.819-.603-1.209-.929a16 16 0 0 1-.571-.501c.324-.984.549-1.994.609-3.059.256-4.601-1.551-9.47-3.112-12.744a1.4 1.4 0 0 1-.09-.289q.481-.86 1.073-1.656a1.4 1.4 0 0 1 .262-.029q.162 0 .323.038c2.849.687 5.389 2.32 7.426 4.599a7 7 0 0 0-1.058.515C-5.396-10.986-6.47-5.43-3.79-1.9c.118.155.258.296.409.467.755-.521.755-.521.4-1.275-1.469-3.109-.247-6.855 2.644-8.225a5.2 5.2 0 0 1 1.601-.463 20.4 20.4 0 0 1 1.947 3.978c-.71-.486-1.464-.409-2.217-.007-1.357.724-2.165 2.67-1.647 4.073 1.365-.741 2.782-1.144 4.271-1.322.11-.013.26-.118.339-.227.381 1.634.589 3.351.598 5.115C3.238-.775 1.635-.891 0 0" style="fill:#7a1619;fill-opacity:1;fill-rule:nonzero;stroke:none;stroke-width:.496505" transform="translate(154.926 117.475)"/></g><g style="stroke-width:.496505"><path d="M0 0a1.37 1.37 0 0 1 .81-.482A15 15 0 0 0-.264 1.173 1.37 1.37 0 0 1 0 0" style="fill:#432a18;fill-opacity:1;fill-rule:nonzero;stroke:none;stroke-width:.496505" transform="translate(145.569 99.567)"/></g><g style="stroke-width:.496505"><path d="M0 0c-.233 1.193-.574 2.39-1.051 3.507q-.047.105-.095.21c-1.516 2.836-3.635 5.145-6.152 6.653.003-3.214.44-6.358 1.853-9.331.551-1.162 1.282-2.2 2.356-2.944.65-.45 1.36-.864 2.147-.383C-.104-1.774.174-.884 0 0" style="fill:#b27f4a;fill-opacity:1;fill-rule:nonzero;stroke:none;stroke-width:.496505" transform="translate(158.082 124.578)"/></g><g style="stroke-width:.496505"><path d="M0 0c.355.754.355.754-.399 1.275-.152-.171-.291-.312-.41-.467-2.679-3.53-1.605-9.086 2.196-11.368.348-.21.703-.374 1.057-.515.655.731 1.257 1.53 1.801 2.387a5.2 5.2 0 0 0-1.6.463C-.246-6.856-1.469-3.11 0 0" style="fill:#b27f4a;fill-opacity:1;fill-rule:nonzero;stroke:none;stroke-width:.496505" transform="translate(151.944 114.767)"/></g><g style="stroke-width:.496505"><path d="M0 0c-.468-.277-.952-.542-1.386-.867q.109-.286.204-.573.277.254.572.501c.389.325.805.62 1.209.928L.531.165C.354.112.155.093 0 0" style="fill:#432a18;fill-opacity:1;fill-rule:nonzero;stroke:none;stroke-width:.496505" transform="translate(149.08 118.273)"/></g><g style="stroke-width:.496505"><path d="M0 0q.048-.104.096-.21a17.6 17.6 0 0 0 1.05-3.507c.174-.884-.103-1.774-.942-2.288-.786-.48-1.497-.067-2.146.383-1.075.744-1.805 1.782-2.357 2.944C-5.712.295-6.148 3.439-6.151 6.653q-.338.202-.685.385c-.022-.167-.05-.333-.068-.501-.23-2.125-.152-4.245.123-6.358.267-2.054.855-3.993 2.147-5.658.977-1.256 2.091-2.347 3.696-2.768 1.545-.405 2.741.287 3.116 1.834l.006.031A21.6 21.6 0 0 1 0 0" style="fill:#432a18;fill-opacity:1;fill-rule:nonzero;stroke:none;stroke-width:.496505" transform="translate(156.936 128.295)"/></g><g style="stroke-width:.496505"><path d="M0 0v2.439a10.1 10.1 0 0 0-3.091.105A12 12 0 0 1-3.128.637q.589-.178 1.185-.338C-1.328.135-.677.101 0 0" style="fill:#432a18;fill-opacity:1;fill-rule:nonzero;stroke:none;stroke-width:.496505" transform="translate(146.13 128.997)"/></g><g style="stroke-width:.496505"><path d="M0 0c.191-.601.422-1.219.699-1.865.038-.09.083-.177.122-.266a4.86 4.86 0 0 1 2.426.039L2.855-.45C1.918-.383.96-.23 0 0" style="fill:#432a18;fill-opacity:1;fill-rule:nonzero;stroke:none;stroke-width:.496505" transform="translate(143.642 126.37)"/></g><g style="stroke-width:.496505"><path d="M0 0c-.77-1.22-2.238-1.685-3.866-1.054-2.268.88-3.756 2.547-4.708 4.724-1.237 2.826-1.484 5.816-1.375 8.857.018.498.045.996.068 1.494-.236-.707-.376-1.422-.483-2.143-.39-2.633-.443-5.257.282-7.849.898-3.216 2.773-5.7 5.711-7.3 1.635-.89 3.238-.775 4.555.214l.002.116C.186-1.941.12-.96 0 0" style="fill:#063;fill-opacity:1;fill-rule:nonzero;stroke:none;stroke-width:.496505" transform="translate(159.297 120.745)"/></g><g style="stroke-width:.496505"><path d="M0 0a28 28 0 0 0-1.502.016l.093-.183c.308-.604.612-1.198.899-1.792.625.008 1.276.109 1.989.154-.268.534-.49.89-.629 1.276C.694-.102.438.007 0 0" style="fill:#063;fill-opacity:1;fill-rule:nonzero;stroke:none;stroke-width:.496505" transform="translate(147.283 121.5)"/></g><g style="stroke-width:.496505"><path d="M0 0c-.518-1.403.29-3.35 1.647-4.073.753-.403 1.507-.48 2.217.007q.444 1.22.746 2.516c-.079.11-.229.215-.339.228C2.782-1.145 1.365-.741 0 0" style="fill:#063;fill-opacity:1;fill-rule:nonzero;stroke:none;stroke-width:.496505" transform="translate(154.273 114.123)"/></g></g></svg>