<svg xmlns="http://www.w3.org/2000/svg" xml:space="preserve" width="703.91498" height="122.75314" viewBox="0 0 703.91497 122.75314"><defs><clipPath id="a" clipPathUnits="userSpaceOnUse"><path d="M0 382.677h566.929V0H0Z"/></clipPath></defs><g clip-path="url(#a)" style="stroke-width:.640593" transform="matrix(2.0814 0 0 -2.0814 -227.258 457.954)"><g style="stroke-width:.640593"><path d="M0 0c-.681 0-2.01-.002-3.046-.001l.251.807c1.116 3.602 1.55 5.581.711 6.75-.67.933-2.158 1.555-3.742 1.633-1.919.096-3.956-.118-5.022-.497-1.168-.415-2.144-.998-3.31-2.113-1.199-1.146-6.329-6.532-6.329-6.532s-3.768-.007-6.087-.165c-1.102-.075-2.015-.563-2.463-1.303-.558-.921-.47-2.196.002-3.12.476-.932 1.68-2.114 2.817-3.251 1.136-1.137 1.989-1.729 1.042-4.517-.817-2.403-5.102-15.222-5.614-17.414-.497-2.132-.735-6.062 1.54-8.361 2.25-2.274 5.249-3.275 9.995-3.37 9.236-.182 13.373 5.117 14.802 6.781 1.303 1.515 1.99 3.694.483 3.964-1.802.322-2.022-1.075-5.125-.838-1.518.116-2.848.769-3.031 1.894s.355 2.606.71 3.695c.447 1.37 3.505 10.745 6.004 18.521h3.776c1.778 0 2.572.351 3.368.956 1.205.916 1.751 2.242 1.749 3.829C3.479-.663 1.658 0 0 0" style="fill:#7b00a0;fill-opacity:1;fill-rule:nonzero;stroke:none;stroke-width:.640593" transform="translate(140.306 202.57)"/></g><g style="stroke-width:.640593"><path d="M0 0c-.681 0-2.01-.002-3.046-.001l.251.807c1.116 3.602 1.55 5.581.711 6.75-.671.933-2.157 1.555-3.742 1.633-1.919.096-3.956-.118-5.022-.497-1.168-.415-2.144-.998-3.31-2.113-1.199-1.146-6.329-6.532-6.329-6.532s-3.768-.007-6.087-.165c-1.102-.075-2.015-.563-2.463-1.303-.558-.921-.47-2.196.002-3.12.476-.932 1.68-2.114 2.816-3.251 1.137-1.137 1.99-1.729 1.042-4.517-.816-2.403-5.101-15.222-5.613-17.414-.497-2.132-.735-6.062 1.54-8.361 2.25-2.274 5.249-3.275 9.994-3.37 9.237-.182 13.373 5.117 14.803 6.781 1.303 1.515 1.989 3.694.482 3.964-1.801.322-2.021-1.075-5.124-.838-1.518.116-2.848.769-3.032 1.894s.356 2.606.711 3.695c.446 1.37 3.505 10.745 6.004 18.521h3.776c1.778 0 2.572.351 3.367.956 1.206.916 1.752 2.242 1.75 3.829C3.479-.663 1.657 0 0 0" style="fill:#7b00a0;fill-opacity:1;fill-rule:nonzero;stroke:none;stroke-width:.640593" transform="translate(416.433 202.57)"/></g><g style="stroke-width:.640593"><path d="M0 0c3.479-.331 6.592-2.171 6.023-6.245-.516-3.705-4.697-15.418-4.697-15.418s2.756 3.979 7.303 5.613c3.48 1.251 7.745 1.468 11.226-.142 3.363-1.556 5.292-4.195 5.306-7.934.011-3.34-1.037-5.751-1.729-7.834-.615-1.847-2.212-7.21-4.05-12.811-.443-1.349-.653-2.607-.024-3.087.897-.684 1.705-.015 2.384 1.342.195.39.354.728.598.73.408.005.772-.472.87-1.377.158-1.453 0-4.816-3.347-7.279s-5.21-2.853-9.126-2.853c-3.363 0-5.353.271-7.555 1.716-1.893 1.242-3.506 3.308-3.316 5.708s1.602 6.869 2.297 8.953a1446 1446 0 0 1 3.505 10.847c.379 1.2.315 2.555-.876 2.961-1.46.497-3.626.095-4.999-2.368s-5.878-16.49-6.446-18.195c-.569-1.705-.915-3.433.195-4.211 1.053-.739 1.722-1.539 1.784-2.305.064-.774-.283-2.085-2.565-2.085h-19.942c-1.2 0-2.609.575-2.377 2.022.198 1.231 1.831 1.799 3.276 3.079.904.799 1.385 1.323 1.943 3.22.592 2.02 10.847 37.201 11.036 38.274s-.078 1.287-1.097 2.29c-.668.657-1.468 1.22-1.65 1.902-.474 1.777.872 2.789 4.871 4.161C-7.137.06-2.653.253 0 0" style="fill:#7b00a0;fill-opacity:1;fill-rule:nonzero;stroke:none;stroke-width:.640593" transform="translate(165.9 218.407)"/></g><g style="stroke-width:.640593"><path d="M0 0c-1.18-3.829-4.895-5.917-8.084-5.633 0 0 .438 3.641 2.242 7.137C-4.196 4.693-2.4 7.062-.568 6.714.833 6.449.727 2.356 0 0m15.853 6.967c-1.621 2.234-5.498 5.574-15.316 5.874-9.316.284-14.369-2.29-17.21-4.232-2.843-1.942-7.674-6.126-9.395-14.858-1.615-8.19-.352-13.944 3.837-17.953 3.776-3.614 9.189-5.411 16.484-5.411s11.905 2.341 14.842 5.159c2.337 2.242 3.884 5.242 3.821 8.147-.072 3.296-3.061 1.219-5.495.189-2.242-.947-5.052-1.547-7.673-1.421-3.123.151-5.184.499-7.011 2.274-2.211 2.147-1.547 4.768-1.547 4.768s7.326-1.168 13.705 0c5.693 1.043 10.042 3.099 11.609 7.259 1.373 3.648 1.101 7.789-.651 10.205" style="fill:#7b00a0;fill-opacity:1;fill-rule:nonzero;stroke:none;stroke-width:.640593" transform="translate(218.1 190.725)"/></g><g style="stroke-width:.640593"><path d="M0 0c-1.181-3.829-4.896-5.917-8.085-5.633 0 0 .439 3.641 2.242 7.136C-4.197 4.693-2.4 7.062-.568 6.714.832 6.448.726 2.356 0 0m15.853 6.967C14.231 9.2 10.354 12.541.536 12.84c-9.315.285-14.368-2.289-17.21-4.231s-7.674-6.127-9.394-14.858c-1.616-8.19-.353-13.943 3.837-17.953 3.776-3.614 9.189-5.41 16.483-5.41s11.905 2.34 14.843 5.158c2.337 2.242 3.884 5.242 3.82 8.147-.071 3.296-3.061 1.218-5.494.19-2.242-.947-5.053-1.548-7.674-1.421-3.123.15-5.184.498-7.011 2.273-2.21 2.148-1.547 4.769-1.547 4.769s7.327-1.169 13.706 0c5.692 1.042 10.042 3.098 11.608 7.258 1.374 3.648 1.101 7.789-.65 10.205" style="fill:#7b00a0;fill-opacity:1;fill-rule:nonzero;stroke:none;stroke-width:.640593" transform="translate(317.89 190.658)"/></g><g style="stroke-width:.640593"><path d="M0 0c-2.222.687-7.075 1.447-14.21.474-10.421-1.422-15.68-8.716-17.953-15.727-2.274-7.01-2.7-19.705.331-27.284s7.389-12.988 16.769-12.99c8.905-.001 13.469 6.241 15.3 8.49 4.358 5.352 8.806 14.071 20.747 25.911 5.542 5.494 12.514 9.782 18.189 12.742 2.528 1.317 1.511 2.889-.331 4.216-1.344.968-8.763 5.863-20.937 5.873C5.305 1.715.223-3.87-2.321-6.253c-4.5-4.216-7.247-10.894-8.574-15.442-1.326-4.547-3.68-5.216-5.021-5.216-2.037 0-2.794 3.416-1.326 7.016 1.664 4.081 4.128 7.639 7.863 11.321C-6.016-5.258-1.976-2.735.426-1.421.97-1.124 1.022-.317 0 0" style="fill:#7b00a0;fill-opacity:1;fill-rule:nonzero;stroke:none;stroke-width:.640593" transform="translate(271.28 216.64)"/></g><g style="stroke-width:.640593"><path d="M0 0c3.508-.089 5.678-.776 6.837-3.234.401-.85.411-3.05.197-4.463 0 0 2.582 4.302 6.821 6.244C17.494.214 19.718.099 22.879-.131c2.937-.213 6.573-2.355 7.887-6.106 1.137-3.245-.408-8.569-.876-9.971-.511-1.527-4.121-12.876-4.5-13.95s-.61-2.7.3-2.906c.659-.149 1.125.109 1.855.81.61.587.706 1.144.865 1.208.438.178.615-.363.698-.794.399-2.084-.243-4.248-1.468-5.66-2.179-2.511-3.996-4.808-11.133-4.808-6.608 0-8.879 2.999-9.763 4.433-.918 1.488-.836 4.126-.141 6.589s4.339 13.515 4.718 14.842 1.512 3.916-.624 4.452c-1.981.497-4.215-.925-5.352-3.135S.01-30.977-.433-32.24c-.441-1.263-1.048-3.121-.001-4.252.825-.891.935-.939 1.505-1.665.491-.624.435-1.756.165-2.229-.316-.553-.807-.912-1.663-.912h-21.435c-1.293 0-1.924 1.143-1.925 1.758 0 .83.356 1.231.864 1.605.75.553 1.513.92 2.495 1.773 1.178 1.021 1.204 1.631 2.026 4.156.821 2.527 6.425 20.408 6.678 21.482s.592 1.564-.686 2.534c-1.175.892-1.996 1.751-2.084 2.44-.135 1.042.274 2.116 2.159 3.125C-10.255-1.311-5.921.15 0 0" style="fill:#7b00a0;fill-opacity:1;fill-rule:nonzero;stroke:none;stroke-width:.640593" transform="translate(352.635 203.431)"/></g><g style="stroke-width:.640593"><path d="M0 0c4.29-.424 6.758-1.585 7.105-3.411.275-1.444-.016-3.158-.9-5.874s-6.616-21.126-7.247-23.21c-.632-2.085-1.032-2.753.023-3.79C-.24-37.048.545-37.67.71-38.463c.16-.765-.261-2.401-2.332-2.401h-20.902c-1.232 0-1.978 1.299-1.797 2.211.166.844.565 1.185 2.65 2.44 1.726 1.04 1.8 1.965 2.179 3.292s6.675 21.89 6.927 22.963.099 1.747-.912 2.568c-1.01.821-1.847 1.469-1.745 2.716.105 1.259 1.453 2.274 3.095 2.968C-10.484-1.011-5.747.568 0 0" style="fill:#7b00a0;fill-opacity:1;fill-rule:nonzero;stroke:none;stroke-width:.640593" transform="translate(436.596 202.997)"/></g><g style="stroke-width:.640593"><path d="M0 0c-3.093-3.368-8.119-3.784-11.228-.929-3.107 2.854-3.12 7.898-.027 11.265s8.12 3.784 11.228.93S3.093 3.368 0 0" style="fill:#7b00a0;fill-opacity:1;fill-rule:nonzero;stroke:none;stroke-width:.640593" transform="translate(445.065 206.86)"/></g></g></svg>