<svg xmlns="http://www.w3.org/2000/svg" width="124.497" height="124.496" viewBox="0 0 124.497 124.496"><path fill="#d50037" d="M.001 77.81h124.495v46.686H.001z"/><path fill="#636569" d="M.001 0h124.495v46.686H.001Z"/><path fill="#d50037" d="M62.249 0h62.248v46.686H62.249z"/><path fill="#636569" d="M62.249 77.81h62.248v46.686H62.249Z"/><path fill="#222" d="M0 46.686h124.496V77.81H0z"/><path fill="#fff" d="M49.573 61.914a60 60 0 0 0-1.139-.239l-.231-.048q-.195-.038-.353-.078c-.749-.15-1.214-.32-1.214-.7a.58.58 0 0 1 .182-.42 1.58 1.58 0 0 1 1.119-.384h.073a4.3 4.3 0 0 1 2.722 1.022l.083.075.644-1.252-.063-.043a5.36 5.36 0 0 0-3.293-1.117 3.54 3.54 0 0 0-2.461.929 1.84 1.84 0 0 0-.556 1.377c.038 1.482 1.676 1.882 3.514 2.19.785.132 1.342.26 1.372.718a.6.6 0 0 1-.184.425 2.1 2.1 0 0 1-1.476.438h-.075a4.65 4.65 0 0 1-2.671-1.062l-.088-.079-.6 1.332.06.041a6.35 6.35 0 0 0 3.313 1.07 3.66 3.66 0 0 0 2.69-.888 1.92 1.92 0 0 0 .562-1.439c-.027-.99-.64-1.582-1.929-1.862M40.414 58.725a3.89 3.89 0 0 0-2.929 1.168 3.63 3.63 0 0 0-1.034 2.544 3.52 3.52 0 0 0 1.193 2.651 4.266 4.266 0 0 0 5.524 0 3.47 3.47 0 0 0 1.193-2.652 3.62 3.62 0 0 0-1.015-2.542 3.93 3.93 0 0 0-2.931-1.17m1.685 5.331a2.433 2.433 0 0 1-3.382 0 2.27 2.27 0 0 1-.694-1.619 2.391 2.391 0 0 1 4.781 0 2.24 2.24 0 0 1-.706 1.619M34.867 58.991l-1.51 4.647-1.5-4.647h-1.534l-1.511 4.639-1.507-4.639h-1.609l2.351 6.787.035.059h1.48l1.528-4.482 1.528 4.482h1.491l2.366-6.845ZM17.901 60.251h2.87v5.586h1.58v-5.586h2.87v-1.259h-7.32ZM10.658 58.991l-3.141 6.845h1.611l.749-1.7h3.121l.767 1.7h1.624l-3.14-6.845Zm-.211 3.886 1-2.2 1 2.2ZM109.205 63.727a3.01 3.01 0 0 1-2.294 1.013h-.024a2.44 2.44 0 0 1-2.47-2.325 2.26 2.26 0 0 1 .651-1.63 2.55 2.55 0 0 1 1.8-.707 3.2 3.2 0 0 1 2.329.982l.077.075.748-1.194-.057-.048a4.72 4.72 0 0 0-3.106-1.172 4.38 4.38 0 0 0-2.665.959 3.51 3.51 0 0 0-1.333 2.768 3.806 3.806 0 0 0 3.878 3.649c.072 0 .144.006.215.006a4.5 4.5 0 0 0 3.084-1.244l.056-.051-.817-1.164ZM89.828 58.991h-1.515v6.845h5.952v-1.291h-4.434ZM56.072 58.725a3.87 3.87 0 0 0-2.931 1.168 3.64 3.64 0 0 0-1.031 2.544 3.51 3.51 0 0 0 1.193 2.651 4.14 4.14 0 0 0 2.769 1.015 4.2 4.2 0 0 0 2.771-1.015 3.53 3.53 0 0 0 1.186-2.651 3.66 3.66 0 0 0-1.025-2.542 3.95 3.95 0 0 0-2.932-1.17m1.68 5.331a2.34 2.34 0 0 1-1.68.683 2.4 2.4 0 0 1-1.7-.683 2.27 2.27 0 0 1-.695-1.619 2.391 2.391 0 0 1 4.781 0 2.24 2.24 0 0 1-.7 1.619M112.654 64.572v-1.729h4.025v-1.27h-4.025v-1.342h4.157v-1.267h-5.675v6.871h5.8V64.57ZM98.189 58.991l-3.156 6.845h1.616l.75-1.7h3.113l.772 1.7h1.619l-3.143-6.845Zm-.221 3.886 1-2.2.994 2.2ZM86.457 59.395a3.67 3.67 0 0 0-1.95-.424H80.64v6.875h1.608v-2.185h2.241a3.7 3.7 0 0 0 1.936-.429 2.41 2.41 0 0 0 .029-3.837m-1.766 2.977h-2.443v-2.1h2.444a1.26 1.26 0 0 1 .769.252.96.96 0 0 1 .353.8 1.056 1.056 0 0 1-1.122 1.051M64.917 62.524l-2.083-3.533h-1.836v6.845h1.517v-4.575l1.995 3.265h.837l1.977-3.253v4.564h1.529v-6.845H67.01ZM71.697 62.843h4.025v-1.27h-4.025v-1.342h4.142v-1.267h-5.66v6.871h5.8v-1.264h-4.277Z"/></svg>