<svg xmlns="http://www.w3.org/2000/svg" width="233.89291mm" height="154.05661mm" viewBox="0 0 233.89291 154.05661"><path d="M119.047 2979.88h5.09v5.093h-5.09z" style="fill:#ac1924;fill-opacity:1;fill-rule:nonzero;stroke:none" transform="matrix(10.20608 0 0 10.08026 -1033.06 -30037.966)"/><path d="M0 0v12.736h.001a2.541 2.541 0 0 0 2.511 2.542c.012 0 .023.005.034.005.013 0 .024-.005.036-.005h10.116c.013 0 .025.005.035.005.012 0 .023-.005.034-.005a2.542 2.542 0 0 0 2.515-2.542V0Z" style="fill:#ac1924;fill-opacity:1;fill-rule:nonzero;stroke:none" transform="matrix(10.20608 0 0 10.08026 0 0)"/></svg>