<svg xmlns="http://www.w3.org/2000/svg" xml:space="preserve" width="87.040001" height="87.041328" viewBox="0 0 87.040003 87.04133"><defs><clipPath id="a" clipPathUnits="userSpaceOnUse"><path d="M0 194.991h836.958V0H0Z"/></clipPath></defs><g clip-path="url(#a)" transform="matrix(1.33333 0 0 -1.33333 -81.9 170.482)"><path d="M0 0c-18.029 0-32.641-14.613-32.641-32.638 0-18.028 14.612-32.643 32.641-32.643 18.024 0 32.639 14.615 32.639 32.643C32.639-14.613 18.024 0 0 0" style="fill:#3c2527;fill-opacity:1;fill-rule:nonzero;stroke:none" transform="translate(94.066 127.861)"/><path d="M0 0v-.029l-.028-.05-.022-.036-.027-.041-.036-.02-.052-.029-.032-.006H-.29l-.022.017-.028.007-.02.011-.026.025-.01.027-.014.022v.09l.014.051.027.031.037.039.027.021.05.032.049.005.048.014.023-.014h.036l.027-.008.024-.032.02-.022.016-.026L0 .041Z" style="fill:#fff;fill-opacity:1;fill-rule:nonzero;stroke:none" transform="translate(93.191 64.026)"/><path d="m0 0 .045-.044.038-.028.012-.032.009-.023.009-.033v-.056L.104-.232.095-.257.073-.27.061-.278.037-.294.023-.299h-.048l-.025.021-.023-.012-.011.018-.036.04-.027.041-.048.047-.018.027-.027.029-.034.016-.038.01-.048.016-.05.014-.024-.012-.049-.009-.035-.009-.043-.019-.037-.023-.026-.04-.014-.024-.017-.023V-.29l.009-.028.008-.034.023-.025.038-.028.035-.014.063-.045.221-.081.052-.027.064-.045.046-.02.05-.044.034-.034.022-.059.013-.023.01-.028v-.056L.024-.956l-.014-.05-.027-.058-.029-.053-.038-.047-.036-.037-.054-.031-.051-.025-.049-.028-.052-.025-.064-.014-.064-.018-.063-.013-.06.012-.061-.013-.06.001H-.76l-.087.019-.09.022-.096.029-.037.017-.036.018-.043.031-.023.027-.028.025-.021.04-.013.037-.008.041.014.022v.021l.014.022.014.029.028.008.012.018.028.005h.017l.052-.01h.021l.017-.021.046-.038.048-.047.019-.042.026-.032.039-.016.035-.02.036-.028.035-.023h.048l.047-.025.058.017.043.008.049.013.042.034.035.024.029.047.03.048v.048l.003.032-.01.045-.013.028-.022.023-.037.008-.028.029-.051.035-.197.065-.079.032-.053.042-.065.039-.041.037-.039.055-.021.057-.008.055v.069l.006.058.012.046.016.041.029.044.021.047.042.035.041.021.036.029.05.027.044.024.052.021.057.008.054.013.061.008.052.011.058-.004.084-.015.083-.005.076-.016.051-.015.071-.03z" style="fill:#fff;fill-opacity:1;fill-rule:nonzero;stroke:none" transform="translate(91.349 65.324)"/><path d="m0 0 .01.014.011.015H.06L.071.012l.013-.015V-.01l.009-.01-.077-.338L.2-.361h.026l.013-.014.026-.009.009-.009.011-.016.016-.009-.007-.03v-.05L.285-.519.27-.539.251-.548.226-.559.198-.567H-.037l-.2-.828V-1.45l.008-.017.029-.014h.01l.025-.01h.024l.047.01.05.013.054.027.05.033.024.012.028.017.01-.012.024.012h.012l.012-.017.014-.015.014-.013.01-.017v-.068l-.015-.009v-.028L.17-1.555l-.056-.05-.043-.039-.067-.018-.053-.042-.062-.01-.06-.029-.058.011-.062-.016-.076.016-.074.014-.061.009-.027.015-.023.016-.009.025-.028.028-.011.008-.01.02v.042l-.017.026.017.031v.039l.243.9h-.105l-.02.019-.027-.008-.015.013-.008.016-.01.006v.056l.01.009v.016l.023.023.017.009.022.016.024.009h.041l.048.03.039.005.049.027.04.02.021.028.039.035.05.067.05.053.027.052.023.054z" style="fill:#fff;fill-opacity:1;fill-rule:nonzero;stroke:none" transform="translate(92.342 65.564)"/><path d="m0 0 .052-.01.063-.011.042-.022.048-.017.037-.015.043-.032.036-.033.035-.034.022-.028.039-.042.019-.037.023-.049.048-.107.045-.119.011-.024h.012l.007-.015.012-.016.036-.004.023.004.032.013.028.018.016.024.003.013v.028L.677.068-.545.26l-.221.047-.145.023-.135.019-.11.019-.096.008-.104.003h-.094l-.104-.003-.091-.027-.077-.012-.086-.041-.064-.031-.069-.045-.057-.041-.057-.05-.053-.071-.036-.07-.02-.075-.024-.079.005-.053-.011-.045.006-.044.005-.053.019-.039.018-.052.019-.043.013-.034.038-.033.032-.042.03-.026.027-.033.038-.023.054-.023.041-.014.046-.008.068-.011.074.011.059.003.075.029.066.023.022.029.018.018.03.018.02.037v.027l.02.037-.004.034-.005.051-.021.033-.02.04h-.008l-.03.015-.022.005h-.013l-.023.002-.029-.007-.023.005-.024-.02-.029-.009-.014-.026-.06-.038-.027-.023-.03-.02-.027-.008-.032-.004-.067.021-.031.019-.033.048-.028.024-.023.053-.015.044-.004.044.009.053.002.047.024.057.035.049.033.031.03.048.039.028.058.043.057.012.05.034.074.011.071.016.072.01h.079l.086-.001h.088l.097-.016.096-.016.083-.023.036-.018.037-.023.023-.012.031-.02.022-.025.01-.027L-.737 0l.007-.036-.007-.034-.003-.056-.01-.048-.02-.063-.533-1.288-.032-.048-.03-.027-.031-.022-.04-.018-.048-.005-.048-.008-.064.013-.062.008-.023.005-.018-.01h-.009l-.014-.008-.006-.029-.012-.028.002-.026-.002-.044.004-.01.014-.016.26-.028.133-.02.138-.008 1.32-.209.378.52.018.026v.017l.007.022.007.029-.014.009v.017l-.009.013-.019.019H.483l-.008.012-.025.004-.014-.01-.027.006-.015-.012-.023-.008-.015-.024-.104-.085-.104-.081-.054-.033-.052-.04-.071-.024-.051-.036-.066-.009-.067-.027-.06-.007-.078-.011h-.252l-.086.018-.099.01-.046.023-.05.003-.021.025-.017.023-.013.019v.01l.002.013v.01l.275.678.072-.008.072-.01.063-.01.068-.031.047-.018.025-.022.02-.025.01-.019.02-.028.004-.025.013-.022-.005-.037-.008-.037-.007-.055v-.007l.003-.029.012-.033.022-.01.034-.015.025-.006.043.006.01.015.002.007.018.023.015.027.271.683.004.019v.013l.002.013-.011.011-.006.031-.034.018-.028.007-.024-.007-.042-.022-.013-.015L.021-.58l-.03-.042-.041-.046-.045-.031-.058-.043-.054-.027-.066-.018-.063-.016-.028.007-.032.006-.2.036.221.535.039.067.025.061.03.043.017.027.015.011.017.01.025.008.051.002h.072z" style="fill:#fff;fill-opacity:1;fill-rule:nonzero;stroke:none" transform="translate(89.43 66.223)"/><path d="m0 0 .073.01.061.014.046.02.055.011.043.009.046.037.03.037.041.029.026.027.022.024.02.046.017.041.01.027.015.054-.007.037.007.036L.498.49.494.53.48.557.472.588l-.011.02-.022.024-.026.021-.047.034-.053.026-.065.018-.059.002H.134L.066.723.004.702-.044.68-.09.663-.122.624-.141.588-.154.583-.162.557-.17.521l.003-.006.005-.036.021-.05.004-.021.015-.022V.345L-.137.319-.141.283-.162.251-.198.229-.217.218-.252.205-.306.194-.329.187l-.036.007-.027.011-.026.008-.015.016-.02.026-.014.041-.005.016-.009.063.001.054.018.05.029.051.036.046.028.048.04.039.044.033.057.048.046.017.06.031.059.028.058.018.058.023.051.003.064.015.108.019L.4.893.452.888.498.879.555.864.608.852.655.836.704.797.744.77.776.731.807.693l.03-.045.026-.06.003-.06.008-.042L.866.463.874.429.866.392l-.02-.04L.825.305.81.283.79.235.76.213.723.18.695.138.663.101.568.055.463 0 .52-.019l.048-.005.052-.013.043-.008L.7-.063.741-.08l.03-.018.027-.037.027-.02.021-.024.031-.055.02-.062.026-.056v-.161L.908-.595.884-.656l-.038-.07-.048-.059L.76-.844.695-.891.636-.938.568-.974l-.07-.05-.065-.025-.088-.023-.069-.015-.075-.033-.081-.011-.103-.011-.112.003-.113.007-.05.001-.051.021-.039.023-.044.012-.041.033-.029.034-.048.023-.014.053-.02.041-.012.047-.004.059v.047l.02.052.021.04.033.042.028.019.04.032.042.01.028.003.036.007.027-.02.027-.015.018-.007.007-.029.022-.013.003-.029v-.021l.006-.026-.015-.04-.011-.038-.009-.031.004-.023.005-.025.017-.025.003-.017.026-.012.015-.026.026-.002.057-.031.049-.005.052-.017.054-.009.049.009.051.011.047.017.03.025.047.018.05.022.03.026.038.031.03.042.02.028.017.041.018.038.016.059.006.046.002.041.008.064-.01.049-.009.059-.021.044-.018.031-.02.054-.024.018L.4-.193l-.034.027-.039.002-.038.023-.041.006-.077.015H.086L0-.135Z" style="fill:#fff;fill-opacity:1;fill-rule:nonzero;stroke:none" transform="translate(100.093 65.5)"/><path d="M0 0v.016L-.018.03H-.04L-.08.016l-.06-.021-.055-.01-.078-.03-.105-.015-.078-.015-.106-.012-.209-.006-.01-.011H-.79l-.026-.015-.014-.018-.009-.029.013-.033.01-.019.016-.005.019-.017h.079l.051-.01.062-.01.046-.01.043-.026.021-.013.01-.024.019-.012v-.069L-.684-1.51l-.009-.043-.036-.037-.034-.025-.037-.038-.066-.021-.042-.03-.066-.022h-.076l-.038-.018-.023-.021-.011-.027-.013-.023.013-.027.015-.02.035-.017.051-.013.087-.005h.124l.246.001.234.004.225.025h.038l.025.019.019.026V-1.77l-.008.011-.015.013-.014.014-.023.006-.037.013-.032.014h-.043l-.038.009-.034.027-.026.017-.025.031v.034l-.015.037.006.038z" style="fill:#fff;fill-opacity:1;fill-rule:nonzero;stroke:none" transform="translate(95.126 65.713)"/><path d="M0 0h-.065l-.047-.021-.053-.011-.029-.032-.055-.024-.035-.042-.035-.017-.033-.061-.033-.031-.029-.059-.017-.045-.02-.056-.011-.048-.01-.054v-.043l-.011-.048.021-.091.018-.068.027-.063.012-.031.011-.019.029-.02.026-.011.024-.013.026-.024h.039l.022-.009.05.007.036-.012.052.014h.048l.048.031.047.007.051.034.037.035.03.042.037.035.036.037.023.054.019.034.027.051.01.06.004.055.014.048-.007.053-.011.091-.017.067-.03.066-.013.018-.015.026-.025.024-.027.023-.025.013-.037.007-.03.018-.036.008H.036L0 0m-.429-1.869-.092-.005-.09.012-.104.005-.075.032-.033.008-.039.027-.03.025-.027.019-.022.025-.009.036-.018.023-.004.051.012.039.012.033.007.038.032.026.028.029.033.022.036.017.054.004h.034l.027-.008.026-.023.013-.023.011-.031.015-.032.006-.071v-.026l.015-.026.012-.026.029-.021.049-.021.049-.01H-.37l.072.01.062.017.058.025.066.026.057.04.048.041.047.051.044.054.037.066.029.063.039.071.027.081.021.076.039.079.039.167-.087-.061-.069-.058-.086-.048-.069-.037-.087-.025-.071-.017-.079-.017-.074-.012-.05.007-.058-.003-.05.013-.055.006-.033.007-.052.03-.035.017-.044.04-.034.019-.032.037-.035.031-.016.055-.022.045-.017.049-.008.05-.014.063.011.087.003.072.025.088.033.073.032.068.061.059.047.07.054.05.076.055.076.046.066.034.071.024.086.034.077.018.079.013.079.009.088.007h.069l.066-.02.061-.009L.361.09.412.067.463.035.514 0l.043-.047.026-.049.04-.057.014-.063.034-.055.014-.078.005-.08.015-.077L.7-.635.695-.758.673-.884.642-.993l-.046-.119-.039-.116-.058-.09-.069-.109-.079-.088-.036-.04-.052-.038-.047-.048-.045-.032-.046-.026-.052-.029-.059-.032-.056-.027-.051-.024-.072-.014-.05-.018-.074-.005-.063-.014Z" style="fill:#fff;fill-opacity:1;fill-rule:nonzero;stroke:none" transform="translate(96.45 65.708)"/><path d="m0 0-.051-.016h-.06l-.046-.016-.056-.033-.028-.03-.035-.043-.036-.023-.032-.055-.034-.038-.019-.047-.013-.041-.011-.054-.012-.048-.014-.055.008-.048-.008-.061.026-.082.011-.079.032-.056.017-.034.029-.027.022-.022.028-.007.026-.026.025-.011.04-.003.036-.008.037.003.05.005h.048l.063.017.052.02.04.021.034.045.035.027.032.054.037.038.017.053.02.033.012.068.019.054.007.052.008.048-.001.05-.007.05-.007.087-.019.072-.04.051-.013.028-.019.022-.026.014L.2-.032l-.027.016-.026.003-.043.011h-.03L0 0m.566.428L.529.432.496.43.464.453.448.477.425.5v.021L.407.56.406.599.397.634v.037L.385.707.369.714.356.732.329.751l-.028.01-.06.019L.187.774.145.78.066.761.002.745-.041.714-.103.688-.149.65-.195.606l-.04-.068-.033-.049-.033-.061-.031-.07-.029-.073-.017-.082-.019-.08-.017-.069-.025-.169.056.074.082.057.07.039.074.048.069.026.074.022.061.022.057.002.051.005.059.006.068-.011.049-.024.065-.007.038-.021.05-.013.039-.023.043-.033.036-.038.031-.032.027-.049.028-.05.018-.046.006-.059.02-.065-.004-.087-.009-.072-.015-.071-.018-.084-.047-.069L.61-.724.552-.791.505-.844.434-.906.377-.945l-.07-.034-.071-.038-.073-.035-.087-.013-.08-.024-.077-.004-.088-.006h-.087l-.07.01-.066.007-.062.025-.069.032-.042.037-.047.033-.045.04-.038.063-.031.043-.03.06-.023.074-.013.076-.022.074-.004.081.004.102-.011.098.011.112.022.116.024.097.042.122.04.102.053.107.067.083.063.1.049.039.035.037.046.043.047.031.058.029.043.04.061.019.061.033.062.013.061.017.075.012h.06l.123.009.099-.009.054-.012.044-.005.054-.012L.566.86.602.838.633.814.66.791.686.759.719.732.732.703v-.04l.015-.04L.739.586.732.55.719.527.704.495.672.471.639.445.602.444Z" style="fill:#fff;fill-opacity:1;fill-rule:nonzero;stroke:none" transform="translate(98.398 65.148)"/><path d="M0 0c-12.681 3.473-22.137 14.993-22.375 28.788-.291 16.756 13.098 30.62 29.858 30.914C24.234 59.997 38.1 46.6 38.39 29.851c.251-14.181-9.3-26.288-22.392-29.859l.13-.663c13.406 3.63 23.197 16.02 22.938 30.53-.296 17.126-14.476 30.818-31.599 30.52-17.125-.303-30.813-14.477-30.515-31.604C-22.8 14.676-13.154 2.909-.192-.646L0 0" style="fill:#fff;fill-opacity:1;fill-rule:nonzero;stroke:none" transform="translate(86.093 65.923)"/><path d="M0 0a.341.341 0 0 0 .204-.044C.19-.029-.79-.696-.912-.744a8.833 8.833 0 0 0-1.477-.494c-.863-.216-1.851-.09-2.727-.006-.612.061-1.219.21-1.838.227-.614.008-1.217-.102-1.815-.202a14.382 14.382 0 0 0-.747-.096c-1.038-.095-2.077-.053-3.114.066-.621.074-1.409.114-1.781.693.854-.483 1.973-.42 2.899-.218 1.19.252 2.267.613 3.504.566.925-.032 1.833-.204 2.755-.266 1.322-.09 2.634.035 3.946.203.226.031.453.05.675.101.169.043.423.16.632.17m-7.761 3.952c.427.003.852 0 1.276-.029.513-.018 1.032-.035 1.548-.072a10.515 10.515 0 0 0 1.512-.232c.523-.125 1.031-.263 1.529-.479.76-.337 1.452-.806 1.894-1.528C.66.521.77-.765.274-1.929c-.122-.3-.257-.64-.442-.908-.398-.576-.813-1.036-1.378-1.45-.186-.138-.413-.229-.623-.326a8.946 8.946 0 0 0-1.541-.55 13.59 13.59 0 0 0-3.416-.395c-.685 0-1.354.04-2.033.111-1.157.131-2.277.434-3.279 1.029-1.014.609-1.873 1.486-2.187 2.642-.127.455-.242.905-.183 1.382.056.459.237.917.471 1.307.2.334.451.744.741 1.007.368.338.804.726 1.249.956 1.072.564 2.285.882 3.485 1.003.369.038.738.057 1.101.073" style="fill:#fff;fill-opacity:1;fill-rule:evenodd;stroke:none" transform="translate(101.127 104.83)"/><path d="M0 0c.167.02.341.017.498-.018.262-.053.419-.166.501-.411.049-.154.028-.415-.106-.517-.215-.157-.469-.039-.662.089-.176.113-.36.398-.594.359-.218-.035-.327-.356-.392-.531a4.543 4.543 0 0 1-.178-.655c-.059-.31-.122-.667-.122-.987.127-.047.224-.032.357-.047.152-.025.295-.069.322-.243.024-.134-.073-.323-.218-.363-.138-.038-.284-.045-.422-.088-.158-.045-.148-.131-.169-.271-.016-.109-.033-.218-.046-.334-.034-.216-.066-.437-.101-.652a12.61 12.61 0 0 1-.114-1.005c-.015-.207-.021-.414-.046-.619-.014-.105.391-.155.449-.188.256-.142.101-.373-.104-.42-.19-.045-.385-.073-.575-.109-.255-.045-.513-.065-.766-.115-.214-.033-.65-.167-.722.13-.036.141.038.188.154.248.115.058.209.126.298.219.182.2.265.437.294.701.038.354.103.71.131 1.07.008.088.088 1.24.07 1.24-.207 0-.566-.028-.562.281.002.318.424.322.624.442.137.076.191.247.211.393.026.187.043.368.088.552.08.28.187.56.329.813A1.988 1.988 0 0 0 0 0" style="fill:#fff;fill-opacity:1;fill-rule:evenodd;stroke:none" transform="translate(93.55 124.192)"/><path d="M0 0c.224.022.449-.02.645-.14.267-.162.291-.791-.025-.915-.178-.063-.385.042-.527.147-.169.121-.331.428-.574.395-.185-.026-.299-.255-.355-.419a5.073 5.073 0 0 1-.176-.811c-.01-.078-.175-1.036-.117-1.04.166-.015.358-.008.519-.044.389-.084.254-.558-.083-.603-.147-.023-.353 0-.449-.145-.092-.14-.065-1.009-.065-1.243 0-.341-.04-.677-.017-1.021.013-.209.021-.409.017-.62 0-.031.252-.084.279-.095a.64.64 0 0 0 .28-.156c.06-.067.074-.189-.022-.239-.06-.029-.769-.204-1.051-.284-.164-.047-1.067-.328-1.146-.06-.052.187.149.257.269.344a.725.725 0 0 1 .229.232c.11.19.14.433.163.649.039.428.05.864.055 1.299.003.249.026.5.026.75 0 .062.037.173-.023.218-.041.039-.123.048-.175.06-.03.004-.078-.012-.11-.012a.625.625 0 0 0-.106 0 .3.3 0 0 0-.179.099.22.22 0 0 0-.065.179c0 .056.026.151.065.201.167.174.475.101.638.28.079.091.057.226.067.336.013.262.08.52.12.782.075.478.284.944.62 1.294C-.948-.243-.467-.028 0 0" style="fill:#fff;fill-opacity:1;fill-rule:evenodd;stroke:none" transform="translate(90.437 123.74)"/><path d="M0 0a.222.222 0 0 0 .096 0c.146-.036 1.048-1.949 1.086-2.054.026-.081.052-.134-.01-.21-.047-.05-.174-.101-.245-.075-.163.048-.291.294-.411.41-.127.12-.256.236-.405.329a1.286 1.286 0 0 1-.785.217c-.089-.009-.174-.015-.259-.03-.121-.024-.256-.042-.371-.086-.212-.077-.375-.217-.525-.374-.042-.044-.079-.092-.117-.134a2.636 2.636 0 0 1-.386-.727c-.047-.13-.098-.263-.128-.401-.121-.531-.086-1.079.016-1.615.095-.473.201-.945.444-1.368.192-.335.431-.683.708-.949.289-.272.6-.346.973-.427.208-.037.423-.064.634-.033.315.042.672.233.9.446.187.177.297.395.39.632.107.265.207.553.156.844-.069.414-.498.564-.66.925a.412.412 0 0 0 .014.359c.195.404.79.584 1.085.176.413-.56.374-1.377.119-1.994-.084-.209-.198-.403-.305-.604-.145-.257-.353-.471-.548-.688a3.512 3.512 0 0 0-.945-.603 2.287 2.287 0 0 0-.829-.183 3.047 3.047 0 0 0-.862.085 3.02 3.02 0 0 0-1.575.958c-.112.129-.224.27-.323.411-.116.177-.192.379-.277.578-.077.175-.14.362-.19.55a4.454 4.454 0 0 0-.095 1.652c.017.158.044.32.076.476.035.176.092.34.143.511.151.491.411.911.747 1.295.458.529 1.046.785 1.728.884.154.026.336.066.463.163.147.108.154.299.22.453.038.095.145.18.253.201" style="fill:#fff;fill-opacity:1;fill-rule:evenodd;stroke:none" transform="translate(80.16 120.266)"/><path d="M0 0c1.32-.016 2.638-.117 3.93-.397a21.165 21.165 0 0 0 2.92-.851 18.673 18.673 0 0 0 1.915-.818c.486-.245.962-.493 1.435-.77.544-.354 1.074-.72 1.583-1.125 1.33-1.061 2.561-2.258 3.597-3.61.295-.384.581-.79.841-1.204.244-.4.482-.806.703-1.216.462-.864.837-1.739 1.189-2.642.409-1.037.671-2.127.859-3.224.058-.323.102-.647.131-.97.012-.092.081-.464.027-.532.013-.013-2.23.002-2.23-.013-.023.599-.197 1.194-.327 1.774a23.423 23.423 0 0 1-.47 1.851 13.26 13.26 0 0 1-1.348 3.021c-.301.5-.613.985-.953 1.458a17.87 17.87 0 0 1-6.015 5.236c-1.07.572-2.217.973-3.398 1.261-1.727.42-3.443.675-5.23.568-.492-.028-.99-.078-1.473-.15a18.336 18.336 0 0 1-2.006-.428c-1.235-.32-2.402-.812-3.538-1.385-.544-.278-1.042-.621-1.551-.958a16.364 16.364 0 0 1-3.644-3.352 17.03 17.03 0 0 1-1.786-2.702 17.979 17.979 0 0 1-.549-1.104c-.5-1.12-.87-2.34-1.116-3.541a12.128 12.128 0 0 1-.222-1.659 174.5 174.5 0 0 0-2.288 0c-.022.02.011.162.014.185.009.092.02.179.032.276.054.38.096.765.144 1.146.015.116.03.227.048.336.099.558.237 1.099.393 1.643.092.309.189.609.286.909.213.652.523 1.293.805 1.913.274.616.575 1.223.914 1.806a15.735 15.735 0 0 0 2.382 3.112c.503.522 1.023 1.059 1.579 1.526.713.594 1.425 1.17 2.216 1.657 1.189.723 2.441 1.362 3.746 1.845 1.471.541 3.074.915 4.63 1.057.455.038.911.062 1.363.071z" style="fill:#fff;fill-opacity:1;fill-rule:evenodd;stroke:none" transform="translate(94.32 114.748)"/><path d="M0 0c.336.151.591-.6.661-.801.068-.192.379-.698.154-.879-.073-.067-.308-.032-.412-.047l.18-.176.18-.186c.31-.312.618-.594.716-1.04.08-.355.051-.767-.13-1.089a1.266 1.266 0 0 0-.324-.409c-.139-.109-.316-.124-.482-.179a1.902 1.902 0 0 0-.349-.074c-.247-.035-.512-.039-.76-.052-.455-.025-.915.061-1.368.013a6.169 6.169 0 0 1-.83-.153c-.238-.064-.339-.146-.421-.366a.536.536 0 0 1-.017-.319c.05-.211.216-.409.438-.435.389-.057.646.363 1.028.279.215-.042.337-.241.352-.445.021-.305-.062-.656-.397-.714-.243-.041-.573.007-.808.078-.53.159-.966.624-1.055 1.176-.061.351-.041.759.142 1.071.448.782 1.397.882 2.203.913.489.017 1.076-.104 1.539.114.26.115.439.401.439.689-.002.156-.126.391-.199.527a1.196 1.196 0 0 1-.361.408c-.356.253-.821.286-1.242.269-.3-.006-.598-.053-.897-.084-.322-.036-.549.011-.689-.326-.078-.18-.174-.216-.357-.156-.076.023-.161.406-.188.472-.1.285-.194.576-.297.86-.065.182-.253.446.04.489.108.019.232-.096.309-.155a.53.53 0 0 1 .389-.128c.502.008 1.002.058 1.5.1.257.021.511.072.767.105.109.019.368.107.386.107.008.185.03.484.16.543" style="fill:#fff;fill-opacity:1;fill-rule:evenodd;stroke:none" transform="translate(118.042 104.774)"/><path d="M0 0v-2.006l-54.803.027v2.03z" style="fill:#fff;fill-opacity:1;fill-rule:evenodd;stroke:none" transform="translate(120.707 95.648)"/><path d="M0 0h2.211c-.007-1.178-.754-2.691-1.198-3.78A17.525 17.525 0 0 0-1-7.457c-1.814-2.486-4.194-4.529-6.958-5.885a20.602 20.602 0 0 0-5.284-1.747c-1.341-.252-2.681-.319-4.041-.287-3.172.253-6.215 1.035-8.986 2.637-3.739 2.16-6.619 5.661-8.173 9.669-.375.96-.687 1.937-.826 2.956l2.233-.008.106-.273c.197-.648.37-1.31.641-1.929.522-1.206 1.06-2.362 1.805-3.443.215-.305.434-.608.662-.901.604-.78 1.296-1.493 2.016-2.157a13.385 13.385 0 0 1 1.822-1.42c1.041-.676 2.17-1.35 3.346-1.764 3.849-1.371 8.202-1.622 12.056-.086a17.894 17.894 0 0 1 4.898 2.919A16.967 16.967 0 0 1-2.048-4.88c.316.534.605 1.084.859 1.653.254.554.458 1.137.653 1.715.099.298.194.595.289.898C-.221-.533-.105 0 0 0" style="fill:#fff;fill-opacity:1;fill-rule:evenodd;stroke:none" transform="translate(110.859 91.981)"/><path d="M0 0c.199.025.402-.008.546-.148.342-.343.078-.859-.356-.898-.27-.019-.499.203-.784.136-.504-.121-.133-.979-.042-1.254.09-.282.225-.527.352-.786.077-.154.147-.309.229-.462-.014.033.438.23.482.236.41.102.461-.37.237-.613-.077-.079-.178-.155-.255-.241-.192-.21.038-.45.135-.652.103-.227.21-.457.309-.686.15-.352.336-.691.513-1.035.067-.119.195-.483.326-.527.226-.076.453.157.658.071.364-.149-.2-.6-.309-.709-.227-.233-.467-.46-.686-.703a4.404 4.404 0 0 0-.511-.483l-.077-.024-.048.024-.074.051-.055.082c-.014.014.1.238.107.269.044.144.07.298.067.455-.01.312-.117.62-.235.904-.184.436-.435.837-.625 1.266-.119.274-.239.534-.421.777-.207-.07-.545-.354-.693-.06-.139.28.063.422.225.603.211.242.003.683-.069.945-.111.362-.225.728-.275 1.108-.07.516-.069 1.005.221 1.458.196.305.441.606.764.778.097.057.219.1.344.118" style="fill:#fff;fill-opacity:1;fill-rule:evenodd;stroke:none" transform="translate(112.95 84.077)"/><path d="M0 0c.538.047 1.121-.105 1.602-.324C2.609-.785 3.5-1.4 4.472-1.924c.529-.284 1.1-.558 1.682-.723a5.617 5.617 0 0 1 1.013-.157c.061-.003-.094-.334-.118-.364-.094-.108-.245-.165-.382-.203a2.406 2.406 0 0 0-.89-.037c-.522.069-1.067.278-1.591.225-.373-.036-.642-.629-.852-.899a74.845 74.845 0 0 0-1.146-1.405c-.387-.462-.922-.972-1.195-1.52a.572.572 0 0 1-.041-.505c.08-.189.323-.517-.023-.541-.291-.027-.621.248-.862.376-.298.16-.609.327-.87.538-.122.098-.47.26-.399.458.092.265.708.123.911.17.391.089.63.545.849.844.305.417.634.81.95 1.217.308.404.588.839.934 1.214.222.233.465.462.562.783.092.298-.272.537-.466.711a5.781 5.781 0 0 1-.977.721C1.115-.763.6-.572.082-.604c-.524-.039-1.021-.328-1.197-.843-.155-.438-.037-1.052.417-1.261.479-.235.895.195 1.17.531.341.42.861-.166.814-.576-.117-.992-1.736-.845-2.306-.466-.417.276-.73.746-.791 1.241C-1.935-.97-1.127-.191-.168-.024A.83.83 0 0 0 0 0" style="fill:#fff;fill-opacity:1;fill-rule:evenodd;stroke:none" transform="translate(82.14 77.563)"/><path d="M0 0c.22.03.232-.175.232-.337L.208-.412l-.13-.157c-.49-.394-1.1-.682-1.147-1.384-.015-.232-.015-.466-.034-.696l-.025-.316a41.985 41.985 0 0 1-.104-1.796c-.016-.371-.35-1.754.186-1.901.345-.101.926.208 1.206.396.443.295.724.732.894 1.23.046.13.196.97.388.97h.102l.075-.021c.362-.125.13-.683.13-.981 0-.292-.014-.59-.059-.875-.016-.122-.008-.309-.065-.425-.125-.24-.663-.317-.901-.397-.384-.134-.769-.263-1.154-.399a16.856 16.856 0 0 0-1.795-.512c-.19-.046-1.088-.368-1.088.038 0 .309.437.443.595.672.178.254.184.586.211.884.037.398.075.789.088 1.189.023.808.087 1.609.149 2.415.018.193.099.473-.053.639-.292.326-.933.173-1.31.143a5.928 5.928 0 0 1-1.233-.224c-.658-.192-1.267-.655-1.267-1.415 0-.34.271-.721.562-.874.297-.15.764-.063.816.33.062.46.314.913.846.655.431-.203.309-.747.048-1.053-.815-.933-2.734-.624-2.865.714-.069.67.107 1.292.659 1.695.489.355 1.058.56 1.648.688 1.287.294 2.562.433 3.801.918.099.037.406.234.618.262" style="fill:#fff;fill-opacity:1;fill-rule:evenodd;stroke:none" transform="translate(102.335 75.766)"/><path d="M0 0a.183.183 0 0 1-.09.157.454.454 0 0 1-.262.064h-.455v-.433h.486C-.106-.212 0-.14 0 0m.459-1.423h-.516l-.523.814h-.227v-.814h-.398V.593h.884C-.069.593.115.547.24.456.358.362.42.221.42.031a.779.779 0 0 0-.053-.308.411.411 0 0 0-.173-.195.926.926 0 0 0-.307-.123Zm.593 1.055c0 .249-.062.486-.196.694A1.46 1.46 0 0 1 .32.834a1.45 1.45 0 0 1-.721.186 1.59 1.59 0 0 1-.652-.137 1.577 1.577 0 0 1-.805-.86 1.232 1.232 0 0 1-.112-.499 1.49 1.49 0 0 1 .164-.634c.101-.18.229-.333.386-.454.159-.124.315-.213.479-.274.162-.048.307-.082.443-.082.323 0 .598.07.831.206.233.133.415.321.54.556.12.236.179.502.179.79m.452-.05c0-.24-.045-.476-.132-.704a1.924 1.924 0 0 0-.394-.606 1.986 1.986 0 0 0-.632-.421 2.286 2.286 0 0 0-.844-.156c-.258 0-.504.056-.735.162a2.102 2.102 0 0 0-.608.438 1.96 1.96 0 0 0-.41.605c-.093.218-.14.429-.14.636 0 .245.047.481.143.707.098.231.236.432.411.611.181.173.393.312.642.413.251.102.52.154.811.154A1.932 1.932 0 0 0 .942.899c.175-.168.313-.365.413-.587.098-.227.149-.466.149-.73" style="fill:#fff;fill-opacity:1;fill-rule:evenodd;stroke:none" transform="translate(118.943 91.88)"/><path d="M0 0c.115-.034.168-.286.148-.386a2.35 2.35 0 0 0-.242-.68c-.057-.114-.132-.221-.203-.33h-.028c-.144.348-.187.791-.003 1.127C-.275-.172-.142.04 0 0m1.759 4.636c.028.003.06.009.094.009.438.019.597-.504.414-.821-.123-.219-.378-.163-.584-.163-.101 0-.292-.181-.359-.249a1.088 1.088 0 0 1-.242-.408c-.248-.75.047-1.648.476-2.276a3.85 3.85 0 0 1 .579-.68c.172.495.198.977.54 1.409.237.289.547.634.935.691.87.13 1.461-.691 2.069-1.173.09-.068.186-.134.293-.171.093-.038.312-.122.411-.096.099.029.179.102.279.129.096.028.232-.1.245-.184.016-.11-.057-.245-.097-.346a3.495 3.495 0 0 0-.352-.712c-.035-.057-.103-.168-.174-.186-.283-.091-.776.424-.978.571-.214.168-.413.352-.618.53-.461.4-1.178.846-1.714.296-.283-.29-.454-.773-.283-1.156a1.4 1.4 0 0 1 .298-.407l.025-.027.076-.023c.038-.013.196.097.24.115a2.334 2.334 0 0 0 1.175.197c.41-.047.814-.218 1.12-.507.506-.489.727-1.135.84-1.823.068-.404.041-.812-.024-1.216-.053-.328-.116-.718-.291-1.006l-.208-.357-.231-.338c-.476-.559-1.079-.93-1.818-1.025-.631-.075-1.303-.02-1.891.234-.513.226-.995.499-1.381.911-.396.429-.723.948-1.016 1.451a6.245 6.245 0 0 0-.391.818l-.026.03-.028.021s-.089-.087-.099-.099c-.374-.371-.693-.785-.901-1.267-.159-.376-.35-.977-.078-1.345.128-.171.391-.324.609-.307a.353.353 0 0 1 .3.44c-.049.193-.213.33-.285.514-.134.345.309.729.626.532a.866.866 0 0 0 .365-.532c.204-.946-.935-1.931-1.739-1.185a1.598 1.598 0 0 0-.419.671c-.188.648-.02 1.36.271 1.957.221.461.558.853.807 1.3.188.337.285.71.325 1.093.037.4-.054.809.056 1.203.086.323.226.712.515.91.34.245.633.203.887-.122a.87.87 0 0 0 .14-.348c.054-.258.09-.511.035-.774-.119-.531-.437-.967-.651-1.465-.335-.775.373-1.528.83-2.082.263-.308.556-.589.893-.826.328-.229.69-.412 1.069-.526.38-.124.782-.169 1.183-.12.491.066 1.095.256 1.476.575.356.301.539.762.641 1.206.139.606.088 1.319-.238 1.858a1.717 1.717 0 0 1-.835.681 1.94 1.94 0 0 1-.544.118c-.217.019-.521.086-.693-.081l-.021-.023v-.029s.78-.693 1.23-.818c.065.06.16.197.245.219.109.031.279-.101.328-.187.115-.227-.515-1.956-.752-1.903-.167.039-.228.272-.228.418 0 .229-.01.353-.198.498-.31.247-.632.472-.967.682-.187.113-.373.233-.559.347-.247-.193-.229-.839-.081-1.069.176-.283.436-.128.694-.099.295.034.47-.114.508-.416a.389.389 0 0 0-.112-.321.747.747 0 0 0-.661-.201c-.811.144-1.093.976-.986 1.71.031.203.084.449.2.629l.05.077A6.06 6.06 0 0 0 1.263-.492a3.923 3.923 0 0 0-.377.79 5.17 5.17 0 0 0-.303 1.38c-.034.399-.047.778.019 1.173.095.566.456 1.663 1.157 1.785" style="fill:#fff;fill-opacity:1;fill-rule:evenodd;stroke:none" transform="translate(68.178 105.577)"/><path d="M0 0a.55.55 0 0 0 .336-.039C.382-.061.439-.084.48-.114.554-.186.47-.291.425-.348a2.72 2.72 0 0 1-.216-.298c-.14-.202-.284-.394-.424-.591-.083-.108-.164-.224-.244-.332-.202.387-.298.969.051 1.315A.838.838 0 0 0 0 0m.52.762C.634.77.75.762.865.735c.146-.038.739-.231.82-.433L1.673.274-.124-2.19c-.026-.034.243-.37.278-.411.111-.128.233-.248.366-.353.26-.212.605-.342.946-.286.358.063.75.324.869.677.12.344-.023.73-.224 1.014-.185.257-.545.463-.354.835.107.202.364.378.599.321.339-.099.565-.51.62-.831.076-.43-.03-.926-.199-1.326-.421-1.019-1.514-1.792-2.6-1.296-.885.399-1.529 1.141-1.564 2.14-.006.228.029.448.08.673.128.549.518 1.14.966 1.478.252.183.55.304.861.317" style="fill:#fff;fill-opacity:1;fill-rule:evenodd;stroke:none" transform="translate(74.3 111.095)"/><path d="M0 0a.683.683 0 0 0 .089.005c.348 0 .587-.326.704-.619.174-.433.262-.882.262-1.357-.003-.191.012-.38 0-.568-.009-.165-.051-.325-.073-.485-.071-.444-.411-1.167-.971-1.1a.968.968 0 0 0-.63.431c-.343.527-.438 1.237-.432 1.847.001.397.085.906.283 1.243.148.26.456.553.768.603m.384.544C1.101.513 1.779.069 2.017-.616c.16-.469.244-.911.214-1.408a3.527 3.527 0 0 0-.184-.931 2.23 2.23 0 0 0-.326-.613c-.207-.279-.44-.556-.739-.738a2.285 2.285 0 0 0-.875-.307c-.606-.085-1.187.004-1.639.443-.283.274-.444.584-.578.941a3.045 3.045 0 0 0-.179.812 2.698 2.698 0 0 0 .325 1.48c.204.375.487.652.829.91.37.282.907.542 1.383.569.044.002.087.002.136.002" style="fill:#fff;fill-opacity:1;fill-rule:evenodd;stroke:none" transform="translate(84.992 119.62)"/><path d="M0 0c.225-.004.481-.048.631-.21A.529.529 0 0 0 .77-.702S.748-.796.743-.801c-.004-.034-1.655.347-1.671.33.201.277.456.455.816.471zm-.489.542c.224.005.445-.018.667-.061C.409.432.627.363.848.276c.389-.155.775-.532.884-.941.086-.342.111-.658-.086-.964l-.055-.048s-2.911.633-2.952.64c-.04.01-.201-.328-.209-.35a2.212 2.212 0 0 1-.237-.819c-.023-.318.037-.673.277-.901.353-.341.859-.417 1.313-.221.242.105.338.277.395.528.084.366.245.699.688.579.238-.059.445-.213.451-.48.002-.157-.132-.399-.227-.518-.117-.156-.293-.263-.47-.351a2.595 2.595 0 0 0-1.241-.272c-.479.014-1.003.112-1.388.42-.245.2-.444.458-.582.743-.209.406-.196.866-.101 1.312.074.337.19.694.406.968.381.483.953.858 1.57.927.076.006.149.014.227.014" style="fill:#fff;fill-opacity:1;fill-rule:evenodd;stroke:none" transform="translate(100.512 120.321)"/><path d="M0 0c.208-.047.391-.242.548-.37.142-.109.272-.236.38-.379a.981.981 0 0 0 .145-.885 1.354 1.354 0 0 0-.655-.745 1.227 1.227 0 0 0-.97-.083c-.355.124-.641.38-.909.637a3.41 3.41 0 0 0-.158.152c.376.431.745.868 1.156 1.26.095.091.438.416.463.413m2.238 2.001c.28.039.553-.029.689-.306.154-.292.201-.712.037-1.009-.207-.393-.721-.803-1.188-.794-.238.011-.48.101-.691.211C1.073.106.477.49.486.512c.294.485.674.881 1.122 1.233.16.124.396.231.63.256m-4.447 3.03c.427.036.862-.071 1.27-.184.771-.208 1.422-.626 2.067-1.075.189-.129.376-.263.566-.393.369-.25.745-.482 1.082-.771.292-.254.59-.499.824-.812l.23-.361c.21-.452.399-.923.304-1.428-.117-.613-.78-1.095-1.384-1.116a2.223 2.223 0 0 0-.641.053h-.054c.062-.382.156-.78.106-1.167a1.271 1.271 0 0 0-.449-.827c-.289-.241-.603-.418-.986-.425-.471-.014-1.055.138-1.471.356-.16.09-.31.193-.469.283-.285.166-.565.382-.831.585a44.9 44.9 0 0 1-.853.635c-.294.21-.609.461-.938.605-.137.071-.02.256.052.333.168.177.626-.169.819-.202C-2.621-.94.626 2.471.678 2.7c.046.215.067.449-.091.61-.426.449-.902.817-1.473 1.063-.517.215-1.219.271-1.715-.032-.382-.237-.591-.899-.297-1.28.22-.291.559-.095.85-.07.295.019.556-.094.594-.411.013-.135-.086-.358-.157-.462a.585.585 0 0 0-.372-.222c-.281-.058-.688.032-.943.158a1.286 1.286 0 0 0-.65.727c-.12.312-.167.7-.11 1.034.057.323.272.719.552.907.194.135.447.217.678.273.079.019.164.026.247.036" style="fill:#fff;fill-opacity:1;fill-rule:evenodd;stroke:none" transform="translate(108.091 116.103)"/><path d="M0 0c.278.021.563.001.799-.161.222-.154.466-.492.368-.772-.029-.078-.185-.276-.259-.305 0-.027-1.192 1.196-1.192 1.196.094.018.19.031.284.042m-.797.89c.062.005.124.015.19.015C.097.928.831.543 1.288.013c.118-.14.268-.318.337-.489.11-.274.24-.535.232-.84-.009-.353-.172-.791-.466-1.002-.144-.104-.245-.112-.384.011C.87-2.184-.862-.44-.947-.278a2.143 2.143 0 0 1-1.104-.831c-.175-.271-.253-.645-.139-.948.112-.324.416-.619.737-.73.382-.127.595.047.869.275.172.146.542.336.757.182.129-.091.202-.29.221-.441.071-.589-.488-.783-.981-.725-.332.036-.652.1-.95.254a3.436 3.436 0 0 0-.802.589c-.06.066-.124.134-.18.204a1.755 1.755 0 0 0-.333.686c-.036.142-.083.307-.086.452 0 .102 0 .202.017.3.018.103.036.211.069.31.1.278.23.521.429.741.233.25.487.444.796.588.081.046.164.077.249.113.186.073.38.127.581.149" style="fill:#fff;fill-opacity:1;fill-rule:evenodd;stroke:none" transform="translate(112.587 112.622)"/><path d="M0 0c.06.015.128.021.201.009A1.53 1.53 0 0 0 .574-.11c.251-.121.42-.309.616-.507.15-.158.315-.301.489-.439.027-.025.055-.025.07-.073.013-.035-.51-.15-.558-.154a1.476 1.476 0 0 0-.657.044c-.31.093-.732.334-.82.675-.066.252.057.501.286.564m1.596 1.551a.656.656 0 0 0 .384-.018c.7-.25 1.177-.866 1.551-1.473.154-.242.242-.549.279-.835.026-.225.042-.504-.083-.708-.287-.484-1.01-.644-1.504-.79-.281-.087-.574-.128-.829-.283-.127-.078-.144-.21-.139-.342 0-.063.087-.315-.029-.414-.118-.092-.474.186-.549.267-.275.293-.539.744-.343 1.142l.026.05v.05l-.279.13-.282.154s-.226.174-.231.181c-.422.323-.848.868-.844 1.419.003.435.307.739.722.818.34.067.678.086 1.001-.066.32-.15.585-.411.822-.666.293-.307.56-.637.859-.936.219-.219.496-.254.777-.161.355.118.272.709.137.945-.135.232-.345.486-.619.542-.329.064-.861-.244-1.06.158-.08.158-.183.42-.101.59a.495.495 0 0 0 .334.246" style="fill:#fff;fill-opacity:1;fill-rule:evenodd;stroke:none" transform="translate(113.459 107.933)"/><path d="M0 0a.696.696 0 0 0 .54-.227c.481-.516-.277-.944-.744-.931-.344.011-.653.155-.953.309-.032.016.234.368.257.398.129.13.288.236.447.326.145.077.3.121.453.125m-3.439-1.203c.183.005.476 0 .561-.082l.022-.028c.027-.025-.099-.367-.107-.408a11.108 11.108 0 0 1-.143-.578 8.572 8.572 0 0 1-.182-1.18c-.004-.063-.025-.735-.001-.735l-.182.026c-.281.036-.643.38-.827.582a1.638 1.638 0 0 0-.431.966c-.025.426.214.926.543 1.183.185.136.403.226.632.243l.115.011M-.543.542C-.032.612.489.471.826.066c.234-.287.457-.6.397-.994-.05-.343-.363-.701-.698-.816-.404-.129-.846-.054-1.256.011-.277.047-.554.099-.839.143-.09.01-.312-.479-.342-.551a4.079 4.079 0 0 1-.23-.725 6.614 6.614 0 0 1-.17-1.273c-.005-.3.389-.176.593-.138.282.044.554.184.731.416.227.299.406.838.875.804.138-.011.384-.227.459-.34.091-.145.083-.303.013-.457-.138-.307-.452-.506-.749-.637-.362-.16-.732-.234-1.117-.311-.279-.047-.556-.08-.831-.13 0 0-.027-.125-.027-.13-.076-.403.183-1.11.682-1.06.374.04.791.576 1.14.143.138-.17.174-.542.033-.707-.267-.317-.822-.196-1.149-.081A2.122 2.122 0 0 0-2.901-5.64c-.097.216-.122.457-.209.677l-.048.077c-.795.321-1.564.639-2.039 1.397-.291.466-.514 1.037-.442 1.592.117.932.703 1.581 1.655 1.694.396.047.798 0 1.19-.057.181-.032.353-.08.536-.085.208-.003.26.124.406.255.119.097.237.189.364.274.264.16.55.296.856.347.028.007.059.01.089.011" style="fill:#fff;fill-opacity:1;fill-rule:evenodd;stroke:none" transform="translate(77.824 80.9)"/><path d="M0 0c.243.009.499-.06.675-.227.18-.157.356-.525.121-.708-.522.173-1.062.311-1.589.461l.125.158A.859.859 0 0 0 0 0m-.537.51C-.095.544.358.467.781.296c.391-.151.735-.459.937-.835a1.38 1.38 0 0 0 .149-.737c-.011-.061-.136-.608-.247-.582-.744.182-1.458.452-2.195.662-.18.054-.473.18-.659.149-.261-.047-.434-.562-.498-.781-.107-.351-.116-.742.081-1.068.313-.523 1.024-.676 1.507-.289.297.242.324.771.684.913.368.15.78-.264.718-.621-.086-.468-.659-.746-1.067-.858a2.641 2.641 0 0 0-1.568.078c-.587.205-1.139.639-1.299 1.266C-3.046-.985-1.975.396-.537.51" style="fill:#fff;fill-opacity:1;fill-rule:evenodd;stroke:none" transform="translate(87.123 72.094)"/><path d="M0 0c-.09-.649-.637-1.266-1.317-1.255-.205.004-.546 0-.656.209-.115.219.106.557.29.667.255.162.556.241.85.28.104.011.819 0 .833.099m-.822 2.213c.01 0 .021 0 .03.005.813.06 2.257-.301 2.19-1.348C1.36.265 1.033-.231.84-.789c-.047-.138-.118-.335-.066-.48.045-.142.295-.168.367-.291.1-.162-.03-.292-.177-.374-.262-.148-.606-.136-.882-.038a.827.827 0 0 0-.296.184c-.036.039-.208.324-.276.292-.383-.153-.697-.326-1.123-.383-.399-.046-.848-.006-1.212.162-.8.373-.361 1.42.158 1.818.429.326 1.046.314 1.564.346.382.027.829.009 1.151.245l.283.206c.164.399-.079.711-.462.825-.283.069-.606.112-.859-.063-.23-.169-.23-.462-.4-.63-.226-.233-.6-.228-.859-.021-.237.193-.199.472-.019.691.327.403.951.47 1.446.513" style="fill:#fff;fill-opacity:1;fill-rule:evenodd;stroke:none" transform="translate(91.982 69.415)"/><path d="M0 0a.647.647 0 0 0 .177.011C.244.006.758-.212.642-.334.215-.762-.313-.962-.85-1.229-1.02-.682-.531-.088 0 0m.252.589C.618.643.989.584 1.33.374c.17-.11.375-.322.442-.526l.049-.151.028-.158-.101-.048C1.103-.831.465-1.2-.16-1.561c-.062-.043-.651-.372-.636-.436.134-.538.306-1.119.809-1.422.408-.243.935-.23 1.263.135.182.199.477.624.345.899-.143.278-.37.538-.202.86.24.457.867.357 1.019-.1.201-.623-.2-1.333-.622-1.751-.458-.45-1.063-.757-1.718-.757-.64.006-1.148.33-1.551.811-.217.262-.34.569-.394.899-.108.65-.033 1.419.379 1.951.39.51 1.048.968 1.72 1.061" style="fill:#fff;fill-opacity:1;fill-rule:evenodd;stroke:none" transform="translate(106.37 74.163)"/><path d="m0 0 .076-.157c.208-.415.175-1.097-.081-1.486-.122-.191-.351-.404-.589-.43-.198-.013-.438.162-.467.368-.053.379.172.715.41.983C-.59-.649.05-.106 0 0m-.258 2.001C.821 1.958.847.72 1.157-.038c.08-.183.168-.337.28-.502.241.032.713.23.593-.227-.11-.396-.551-.687-.943-.727-.26-.03-.401.161-.563-.116-.132-.226-.243-.463-.402-.68-.309-.423-.732-.778-1.268-.865-.479-.077-.831.341-.921.749-.095.417 0 .852.216 1.213.337.552.899.895 1.292 1.4.23.283.395.74.059 1.024-.314.264-.687.051-.958-.156-.311-.244-.459-.565-.335-.94.079-.248.05-.465-.144-.638-.188-.164-.483-.282-.706-.098-.662.547.504 1.689.9 1.996.382.297.829.582 1.323.606a.627.627 0 0 0 .162 0" style="fill:#fff;fill-opacity:1;fill-rule:evenodd;stroke:none" transform="translate(111.228 75.456)"/><path d="M0 0c-.042-.164-.276-.268-.378-.384-.608-.693-1.394-1.088-2.149-1.583-.931-.621-1.976-1.05-2.977-1.541a21.296 21.296 0 0 1-2.849-1.646A13.672 13.672 0 0 1-9.78-6.293c-.057-.051-.449-.448-.551-.341-.252.29 1.06 1.26 1.187 1.37a14.706 14.706 0 0 0 2.033 1.481c.417.267.828.503 1.279.72.416.207.841.398 1.264.582.491.211.989.446 1.458.691.319.173.66.311.978.48.668.356 1.29.793 1.924 1.199.067.046.154.074.214.136C.003.014.003.008 0 0m-19.212-.285c.984-1.125 2.033-2.179 2.826-3.458.48-.766.987-1.513 1.445-2.291.287-.49.587-.972.844-1.472.128-.252.265-.502.404-.753.103-.194.294-.432.311-.654-.441-.016-.407.084-.612.447-.115.207-.235.413-.36.618-.95 1.599-1.985 3.142-3.006 4.69-.29.445-.58.888-.868 1.332-.17.27-.343.536-.52.804-.15.235-.28.528-.464.737M1.318.924C1.046.383.79-.17.513-.709.306-1.11.084-1.479-.169-1.85c-.307-.433-.639-.863-1.025-1.226a5.33 5.33 0 0 0-1.371-.888c-.293-.136-.593-.282-.896-.379-.68-.218-1.372-.372-2.055-.588-.417-.133-.827-.286-1.243-.426-.654-.215-1.277-.51-1.9-.799-.774-.357-1.549-.761-2.197-1.314a4.43 4.43 0 0 1-.637-.675c-.158-.193-.262-.421-.373-.644-.054-.173-.119-.346-.169-.524-.095-.333-.12-.677-.153-1.019-.041-.4-.035-.805-.059-1.206l-.01-.243c-.006-.106.057-.32-.04-.393-.096-.075-.324.02-.37.111-.077.143.007.318-.007.471-.018.182-.033.353-.064.532-.052.335-.155.66-.282.974-.157.402-.421.417-.772.59-.21.107-.421.213-.629.324-.406.21-.813.434-1.208.675-.74.444-1.445.958-2.046 1.58a6.797 6.797 0 0 0-1.364 2.035c-.347.787-.541 1.636-.66 2.485-.132.928-.166 1.867-.198 2.802-.002.137-.02.288 0 .421.023.147.957-.617 1.001-.655.974-.815 2.02-1.539 2.947-2.41.591-.553 1.137-1.165 1.574-1.851a7.807 7.807 0 0 0 .95-2.23c.167-.657.256-1.333.324-2.004.058-.588.043-1.218.441-1.699-.039.05.118.515.136.597.104.573.023 1.083-.082 1.639-.132.728-.285 1.635.137 2.295.144-.046.222-.247.269-.392-.038.145.14.553.22.66.221-.231.078-.66.146-.945.125.082.236.209.348.312.201-.781-.416-1.672-.71-2.364.778.523 1.194 1.434 1.599 2.242.44.883.867 1.701 1.469 2.481a10.163 10.163 0 0 0 4.2 3.201c1.157.466 2.366.569 3.591.717C-.555.518.211.645.984.822z" style="fill:#fff;fill-opacity:1;fill-rule:evenodd;stroke:none" transform="translate(105.233 91.717)"/><path d="M0 0c.208-.006.452-.081.589-.246C.728-.41.714-.571.663-.76c0 0-1.675.073-1.693.075-.003 0 .05.13.052.138a.87.87 0 0 0 .449.425C-.357-.034-.177.006 0 0m-.183.47C.018.47.216.456.407.415c.402-.096.891-.32 1.131-.677.109-.167.169-.338.204-.535a1.42 1.42 0 0 0 .001-.478l-.05-.156s-3.011.128-3.03.131c-.037.003-.12-.177-.13-.205a2.135 2.135 0 0 1-.157-1.094c.05-.384.255-.727.631-.859.459-.161.945-.086 1.296.256.158.154.149.358.154.56.008.151.096.384.214.481.16.131.506.111.67-.006.342-.239.207-.627.045-.926a1.235 1.235 0 0 0-.422-.434 2.659 2.659 0 0 0-1.15-.406c-.657-.067-1.427.023-1.921.52a1.83 1.83 0 0 0-.501.913 2.62 2.62 0 0 0-.032.588c.004.402.105.82.296 1.177.318.601.965 1.03 1.624 1.156.174.027.355.049.537.049" style="fill:#fff;fill-opacity:1;fill-rule:evenodd;stroke:none" transform="translate(95.555 121.05)"/></g></svg>