<svg xmlns="http://www.w3.org/2000/svg" width="158.99815mm" height="158.64676mm" viewBox="0 0 158.99815 158.64676"><g transform="translate(-46.732 -69.164)"><ellipse cx="126.23141" cy="148.48701" rx="79.499077" ry="79.32338" style="fill:#322525;fill-opacity:1;stroke-width:.449793"/><path d="m155.211 16.623-.002.011z" class="st2" style="stroke-width:.0450196" transform="matrix(5.87706 0 0 5.87706 -712.656 63.861)"/><path d="m72.66 120.845.136.018" class="st1" style="stroke-width:.264583"/><path d="M114.335 83.009a.65.65 0 0 0-.611-.423.6.6 0 0 0-.224.04l-5.66 2.11a.65.65 0 0 0-.423.6l-.147 12.648-8.633-9.386a.65.65 0 0 0-.705-.17l-5.372 2.004a.66.66 0 0 0-.364.335.6.6 0 0 0-.059.27.6.6 0 0 0 .041.223l6.894 18.484a.65.65 0 0 0 .611.423.6.6 0 0 0 .23-.041l3.908-1.458a.65.65 0 0 0 .423-.61.6.6 0 0 0-.041-.224L100.87 98.9l7.065 7.793c.129.14.3.211.482.211a.6.6 0 0 0 .229-.04l3.338-1.247a.655.655 0 0 0 .423-.593l.194-10.632 3.373 9.05a.65.65 0 0 0 .612.424.6.6 0 0 0 .223-.041l4.038-1.505a.65.65 0 0 0 .423-.611.6.6 0 0 0-.041-.223zM82.076 172.652h-.018q-1.077-.002-2.11.217a10.3 10.3 0 0 0-2.04.658 11.8 11.8 0 0 0-1.933 1.094q-.934.652-1.816 1.516l-.176.176c-.553.564-1.04 1.14-1.464 1.746q-.636.9-1.07 1.863a10 10 0 0 0-.657 1.974 10 10 0 0 0-.247 2.075v.235c0 1.352.235 2.627.7 3.803q.369.933.934 1.786.565.855 1.316 1.622l.159.159q1.482 1.464 3.29 2.204c1.2.488 2.504.734 3.891.734h.018c.723 0 1.428-.076 2.122-.217q1.04-.219 2.027-.658.196-.089.382-.194.044-.026.094-.053c.124-.07.241-.147.365-.23q.01-.008.03-.017c.075-.053.158-.106.234-.164.006 0 .006-.006.012-.012a.595.595 0 0 0 .059-.905l-3.156-3.045a.81.81 0 0 0-.788-.182c-.082.024-.17.047-.253.065a4.4 4.4 0 0 1-.875.094h-.124a5 5 0 0 1-1.863-.388 5 5 0 0 1-.81-.435 5 5 0 0 1-.735-.605l-.07-.07a5.4 5.4 0 0 1-.624-.765 4.844 4.844 0 0 1-.711-1.757 6 6 0 0 1-.1-1.01v-.054a4.4 4.4 0 0 1 .423-1.875q.22-.475.564-.952.344-.474.812-.958l.117-.117q.504-.494 1-.846a6 6 0 0 1 .992-.582 4.6 4.6 0 0 1 1.875-.423h.124c.687.017 1.31.147 1.874.382a4.728 4.728 0 0 1 1.546 1.04q.036.034.07.076c.195.2.365.406.524.623l.54.982q.177.433.265.91c.059.318.088.659.094 1.006v.017q0 .483-.106.958c-.012.065-.03.124-.047.188a.8.8 0 0 0 .217.776l3.15 3.003a.6.6 0 0 0 .894-.082c0-.006.006-.006.012-.012.006-.012.017-.023.023-.035.053-.077.1-.159.147-.235.024-.041.053-.083.076-.124a3 3 0 0 0 .189-.37q.433-.96.664-1.975c.152-.675.24-1.363.252-2.068 0-.094.006-.194.006-.288q0-2.002-.687-3.75a10 10 0 0 0-.929-1.787q-.566-.854-1.316-1.622l-.16-.158c-.986-.976-2.085-1.716-3.29-2.21-1.2-.5-2.51-.746-3.908-.752M137.596 83.744a6.85 6.85 0 0 0-2.357-1.517q-1.332-.509-2.938-.535l-7.429-.123h-.012a.65.65 0 0 0-.652.64l-.335 19.724v.012a.65.65 0 0 0 .635.652l4.396.077h.012a.65.65 0 0 0 .652-.635l.106-6.447 2.386.04h.182c1.023 0 1.975-.146 2.845-.452a6.8 6.8 0 0 0 2.327-1.38 6.4 6.4 0 0 0 1.604-2.216c.365-.84.547-1.775.564-2.786v-.147c0-.958-.164-1.857-.5-2.68a6.3 6.3 0 0 0-1.486-2.227m-3.215 4.966c-.006.358-.064.629-.164.852s-.235.411-.447.593c-.211.183-.44.312-.729.412a3.4 3.4 0 0 1-1.034.159h-.076l-2.11-.018.035-4.114 2.11.018c.447.005.811.064 1.105.17.3.106.529.241.734.423.194.176.324.365.418.588s.153.5.153.858q.007.033.006.059zM159.47 181.75l15.804 11.8c.112.083.253.13.388.13q.043.001.094-.006a.68.68 0 0 0 .429-.253l7.487-10.032a.67.67 0 0 0 .13-.388q.001-.043-.006-.094a.68.68 0 0 0-.253-.429l-3.344-2.498a.67.67 0 0 0-.388-.129q-.043-.002-.094.006a.67.67 0 0 0-.43.253l-4.472 5.989-1.992-1.487 4.008-5.366a.67.67 0 0 0 .13-.388q.002-.045-.006-.088a.67.67 0 0 0-.253-.43l-3.097-2.315a.67.67 0 0 0-.388-.13q-.045-.002-.088.007a.68.68 0 0 0-.43.253l-4.008 5.365-1.968-1.469 4.454-5.965a.67.67 0 0 0 .13-.388q.001-.043-.006-.094a.65.65 0 0 0-.253-.429l-3.32-2.48a.67.67 0 0 0-.388-.13q-.044-.002-.094.007a.68.68 0 0 0-.43.252l-7.475 10.009a.67.67 0 0 0-.123.482.65.65 0 0 0 .252.435zM94.717 106.8c-.629-1.276-1.546-2.451-2.727-3.515-1.075-.97-2.221-1.705-3.426-2.198a9.9 9.9 0 0 0-3.78-.74h-.005q-.39.001-.788.029a10.8 10.8 0 0 0-4.049 1.087c-1.24.623-2.368 1.499-3.367 2.615-.958 1.07-1.693 2.228-2.18 3.468a10.7 10.7 0 0 0-.73 3.937v.006c0 .118 0 .241.006.359a9.9 9.9 0 0 0 1.011 4.131c.629 1.282 1.552 2.463 2.739 3.533 1.07.957 2.204 1.692 3.403 2.186a9.9 9.9 0 0 0 3.755.74h.006c.276 0 .558-.012.835-.03a10.8 10.8 0 0 0 4.049-1.104c1.24-.623 2.368-1.499 3.367-2.615.958-1.064 1.687-2.222 2.175-3.456a10.6 10.6 0 0 0 .729-3.92v-.018c0-.129 0-.252-.006-.382a9.95 9.95 0 0 0-1.017-4.114zm-4.76 4.566v.012a5.1 5.1 0 0 1-.335 1.88 5.1 5.1 0 0 1-1.011 1.622c-.459.512-.958.9-1.516 1.182a5.3 5.3 0 0 1-1.858.54 4.178 4.178 0 0 1-2.127-.34c-.57-.247-1.164-.635-1.763-1.176-.682-.611-1.164-1.228-1.475-1.84a4.1 4.1 0 0 1-.465-1.874v-.018c0-.693.112-1.316.335-1.898a5.3 5.3 0 0 1 1.005-1.628 5.2 5.2 0 0 1 1.51-1.176 5.2 5.2 0 0 1 1.852-.528c.141-.012.276-.024.417-.024.57 0 1.123.118 1.705.37.576.253 1.17.64 1.78 1.187.682.612 1.164 1.229 1.475 1.834q.23.459.347.917c.083.323.124.635.124.958M72.713 143.349q1.012.001 1.999-.2a11 11 0 0 0 2.045-.64 11.1 11.1 0 0 0 3.555-2.399q.749-.759 1.346-1.669.602-.908 1.052-1.974c.03-.077.059-.147.094-.224.559-1.375.858-2.756.888-4.137v-.206c0-1.31-.247-2.615-.73-3.902q-.395-1.048-.975-1.963a9.8 9.8 0 0 0-1.357-1.687 4 4 0 0 0-.341-.305l-.124-.089a4 4 0 0 0-.252-.188.79.79 0 0 0-1.182.347l-1.798 4.296a.6.6 0 0 0 .082.6c.006.006.006.011.012.011.082.106.165.212.235.324.188.288.335.6.447.928q.317.924.317 1.822v.141c-.006.323-.047.64-.117.964s-.17.64-.3.964c-.012.035-.03.065-.041.1-.141.329-.306.64-.494.922s-.394.541-.623.782c-.23.241-.488.453-.764.652a6 6 0 0 1-.91.523 4.2 4.2 0 0 1-.953.318 4.7 4.7 0 0 1-.917.094h-.106a5.3 5.3 0 0 1-1.104-.141 8 8 0 0 1-1.2-.382c-.052-.024-.105-.041-.152-.065a7.5 7.5 0 0 1-1.164-.611 5.5 5.5 0 0 1-.91-.717 4.7 4.7 0 0 1-.677-.823 4.6 4.6 0 0 1-.452-.934 5.6 5.6 0 0 1-.317-1.846v-.13c.005-.322.047-.646.117-.963.07-.323.17-.64.3-.964.012-.035.03-.07.04-.1q.213-.493.495-.916c.07-.106.147-.206.223-.306h-.059l.464-.476a5 5 0 0 1 .764-.64c.283-.195.582-.365.917-.518q.467-.213.958-.311c.1-.018.194-.036.294-.047a.59.59 0 0 0 .482-.365l1.105-2.674.676-1.634a.79.79 0 0 0-.57-1.075c-.006 0-.012-.006-.018-.006-.065-.012-.13-.018-.194-.03l-.135-.017a4 4 0 0 0-.382-.024h-.123c-.665 0-1.329.065-1.981.194q-1.04.212-2.045.635c-1.37.582-2.563 1.375-3.562 2.386-.5.506-.946 1.064-1.351 1.67q-.602.907-1.052 1.974l-.095.217c-.558 1.376-.858 2.763-.887 4.144v.217c0 1.31.247 2.615.723 3.902a10.147 10.147 0 0 0 2.333 3.661q.775.778 1.728 1.405a13.5 13.5 0 0 0 2.316 1.205h.005c.73.294 1.452.523 2.175.676q1.077.23 2.145.241c.018-.018.053-.018.082-.018zM111.802 214.238l4.384.57a.656.656 0 0 0 .482-.13.66.66 0 0 0 .247-.428l.864-6.67 6.582.851a.656.656 0 0 0 .482-.13.65.65 0 0 0 .247-.428l.517-3.973c.006-.029.006-.053.006-.082a.66.66 0 0 0-.135-.4.63.63 0 0 0-.43-.246l-6.61-.858.37-2.85 7.604.987c.03.006.053.006.083.006a.66.66 0 0 0 .4-.136.67.67 0 0 0 .246-.429l.535-4.137c.006-.03.006-.053.006-.082a.647.647 0 0 0-.564-.646l-12.607-1.635c-.03-.006-.053-.006-.082-.006a.66.66 0 0 0-.4.135.67.67 0 0 0-.246.43l-2.533 19.558c-.006.03-.006.053-.006.083 0 .14.047.288.135.4a.62.62 0 0 0 .423.246zM88.958 196.001a10.1 10.1 0 0 0-.353 2.627c0 1.076.182 2.151.535 3.21.464 1.38 1.146 2.603 2.057 3.655.905 1.052 2.033 1.928 3.356 2.627.846.447 1.704.787 2.574 1.01q1.303.344 2.633.342 1.508-.001 3.026-.435a9.9 9.9 0 0 0 3.744-1.987c1.087-.922 1.998-2.092 2.745-3.502q.694-1.313 1.046-2.633.352-1.323.352-2.645-.001-1.606-.523-3.185a10.7 10.7 0 0 0-2.04-3.662c-.904-1.052-2.027-1.933-3.355-2.633a12.2 12.2 0 0 0-2.586-1.017c-.87-.229-1.757-.34-2.644-.34-1 0-2.005.147-3.01.429a10 10 0 0 0-3.76 1.986c-1.094.923-2.01 2.104-2.757 3.52a12.7 12.7 0 0 0-1.04 2.633m5.918 1.605a7 7 0 0 1 .564-1.387c.405-.77.864-1.364 1.358-1.793a3.9 3.9 0 0 1 1.633-.864q.672-.168 1.3-.17c.393 0 .775.047 1.157.147s.758.24 1.134.44a4.9 4.9 0 0 1 1.44 1.13c.388.446.694.969.917 1.592.153.429.23.858.23 1.316q0 .59-.183 1.252a7.2 7.2 0 0 1-.57 1.399c-.406.776-.864 1.363-1.358 1.792-.247.218-.5.394-.77.535s-.546.253-.846.323q-.66.166-1.275.165c-.394 0-.776-.047-1.158-.147a5.4 5.4 0 0 1-1.14-.447 4.9 4.9 0 0 1-1.446-1.128c-.394-.447-.7-.97-.934-1.593a3.8 3.8 0 0 1-.241-1.328c.011-.388.064-.8.188-1.234M156.467 207.867a.66.66 0 0 0 .406.282.681.681 0 0 0 .488-.088l10.531-6.77a.66.66 0 0 0 .282-.406c.012-.047.012-.088.012-.135a.7.7 0 0 0-.1-.353l-2.256-3.508a.66.66 0 0 0-.541-.3.64.64 0 0 0-.353.106l-6.288 4.043-1.346-2.092 5.63-3.62a.65.65 0 0 0 .3-.54.7.7 0 0 0-.1-.353l-2.092-3.25a.64.64 0 0 0-.9-.194l-5.63 3.62-1.328-2.069 6.265-4.026a.66.66 0 0 0 .3-.54.64.64 0 0 0-.106-.353l-2.245-3.485a.65.65 0 0 0-.54-.3.7.7 0 0 0-.353.1l-10.509 6.759a.66.66 0 0 0-.282.405c-.011.047-.011.088-.011.135 0 .124.035.247.1.353z" class="st0" style="fill:#322525;fill-opacity:1;stroke-width:.264583"/><path d="m150.29 7.933-.006.003.007-.003z" class="st0" style="stroke-width:.0450196" transform="matrix(5.87706 0 0 5.87706 -712.656 63.861)"/><path d="M127.435 143.143c-1.546 0-3.274.694-4.696 2.034-2.474 2.327-3.068 5.706-1.328 7.557.74.788 1.786 1.17 2.932 1.17 1.546 0 3.274-.694 4.696-2.034 2.474-2.327 3.068-5.706 1.328-7.557-.746-.788-1.786-1.17-2.932-1.17M166.447 122.732q.645 0 1.263-.123a6 6 0 0 0 2.363-1.04c.03-.024.064-.048.094-.071a5.88 5.88 0 0 0 2.298-3.638q.134-.643.135-1.31 0-.549-.088-1.106c-.13-.828-.406-1.669-.811-2.533l-1.129-2.41a3.3 3.3 0 0 1-.235-.657v-.006l-.006-.036a1.6 1.6 0 0 1-.04-.358v-.053q.008-.14.034-.253a.8.8 0 0 1 .089-.217 1 1 0 0 1 .14-.2q.088-.098.218-.194l.024-.018q.124-.085.258-.147.13-.05.27-.076a1 1 0 0 1 .206-.018h.1q.168.008.353.06c.117.029.235.07.346.123.112.053.218.117.33.194q.317.227.617.623c.011.017.03.035.04.053.142.193.26.382.353.558q.14.273.218.511c.053.165.082.317.094.464q.008.053.006.106c0 .141-.018.294-.018.3v.012l-.017.082-.03.112a5 5 0 0 1-.094.317c-.07.235-.164.517-.258.74a.5.5 0 0 0-.036.195v.03a.5.5 0 0 0 .183.37l.229.193-.018.018 2.586 2.686a.55.55 0 0 0 .33.111q.042.002.076-.006a.5.5 0 0 0 .235-.1c.023-.017.04-.035.064-.052a6.6 6.6 0 0 0 1.188-1.687 7.6 7.6 0 0 0 .658-2.128 5 5 0 0 0 .041-1.316 7.7 7.7 0 0 0-.276-1.422c-.288-.994-.794-1.98-1.499-2.956-.035-.047-.065-.094-.1-.136a8.2 8.2 0 0 0-2.016-1.933 7.7 7.7 0 0 0-2.52-1.087 7 7 0 0 0-1.405-.188h-.194a6.067 6.067 0 0 0-2.462.523 7 7 0 0 0-1.217.705c-.036.023-.065.047-.1.07a6 6 0 0 0-1.493 1.581c-.388.6-.653 1.27-.805 1.993q-.132.635-.13 1.287-.001.502.077 1.005c.117.781.364 1.569.74 2.374l1.158 2.45c.124.277.212.524.253.753l.006.03v.005q.035.202.035.376-.001.108-.012.206a1.5 1.5 0 0 1-.053.247.8.8 0 0 1-.094.206c-.035.064-.082.123-.129.182a1.2 1.2 0 0 1-.182.164l-.018.012a1.7 1.7 0 0 1-.276.159 1.2 1.2 0 0 1-.27.076c-.059.012-.118.012-.182.012q-.053.001-.106-.006c-.1-.006-.212-.03-.323-.065a2 2 0 0 1-.653-.346 3.7 3.7 0 0 1-.652-.682l-.035-.053-.012-.018a4.8 4.8 0 0 1-.711-1.351 3 3 0 0 1-.13-.612 4 4 0 0 1-.011-.252c0-.106.006-.218.023-.324a2.8 2.8 0 0 1 .206-.764q.054-.124.117-.276c.088-.2.182-.411.23-.523.005-.012.005-.017.011-.023a.5.5 0 0 0-.158-.341l-.018-.018-2.545-3.42a.51.51 0 0 0-.34-.13q-.036-.002-.071.006a.6.6 0 0 0-.247.1l-.035.03c-.653.582-1.023 1.14-1.428 1.945q-.59 1.184-.782 2.639a6 6 0 0 0-.059.881c0 .212.012.418.03.63.047.505.152 1.022.311 1.533.317 1.023.858 2.051 1.599 3.086q.06.089.129.17c.658.882 1.387 1.599 2.186 2.14.8.54 1.67.904 2.598 1.075q.705.132 1.375.14h.006zM185.94 119.77a.66.66 0 0 0-.334-.364.7.7 0 0 0-.27-.06.6.6 0 0 0-.23.042l-18.471 6.911a.65.65 0 0 0-.423.612q-.002.114.04.229l4.39 11.724a.65.65 0 0 0 .612.424.6.6 0 0 0 .23-.041l3.907-1.464a.65.65 0 0 0 .424-.611.6.6 0 0 0-.041-.23l-2.622-6.999 2.328-.87 2.345 6.271a.65.65 0 0 0 .61.423.6.6 0 0 0 .23-.04l3.62-1.358a.65.65 0 0 0 .424-.612.6.6 0 0 0-.042-.229l-2.345-6.27 2.304-.865 2.61 6.977a.65.65 0 0 0 .61.423.6.6 0 0 0 .23-.041l3.885-1.452a.65.65 0 0 0 .423-.611.6.6 0 0 0-.041-.23zM161.087 102.785c.423-.846.746-1.698.958-2.55.211-.847.323-1.699.323-2.54a10 10 0 0 0-.6-3.39 10.9 10.9 0 0 0-2.121-3.615q-1.395-1.551-3.415-2.556a12.3 12.3 0 0 0-2.486-.929 10.6 10.6 0 0 0-2.527-.311 11.1 11.1 0 0 0-3.244.5 9.9 9.9 0 0 0-3.714 2.074c-1.07.946-1.963 2.145-2.674 3.579-.423.846-.74 1.687-.952 2.533-.212.84-.324 1.687-.324 2.527 0 1.152.206 2.298.612 3.42.493 1.37 1.21 2.58 2.139 3.61.928 1.028 2.074 1.88 3.414 2.55.817.405 1.646.717 2.48.922q1.252.31 2.522.312c1.081 0 2.168-.17 3.25-.506a10.1 10.1 0 0 0 3.702-2.068c1.058-.94 1.946-2.134 2.657-3.562m-4.649-4.073a7.3 7.3 0 0 1-.558 1.446c-.418.835-.888 1.475-1.405 1.946a4.4 4.4 0 0 1-.805.587 4 4 0 0 1-.893.365 5.4 5.4 0 0 1-1.47.205c-.4 0-.787-.047-1.175-.14a5.4 5.4 0 0 1-1.17-.436 5.4 5.4 0 0 1-1.569-1.163 5.3 5.3 0 0 1-1.028-1.675 4 4 0 0 1-.288-1.51c0-.406.059-.83.176-1.282q.175-.677.552-1.434c.418-.834.888-1.475 1.405-1.945q.388-.352.811-.588.422-.238.905-.37a5.7 5.7 0 0 1 1.493-.212c.4 0 .788.047 1.175.141q.582.14 1.164.43c.623.31 1.14.699 1.563 1.163a5.3 5.3 0 0 1 1.017 1.675c.188.482.276.976.276 1.499q.009.618-.176 1.298M134.346 214.679a.64.64 0 0 0 .288.405c.106.065.23.1.347.1a.6.6 0 0 0 .14-.017l4.315-.97a.64.64 0 0 0 .405-.288.66.66 0 0 0 .1-.347.6.6 0 0 0-.018-.141l-1.475-6.559 6.477-1.457a.64.64 0 0 0 .405-.288.65.65 0 0 0 .083-.488l-.882-3.908a.64.64 0 0 0-.288-.406.65.65 0 0 0-.488-.082l-6.506 1.463-.628-2.803 7.481-1.687a.64.64 0 0 0 .406-.288.65.65 0 0 0 .082-.488l-.917-4.072a.64.64 0 0 0-.288-.406.65.65 0 0 0-.488-.082l-12.406 2.791a.64.64 0 0 0-.406.288.65.65 0 0 0-.082.488z" class="st0" style="fill:#322525;fill-opacity:1;stroke-width:.264583"/><path d="M89.492 109.503c-.311-.611-.793-1.223-1.475-1.834-.605-.546-1.205-.934-1.78-1.187a4.2 4.2 0 0 0-1.705-.37c-.14 0-.276.006-.417.023a5.2 5.2 0 0 0-1.851.53 5.2 5.2 0 0 0-1.51 1.175 5.1 5.1 0 0 0-1.006 1.627 5.2 5.2 0 0 0-.335 1.899v.017a4.108 4.108 0 0 0 .464 1.875c.312.611.794 1.228 1.476 1.84.6.54 1.193.928 1.763 1.175a4.2 4.2 0 0 0 2.127.341 5.4 5.4 0 0 0 1.857-.54 5.2 5.2 0 0 0 1.517-1.182 5.3 5.3 0 0 0 1.01-1.622 5.1 5.1 0 0 0 .336-1.88v-.024q-.002-.483-.118-.94a4.4 4.4 0 0 0-.353-.923M133.805 87.211a2.05 2.05 0 0 0-.734-.423 3.6 3.6 0 0 0-1.105-.17l-2.11-.018-.035 4.114 2.11.017h.076a3.3 3.3 0 0 0 1.034-.158c.282-.1.518-.23.73-.412.21-.182.346-.37.446-.593.1-.224.158-.5.164-.852v-.06c-.006-.358-.058-.634-.152-.857a1.65 1.65 0 0 0-.424-.588M95.869 201.767c.394.446.87.823 1.446 1.128.382.2.758.347 1.14.447a4.8 4.8 0 0 0 2.433-.018q.45-.113.846-.323c.27-.141.523-.317.77-.535.494-.429.946-1.022 1.358-1.792.258-.488.446-.958.57-1.4q.183-.66.182-1.25a3.8 3.8 0 0 0-.23-1.317 4.9 4.9 0 0 0-.916-1.593 5 5 0 0 0-1.44-1.128 5 5 0 0 0-1.134-.441 4.8 4.8 0 0 0-2.457.023q-.45.116-.858.33c-.27.14-.529.323-.776.534-.493.43-.952 1.023-1.357 1.793-.259.488-.441.946-.564 1.387a4.5 4.5 0 0 0-.177 1.24c0 .464.077.899.241 1.328a4.9 4.9 0 0 0 .923 1.587M155.321 94.246a5.2 5.2 0 0 0-1.563-1.164 5.5 5.5 0 0 0-1.164-.429 5 5 0 0 0-1.175-.14q-.724 0-1.493.21a4.2 4.2 0 0 0-.905.371 4.4 4.4 0 0 0-.81.588c-.518.47-.994 1.11-1.406 1.945a7.4 7.4 0 0 0-.552 1.434 5 5 0 0 0-.176 1.281c0 .53.094 1.023.288 1.51a5.4 5.4 0 0 0 1.028 1.676 5.4 5.4 0 0 0 1.57 1.163c.393.194.781.335 1.169.435a5 5 0 0 0 1.175.141q.713-.001 1.47-.206c.317-.088.61-.211.893-.364q.424-.237.805-.588c.511-.47.987-1.11 1.405-1.945.252-.505.435-.987.558-1.446q.176-.685.176-1.293c0-.523-.094-1.016-.276-1.498a5.3 5.3 0 0 0-1.017-1.681M147.088 124.636l-26.194 11.79c-.541.246-1.088.476-1.634.705-1.575.664-3.233 2.257-4.32 4.455l-13.535 26.846c-.646 1.222-.435 2.263.535 3.256l.012.012c.617.634 1.216.97 1.898.97q.563 0 1.223-.318l26.952-12.254c2.62-1.316 3.802-2.638 4.807-4.63l13.888-26.888c.664-1.229.458-2.28-.518-3.286-.617-.634-1.216-.97-1.892-.97-.382-.005-.782.1-1.222.312m-18.055 27.235c-1.422 1.334-3.15 2.033-4.696 2.033-1.146 0-2.192-.382-2.932-1.17-1.74-1.85-1.146-5.236 1.328-7.557 1.422-1.335 3.15-2.034 4.696-2.034 1.146 0 2.192.382 2.932 1.17 1.74 1.845 1.146 5.23-1.328 7.558" class="st2" style="fill:#fdd22b;fill-opacity:1;stroke-width:.264583"/><path d="m200.334 141.362-.018-.194q-.051-.528-.111-1.058l-.036-.305q-.045-.372-.088-.752l-.053-.4-.088-.652c-.024-.147-.041-.294-.065-.435q-.043-.31-.094-.617l-.07-.453q-.046-.3-.1-.6c-.03-.152-.053-.305-.082-.458l-.106-.593q-.046-.23-.088-.459c-.036-.2-.077-.394-.118-.593q-.043-.23-.094-.459l-.123-.593c-.03-.153-.065-.3-.1-.453-.047-.2-.088-.405-.135-.605-.036-.147-.065-.294-.1-.441-.047-.212-.1-.417-.153-.629-.035-.135-.065-.27-.1-.411a24 24 0 0 0-.182-.694q-.046-.166-.088-.34l-.283-1.035a77.508 77.508 0 0 0-1.975-6.006 74 74 0 0 0-1.733-4.197q-.316-.696-.64-1.392c-.171-.365-.347-.723-.524-1.088q-.31-.624-.629-1.24-.203-.389-.405-.77a74.6 74.6 0 0 0-13.112-17.678c-10.925-10.925-24.39-17.749-38.489-20.476a80.718 80.718 0 0 0-4.425-.717 91.567 91.567 0 0 0-2.668-.306 59 59 0 0 0-1.787-.146 74 74 0 0 0-8.91-.112c-17.895.847-35.526 8.093-49.196 21.757a74.6 74.6 0 0 0-14.934 21.334 80 80 0 0 0-1.452 3.338c-.229.558-.446 1.123-.658 1.687a71 71 0 0 0-1.193 3.414c-.182.57-.364 1.146-.535 1.722q-.257.862-.487 1.734c-.136.506-.265 1.017-.394 1.522a75 75 0 0 0-2.186 17.978c0 4.179.346 8.351 1.046 12.483.1.588.205 1.181.317 1.77.17.88.359 1.756.558 2.638.065.294.135.582.206.876.141.581.294 1.163.447 1.745.158.582.317 1.158.487 1.734q.254.865.535 1.722a78 78 0 0 0 1.852 5.101c.452 1.123.94 2.233 1.451 3.338a74.53 74.53 0 0 0 14.934 21.328 74.6 74.6 0 0 0 19.688 14.146 75 75 0 0 0 6.024 2.65q1.051.405 2.11.782c.17.06.34.124.511.183a74.86 74.86 0 0 0 43.908 1.504 78 78 0 0 0 4.313-1.305q.855-.29 1.71-.6c.283-.099.565-.205.853-.31a73.8 73.8 0 0 0 17.514-9.474 86 86 0 0 0 1.868-1.405c.394-.306.782-.617 1.176-.934l.27-.218a75 75 0 0 0 5.536-5.013 74.8 74.8 0 0 0 10.561-13.259q.493-.786.958-1.58a65 65 0 0 0 1.358-2.404 72 72 0 0 0 1.663-3.262 75.99 75.99 0 0 0 2.504-5.854q.317-.847.617-1.704.45-1.278.846-2.574.24-.767.453-1.534c.035-.13.07-.253.106-.382.094-.347.194-.694.282-1.04.017-.053.03-.112.047-.165.088-.335.17-.664.252-.999.018-.065.03-.13.047-.194q.126-.504.241-1.017c.012-.04.018-.088.03-.123.076-.335.147-.67.223-1 .006-.029.012-.064.024-.093.07-.341.14-.688.211-1.029.012-.064.024-.123.035-.188l.036-.2c0-.017.006-.029.006-.047q.053-.265.053-.54a2.836 2.836 0 0 0-2.698-2.833c-.047 0-.1-.006-.147-.006s-.1.006-.147.006h-31.13c-.048 0-.095-.006-.147-.006-.047 0-.1.006-.147.006a2.85 2.85 0 0 0-2.469 1.722c0 .006-.012.012-.012.012l-.14.394-.124.346c-.047.13-.1.259-.147.394q-.069.178-.13.347c-.052.13-.105.258-.158.394q-.072.174-.135.34c-.053.13-.112.259-.165.394l-.14.33q-.09.195-.177.399a5 5 0 0 1-.147.323c-.059.135-.13.265-.194.406-.047.106-.1.205-.147.305l-.211.423-.141.283c-.083.158-.17.323-.26.487q-.06.107-.105.206a25 25 0 0 1-.482.87l-.282.494c-.047.082-.106.17-.159.258-.082.135-.164.276-.246.406-.06.094-.118.188-.183.282-.082.123-.158.252-.235.376q-.096.142-.194.294-.121.183-.235.358-.098.142-.205.294c-.083.118-.16.235-.241.347q-.105.143-.212.294c-.082.111-.164.229-.24.335-.071.094-.148.194-.218.294q-.124.168-.247.329a5 5 0 0 1-.23.288c-.088.105-.17.217-.252.323l-.235.288c-.088.106-.17.211-.259.317q-.115.141-.24.282c-.089.106-.177.206-.265.312-.082.094-.165.182-.247.282-.088.1-.182.2-.27.3-.083.088-.17.182-.253.276-.094.1-.182.2-.276.294q-.125.13-.259.27-.141.148-.282.288l-.264.264a13 13 0 0 1-.288.283c-.089.088-.177.17-.27.258-.095.094-.195.188-.289.276-.088.088-.182.17-.276.259q-.151.14-.294.27-.141.123-.282.253l-.3.265q-.14.123-.288.246c-.1.089-.205.17-.305.259-.094.082-.194.159-.294.24-.106.083-.206.171-.312.254-.1.076-.2.158-.293.235l-.318.247-.3.229c-.105.082-.211.158-.323.24-.1.077-.205.148-.305.224-.106.076-.218.153-.324.23-.105.07-.205.146-.311.217-.112.076-.218.152-.33.223l-.317.212a11 11 0 0 1-.335.217c-.105.07-.211.135-.317.206-.112.07-.23.14-.34.211l-.324.2c-.112.07-.23.135-.347.206-.111.065-.217.13-.329.194-.117.064-.23.135-.347.2q-.167.095-.335.182l-.352.194-.335.176c-.118.059-.235.123-.359.182-.111.059-.229.118-.34.17q-.179.09-.365.177c-.118.059-.23.112-.347.165l-.364.17-.347.159c-.123.053-.247.111-.37.164-.118.053-.235.1-.353.153q-.183.08-.376.159l-.352.14q-.187.074-.383.148a9 9 0 0 1-.358.135c-.13.047-.253.094-.382.14-.123.042-.241.089-.359.13-.129.047-.258.088-.387.135-.124.041-.241.083-.365.124-.13.04-.258.082-.394.123q-.186.06-.364.112c-.13.041-.264.076-.4.117l-.37.106q-.196.05-.4.112-.184.054-.37.1-.202.054-.405.1c-.124.029-.247.064-.37.094-.136.029-.27.064-.412.094-.123.029-.253.058-.376.082q-.204.045-.417.088c-.124.024-.253.053-.376.077q-.212.042-.424.076l-.376.07q-.21.036-.429.07-.192.034-.376.06c-.14.023-.288.04-.435.059q-.194.026-.37.052l-.44.053q-.186.026-.371.041c-.147.018-.3.03-.453.047l-.364.036-.47.035c-.124.012-.241.018-.353.03-.164.011-.329.017-.493.029l-.335.017-.553.018c-.094 0-.188.006-.276.006-.276.006-.558.006-.835.006-7.505 0-14.11-2.086-20.417-5.871-7.07-4.096-12.018-11.925-12.018-11.925a38.26 38.26 0 0 1-6.03-20.67c0-10.625 4.308-20.234 11.266-27.198 6.965-6.965 16.58-11.267 27.2-11.267 7.499 0 14.492 2.157 20.41 5.866l.024.011c.112.07 1.64 1.082 1.64 1.082 5.636 3.873 10.29 10.496 10.29 10.496s.177.276.2.323c.035.06.077.124.112.183.03.047.053.088.082.129.041.065.077.13.118.194.023.041.053.082.076.123l.13.218c.017.035.04.07.058.1q.09.15.17.3l.012.023c.065.112.124.217.183.329q.026.043.053.094c.047.082.088.159.129.24.023.042.04.083.064.124q.061.105.112.212c.024.047.047.088.07.135l.106.2q.034.069.077.147c.035.065.065.135.1.2.023.047.047.1.076.147.03.064.065.129.094.2.024.052.047.1.077.152.029.065.064.13.094.194q.034.08.076.159l.088.194.07.158.089.194q.035.078.07.165l.089.194.07.164q.046.098.082.194c.024.053.047.112.07.165.03.065.054.13.083.2q.036.087.07.164c.03.065.054.136.083.2q.036.087.065.165c.029.064.053.135.082.2.023.058.041.111.065.164.023.07.052.135.076.206.023.053.041.111.065.164q.042.105.076.212c.024.053.041.112.059.165.023.07.053.14.076.211.018.053.041.106.059.165.024.07.053.147.076.223l.053.159q.043.114.077.229.026.078.053.147c.029.082.053.164.082.252q.026.07.041.13c.035.106.065.211.1.317q.008.037.023.065.064.194.118.388c.006.023.018.053.023.082l.089.3c.011.04.023.088.04.135l.071.253c.012.053.03.105.041.158l.018.053-.018-.053c.024.077.041.153.065.23.018.052.03.111.047.164.018.076.041.153.059.223q.02.081.047.17c.017.077.035.148.053.224.011.059.03.118.04.17q.027.114.054.218c.012.059.03.118.04.176l.054.218c.012.059.03.117.04.176.018.07.03.141.048.218q.016.086.041.182c.018.07.03.14.047.211l.035.183c.012.07.03.14.041.211l.036.182c.011.07.03.141.04.218.013.059.024.123.036.182.006.041.018.082.024.123q.017.205.07.4a2.84 2.84 0 0 0 2.762 2.169h29.98c.123 0 .234-.012.352-.024a2.847 2.847 0 0 0 3.203-2.821v-.059c.035-.064.04-.094.04-.111zm-40.993 39.482 7.476-10.008a.65.65 0 0 1 .429-.253q.043-.007.094-.006c.141 0 .276.047.388.13l3.32 2.48a.65.65 0 0 1 .13.91l-4.455 5.966 1.969 1.469 4.008-5.366a.65.65 0 0 1 .429-.253q.045-.008.088-.006c.141 0 .282.047.388.13l3.097 2.315c.135.1.23.259.253.43q.007.043.006.087a.64.64 0 0 1-.13.388l-4.007 5.366 1.992 1.487 4.472-5.989a.65.65 0 0 1 .43-.252q.042-.007.093-.006c.141 0 .277.047.388.129l3.344 2.498a.65.65 0 0 1 .13.91l-7.488 10.033a.65.65 0 0 1-.429.252q-.043.007-.094.006a.64.64 0 0 1-.388-.129l-15.803-11.801a.65.65 0 0 1-.253-.423q-.007-.043-.006-.094c0-.147.047-.288.13-.4zm-13.629 9.944a.65.65 0 0 1 .282-.405l10.509-6.759c.105-.064.229-.1.352-.1q.072 0 .135.018a.65.65 0 0 1 .406.282l2.245 3.485c.065.106.106.23.106.353a.5.5 0 0 1-.018.135.65.65 0 0 1-.282.405l-6.265 4.026 1.328 2.069 5.63-3.62a.65.65 0 0 1 .9.194l2.092 3.25c.065.105.1.229.1.352a.5.5 0 0 1-.018.135.65.65 0 0 1-.282.406l-5.63 3.62 1.346 2.093 6.288-4.044a.7.7 0 0 1 .353-.106q.072 0 .135.018a.65.65 0 0 1 .406.282l2.256 3.509a.63.63 0 0 1 .1.352 1 1 0 0 1-.012.135.65.65 0 0 1-.282.406l-10.531 6.77a.68.68 0 0 1-.488.088.65.65 0 0 1-.406-.282l-10.666-16.59a.7.7 0 0 1-.1-.353.3.3 0 0 1 .011-.124zm-15.61 4.161a.68.68 0 0 1 .406-.288l12.407-2.791a.646.646 0 0 1 .488.082.68.68 0 0 1 .288.406l.916 4.072a.646.646 0 0 1-.082.488.68.68 0 0 1-.405.288l-7.482 1.687.629 2.803 6.506-1.463a.646.646 0 0 1 .488.082.68.68 0 0 1 .288.406l.881 3.908a.646.646 0 0 1-.082.488.68.68 0 0 1-.406.288l-6.476 1.457 1.475 6.559a.646.646 0 0 1-.082.488.68.68 0 0 1-.406.288l-4.314.97a.646.646 0 0 1-.488-.082.68.68 0 0 1-.287-.406l-4.332-19.242a.6.6 0 0 1-.017-.14.55.55 0 0 1 .088-.348M68.3 142.432c-.083-.035-.159-.065-.235-.1a13.5 13.5 0 0 1-2.087-1.11 10.7 10.7 0 0 1-1.728-1.405 10 10 0 0 1-1.357-1.693 10.4 10.4 0 0 1-.976-1.969 11.1 11.1 0 0 1-.723-3.902v-.218c.03-1.38.33-2.768.888-4.143.03-.07.059-.147.094-.217q.451-1.059 1.052-1.975.601-.91 1.351-1.67c1-1.01 2.193-1.803 3.562-2.385q1.005-.423 2.045-.635c.653-.13 1.31-.194 1.98-.194h.124c.13 0 .259.012.382.024l.135.017c.065.012.13.018.194.03.006 0 .012.006.018.006a.79.79 0 0 1 .57 1.075l-.676 1.634-1.105 2.674a.61.61 0 0 1-.482.364q-.151.02-.294.047-.492.098-.957.312-.495.228-.917.517a6 6 0 0 0-.764.64l-.465.477h.06q-.117.149-.224.305a5.7 5.7 0 0 0-.494.917q-.025.054-.041.1-.195.486-.3.964c-.07.323-.105.64-.117.964v.129c0 .605.106 1.217.317 1.845q.17.503.453.935c.188.294.411.564.676.823.264.258.57.493.91.717.347.223.735.423 1.164.61.053.024.106.042.153.066a8 8 0 0 0 1.199.382q.574.132 1.105.14h.106q.475.001.916-.093c.33-.07.64-.17.952-.318q.496-.23.911-.523c.277-.194.535-.411.764-.652.23-.235.441-.5.623-.782q.282-.422.494-.923.026-.054.041-.1.195-.486.3-.963c.07-.324.106-.64.117-.964v-.141c0-.6-.105-1.2-.317-1.822a4.1 4.1 0 0 0-.682-1.252c-.006-.006-.006-.012-.011-.012a.6.6 0 0 1-.083-.6l1.799-4.295a.792.792 0 0 1 1.181-.347q.13.09.253.188.06.045.123.088c.118.094.235.2.341.306a10.4 10.4 0 0 1 1.358 1.687c.387.61.717 1.263.975 1.963.482 1.287.729 2.591.729 3.902v.206c-.03 1.38-.323 2.762-.887 4.137a13.14 13.14 0 0 1-1.146 2.198 11.3 11.3 0 0 1-1.346 1.67c-.994 1.01-2.187 1.81-3.556 2.397q-1.005.431-2.045.64c-.658.136-1.328.2-1.998.2h-.1a11 11 0 0 1-2.145-.24c-.7-.13-1.429-.353-2.157-.653zm42.938 71.077 2.533-19.559a.644.644 0 0 1 .646-.564c.03 0 .053 0 .082.006l12.607 1.634a.644.644 0 0 1 .564.646c0 .03 0 .053-.006.083l-.535 4.137a.644.644 0 0 1-.646.564c-.03 0-.053 0-.083-.006l-7.605-.987-.37 2.85 6.612.858a.644.644 0 0 1 .564.647c0 .03 0 .053-.006.082l-.517 3.973a.644.644 0 0 1-.647.564c-.03 0-.053 0-.082-.006l-6.582-.852-.864 6.67a.66.66 0 0 1-.247.43.64.64 0 0 1-.4.135c-.03 0-.053 0-.082-.006l-4.384-.57a.644.644 0 0 1-.565-.647c.012-.023.012-.053.012-.082zM96.51 187.873a11.1 11.1 0 0 1 3.009-.429c.887 0 1.775.112 2.644.341.876.23 1.74.564 2.586 1.017 1.328.7 2.451 1.58 3.356 2.633a10.6 10.6 0 0 1 2.04 3.661q.52 1.58.522 3.186 0 1.322-.352 2.644a12.5 12.5 0 0 1-1.046 2.633c-.74 1.405-1.658 2.58-2.745 3.503a9.9 9.9 0 0 1-3.744 1.986q-1.517.434-3.026.435c-.888 0-1.763-.111-2.633-.34a12 12 0 0 1-2.574-1.011c-1.329-.7-2.451-1.575-3.356-2.627a10.9 10.9 0 0 1-2.057-3.656 10.1 10.1 0 0 1-.535-3.209q0-1.313.353-2.627.353-1.315 1.04-2.621 1.118-2.126 2.756-3.52a9.9 9.9 0 0 1 3.762-1.999m-7.23-12.27.16.158q.75.767 1.316 1.622a9.4 9.4 0 0 1 .929 1.786q.687 1.747.687 3.75.002.14-.006.288-.025 1.056-.252 2.069a10.4 10.4 0 0 1-.665 1.974q-.089.186-.188.37c-.023.042-.053.083-.076.124-.047.077-.094.159-.147.235q-.008.018-.024.035c0 .006-.005.006-.011.012a.592.592 0 0 1-.894.083l-3.15-3.004a.78.78 0 0 1-.217-.775c.018-.065.035-.124.047-.188a4.4 4.4 0 0 0 .106-.958v-.018q.001-.53-.094-1.005a4.7 4.7 0 0 0-.265-.91l-.54-.982a4.7 4.7 0 0 0-.524-.623c-.023-.024-.047-.047-.07-.077a6 6 0 0 0-.735-.605 5 5 0 0 0-.81-.435 5.2 5.2 0 0 0-1.876-.382h-.123q-.45-.001-.882.094c-.329.07-.664.182-.993.33a6.2 6.2 0 0 0-.993.58 8.5 8.5 0 0 0-1 .847l-.117.118a7.4 7.4 0 0 0-.81.958q-.345.475-.565.952a4.436 4.436 0 0 0-.423 1.875v.053c.006.352.035.687.1 1.01q.096.486.27.917a4.8 4.8 0 0 0 1.064 1.605l.07.07q.355.344.735.605c.259.17.53.318.811.435a5.3 5.3 0 0 0 1.863.388h.124a4 4 0 0 0 1.128-.158.81.81 0 0 1 .788.182l3.156 3.044a.595.595 0 0 1-.06.905l-.01.012c-.077.059-.16.112-.236.165a.1.1 0 0 1-.03.017 5 5 0 0 1-.364.23q-.043.026-.094.052c-.123.07-.253.141-.382.194-.658.294-1.34.512-2.027.658q-1.04.22-2.122.218h-.018q-2.09-.001-3.89-.735c-1.205-.493-2.304-1.234-3.291-2.204l-.16-.158q-.75-.767-1.316-1.622a9.8 9.8 0 0 1-.934-1.787c-.47-1.175-.7-2.45-.7-3.802v-.236q.019-1.059.247-2.074c.153-.676.37-1.334.659-1.975q.433-.962 1.07-1.863.633-.9 1.463-1.745.087-.09.176-.177a14 14 0 0 1 1.816-1.516q.936-.653 1.934-1.093a10.2 10.2 0 0 1 4.149-.876h.017c1.4 0 2.71.247 3.915.747a10.5 10.5 0 0 1 3.285 2.215zm6.46-64.302a10.6 10.6 0 0 1-.73 3.92c-.487 1.234-1.216 2.386-2.174 3.456-.999 1.116-2.127 1.992-3.367 2.615s-2.598.993-4.05 1.105a10 10 0 0 1-.834.03h-.006a9.8 9.8 0 0 1-3.755-.741q-1.8-.741-3.403-2.186c-1.193-1.07-2.11-2.245-2.739-3.532a9.9 9.9 0 0 1-1.01-4.132q-.009-.183-.007-.359v.006c0-1.38.241-2.697.73-3.937q.732-1.861 2.18-3.468c.999-1.116 2.127-1.992 3.367-2.615s2.598-.981 4.05-1.087c.264-.018.522-.03.787-.03h.006c1.31 0 2.574.247 3.779.74 1.205.495 2.35 1.23 3.426 2.199 1.181 1.064 2.098 2.233 2.727 3.514a9.95 9.95 0 0 1 1.017 4.12c0 .124.006.253.006.382zm25.47-9.315a.67.67 0 0 1-.364.34l-4.037 1.505a.6.6 0 0 1-.223.041.6.6 0 0 1-.27-.058.67.67 0 0 1-.342-.365l-3.373-9.05-.194 10.631a.64.64 0 0 1-.423.594l-3.338 1.246a.664.664 0 0 1-.711-.17l-7.065-7.794 3.333 8.933q.042.107.04.224a.6.6 0 0 1-.058.27.67.67 0 0 1-.364.341l-3.909 1.457a.6.6 0 0 1-.229.042.6.6 0 0 1-.27-.06.67.67 0 0 1-.341-.364l-6.894-18.483a.6.6 0 0 1-.041-.223.638.638 0 0 1 .423-.605l5.372-2.005a.6.6 0 0 1 .229-.04.63.63 0 0 1 .476.21l8.633 9.387.147-12.648a.65.65 0 0 1 .424-.6l5.66-2.11a.6.6 0 0 1 .223-.04c.094 0 .188.017.27.058.153.071.282.206.34.365l6.895 18.483q.042.107.04.224a.7.7 0 0 1-.058.264m18.384-13.347v.147c-.017 1.01-.2 1.94-.564 2.786a6.4 6.4 0 0 1-1.604 2.215 6.8 6.8 0 0 1-2.328 1.382c-.87.305-1.822.452-2.844.452h-.182l-2.386-.041-.106 6.447c0 .17-.077.341-.2.453a.65.65 0 0 1-.453.182h-.011l-4.396-.077a.62.62 0 0 1-.453-.2.65.65 0 0 1-.182-.452l.335-19.723a.65.65 0 0 1 .652-.64h.012l7.429.122c1.063.018 2.045.194 2.938.535.888.341 1.68.852 2.357 1.517a6.55 6.55 0 0 1 1.498 2.21c.324.822.488 1.721.488 2.685zm11.878 20.288q-1.27-.001-2.521-.312a12 12 0 0 1-2.48-.922c-1.34-.67-2.487-1.523-3.415-2.551a10.8 10.8 0 0 1-2.14-3.609 10 10 0 0 1-.61-3.42c0-.84.105-1.68.323-2.527.211-.846.535-1.687.952-2.533.717-1.434 1.604-2.633 2.674-3.58a10 10 0 0 1 3.714-2.074q1.623-.501 3.244-.5c.847 0 1.693.106 2.527.312s1.67.517 2.486.929c1.34.67 2.486 1.522 3.415 2.556a10.7 10.7 0 0 1 2.122 3.615c.393 1.11.6 2.245.6 3.39q0 1.27-.324 2.54a13 13 0 0 1-.958 2.55c-.711 1.422-1.599 2.615-2.662 3.562a9.9 9.9 0 0 1-3.703 2.068 10.9 10.9 0 0 1-3.244.506m13.552 13.67a6.9 6.9 0 0 1-2.597-1.076c-.8-.54-1.528-1.257-2.187-2.139a3 3 0 0 0-.129-.17q-1.12-1.552-1.598-3.086a7.5 7.5 0 0 1-.312-1.534 8 8 0 0 1-.03-.629q-.002-.44.06-.881.192-1.456.781-2.639c.406-.805.776-1.37 1.428-1.945l.036-.03a.56.56 0 0 1 .246-.1q.036-.007.07-.006a.5.5 0 0 1 .342.13l2.545 3.42.017.018c.024.017.041.04.059.064a.53.53 0 0 1 .1.277c-.006.006-.006.017-.012.023-.047.112-.141.323-.23.523-.04.1-.087.194-.117.276a3 3 0 0 0-.076.2q-.087.273-.13.564a3 3 0 0 0-.023.324q.001.121.012.252.025.293.13.612c.134.423.37.87.71 1.351l.012.018.035.053q.327.433.653.682.165.123.323.211c.106.059.217.1.33.135q.174.056.322.065c.036 0 .07.006.106.006q.096-.002.182-.012.14-.024.27-.076a1.5 1.5 0 0 0 .277-.159l.018-.012q.104-.078.182-.164a1 1 0 0 0 .129-.182q.051-.1.094-.206a1.5 1.5 0 0 0 .053-.247q.01-.099.012-.206c0-.117-.012-.246-.036-.376v-.03l-.006-.029a3.5 3.5 0 0 0-.252-.752l-1.158-2.45a8.6 8.6 0 0 1-.74-2.375 6.5 6.5 0 0 1 .052-2.292 5.8 5.8 0 0 1 .805-1.992c.382-.6.888-1.129 1.493-1.581.036-.024.065-.047.1-.07q.591-.424 1.217-.706a6 6 0 0 1 2.462-.523h.194q.69.019 1.405.188a7.7 7.7 0 0 1 2.521 1.087 8.2 8.2 0 0 1 2.016 1.934l.1.135c.705.976 1.21 1.963 1.498 2.956q.213.733.277 1.422a5.2 5.2 0 0 1-.042 1.317 7.5 7.5 0 0 1-.658 2.127 6.4 6.4 0 0 1-1.187 1.687.3.3 0 0 1-.065.053.5.5 0 0 1-.235.1c-.023.006-.053.006-.076.006a.55.55 0 0 1-.33-.112l-2.585-2.686.017-.017-.229-.194a.3.3 0 0 1-.076-.082.5.5 0 0 1-.106-.288v-.03q0-.098.035-.194c.094-.223.188-.5.259-.74.035-.118.07-.23.094-.318l.03-.111c.005-.036.011-.053.017-.083v-.012c0-.006.018-.152.018-.3q.001-.052-.006-.105a2 2 0 0 0-.094-.464 3 3 0 0 0-.218-.512 5 5 0 0 0-.353-.558c-.011-.018-.029-.035-.04-.053q-.3-.395-.618-.623a2 2 0 0 0-.329-.194 2 2 0 0 0-.347-.123 1.7 1.7 0 0 0-.352-.06h-.1q-.107 0-.206.019a1.16 1.16 0 0 0-.529.223l-.023.017q-.13.098-.218.194a1 1 0 0 0-.14.2q-.054.104-.089.218a1 1 0 0 0-.035.252v.053c0 .106.012.23.04.359l.007.035v.006c.047.194.123.417.235.658l.03-.017h.005l-.04.017 1.128 2.41c.411.864.681 1.704.81 2.533q.09.556.089 1.105-.001.668-.135 1.31a6.1 6.1 0 0 1-.811 2.046 6 6 0 0 1-1.487 1.592c-.03.024-.065.047-.094.07-.359.26-.74.477-1.135.653a5.6 5.6 0 0 1-1.228.388 6.4 6.4 0 0 1-1.263.123h-.047a9 9 0 0 1-1.329-.146zm25.278 9.368a.67.67 0 0 1-.365.34l-3.884 1.452a.6.6 0 0 1-.23.041.6.6 0 0 1-.27-.058.67.67 0 0 1-.34-.365l-2.61-6.976-2.304.864 2.345 6.271c.03.07.04.147.04.23a.6.6 0 0 1-.058.27.67.67 0 0 1-.364.34l-3.62 1.358a.6.6 0 0 1-.23.041.6.6 0 0 1-.27-.059.67.67 0 0 1-.34-.364l-2.346-6.27-2.327.869 2.621 7c.03.07.041.146.041.229a.6.6 0 0 1-.059.27.67.67 0 0 1-.364.34l-3.908 1.464a.6.6 0 0 1-.23.041.6.6 0 0 1-.27-.058.67.67 0 0 1-.34-.365l-4.39-11.725a.6.6 0 0 1-.042-.229c0-.094.018-.188.059-.27a.67.67 0 0 1 .364-.34l18.472-6.912a.6.6 0 0 1 .229-.041q.14-.002.27.058c.153.07.282.206.335.365l4.379 11.7c.03.071.04.148.04.23a.4.4 0 0 1-.035.259z" class="st2" style="fill:#fdd22b;fill-opacity:1;stroke-width:.264583"/></g></svg>