<svg xmlns="http://www.w3.org/2000/svg" width="183.06396mm" height="183.06396mm" viewBox="0 0 183.06396 183.06396"><path d="M0 0c0-26.362-21.37-47.733-47.732-47.733-26.364 0-47.734 21.371-47.734 47.733s21.37 47.733 47.734 47.733C-21.37 47.733 0 26.362 0 0" style="fill:#1a2680;fill-opacity:1;fill-rule:nonzero;stroke:none" transform="matrix(1.91758 0 0 -1.91758 183.064 91.532)"/><path d="M0 0h-18.285v24.767H0v-3.961h3.24v5.581c0 .894-.724 1.619-1.619 1.619h-21.528c-.896 0-1.62-.725-1.62-1.619V-1.621c0-.894.724-1.62 1.62-1.62H1.621a1.62 1.62 0 0 1 1.619 1.62v5.538H0Z" style="fill:#fff;fill-opacity:1;fill-rule:nonzero;stroke:none" transform="matrix(1.91758 0 0 -1.91758 107.321 108.577)"/><path d="M0 0h.899c1.879 0 3.836.993 3.836 3.782 0 2.3-1.462 3.784-3.801 3.784H0Zm-3.105-2.586v12.739h4.66c3.572 0 6.424-2.857 6.424-6.371 0-3.511-2.852-6.368-6.424-6.368z" style="fill:#fff;fill-opacity:1;fill-rule:nonzero;stroke:none" transform="matrix(1.91758 0 0 -1.91758 113.273 92.124)"/><path d="M0 0h.899c1.879 0 3.836.993 3.836 3.782 0 2.3-1.462 3.784-3.801 3.784H0Zm-3.105-2.586v12.739h4.66c3.572 0 6.424-2.857 6.424-6.371 0-3.511-2.852-6.368-6.424-6.368z" style="fill:#fff;fill-opacity:1;fill-rule:nonzero;stroke:none" transform="matrix(1.91758 0 0 -1.91758 113.273 92.124)"/><path d="M0 0c.134 1.617 5.139 1.998 8.266 2.422 1.025.137 7.357.724 12.197 1.831-1.17-1.065-2.236-2.466-10.011-3.512C9.872.672 6.036.249 4.93.085c1.741-.304 2.111-.418 3.861-.659 7.541-1.038 9.796-1.396 9.796-3.01 0-1.439-2.114-1.75-9.422-2.811 0 0-4.77-.552-7.917-2.372-.001 0 .929 3.374 7.276 4.391 1.077.171 4.434.564 5.23.679-1.706.258-3.598.426-5.225.638C1.612-2.155-.096-1.762 0 0" style="fill:#fff;fill-opacity:1;fill-rule:nonzero;stroke:none" transform="matrix(1.91758 0 0 -1.91758 71.475 36.454)"/><path d="M0 0h.332c.818 0 1.746 0 1.746 1.172 0 1.22-.889 1.22-1.746 1.22H0Zm-2.106-4.587v8.639h3.268c2.009 0 3.114-.998 3.114-2.809 0-1.954-.992-2.902-3.031-2.902H0v-2.928z" style="fill:#fff;fill-opacity:1;fill-rule:nonzero;stroke:none" transform="matrix(1.91758 0 0 -1.91758 91.509 135.279)"/><path d="M0 0h.61c1.274 0 2.602.675 2.602 2.566 0 1.559-.99 2.565-2.578 2.565H0Zm-2.105-1.754v8.639h3.16c2.421 0 4.355-1.938 4.355-4.319 0-2.381-1.934-4.32-4.355-4.32z" style="fill:#fff;fill-opacity:1;fill-rule:nonzero;stroke:none" transform="matrix(1.91758 0 0 -1.91758 38.429 140.711)"/><path d="M0 0h.317c.726 0 1.687.123 1.687 1.196 0 1.07-.961 1.195-1.687 1.195H0Zm2.336-4.682L.171-1.286H0v-3.396h-2.105v8.639H1.23c1.888 0 2.974-.955 2.974-2.622 0-1.258-.728-2.2-1.854-2.401l-.153-.026 2.751-3.59z" style="fill:#fff;fill-opacity:1;fill-rule:nonzero;stroke:none" transform="matrix(1.91758 0 0 -1.91758 56.108 135.097)"/><path d="M0 0v6.885h-1.896v1.754h5.899V6.885H2.105V0Z" style="fill:#fff;fill-opacity:1;fill-rule:nonzero;stroke:none" transform="matrix(1.91758 0 0 -1.91758 106.415 144.075)"/><path d="M0 0c-1.307 0-2.347-1.114-2.347-2.393 0-1.514.97-2.575 2.347-2.575 1.378 0 2.348 1.061 2.348 2.575C2.348-1.114 1.309 0 0 0m0-7.043c-2.63 0-4.543 1.922-4.543 4.664 0 2.426 2.04 4.467 4.543 4.467 2.505 0 4.542-2.041 4.542-4.467 0-2.742-1.91-4.664-4.542-4.664" style="fill:#fff;fill-opacity:1;fill-rule:nonzero;stroke:none" transform="matrix(1.91758 0 0 -1.91758 75.62 131.04)"/><path d="M0 0h.332c.817 0 1.745 0 1.745 1.172 0 1.22-.889 1.22-1.745 1.22H0Zm-2.104-4.587v8.639h3.267c2.006 0 3.112-.998 3.112-2.809 0-1.954-.991-2.902-3.032-2.902H0v-2.928z" style="fill:#fff;fill-opacity:1;fill-rule:nonzero;stroke:none" transform="matrix(1.91758 0 0 -1.91758 140.473 135.279)"/><path d="M0 0c-1.311 0-2.348-1.114-2.348-2.393 0-1.514.969-2.575 2.348-2.575 1.375 0 2.345 1.061 2.345 2.575C2.345-1.114 1.306 0 0 0m0-7.043c-2.632 0-4.54 1.922-4.54 4.664C-4.54.047-2.506 2.088 0 2.088c2.503 0 4.541-2.041 4.541-4.467C4.541-5.121 2.63-7.043 0-7.043" style="fill:#fff;fill-opacity:1;fill-rule:nonzero;stroke:none" transform="matrix(1.91758 0 0 -1.91758 124.892 131.04)"/></svg>