<svg xmlns="http://www.w3.org/2000/svg" viewBox="0 0 472.42 97.23"><path d="m235.08 49.31-11.21-26.07L206.1 18l5.9 44.77 10.87.46s-.68-11-1.17-19c3.43 7.76 7.95 19 7.95 19h10.85S245 52 248.44 44.34c-.58 8-1.35 18.89-1.35 18.89l10.43-.53 4.05-28.1-17.84-5.41ZM223.49 77c.12 2.44.22 3.7.38 6.34a33.8 33.8 0 0 0 4 .43c.08 2 .1 2 .17 4a30.65 30.65 0 0 1-6.13-1 1.73 1.73 0 0 1-1.33-1.65c-.43-5.39-.61-6.87-1-11.51-.07-.74.32-1 1.24-.93a89.89 89.89 0 0 0 13.39.56V66.1l-16.88-1c-4-.3-5.61.81-5.23 3.79l2.36 17.33c.5 3.67 2.11 7 5.52 8.44 5.77 2.51 8.63 2.58 14.46 2.58V77.48a76.8 76.8 0 0 1-11-.45M236.33 71.31c-.08 7.42-.12 10.34-.19 19.44 0 4.14 1.67 6.48 5.09 6.06 5.05-.63 7.72-1.58 12.4-4.74l.88-8.17a23 23 0 0 1-9.45 3.53c-.78.16-1.15-.23-1.11-1.12.24-5.58.35-7.16.6-12 0-.77.5-1.15 1.33-1.22 4.6-.52 7.72-.87 10.23-1.85.36-2.51.85-6 .85-6l-14.46.93c-4 0-6.17 1.69-6.17 5.21M264.69 22.77 262 22a1.5 1.5 0 0 0 .17-.46l.75-2.69a1.72 1.72 0 0 0-1.23-2.11L216.54.06a1.77 1.77 0 0 0-2.16 1.24l-1.58 5.9-4.36-1.29a1.84 1.84 0 0 0-2.31 1.23l-2.87 6.51 61.53 18.42 1.14-7a1.83 1.83 0 0 0-1.24-2.27" style="fill:#ffd100"/><path d="M344.82 29.74q-3.19-7.53-13.72-7.54a22.15 22.15 0 0 0-5.89.69C319.07 25 316 29.5 316 36.43V79.7a17.53 17.53 0 0 0 .84 5.34q3 8.91 13.4 8.91h1c4.14 0 7.23-.81 9.3-2.38 3.8-2.18 5.65-6.8 5.65-13.93V38.51c0-4.17-.45-7.07-1.36-8.77M334.17 77c0 3.29-.84 5-2.56 5h-.86c-1.82 0-2.77-1.21-2.77-3.62V37.83c0-2.29 1-3.54 3.12-3.79 2 0 3.07 1.73 3.07 5.17ZM439.42 24.24c.18 0 .42.22.71.72v11.47c0 .22-.23.42-.71.68h-13.86v15.64h11.83c.16 0 .41.23.65.67v11.33c0 .2-.2.4-.65.69h-11.83v15.64h13.86c.18 0 .42.22.71.67v11.54c0 .14-.23.35-.71.66h-25.74c-.8 0-1.2-.5-1.2-1.55V25.82c0-1.05.4-1.58 1.2-1.58ZM311.32 38.16v9.61c0 .18-.24.39-.72.69h-11.49c-.17 0-.38-.24-.66-.69v-8.41q0-4.3-2.1-4.3h-.47c-1.28 0-1.9 1-1.9 3.1V78c0 2 .68 3.1 2 3.1h.35q2.1 0 2.1-4.31v-8.41c0-.16.22-.41.66-.72h11.51c.19 0 .41.26.72.72V78c0 10.66-4.95 16-14.79 16h-.84c-6.51 0-10.94-2.45-13.2-7.38a16.68 16.68 0 0 1-1.4-6.68V36.25c0-6.74 3-11.17 9.13-13.36a24.65 24.65 0 0 1 6-.69q15.14 0 15.12 16M379.2 24.24c.19 0 .42.22.72.72v11.47c0 .22-.25.42-.72.68h-13.86v15.64h11.82c.22 0 .44.23.67.67v11.33c0 .2-.21.4-.67.69h-11.82V78c0 3-.08 8.17-.19 15.45l-.69.52h-11c-.79 0-1.22-.5-1.22-1.55v-66.6c0-1.05.43-1.58 1.22-1.58ZM409.23 24.24c.17 0 .42.22.71.72v11.47c0 .22-.23.42-.71.68h-13.89v15.64h11.84c.19 0 .42.23.65.67v11.33c0 .2-.22.4-.65.69h-11.84V78c0 3 0 8.17-.16 15.45l-.7.52h-11c-.81 0-1.22-.5-1.22-1.55v-66.6c0-1.05.41-1.58 1.22-1.58ZM471.73 24.24c.16 0 .39.22.69.72v11.47c0 .22-.23.42-.69.68h-13.9v15.64h11.84c.18 0 .42.23.68.67v11.33c0 .2-.24.4-.68.69h-11.84v15.64h13.9c.16 0 .39.22.69.67v11.54c0 .14-.23.35-.69.66H446c-.8 0-1.2-.5-1.2-1.55V25.82c0-1.05.4-1.58 1.2-1.58ZM15.62 23.42c.76 0 1.6 1.9 2.46 5.68q1.8 4.71 10.25 32.9h.22q8.27-27.3 11.85-38.11l.89-.51h14.5a1.67 1.67 0 0 1 1.12 1.73V91.4a1.67 1.67 0 0 1-1.12 1.73H42.15a1.37 1.37 0 0 1-1.56-1.53V72.54h-.19c-1.4 5.73-3.29 12.4-5.58 20.06l-.94.53h-10c-1.17 0-1.9-1-2.25-2.9-3.28-11.61-4.9-17.57-4.9-17.88h-.23v4.45c0 4.29-.08 9.56-.2 15.8l-1 .53H1.54c-1 0-1.54-.39-1.54-1.22V24.65c0-.82.51-1.23 1.54-1.23ZM100.32 23.42c.22 0 .53.23.91.72v11.48c0 .22-.32.43-.91.67H82.25v15.62h15.39c.26 0 .56.24.87.7V64c0 .18-.28.4-.87.66H82.25v15.59h18.07c.22 0 .53.22.91.66v11.52c0 .17-.32.41-.91.7H66.83a1.34 1.34 0 0 1-1.52-1.53V25c0-1.08.48-1.59 1.52-1.59ZM128.75 21.06c8.33 0 13.93 3 16.73 8.91a18.9 18.9 0 0 1 1.36 7.75v9.45c0 .15-.29.4-.88.7h-14.75c-.25 0-.56-.23-.87-.7v-9.61c0-2.28-.84-3.42-2.48-3.42h-1.11c-1.64 0-2.48 1.44-2.48 4.3v39.45c0 2.76.93 4.11 2.73 4.11h.65c1.78 0 2.69-1.14 2.69-3.43V64.51h-3.84c-.57-.16-.86-.66-.86-1.54V53a1.37 1.37 0 0 1 1.56-1.56h18.07c1 0 1.57.4 1.57 1.23v25.75q0 16.65-19 16.64h-.66q-13.4 0-17.63-8-1.77-3-1.77-10V38.77c0-8.77 3.18-14.22 9.59-16.32a31.43 31.43 0 0 1 8.48-1.39ZM184.62 29.43c-.44-4-1-6-1.78-6h-19.16l-.51.19c-.36.56-.95 2.66-1.73 6.34q-8 39.88-11.39 62.48c.39.47.69.7.87.7h14.49a2.67 2.67 0 0 0 .94-.18c.65 0 1.6-4.65 2.9-13.89h7.58c.25 0 .77 2.18 1.54 6.53.47 5 1.16 7.54 2 7.54h15c.43-.08.81-.47 1.11-1.22q-3.9-25.18-11.85-62.48M169.89 67c2-10 3-16.37 3.13-19.06h.21c.68 4.91 1.74 11.26 3.14 19.06Z" style="fill:#231815"/></svg>