<svg version="1.2" xmlns="http://www.w3.org/2000/svg" viewBox="0 0 638 651" width="638" height="651">
	<title>bnSbDvyd90lc5U7PjD_RG4TyLUIHwoUq9j0njr2j-0Hd3nung2evS3YyuFvl1daKOWtxV9wiR-_qaMQAJYDD31VNyEqicxVTuSrRezqcG65REllEX5xznAVwHKxCCdimRA5MlDrybrFvYHC1uFGVdQ</title>
	<style>
		.s0 { fill: #ffe800 } 
		.s1 { fill: #ffffff } 
		.s2 { fill: #001f60 } 
	</style>
	<path fill-rule="evenodd" class="s0" d="m320.1 625.1c-163.4 0-295.5-134.4-295.5-300.6 0-166.2 132.1-300.6 295.5-300.6 163.4 0 295.5 134.4 295.5 300.6 0 166.2-132.1 300.6-295.5 300.6z"/>
	<path class="s1" d="m221.6 527.7h184.1v80.8h-184.1z"/>
	<path class="s2" d="m639.1 325.1c0 179.6-143.1 325.1-319.5 325.1-176.4 0-319.6-145.5-319.6-325.1 0-179.6 143.1-325.1 319.5-325.1 176.4 0 319.6 145.6 319.6 325.1zm-362.4 272.8c0-5.8-4.7-10.6-10.4-10.6h-0.7c-5.7 0-10.4 4.7-10.4 10.6 0 5.9 4.7 10.6 10.4 10.6h0.7c5.7 0 10.4-4.7 10.4-10.6zm-21.2-53v-3.4c0-7.7-7.8-13.9-15.4-13.9h-14.6c-2.2 0-4 1.8-4 4v39.6h7.8c1.7 0 3-1.4 3-3v-9.4h7.4c9.6 0 15.8-6.2 15.8-13.9zm29 26.4h11.1l-16.4-43.3h-7.5c-2 0-4.1 1.6-4.8 3.6l-15.1 40h8.8c1.6 0 3.5-1.4 4-3l1.7-5.1h14.4l2.2 6.6c0.3 0.8 0.9 1.2 1.6 1.2zm-118.2-136.7c-12.5 5.6-23.9 10.8-26.8 12.4-5.6 3.2-11.8 7.5-19.3 16.4-7.3 8.6-19.9 28.3-26.6 53.3 3.3 3.4 17.5 18 21.7 22.1 3.9 3.8 12.1 12.4 14.8 15.2 0 0 0.1 0 0.1 0.1l0.4-35.9c0.5-7.1 6.8-13.5 14.5-13.5h6.2c0 0 0.8-15.5 4.4-29.8 2.6-10.5 7.2-28.2 10.6-40.3zm74.3 168.7l-2.3-1.7c-0.5-0.5-1.4-0.5-2-0.1-0.9 0.7-2.2 1.5-4 1.5-3 0-4.9-2.7-4.9-5.1 0-2.9 2-5.2 4.9-5.2 1.7 0 2.6 0.5 3.5 1.2 0.6 0.5 1.6 0.6 2.2 0.1 0.6-0.5 2.2-1.7 2.2-1.7 0.6-0.4 0.6-1.3 0.1-1.8-1.2-1.2-3.8-3.2-7.8-3.2-5.9 0-10.7 4-10.7 10.7 0 6.7 5.4 10.4 10.7 10.4 4.9 0 7.5-2.7 8.5-4 0-0.3 0-0.8-0.4-1.1zm-1.7-65.5h-6.5v12.1h6.5c3.3 0 5.7-2.7 5.7-6 0-3.3-2.4-6.1-5.7-6.1zm26.9 54.5c-3 0-5.4 2.5-5.4 5.5 0 3 2.4 5.5 5.4 5.5 3 0 5.4-2.5 5.4-5.5 0-3.1-2.4-5.5-5.4-5.5zm7.8-50.4l4.2 12.6h-8.4zm33.2 46.3h-14c-1.3 0-2.3 1.1-2.3 2.4v17.9h4.3c0.9 0 1.7-0.8 1.7-1.7v-5.8h6.3c1.3 0 2.3-1.1 2.3-2.4v-2.2h-8.6v-3.3h8c1.3 0 2.3-1.1 2.3-2.4zm5.4-60.5h-5.3c-3 0-5.5 2.4-5.5 5.5v38.2h6.2c2.5 0 4.6-2 4.6-4.6zm13 43.6c2.5 0 4.6-2 4.6-4.6v-39.1h-5.3c-3 0-5.5 2.4-5.5 5.5v38.2zm15.2 16.9h-14.1c-1.3 0-2.3 1.1-2.3 2.4v17.9h4.3c0.9 0 1.7-0.8 1.7-1.7v-5.8h6.3c1.3 0 2.3-1.1 2.3-2.4v-2.2h-8.6v-3.3h8c1.3 0 2.3-1.1 2.3-2.4v-2.5zm5.3-16.9h12.2l-15.2-21.6c-0.4-0.6-0.4-1.4 0-2l14-19.5h-11.5c-1 0-1.8 0.5-2.4 1.3l-11.7 16.2c-1 1.5-1 4.8 0 6.3l12.2 18c0.5 0.8 1.4 1.3 2.4 1.3zm9.5-32.5c-0.2 0.2 0 0.6 0.3 0.6h6.2c1 0 2-0.5 2.7-1.2l8.4-9.7c0.2-0.2 0-0.5-0.2-0.5h-6.4c-1.1 0-2.1 0.5-2.8 1.3zm17.8 49.4h-14c-1.3 0-2.3 1.1-2.3 2.4v15.7c0 1.2 1 2.2 2.2 2.2h12c1.2 0 2.1-1 2.1-2.1v-2.9h-10.1c-0.1 0-0.2-0.1-0.2-0.2v-2.4c0-0.1 0.1-0.2 0.2-0.2h6c1.3 0 2.3-1.1 2.3-2.4v-2.2h-8.3c-0.1 0-0.2-0.1-0.2-0.2v-2.4c0-0.1 0.1-0.2 0.2-0.2h7.8c1.3 0 2.3-1.1 2.3-2.4zm31.5 0h-14c-1.3 0-2.3 1.1-2.3 2.4v15.7c0 1.2 1 2.2 2.2 2.2h12c1.2 0 2.1-1 2.1-2.1v-2.9h-10.1c-0.1 0-0.2-0.1-0.2-0.2v-2.4c0-0.1 0.1-0.2 0.2-0.2h6c1.3 0 2.3-1.1 2.3-2.4v-2.2h-8.3c-0.1 0-0.2-0.1-0.2-0.2v-2.4c0-0.1 0.1-0.2 0.2-0.2h7.8c1.3 0 2.3-1.1 2.3-2.4zm1.2-30.7c0-6.2-3.6-10-11.6-12-8-2-9.8-3.1-9.8-4.9 0-1.8 2.1-3 4.6-3 4.6 0 6.6 1.9 8.9 3.1 0.8 0.4 1.8 0.3 2.4-0.4l4.4-4.4c0.5-0.5 0.5-1.3 0-1.7-2.1-1.9-7.3-6.3-15.5-6.3-10.5 0-15.5 6.3-15.5 13.9 0 7.1 5.2 10.6 13.2 12.3 8 1.7 8.2 4.2 8.2 4.8 0 0.6 0 3.2-5 3.2-5.2 0-7.6-1.9-9.5-3.2-1.7-1.2-3.7-0.8-4.7 0.3l-3.4 3.3c-0.6 0.5-0.6 1.5-0.1 2.1 1.9 2.2 7.1 6.8 17.2 6.8 13.4-0.1 16.2-7.7 16.2-13.9zm176.7-93.7c21.4-41.6 33.6-89 33.6-139.3 0-166-132.3-300.6-295.5-300.6-163.2 0-295.5 134.5-295.5 300.6 0 63.5 19.4 122.4 52.4 171 1.3-3.5 6.6-16.8 12.9-28.1 7.3-13.1 15.9-22.2 19.9-25.6 4-3.3 19.4-10.1 34.9-16.5 5.5-2.2 18.4-7.5 28.5-11.6 2.7-5.3 7-9.7 12.5-11.9l13-4.4c3-1.3 5.6 0.1 4.8 4.1 0.2-0.2 15-5.6 18.4-7 0.3-0.1 0.6-0.4 0.7-0.7 1.7-4.3 4.4-10 8.5-16 4.7-6.8 11.1-14.5 13.9-18.1 2.8-3.6 6.2-6.6 6.2-6.6 0.7 0 3.2 1.1 4.9 1.6 0.3 0.1 0.5-0.3 0.3-0.5-8.4-8.8-20.5-25.1-24.5-46.6 0-0.1-0.1-0.2-0.2-0.3-1.3-0.5-9.3-4.4-14.5-27.2-5.6-24.7-10.8-41.3 2.6-48.2 0.1 0 0.1-0.1 0.1-0.2-1.2-1.8-14.4-22.1-14.4-64.9 0-44.9 17-55.3 18.5-56.8 1.5-1.5 7.2-17.7 11.7-20.7 4.1-2.7 5.3-4.4 22.9-9.6 0 0 11.4-21.1 35.4-21.1 11.6 0 26 2.3 30.3 3 0.9 0.1 1.7 0 2.5-0.3l6.7-2.9c3.7-1.6 7.9-1.6 11.6 0.2 6.2 2.9 16 7.8 22.9 11.9 10.9 6.5 27.3 21.2 34.9 29.5 1.9 2.6 27.6 22.3 29.8 77.5 0.7 17-6 40-9.5 51 0 0.1 0 0.2 0.1 0.2 2.8-0.2 4.9 2.1 4.9 10.4 0 6.7-1 12.7-1.7 15.8-0.1 0.5-0.8 0.4-0.8 0-1.4-9-5.7-12.6-7.1-13.6-0.1-0.1-0.3 0-0.3 0.1-1.7 4.3-3.9 11.3-4.6 26 0 0.1 0 0.3-0.1 0.4l-3.9 5.6c-0.2 0.3-0.8 0.1-0.7-0.3 0.5-3.8 1.6-13.9 1.6-26.2 0-15.8-2.1-31.4-2.9-41.4-0.8-10-1.7-20-3.2-23.6-1.4-3.4-5.1-11.4-17.9-17.8-1.2-0.6-2.2-1.6-2.8-2.8-1.4-2.8-4.6-8.2-10.7-11.7 0 0-7.8-11-53.9-11-41.8 0-55 8.3-57 9.9-0.2 0.2-0.4 0.3-0.5 0.6-0.8 1.5-4.1 8.2-4.8 11l1.1-0.1c0.1 0 0.2 0.1 0.2 0.2-0.9 1.8-5.7 12.8-5.3 27.6 0 0 0.1 0 0.1 0.1 1.2-0.3 3-0.6 5.3-0.6 4.6 0 19.6 3.1 25 3.1h10.4c4.5 0 9.5 5 11 6.7 1.5 1.6 0.9 3.9 0.3 4.8-0.7 0.9-3.1 3.9-3.4 5.1-0.3 0.8-0.1 2.1-0.1 2.8 0 0.2-0.1 0.4-0.4 0.4h-2.2c-0.2 0-0.3-0.1-0.4-0.2-0.3-0.4-1.5-1.5-6.8-3.7-7.1-3-16.8-2.3-26.3 0.6-8.7 2.7-7.4 8.6-7.3 9l-0.3-1.1c0.1 0.4 0.2 0.7 0.3 1.1 1.4 5.2 2.2 7.4 2.5 8.2 0.1 0.2 0.3 0.3 0.5 0.2 1.5-0.8 8.2-3.9 18.1-3.9 10.6 0 21.3 4.2 27.9 10.2 0.4 0.4 0.1 1-0.4 0.9-1.1-0.2-2.7-0.4-4.6-0.6 3.2 2.1 3.3 4 3.1 4.9-0.1 0.2-0.3 0.3-0.5 0.1-2.4-2.7-6.8-4.5-9.7-5.5-0.4-0.1-0.7-0.2-1.1-0.2-1.1 0-2.1-0.1-3.2-0.1-7.6 0-18.8 4.8-22.7 6.6-0.4 0.2-0.3 0.7 0.1 0.7 1.8 0.1 4.9 0.4 7.2 1 3.3 0.8 4.8 1 9 1 5.7 0 10.8-1.2 13.2-1.8 0.4-0.1 0.6 0.4 0.3 0.6-1.6 1.1-5.2 3-12.9 4.5-11.8 2.2-18.9 3.2-23.1 3.2-4 0-9-0.6-12.9-3.3-0.2-0.2-0.5 0-0.5 0.3 0.1 1.3 0.4 4 0.4 5.7 0 2.3-1.8 13.3-1.8 16.5 0 3.1 1.7 20.4 13.4 24.9 0.5 0.2 0.6 0.8 0.2 1.1-2 1.8-6.8 6.9-6.8 15.3 0 10.7 5.2 17.9 7.8 22.8 2.6 4.9 10.4 12.9 15 16.5 4.6 3.6 10.4 9.2 13.3 11.9 2.9 2.8 16 16 32.3 16 16.3 0 30.1-9.5 37.3-15 7.2-5.5 12.2-11.3 15.1-14.9 2.9-3.6 6.6-8.1 10.6-12.5 4-4.4 10.5-10.4 14.4-13.7 3.2-2.7 7-9.9 8.8-14.7 0.2-0.5 0.8-0.3 0.8 0.2-0.1 4.9-1.2 16-7.4 27.7 0 0 0.7 2.8 0.7 5.5 0 0 0.9-0.3 1.9 2.1 1 2.5 2.7 5 3.1 6.5 0.4 1.5 1.5 2 1.9 3.1 0.3 1.1 0.6 2.2 2 4.8 1.3 2.5 8.3 17.1 11.4 23.4 5.1 1.7 11.5 3.9 16.9 6.2 0.1-0.3 0.1-0.7 0.2-1 0.6-3 3.8-4.7 6.6-3.6l20.8 8.1c3.6 1.4 6 4.7 6.3 8.5 6.2 2.1 24 8.5 44.9 17.4 25.3 10.8 36.9 17 41.3 20.9 4.6 3.7 13.6 13.8 22.2 31.2zm-144.8-68.3c-3.1-0.5-13.1-2.1-15.9-2.1-2.8 0-6.3 0.2-6.3 0.2 0 0-11.2 18.1-27.4 35.1-12.9 13.5-26.1 26.1-30.9 31-0.2 0.2-0.5 0-0.3-0.3 5.2-7.6 23.1-33.7 28.7-41.9 5-7.4 18.8-29 25.2-39 0 0 1.1-4.4-3.2-12.2-4.4-7.8-10.7-14.2-12.3-14.2-1.6 0-12.8 20.6-34.3 38.5-11.2 12.6-30.1 24.4-30.1 24.4 8 4.1 17.7 15.1 21.1 24.1 2.4 6.3 3.4 13.3 3.7 17 0.1 0.7-0.8 1-1.2 0.4-1.7-2.6-3.8-6.8-8.5-13-7.3-9.8-17.5-13.4-20.8-14.3-0.7-0.2-1.5-0.5-2.1-1l-3.9-2.6c-0.5-0.3-1.1-0.1-1.4 0.4-9.6 20.4-10.6 50.3-10.7 58.4 0 0.4-0.5 0.4-0.6 0.1-1.1-4.3-3.5-15.7-3.5-36.3 0-11.1 1.3-25.1 1.4-27.1 0-0.1-0.1-0.2-0.2-0.3-18.6-1.8-28.7-17.3-33.6-23-4.9-5.7-13.3-25.8-13.3-25.8 0 0-6.9 10.9-9.6 14.9-2.7 4-7.2 11.3-7.2 11.7 0 4.5 7.4 19.4 11.8 26.5 4 6.6 14.7 23.8 16.4 26.6 0.1 0.2 0.3 0.2 0.4 0 1.1-2.2 6.8-12.7 15.9-20.4 8.7-7.3 15.3-7.7 17.2-7.6 0.2 0 0.3 0.2 0.1 0.4-15.7 14.1-23.9 28.4-25.5 31.6-1.2 2.3-1.6 4.7-1.6 5.7 0 0.3-0.3 0.5-0.6 0.3-22.5-11.6-29-21.6-35.2-29.1-5.5-6.9-11-19.2-12.1-21.7-0.1-0.3-0.4-0.4-0.6-0.3-2.4 0.7-13.9 4.2-28.8 10.4-1.9 6.9-3.7 14-4.9 19.7-3.6 17.4-5.5 26-7.3 42.2 0 0 26.5 7.9 104.5 7.9 64.3 0 134-7.9 134-7.9 0 0 0-18.9 3.3-37.8 1.8-10 6.6-32.8 10.2-49.6zm140.4 76.5c-1.8-3.5-8.6-16-14.6-23.1-5.5-6.4-6.1-7.3-8.8-9.2-2.2-1.6-43.7-21.6-81.3-34.5-2.8 25.3-7.7 72.9-7.7 98.9 4.2-0.2 9-0.4 11.1-0.4 3.8 0 8.7 4.8 8.7 9.9l0.3 60.2c37.9-26.1 69.6-61 92.3-101.8zm-311.4-107.9c2.6 3.5 6.7 9 7.2 9.9 1.3 2 9.1 14.3 16.1 24.8 7 10.5 18.5 19.5 19.4 19.5 0.8 0 9.5-4.9 16.6-9.9 6.9-4.8 22.3-16.1 33-32.3 0.1-0.2-0.1-0.4-0.3-0.3-4.7 4.3-21.6 18.8-39 19.1-20.5 0.3-28.3-10.4-30.8-12.4-2.2-1.8-14.9-13.6-21.5-19-0.5-0.4-1.1 0.1-0.7 0.6zm101.1-142.6c-10.7 0-19.5 3.1-22.6 4.3-0.7 0.3-1.2 1-1.2 1.8v3.5c0 2 1.6 3.5 3.5 3.5h2.1c6 0 10.9-2.4 19.7-2.4 8.8 0 13.2 2.3 15.2 3.9 0.3 0.2 2.4 0.4 3.4 0.1 0.1 0 0.1 0 0.3-0.1 0.2-0.1 0.6-0.6 0.6-0.6 0.2-0.2 0.2-0.6 0.1-0.9-2.6-5.7-7.7-13.1-21.1-13.1zm16.2 19.2c-2.5 0-3.2 0.3-7.3 0.3-9.1 0-17.4-4.2-22.1-4.2-3.4 0-5.3 1.3-6.2 1.9-0.2 0.1-0.1 0.4 0.1 0.5 2.1 0.2 4.2 1.2 6.1 1.8 1.9 0.6 9.6 3.6 15 3.6 9 0 13.3-2.1 14.3-2.2 0.7-0.1 3.2 0 4.3 0.1 0.2 0 0.3-0.2 0.1-0.3-0.6-0.7-2.2-1.5-4.3-1.5zm-80.5 96.3c-2.2-1.9-2.9-3.8-6-6.7-2.9-2.8-6.7-5.1-11.1-6.9-0.3-0.1-0.6 0.2-0.5 0.5 0.6 1.5 0.6 3.3 4.1 7.4 2.8 3.3 7.9 8.9 13.8 8.9h3.9c0.2 0 0.3-0.3 0.1-0.4-1-0.5-2.9-1.5-4.3-2.8zm51.6-33.2c-6.8 0-12 2.3-22.9 2.3-10.9 0-14.1-3.3-25.7-3.3-10.6 0-13.7 2.2-15.3 2.2-3.8 0-6.4-2.7-7.4-4-0.2-0.3-0.2-0.8 0.1-1 1.1-0.8 3.7-2.9 6.6-7.2 2.6-3.8 9.2-4.7 12.4-4.7 2.2 0 3.9-0.4 4.7-0.6 0.3-0.1 0.7 0 0.9 0.2 1 0.8 3.8 2.6 8.2 2.6 10.9 0 12.3-6.8 20.9-6.8 5.6 0 9.9-1.5 11.9-2.7 0.9-0.5 1.1-1.7 0.2-2.1-1.4-0.7-3.7-1.8-6.9-1.8-5.8 0-7.6 4-15.6 4-6.5 0-11.2-4-12.8-5.5-0.3-0.3-0.8-0.2-1 0.1-1 1.5-3.8 4.7-8.3 4.7-5.7 0-7.2-2.8-7.2-4.8 0-4.8 5.6-7.2 7.4-7.8 0.3-0.1 0.7-0.1 0.9 0.2 1 0.9 4 3.5 6.7 4.8 0.4 0.2 0.7-0.3 0.4-0.6-1.4-1.6-3.7-4.7-3.8-7.2 0-0.8 1.6-1.7 4.2-8.1 2.7-6.3 3.5-18.2 3.5-22.8 0-4.6-2.2-8-4.5-11.3-1.4-2.1-2.7-4-3.5-5.4-0.3-0.6-0.8-0.6-1.1 0-0.6 1.3-1.6 3.2-1.6 5.7 0 3 0.9 5.1 1.5 6 0.6 0.9 2.8 2.6 2.8 5.7 0 3.1-3.8 15-5.7 19.3-3.1 7.1-10.3 11.1-11.5 14.7-1.2 3.6-0.8 8.1-2.7 10-1.8 1.8-8.7 6-11.5 7.4-2.8 1.4-8.5 3.8-8.5 7.5 0 3.7 2.7 12.9 8.1 18.6 5.3 5.7 9.1 8.9 17.7 12.1 3 1.1 6.8 1.9 8.6 2.2 1 0.2 2.1-0.9 2.5-1.4 0.1-0.1 0.1-0.3 0-0.4l-2.3-2.4c-0.2-0.2 0-0.6 0.3-0.5 2.1 0.9 6.8 2.3 14.8 2.5 0.6 0 1.2-0.5 1.2-1.1v-1.5c0-0.4-0.3-0.8-0.8-0.9-3.2-0.3-12.9-1.1-19.5-6.8-0.2-0.2-0.2-0.5 0.1-0.7 1.6-0.9 6.6-3.7 11.9-3.7 6.4 0 6.7 1.5 23 1.5 8.8 0 13.6-0.7 15.9-1.3 0.9-0.2 1.8 0.2 2 1.1v0.5c0 0.5-0.3 1.5-0.6 1.9-1.1 1.2-3.9 4.2-9.7 7.6-0.6 0.4-0.1 1.7 0.7 1.5 1.6-0.4 3.8-1.2 7-2.8 7.7-3.9 7.2-4.7 9.8-6.5 2.3-1.6 4.9-2.9 8-3.2 0.5-0.1 0.7-0.7 0.3-1-1.8-1.7-7.3-5-14.8-5zm19.6-113.3c-17.3 0-27.3 3.6-30.8 5.1-0.8 0.4-1.1 0.9-1.4 2.2-0.4 2 0.1 6.3 0.1 6.3 0 0.5 0.4 1.3 0.9 1.3 1.9-0.1 6.9-0.9 18.6-0.9 14.1 0 25.9 2.2 28.9 2.8 0.4 0.1 0.7-0.2 0.7-0.6-0.1-1.4-0.5-4.5-1.9-8.6-1.9-5.8-5.8-7.6-15.1-7.6zm-24.3 72.2c-0.4-0.1-0.7 0.4-0.4 0.7 2.5 2.5 8.7 8.7 15.6 17.1 8.5 10.3 14 19.1 14.6 24.3 0.1 0.4 0.5 0.6 0.8 0.3 1.5-1.4 4.7-4.8 4.7-9.7 0.1-6.2-9.3-24-35.3-32.7z"/>
</svg>