<svg xmlns="http://www.w3.org/2000/svg" width="1414.3214111328125px" height="987.9563598632812px" x="0px" y="0px" style="enable-background:new 0 0 336 235.2" viewBox="0 0 1414.3214111328125 987.9563598632812"><path fill="none" d="M0 0h1414.321v987.956H0z" style="fill:#1b1b1b;fill-opacity:0;pointer-events:none"/><path d="M317.97 869.232c21.728-10.864 93.333-40.988 93.333-77.037 0-36.543-59.753-47.901-97.284-52.346-37.53-4.938-73.58-5.926-101.234-4.444-27.655 1.481-41.482 7.901-41.482 15.802 0 7.408 10.37 9.877 13.827 9.877s9.383-1.482 13.828-3.95c4.444-2.47 5.926-7.408 17.777-8.89 54.321-6.913 106.173 4.445 106.173 4.445 65.185 13.333 62.716 34.568 63.21 40.494 0 5.925-2.963 19.753-41.975 47.9-30.617 21.73-67.16 39.507-84.938 47.408.493-4.938.493-9.383.987-12.84 2.47-23.21 11.358-77.036 12.84-92.839 1.481-16.296-8.395-18.271-8.395-18.271-12.346-.988-13.334 19.259-13.334 19.259s-1.481 17.284-4.938 61.728c-.988 15.309-1.975 33.087-2.47 50.37-3.95 1.976-6.419 3.951-5.925 7.408.494 2.963 3.457 2.963 5.432 2.47-.494 27.653-.494 50.863-.494 54.814 0 5.926 1.482 20.247 6.42 20.247 5.432 0 6.42-7.901 6.42-17.778 0-7.407.987-38.518 1.975-63.704 17.284-9.876 45.432-22.716 60.247-30.123z"/><path d="M526.365 825.775c-4.938-1.975-10.37 4.445-20.74 21.729-10.371 17.283-38.52 76.543-51.853 76.543-13.333 0-.493-37.037-10.37-38.025-10.37-.988-36.543 45.432-47.407 45.432-10.865 0 0-45.432-8.395-46.913-8.395-.988-37.531 43.456-45.926 42.469-6.42-.988-3.457-21.729-3.457-34.568 0 0 .494-13.334-13.333-13.334-13.828 0-30.124 10.37-41.482 40-11.358 29.136 11.358 45.926 30.124 15.31 0 0 13.333-21.73 13.333-16.791 0 5.432 1.481 23.704 11.358 23.704s20.74-12.84 25.185-18.272c4.938-5.432 16.296-21.235 15.803-13.333-.494 7.901-5.433 42.963 13.333 42.963 12.346 0 26.667-23.704 29.63-27.655 2.962-4.444 15.802-27.16 15.802-16.79 0 10.37-3.95 35.062 12.346 35.062s35.555-42.963 42.469-54.321c6.913-10.864 17.778-33.58 19.753-33.086 1.975.493-6.42 42.963-8.395 55.802-1.975 12.84-8.395 54.815 3.95 51.852 10.865-2.47 4.939-21.235 4.939-27.654 0-5.433 3.95-37.531 6.913-53.334.988-15.308 11.358-54.815 6.42-56.79zm-200.988 68.642s-21.234 34.568-27.16 34.568-4.938-11.358 4.938-23.704c9.877-11.852 18.272-13.333 21.235-12.84 2.469.495.987 1.976.987 1.976zM685.377 843.553c-14.32-.494-26.666-.494-37.037-.494 30.124-15.802 94.815-43.95 94.815-69.63 0-24.197-48.889-33.086-77.53-36.543-28.643-3.457-55.31-1.481-76.544-.494-21.234.988-29.63 6.914-29.63 12.346s7.902 6.42 10.37 6.42 7.408-.988 10.865-2.963 5.926-6.42 14.815-7.408c21.234-2.469 41.481-4.444 65.185-1.975 37.037 3.457 56.79 19.753 56.79 30.124 0 8.888-9.383 23.703-39.012 42.963-20.74 13.333-40 23.21-51.358 28.148-1.482 0-2.963 0-3.95.494 3.95-27.161 9.876-64.692 11.357-78.519 1.482-16.79-6.913-18.272-6.913-18.272-11.358-1.481-12.346 19.754-12.346 19.754s-2.963 18.271-5.432 64.197c0 4.444-.494 9.383-.988 14.321 0 0-12.345 1.975-17.778 3.95s-7.9 4.445-7.9 7.902 3.456 6.42 9.382 6.42c1.481 0 7.407-.494 15.802-1.482-1.975 41.482-4.444 85.926-4.444 90.864 0 4.939 0 12.346 2.47 15.803 0 0 .987 3.457 8.888 1.481 7.901-1.975 39.012-13.827 71.605-29.63 32.592-15.802 76.543-38.518 76.543-63.21 0-23.21-25.679-32.592-78.025-34.567zm-10.37 91.852c-29.63 14.815-52.346 21.234-55.802 22.222-4.445.988-4.445-5.432-4.445-5.432.494-17.778 3.95-67.654 6.42-89.877 20.74-1.975 48.395-3.95 65.679-3.95 29.136 0 56.79 5.432 56.79 22.222-.494 16.79-39.012 40-68.642 54.815zM1268.093 816.886c-5.925 0-14.814 4.445-27.16 5.926-12.346.988-84.444 3.95-84.444 3.95s9.382-15.802 13.827-27.654 11.358-39.506-.494-39.506-15.803 45.926-26.173 67.16l-66.667-.493s13.827-29.63 13.827-37.53c-.493-7.902-3.95-7.408-5.432-7.408-1.481 0-7.9.493-16.79 14.814s-14.815 29.136-14.815 29.136-39.012-1.481-41.481-1.975c-2.47-.494-9.383 0-10.864 4.938s7.407 6.42 16.79 6.914c9.383.494 29.63 1.481 29.63 1.481s-10.37 29.63-11.852 36.544c0 0-14.321 20.74-28.148 35.061-13.334 14.321-34.075 28.642-40.494 28.642-6.42 0-7.408-7.901-7.408-7.901s8.395-3.457 17.284-9.877c8.89-6.913 17.778-14.814 17.778-27.654s-9.877-15.309-13.827-15.309c-4.445 0-14.815 2.47-25.185 14.321s-11.358 32.1-11.358 32.1-13.334 2.962-15.309 3.456c0 0 .988-4.938-3.95-9.383-4.939-4.444-15.803-11.358-15.803-17.777 0-6.42 7.407-14.321 10.37-17.778 2.963-3.95 5.926-8.395 5.926-11.852 0-2.963-.987-5.926-5.926-5.926s-31.605 28.642-36.543 33.086c-4.938 4.445-24.197 20.247-24.197 20.247s-22.716-12.345-22.716-22.222c0-9.383 13.827-19.26 21.728-22.222 7.901-2.963 24.197-7.901 24.197-13.333s-4.938-6.42-7.9-6.42-25.186 3.95-41.976 20.74-25.185 44.445-25.185 44.445-2.963 5.926-2.47 1.975c.494-4.444 1.482-18.765 1.482-20.74.494-2.963 4.444-16.297-.988-17.778 0 0-9.876-3.457-21.728 1.481-11.852 4.939-31.111 29.63-31.111 48.395 0 18.766 13.827 17.284 14.32 17.284.989 0 9.384 0 18.272-18.765 3.457-6.914 2.963-7.901 4.939-7.901s1.481 1.975 1.975 5.926c.494 3.95 1.975 21.234 9.877 21.234 7.9 0 9.382-17.778 12.345-27.16 2.963-9.383 7.408-20.247 9.383-20.247s5.926 7.9 12.346 12.84 13.333 10.37 13.333 10.37-31.111 15.802-31.111 23.703 25.679 5.432 38.025-1.481c12.345-6.914 14.32-13.827 13.827-19.753-.494-4.445 5.432-7.408 10.37-11.852 4.938-4.445 14.321-13.334 15.309-13.334.987 0 .494 3.951 2.469 7.902 1.975 3.95 11.852 11.852 14.815 14.32 3.457 2.47 3.95 2.964 3.95 3.951 0 .988-1.481 1.976-2.963 1.976s-32.592 3.95-32.592 12.84c0 8.888 27.16 8.394 29.136 8.394 1.975 0 18.765-2.469 18.765-14.815l16.296-3.456s-1.481 18.765 17.778 18.765 33.087-15.802 40.494-24.197c7.407-8.396 22.222-27.161 26.173-29.136 0 0-.988 9.876-.988 15.802s.494 36.543 21.728 36.543 40.988-30.123 51.852-43.95c10.37-13.827 17.778-23.704 22.716-31.605 4.939-7.901 11.852-18.272 13.828-18.272 1.481 0 1.481.988.987 4.938-.494 3.951-11.358 73.087-12.345 80-.988 6.914.987 9.877 5.925 9.877 4.445 0 6.42-.494 6.914-8.395.494-7.901 14.321-104.691 14.321-104.691s35.062-.494 58.765-.988c23.704-.494 53.334-.494 57.778-2.47 3.95-1.48 6.914-3.95 6.914-9.876s-4.445-8.395-10.37-8.395zm-296.296 76.05c4.938-5.432 9.877-3.457 9.877-3.457 4.938 3.457.494 9.876-1.482 12.345-1.975 2.47-14.32 14.815-17.284 12.346-2.963-1.975 3.95-15.802 8.89-21.234zm-180.247.987s-17.778 40-23.21 40c-5.432 0-2.963-13.827 2.47-24.691 5.432-10.864 13.333-17.778 18.271-18.272 5.926-.987 2.47 2.963 2.47 2.963zm262.222 44.445c-18.271-4.445-11.358-50.864-8.395-58.272 2.963-9.876 26.173-42.469 26.173-42.469h68.148c-26.666 48.889-71.605 104.691-85.926 100.74z"/><path d="M9 53a4.5 4.5 0 0 1-4.5 4.5A4.5 4.5 0 0 1 0 53a4.5 4.5 0 0 1 4.5-4.5A4.5 4.5 0 0 1 9 53Z" class="st0" style="fill:#e80a4d" transform="scale(4.93822) rotate(-45 6.985 52.207)"/><path d="M63.8 23.3a4.5 4.5 0 0 1-4.5 4.5 4.5 4.5 0 0 1-4.5-4.5 4.5 4.5 0 0 1 4.5-4.5 4.5 4.5 0 0 1 4.5 4.5Z" class="st0" style="fill:#e80a4d" transform="scale(4.93822) rotate(-45 61.797 22.521)"/><path d="M218.6 70.3c-13.9-5.6-6.7-28.6-3.7-34.2 0 0-20.1 23.5-40.4 23.5-20.4 0-29.8-27.5-32.8-39.7-3 12.2-12.4 39.7-32.8 39.7S68.5 36.1 68.5 36.1c3 5.6 10.2 28.6-3.7 34.2-13.7 5.6-46.5-6.8-46.5-6.8 34.4 29.1 35.6 57.1 35.6 57.1 46.1-6.5 87.7-6.3 87.7-6.3s41.6-.2 87.7 6.3c0 0 1.2-28 35.6-57.1.1 0-32.7 12.4-46.3 6.8z" class="st0" style="fill:#e80a4d" transform="translate(6.365 7.504) scale(4.93827)"/><path d="M283.5 53a4.5 4.5 0 0 1-4.5 4.5 4.5 4.5 0 0 1-4.5-4.5 4.5 4.5 0 0 1 4.5-4.5 4.5 4.5 0 0 1 4.5 4.5Z" class="st0" style="fill:#e80a4d" transform="scale(4.93822) rotate(-45 281.44 52.207)"/><path d="M228.6 23.3a4.5 4.5 0 0 1-4.5 4.5 4.5 4.5 0 0 1-4.5-4.5 4.5 4.5 0 0 1 4.5-4.5 4.5 4.5 0 0 1 4.5 4.5Z" class="st0" style="fill:#e80a4d" transform="scale(4.93822) rotate(-45 226.627 22.521)"/><path d="M146.2 4.5a4.5 4.5 0 0 1-4.5 4.5 4.5 4.5 0 0 1-4.5-4.5 4.5 4.5 0 0 1 4.5-4.5 4.5 4.5 0 0 1 4.5 4.5Z" class="st0" style="fill:#e80a4d" transform="scale(4.93822) rotate(-45 144.212 3.71)"/></svg>