<svg version="1.2" xmlns="http://www.w3.org/2000/svg" viewBox="0 0 384 384" width="384" height="384">
	<title>새 프로젝트</title>
	<style>
		.s0 { fill: #353e49 } 
		.s1 { opacity: .2;mix-blend-mode: multiply;fill: #353e49 } 
		.s2 { fill: #85bc67 } 
		.s3 { fill: #6fa54f } 
		.s4 { opacity: .1;mix-blend-mode: multiply;fill: #85bc67 } 
		.s5 { fill: #9ad07d } 
		.s6 { fill: #303179 } 
		.s7 { fill: #48525c } 
		.s8 { fill: #66bc6c } 
		.s9 { fill: #5ba85f } 
		.s10 { fill: #6cc672 } 
		.s11 { fill: #bae3a4 } 
		.s12 { fill: #ffffff } 
	</style>
	<g id="&lt;Group&gt;">
		<path id="&lt;Path&gt;" class="s0" d="m53.7 172.9c11.5-25.1 35.4-44.4 63.1-56.7 40.2-18 101.7-28.4 144.3-18.3 23.4 5.5 46.7 15.5 60.1 32.4 14.2 17.9 14.3 34.4 6.1 52.4-8.2 17.9-25.3 34.1-46.5 45.1-24.2 12.6-51.7 20.1-79.2 24.5-40.6 6.6-85 5.3-120.4-12.2-24.9-12.3-39.2-41.7-27.5-67.2z"/>
		<path id="&lt;Path&gt;" class="s1" d="m306.3 188.7c-1.5-9.1-2.2-12.6-5.8-21.5-6.8-16.3-21.7-26.1-37.8-30.3-29.6-7.7-60.4-1.7-90.3-0.1-11.6 0.6-23.1-0.1-34.5 2-10.9 1.9-21.8 5.5-31.3 11.5-9.1 5.8-16.7 14.1-19.6 24.7-1.6 6-1.8 12 0 18 2.5 8.2-1.7 12-6.8 17.6-7.3 7.9-9.1 16-4.5 26.4q2.7 1.7 5.5 3.1c35.4 17.5 79.8 18.8 120.4 12.2 27.5-4.4 55-11.9 79.2-24.5 11.7-6 22.2-13.7 30.6-22.4-1.9-3.7-4.4-12.6-5.1-16.7z"/>
		<path id="&lt;Path&gt;" class="s2" d="m272.3 186.8c-14.5-21.7-34.4-40.7-54.8-40.6l-5.2-0.6q-0.6-0.1-1.2-0.2-9.2-1.6-18.3-3.3c-7.9-1.4-16.7 0.3-24.3 2.3-11 2.8-21.4 7.9-30.3 15-15.7 12.5-26.1 30.5-31.8 49.6-3.1 10.1-4.9 20.6-5.6 31.2-0.3 3.8-0.9 8.3-0.3 12.1 0.6 3.3 2.3 6.6 3.9 9.5 3.9 7.3 8.8 10.6 16.3 14 9.6 4.4 20.1 6.8 30.6 8 20.8 2.2 41.9-0.4 62.5-3.4 17.7-2.5 35.9-5.1 52.9-10.8 3.6-1.2 6.9-2.6 9.8-4.6q1.9-0.9 3.2-1.8c19-13.8 4-59.4-7.4-76.4z"/>
		<g id="&lt;Group&gt;">
			<g id="&lt;Group&gt;">
				<path id="&lt;Path&gt;" class="s3" d="m126.4 246.6c4.5-0.8 3.3-7.8-1.2-7.1-4.6 0.8-3.4 7.9 1.2 7.1z"/>
			</g>
			<g id="&lt;Group&gt;">
				<path id="&lt;Path&gt;" class="s3" d="m138.9 254.5c4-0.7 3-7-1.1-6.3-4 0.7-3 7 1.1 6.3z"/>
			</g>
			<g id="&lt;Group&gt;">
				<path id="&lt;Path&gt;" class="s3" d="m145.1 238c3.1-0.5 2.2-5.3-0.8-4.8-3.1 0.6-2.3 5.3 0.8 4.8z"/>
			</g>
			<g id="&lt;Group&gt;">
				<path id="&lt;Path&gt;" class="s3" d="m159.1 246.4c3.5-0.6 2.6-6.1-1-5.5-3.5 0.6-2.6 6.1 1 5.5z"/>
			</g>
			<g id="&lt;Group&gt;">
				<path id="&lt;Path&gt;" class="s3" d="m155.7 259.2c4.9-0.8 3.6-8.4-1.3-7.6-4.9 0.9-3.6 8.5 1.3 7.6z"/>
			</g>
			<g id="&lt;Group&gt;">
				<path id="&lt;Path&gt;" class="s3" d="m207.9 244.6q0-0.3 0-0.6c0-1.1-0.3-2.1-1.2-2.7-0.7-0.5-1.5-0.7-2.2-0.5-0.8 0.1-1.5 0.6-1.9 1.2-0.7 0.9-0.6 1.9-0.3 2.9q0.1 0.4 0.2 0.7c0.2 0.5 0.8 1 1.3 1.3 0.5 0.2 1.2 0.4 1.8 0.3q0.7-0.2 1.3-0.7c0.5-0.3 1-1.2 1-1.9z"/>
			</g>
			<g id="&lt;Group&gt;">
				<path id="&lt;Path&gt;" class="s3" d="m213.8 236.4c3.7-0.7 2.7-6.4-1-5.7-3.7 0.6-2.7 6.3 1 5.7z"/>
			</g>
			<g id="&lt;Group&gt;">
				<path id="&lt;Path&gt;" class="s3" d="m233.2 243.7c4.3-0.8 3.2-7.5-1.2-6.8-4.3 0.8-3.2 7.5 1.2 6.8z"/>
			</g>
			<g id="&lt;Group&gt;">
				<path id="&lt;Path&gt;" class="s3" d="m221.9 251.2c4-0.6 3-6.8-1-6.1-4 0.7-2.9 6.8 1 6.1z"/>
			</g>
		</g>
		<path id="&lt;Path&gt;" class="s4" d="m118.5 238.2c16 4.4 33.8 2.1 47.2-7.7 5.8-4.3 11.9-9.9 19.7-8 8.6 2 15.5 10 22.8 14.6 16.1 10.3 40.1 7.7 57.1 0.7 8.4-3.5 17-4.3 21.4-15-3.1-14.1-9.1-28.1-14.4-36-14.5-21.7-34.4-40.7-54.8-40.6l-5.2-0.6q-0.6-0.1-1.2-0.2-9.2-1.6-18.3-3.3c-7.9-1.4-16.7 0.3-24.3 2.3-11 2.8-21.4 7.9-30.3 15-15.7 12.5-26.1 30.5-31.8 49.6-2.1 6.7-3.5 13.7-4.5 20.6 4.7 4.2 10.6 7 16.6 8.6z"/>
		<path id="&lt;Path&gt;" class="s5" d="m290.8 152.8c-3.2-6.2-8.1-11.5-12.7-16.7-16.1-17.6-45.2-24.5-67.6-16.9-8.1 2.7-15.7 7-23 11.2-6.6 3.8-13.2 7.7-19.2 12.3-10.3 8-13.1 19.4-9.3 31.6 7.3 23.9 30.6 42.8 53.1 51.6 21.4 8.5 55.1 12.8 71.4-7.7 5-6.2 7.5-13.9 9.3-21.5 2-8.3 3.1-16.8 2.6-25.3-0.4-6.4-1.6-12.9-4.6-18.6z"/>
		<g id="&lt;Group&gt;">
			<path id="&lt;Path&gt;" class="s6" d="m329.5 143.6c0-0.2-0.2-0.4-0.4-0.5q1 2.1 1.6 4.2-0.5-1.8-1.2-3.7z"/>
			<path id="&lt;Path&gt;" class="s7" d="m332 152.1c2.1 10 0.1 20.1-4.7 30.6-8.2 17.9-25.3 34.1-46.5 45.1-24.2 12.6-51.7 20.1-79.2 24.5-40.6 6.6-85 5.3-120.4-12.2-16.1-7.9-27.7-22.9-30.8-39.4 3.6 30.8 26.3 55.5 51.1 72.9 13.9 9.7 28.8 19.1 44.3 26.1 6.6 3 13.7 5.7 21 6.3 4.9 0.5 9.9 0.1 14.8-0.2 18.2-1.2 35.7-3.9 53.4-8.4 10.7-2.7 21.5-5.4 30.6-11.8 13.8-9.8 24.5-24.1 34.8-37.2 21.2-27.1 39.7-61.5 31.6-96.3z"/>
		</g>
		<path id="&lt;Path&gt;" class="s5" d="m217.2 111c-9.6-12.5-28.3-16.8-43.2-17.6-7.8-0.4-17.3-0.4-24.7 2.4-3.5 1.3-6.2 2.2-9.9 2.7-4.1 0.4-8 1.7-11.7 3.5-7.4 3.7-13.6 9.5-19.2 15.5-5 5.5-9.7 11.3-13 18.1-7.5 15.3-7.2 32.9-2 48.8 2.2 6.8 4.6 13.5 7.3 20.1 3 7.2 7.1 11.7 13.4 16.3 9.2 6.5 23.2 6.6 33.9 4.5 22.1-4.3 43-18.4 57.5-35.4 9.2-10.7 16-23.5 18.7-37.5 2.6-13.5 0.8-29.8-7.1-41.4z"/>
		<g id="&lt;Group&gt;">
			<path id="&lt;Path&gt;" class="s2" d="m221.4 118.5c1.5 8.4 3.4 16.5 3.1 25.1-0.4 8.5-2.2 17.1-5.7 24.9-7.2 16.2-19.4 31.2-34.1 41.3-1.7 1.1 0.4 3.5 2 2.4 15.6-10.7 28.3-26.7 35.6-44.1 6-14.4 8.9-36.1-0.5-49.7-0.2-0.2-0.4 0-0.4 0.1z"/>
		</g>
		<g id="&lt;Group&gt;">
			<path id="&lt;Path&gt;" class="s8" d="m193.3 81.8c6.3 5.8 9.6 11.4 12.1 19.4 1.3 4.5 2.3 11.5 0 15.9-0.4 0.7-0.9 0.4-1.6 0.2-14.6-4.8-27.2-19.4-22.7-35.2 2-6.9 8.3-3.8 12.2-0.3z"/>
			<g id="&lt;Group&gt;">
				<path id="&lt;Path&gt;" class="s9" d="m187.7 84.5c2.9 10.9 14.2 26.9 17.5 30.7 0.6 0.7 1.3 3 0.8 3.4-0.5 0.4-2.3-1.1-2.7-1.7-4.9-6.1-15-20.3-17.3-32.1-0.2-1.1 1.4-1.4 1.7-0.3z"/>
			</g>
			<path id="&lt;Path&gt;" class="s8" d="m234 86.3c-9.3 3.2-16.3 10.4-22.5 17.6-3.5 4.2-6.4 11.8-6.1 13.7 0.2 1 0 1.1 0.9 1.2 17.5 1.6 37.9-8 40.3-26.6 1.1-8.2-6.9-7.8-12.6-5.9z"/>
			<g id="&lt;Group&gt;">
				<path id="&lt;Path&gt;" class="s9" d="m238.7 93.4c-8 10.2-20.7 17.3-32.4 22.6-0.9 0.4-1.8 1.8-1.1 2.3 0.7 0.7 1.1 0.5 1.9 0.1 12.1-5.8 25.5-12.5 33.3-23.9 0.7-1-0.9-2.1-1.7-1.1z"/>
			</g>
			<path id="&lt;Path&gt;" class="s10" d="m206.3 116.8c3-6.3 5.5-11.4 5.8-18.5 0.2-3.2-0.2-6.7-2.4-9.3-1.8-2.2-4.7-3.6-6.9-1.3q-0.2 0.2-0.3 0.3 0 0 0 0c-5.9 8.3-0.9 21.5 1.9 27.8 0.5 1.1 1.3 2.3 1.9 1z"/>
			<g id="&lt;Group&gt;">
				<path id="&lt;Path&gt;" class="s9" d="m205.3 92.5c-1.1 3.4-1 7.3-1.1 10.8-0.1 4.2 0.2 10.1 0.2 14.3 0 0.6 0.5 1.1 1.1 1 0.4 0 0.8-0.5 0.8-1-0.1-4.2-0.5-10.1-0.5-14.3 0-3.5 0.4-7.3-0.2-10.8-0.1-0.2-0.3-0.2-0.3 0z"/>
			</g>
		</g>
		<g id="&lt;Group&gt;">
			<g id="&lt;Group&gt;">
				<path id="&lt;Path&gt;" class="s11" d="m264.7 143.6c3.2-0.5 2.3-5.5-0.9-4.9-3.2 0.5-2.3 5.5 0.9 4.9z"/>
			</g>
			<g id="&lt;Group&gt;">
				<path id="&lt;Path&gt;" class="s11" d="m251.8 153.7c4.3-0.8 3.1-7.4-1.2-6.7-4.2 0.8-3.1 7.4 1.2 6.7z"/>
			</g>
			<g id="&lt;Group&gt;">
				<path id="&lt;Path&gt;" class="s11" d="m268.7 175c4.2-0.7 3.1-7.1-1.1-6.4-4.2 0.7-3.1 7.2 1.1 6.4z"/>
			</g>
			<g id="&lt;Group&gt;">
				<path id="&lt;Path&gt;" class="s11" d="m243 171.1c3.2-0.6 2.3-5.6-0.9-5.1-3.3 0.6-2.4 5.7 0.9 5.1z"/>
			</g>
			<g id="&lt;Group&gt;">
				<path id="&lt;Path&gt;" class="s11" d="m238.3 136.2c3.9-0.7 2.9-6.8-1-6.1-3.9 0.7-2.9 6.8 1 6.1z"/>
			</g>
			<g id="&lt;Group&gt;">
				<path id="&lt;Path&gt;" class="s11" d="m164.9 106.4c4.8-0.8 3.5-8.4-1.3-7.5-4.8 0.8-3.5 8.3 1.3 7.5z"/>
			</g>
			<g id="&lt;Group&gt;">
				<path id="&lt;Path&gt;" class="s11" d="m135 114.8c4.6-0.7 3.4-7.9-1.2-7.1-4.6 0.8-3.4 7.9 1.2 7.1z"/>
			</g>
			<g id="&lt;Group&gt;">
				<path id="&lt;Path&gt;" class="s11" d="m146.6 133.7c4.5-0.8 3.3-7.8-1.2-7-4.5 0.7-3.3 7.8 1.2 7z"/>
			</g>
			<g id="&lt;Group&gt;">
				<path id="&lt;Path&gt;" class="s11" d="m160.2 139.9c4.8-0.8 3.5-8.2-1.3-7.4-4.7 0.8-3.5 8.2 1.3 7.4z"/>
			</g>
			<g id="&lt;Group&gt;">
				<path id="&lt;Path&gt;" class="s11" d="m187.1 126.1c4.7-0.8 3.4-8-1.2-7.2-4.7 0.8-3.4 8 1.2 7.2z"/>
			</g>
			<g id="&lt;Group&gt;">
				<path id="&lt;Path&gt;" class="s11" d="m117.5 150.6c2.7-0.5 2-4.8-0.8-4.3-2.7 0.5-2 4.8 0.8 4.3z"/>
			</g>
			<g id="&lt;Group&gt;">
				<path id="&lt;Path&gt;" class="s11" d="m107.6 133.4c3.5-0.6 2.6-6.1-1-5.5-3.6 0.6-2.6 6.2 1 5.5z"/>
			</g>
		</g>
		<g id="&lt;Group&gt;">
			<g id="&lt;Group&gt;">
				<path id="&lt;Path&gt;" class="s11" d="m211.9 207.9c2.6 3.9 5.3 7.6 8.5 11 0.9 1 2.5-0.4 1.6-1.4-3-3.5-5.9-7.1-8.5-10.9-0.8-1.1-2.3 0.3-1.6 1.3z"/>
			</g>
			<g id="&lt;Group&gt;">
				<path id="&lt;Path&gt;" class="s11" d="m225.6 210.1c2.7 4.1 6 7.6 10.1 10.2 1.6 0.9 3.2-1.4 1.7-2.3-3.9-2.4-7.3-5.4-9.9-9.1-0.7-1-2.5 0.1-1.9 1.2z"/>
			</g>
			<g id="&lt;Group&gt;">
				<path id="&lt;Path&gt;" class="s11" d="m270.4 209.7c0.6 4 5.3 6.5 8.9 4.5 1.2-0.7 0.3-2.7-1-2.1-2.4 1.3-5.7 0.1-6.4-2.6-0.2-1-1.7-0.8-1.5 0.2z"/>
			</g>
			<g id="&lt;Group&gt;">
				<path id="&lt;Path&gt;" class="s11" d="m278.1 208.7c2.7 2.7 6.8 2.9 9.8 0.7 1.4-0.9-0.3-2.8-1.6-1.9-2.1 1.5-4.9 1.4-7-0.1-0.8-0.6-1.9 0.6-1.2 1.3z"/>
			</g>
			<g id="&lt;Group&gt;">
				<path id="&lt;Path&gt;" class="s11" d="m114.9 205.5c3.6 5.9 10.1 9.1 17 8.5 1.6-0.1 1.2-2.6-0.4-2.4-6.1 0.5-11.7-2.1-15.4-6.9-0.5-0.6-1.7 0.1-1.2 0.8z"/>
			</g>
			<g id="&lt;Group&gt;">
				<path id="&lt;Path&gt;" class="s11" d="m129.4 207.3c3.5 3.3 8.9 4.2 13.2 1.5 1.6-1 0.2-3.3-1.5-2.2-3.3 2.1-7.5 1.8-10.5-0.7-0.8-0.6-1.9 0.6-1.2 1.4z"/>
			</g>
			<g id="&lt;Group&gt;">
				<path id="&lt;Path&gt;" class="s11" d="m204.2 150.1c6.1-4.3 10.6-11 11.8-18.4 0.2-1.5-2.3-2.1-2.7-0.6-2 6.8-5.2 12.6-10.5 17.3-1 1 0.3 2.4 1.4 1.7z"/>
			</g>
			<g id="&lt;Group&gt;">
				<path id="&lt;Path&gt;" class="s11" d="m205.2 134.9c3.5-2.3 6-6.7 5.3-11-0.2-1.8-2.8-1.3-2.8 0.5 0.2 3.6-0.8 6.7-3.8 8.9-1.1 0.8 0.2 2.3 1.3 1.6z"/>
			</g>
		</g>
		<g id="&lt;Group&gt;">
			<g id="&lt;Group&gt;">
				<path id="&lt;Path&gt;" class="s2" d="m123.6 124.6q-0.1 0-0.1 0 0.7 0.3 1.5 0.6c-0.6-0.5-1.3-0.7-2-0.8-2.3-0.4-4.3 2-3.9 4.1 0.4 2.2 3 3.8 5.1 2.7 0.6-0.4 1.2-0.8 1.6-1.5q-0.6 0.6-1.3 1.1 0.1-0.1 0.2-0.1c0.6-0.4 1.1-0.7 1.4-1.4 0.3-0.6 0.5-1.3 0.3-2q-0.1-0.9-0.7-1.5c-0.5-0.7-1.3-1-2.1-1.2z"/>
			</g>
			<g id="&lt;Group&gt;">
				<path id="&lt;Path&gt;" class="s2" d="m135.4 145.2c4.2-0.7 3.1-7.4-1.2-6.7-4.3 0.8-3.1 7.4 1.2 6.7z"/>
			</g>
			<g id="&lt;Group&gt;">
				<path id="&lt;Path&gt;" class="s2" d="m153.7 118c5.5-1 4-9.6-1.5-8.7-5.6 1-4.1 9.6 1.5 8.7z"/>
			</g>
			<g id="&lt;Group&gt;">
				<path id="&lt;Path&gt;" class="s2" d="m174.3 136.8c4-0.7 3-6.8-1-6.2-4 0.7-3 6.9 1 6.2z"/>
			</g>
			<g id="&lt;Group&gt;">
				<path id="&lt;Path&gt;" class="s2" d="m176.9 115.1c4.4-0.7 3.2-7.6-1.2-6.8-4.4 0.8-3.3 7.6 1.2 6.8z"/>
			</g>
			<g id="&lt;Group&gt;">
				<path id="&lt;Path&gt;" class="s2" d="m157.3 151.4c3.8-0.6 2.8-6.4-1-5.8-3.7 0.7-2.7 6.5 1 5.8z"/>
			</g>
			<g id="&lt;Group&gt;">
				<path id="&lt;Path&gt;" class="s2" d="m254.7 135.1q-0.1-0.3-0.1-0.7c-0.3-1.7-2.1-3-3.8-2.6-1.7 0.3-3 1.9-2.7 3.8q0.1 0.3 0.1 0.6c0.3 1.7 2.1 3.1 3.8 2.7 1.8-0.4 3-2 2.7-3.8z"/>
			</g>
			<g id="&lt;Group&gt;">
				<path id="&lt;Path&gt;" class="s2" d="m242.7 157.4c4.4-0.7 3.2-7.6-1.2-6.8-4.4 0.7-3.2 7.6 1.2 6.8z"/>
			</g>
			<g id="&lt;Group&gt;">
				<path id="&lt;Path&gt;" class="s2" d="m255 176.3c3.6-0.6 2.6-6.3-1-5.6-3.6 0.6-2.6 6.2 1 5.6z"/>
			</g>
			<g id="&lt;Group&gt;">
				<path id="&lt;Path&gt;" class="s2" d="m277.8 167.1c5-0.8 3.6-8.5-1.3-7.7-5 0.9-3.7 8.6 1.3 7.7z"/>
			</g>
			<g id="&lt;Group&gt;">
				<path id="&lt;Path&gt;" class="s2" d="m262.4 158.8c3.4-0.6 2.5-5.8-0.9-5.3-3.3 0.6-2.4 5.9 0.9 5.3z"/>
			</g>
			<g id="&lt;Group&gt;">
				<path id="&lt;Path&gt;" class="s2" d="m246.8 217.8c3.3-0.5 2.5-5.7-0.8-5.1-3.4 0.6-2.5 5.7 0.8 5.1z"/>
			</g>
			<g id="&lt;Group&gt;">
				<path id="&lt;Path&gt;" class="s2" d="m258.3 227.5c3.9-0.7 2.8-6.8-1.1-6.1-3.9 0.7-2.9 6.8 1.1 6.1z"/>
			</g>
			<g id="&lt;Group&gt;">
				<path id="&lt;Path&gt;" class="s2" d="m166 205.4c4.2-0.7 3.1-7.4-1.2-6.6-4.3 0.7-3.1 7.4 1.2 6.6z"/>
			</g>
			<g id="&lt;Group&gt;">
				<path id="&lt;Path&gt;" class="s2" d="m185.3 204.6c4.9-0.8 3.6-8.4-1.3-7.6-4.9 0.9-3.6 8.5 1.3 7.6z"/>
			</g>
			<g id="&lt;Group&gt;">
				<path id="&lt;Path&gt;" class="s2" d="m191.1 185.7c4.2-0.7 3.1-7.3-1.1-6.6-4.2 0.8-3.1 7.3 1.1 6.6z"/>
			</g>
			<g id="&lt;Group&gt;">
				<path id="&lt;Path&gt;" class="s2" d="m260.6 216.8c4.1-0.7 3-7.1-1.1-6.4-4.1 0.7-3 7.1 1.1 6.4z"/>
			</g>
			<g id="&lt;Group&gt;">
				<path id="&lt;Path&gt;" class="s2" d="m205.7 213.6c3-0.6 2.2-5.2-0.8-4.7-3 0.5-2.2 5.2 0.8 4.7z"/>
			</g>
			<g id="&lt;Group&gt;">
				<path id="&lt;Path&gt;" class="s2" d="m150 221.7c4.6-0.8 3.4-8-1.3-7.2-4.6 0.8-3.4 8 1.3 7.2z"/>
			</g>
		</g>
		<g id="&lt;Group&gt;">
			<g id="&lt;Group&gt;">
				<path id="&lt;Path&gt;" class="s12" d="m106.3 262.7c10.1 5.4 22.4 8.6 33.7 9.9 4.7 0.6 5.4-6.6 0.8-7.3-11.3-1.5-22-4.1-33-6.5-2.1-0.5-3.4 2.9-1.5 3.9z"/>
			</g>
			<g id="&lt;Group&gt;">
				<path id="&lt;Path&gt;" class="s12" d="m153.4 273.6c1 0 2-0.1 3.1-0.2 1.6-0.3 3-2.1 2.6-3.7-0.2-0.9-0.6-1.7-1.3-2.1-0.8-0.5-1.5-0.6-2.4-0.6 1.3 0 0.4 0 0.1 0q-0.5 0-0.9 0-0.7 0-1.5-0.1c-2-0.1-3.7 1.4-3.6 3.5q0 1.4 1 2.3c0.9 0.8 1.8 1 2.9 0.9z"/>
			</g>
			<g id="&lt;Group&gt;">
				<path id="&lt;Path&gt;" class="s12" d="m256.2 284.2q0.9-0.5 1.9-1c2-1 2.9-3.6 1.6-5.6-1.3-2-4-2.5-5.9-0.9q-0.8 0.6-1.5 1.3c-1.5 1.1-1.7 3.3-0.8 4.8 1 1.5 3.1 2.3 4.7 1.4z"/>
			</g>
		</g>
	</g>
</svg>