<svg version="1.2" xmlns="http://www.w3.org/2000/svg" viewBox="0 0 384 384" width="384" height="384">
	<title>새 프로젝트</title>
	<style>
		.s0 { fill: #bbe7fb } 
		.s1 { fill: #cdf0ff } 
		.s2 { fill: #fff6e9 } 
		.s3 { mix-blend-mode: multiply;fill: #fff6e9 } 
		.s4 { fill: #9ad07d } 
		.s5 { opacity: .3;mix-blend-mode: multiply;fill: #9ad07d } 
		.s6 { opacity: .1;mix-blend-mode: screen;fill: #9ad07d } 
		.s7 { fill: #85bc67 } 
		.s8 { fill: #bae3a4 } 
		.s9 { fill: #66bc6c } 
		.s10 { fill: #5ba85f } 
		.s11 { fill: #6cc672 } 
		.s12 { fill: #e9f8ff } 
		.s13 { fill: #ffffff } 
	</style>
	<g id="&lt;Group&gt;">
		<path id="&lt;Path&gt;" class="s0" d="m77.7 140.4c15.6-15.1 40.1-23.2 66.1-25.6 37.9-3.6 91.8 3.1 125.2 19.9 18.2 9.3 35.3 21.6 42.6 36.6 7.7 15.8 3.9 27.5-7.2 38.3-11 10.8-29.1 18.4-49.4 21.3-23.2 3.4-48.1 2.4-72.1-0.7-35.6-4.6-72.3-15.6-97.9-36.1-17.9-14.3-23-38.4-7.3-53.7z"/>
		<path id="&lt;Path&gt;" class="s1" d="m74 171.6c15.5-15.1 40-23.2 66.1-25.6 37.8-3.6 91.8 3.1 125.1 19.9 18.2 9.3 35.4 21.6 42.6 36.6q0.6 1.1 1.1 2.3c7.5-9.5 9.3-20 2.7-33.5-7.3-15-24.4-27.3-42.6-36.6-33.4-16.8-87.3-23.5-125.2-19.9-26 2.4-50.5 10.5-66.1 25.6-9.9 9.7-11.5 22.8-6.9 34.8q1.4-1.9 3.2-3.6z"/>
		<g id="&lt;Group&gt;">
			<path id="&lt;Path&gt;" class="s2" d="m277.8 247.3c-1.1 3.8-4.3 6.9-10.5 7.9-6.3 1-10.4 0.8-21.6-2.3-9.3-2.5-15.2-6.8-15.5-14.7-0.2-5.4-0.5-10.8 0.5-15.9q4.2-20.6 8.4-41.3h-0.2q0.4-1.6 0.9-3.1 0.3-1.5 0.6-3.1l0.2 0.1q5.5-20.3 11-40.7c1.4-5 4.1-9.7 6.7-14.4 3.8-7 10.9-8.1 20.4-6.2 11.4 2.2 15.2 3.8 20.4 7.6 5.1 3.7 6.5 7.9 5.8 11.7-3.7 18.2-8.6 39.1-13.3 57.3-4 18.4-9 39.2-13.8 57.1z"/>
			<path id="&lt;Path&gt;" class="s3" d="m252.4 230.7c-1.2 6-6.6 22.3-6.7 22.2-9.3-2.5-15.2-6.8-15.5-14.7-0.2-5.4-0.5-10.8 0.5-15.9q4.2-20.6 8.4-41.3h-0.2q0.4-1.6 0.9-3.1 0.3-1.5 0.6-3.1l0.2 0.1q5.5-20.3 11-40.7c1.4-5 4.1-9.7 6.7-14.4 3.8-7 10.9-8.1 20.4-6.2q0.2 0 0.3 0c0.3 2.4-2.2 13.8-3.1 17.6-1.7 7.6-22 90.9-23.5 99.5z"/>
			<path id="&lt;Path&gt;" class="s3" d="m277.8 247.3c-1.1 3.8-4.3 6.9-10.5 7.9-3.4 0.6-6.1 0.8-9.7 0.3-6.7-3.6-3.5-13.1-1.9-19.3 2.6-10 23.4-100.8 23.5-101.3 1.8-6.9 5.6-20.3 8.4-19.3 5.1 1.5 7.9 3 11.5 5.6 5.1 3.7 6.5 7.9 5.8 11.7-3.7 18.2-8.6 39.1-13.3 57.3-4 18.4-9 39.2-13.8 57.1z"/>
			<path id="&lt;Path&gt;" class="s4" d="m259.8 191.3c-4.3 18.7-8.7 37.2-13.4 55.8-1.6 5.5-8.3 8.5-13.8 8.2-6.1-0.4-13-2.9-14.6-9.4-1.1-4.3-0.3-8.9 0.2-13.2 0.6-6.1 1.8-11.9 3.1-17.9q3.9-17.7 7.8-35.5-0.1-0.2 0-0.5 0.8-3.2 1.5-6.5 0.1-0.2 0.2-0.4 3.7-14.4 7.4-28.9c2.3-8.9 4.4-17.7 7.8-26.3 2.1-5.3 4.4-11.5 10.6-12.8 4.6-0.9 10.8 0.6 14.4 3.5 3.7 3 6.6 6.8 5.7 11.7-1.6 8.2-3.7 16.4-5.6 24.6-3.7 15.9-7.6 31.7-11.3 47.6z"/>
			<path id="&lt;Path&gt;" class="s5" d="m227 228.3c-1.1 2.6-3.6 9.6-7.2 9.5-0.9 0-1.6-0.5-2.1-1.2 0.2-1.3 0.3-2.7 0.5-3.9 0.6-6.1 1.8-11.9 3.1-17.9q3.9-17.7 7.8-35.5-0.1-0.2 0-0.5 0.8-3.2 1.5-6.5 0.1-0.2 0.2-0.4 3.7-14.4 7.4-28.9c1.3-5 2.6-10.1 4-15.1 1.4-2.4 3.1-4.7 5.1-6.6 5.6 0 6.4 6 6.2 9.4-0.3 5.3-2.1 14.5-3.4 19.5-1.9 7.6-4 15.4-6 22.9-1.9 7-4.5 13.5-6.2 20.5-1.9 7.8-9 30-10.9 34.7z"/>
			<path id="&lt;Path&gt;" class="s4" d="m300.9 195.8q-0.1 0.3-0.3 0.5-4.5 17.6-9 35.2c-1.5 5.9-2.9 11.7-5.1 17.3-1.6 4.1-2.9 8.6-5.8 11.9-4.4 5.1-11.6 4.3-17.2 1.9-5.2-2.2-9.8-7.9-8.7-13.5 7.2-32.8 15.1-65.3 22.9-97.9q2.9-12.1 5.9-24.1c0.7-2.9 1.1-6.5 2.8-9.1 1.3-2 3.7-2.8 5.8-3.7 4.9-2.1 9.9-1.5 14.8 0.6 4.7 1.9 6.8 6.1 7 11 0.4 10-2.3 20.3-4.4 30q-3.6 16.5-7.2 32.9 0.1 0.3 0 0.5-0.8 3.3-1.5 6.5z"/>
			<path id="&lt;Path&gt;" class="s6" d="m300.9 150.6c1.1-3.8 2.3-7.5 3.8-11.1 1.2-2.8 2.9-5.9 5.7-7.2 1.4-0.7 2.6-0.7 3.5-0.3-0.6 8-2.6 16.1-4.3 23.9q-3.6 16.5-7.2 32.9 0.1 0.3 0 0.5-0.8 3.3-1.5 6.5-0.1 0.3-0.3 0.5-4.5 17.6-9 35.2c-1.5 5.9-2.9 11.7-5.1 17.3-1.2 3-2.2 6.3-3.8 9.1-3.9-0.3-4.6-3.8-4.3-7.1 0.4-5.3 2.5-10.5 4.3-15.5 4.7-13.1 7.4-27.1 9.9-40.8 2.8-14.6 4.4-29.6 8.3-43.9z"/>
			<g id="&lt;Group&gt;">
				<path id="&lt;Path&gt;" class="s7" d="m259.1 250.8c1.6 0.4 1 2.8-0.6 2.4-1.5-0.3-1-2.8 0.6-2.4z"/>
			</g>
			<g id="&lt;Group&gt;">
				<path id="&lt;Path&gt;" class="s7" d="m264.6 243.6c1.5 0.3 0.9 2.6-0.5 2.2-1.4-0.3-0.9-2.6 0.5-2.2z"/>
			</g>
			<g id="&lt;Group&gt;">
				<path id="&lt;Path&gt;" class="s7" d="m265.7 252c1.2 0.3 0.8 2.1-0.4 1.8-1.2-0.3-0.8-2.1 0.4-1.8z"/>
			</g>
			<g id="&lt;Group&gt;">
				<path id="&lt;Path&gt;" class="s7" d="m265.3 232c2.3 0.6 1.4 4.1-0.9 3.6-2.2-0.6-1.4-4.1 0.9-3.6z"/>
			</g>
			<g id="&lt;Group&gt;">
				<path id="&lt;Path&gt;" class="s7" d="m272 237.1c1.8 0.5 1.1 3.2-0.7 2.8-1.7-0.4-1.1-3.2 0.7-2.8z"/>
			</g>
			<g id="&lt;Group&gt;">
				<path id="&lt;Path&gt;" class="s7" d="m272.9 223.1c1.9 0.5 1.2 3.5-0.7 3-1.9-0.5-1.2-3.4 0.7-3z"/>
			</g>
			<g id="&lt;Group&gt;">
				<path id="&lt;Path&gt;" class="s7" d="m268.7 213.2c2.3 0.6 1.4 4.1-0.8 3.5-2.3-0.5-1.5-4 0.8-3.5z"/>
			</g>
			<g id="&lt;Group&gt;">
				<path id="&lt;Path&gt;" class="s7" d="m277.3 212c1.6 0.4 1 2.9-0.6 2.5-1.6-0.4-1-2.9 0.6-2.5z"/>
			</g>
			<g id="&lt;Group&gt;">
				<path id="&lt;Path&gt;" class="s7" d="m272.7 203.6c1.8 0.4 1.1 3.1-0.6 2.7-1.8-0.4-1.2-3.2 0.6-2.7z"/>
			</g>
			<g id="&lt;Group&gt;">
				<path id="&lt;Path&gt;" class="s7" d="m278.4 201.3c1.6 0.4 1 2.8-0.6 2.4-1.5-0.3-0.9-2.8 0.6-2.4z"/>
			</g>
			<g id="&lt;Group&gt;">
				<path id="&lt;Path&gt;" class="s7" d="m276 196.5q0 0.1-0.1 0.1c-1.8 0.6-2.4-2.4-0.5-2.6q0.1 0 0.2 0c2.4-0.2 1.4 3.8-0.6 2.6q-0.1 0-0.1-0.1c-1.7-1 0.2-3.5 1.5-2.1q0.1 0.1 0.1 0.1c0.7 0.7 0.4 1.8-0.5 2z"/>
			</g>
			<g id="&lt;Group&gt;">
				<path id="&lt;Path&gt;" class="s7" d="m280.8 191.4c2 0.5 1.3 3.8-0.8 3.3-2.1-0.5-1.3-3.8 0.8-3.3z"/>
			</g>
			<g id="&lt;Group&gt;">
				<path id="&lt;Path&gt;" class="s7" d="m276.4 185.2q-0.2 0 0.1 0c-1.1 0.4-2.2-0.7-1.9-1.8 0.2-1.1 1.7-1.5 2.5-0.7q-0.3-0.2-0.1-0.1c1.2 0.6 0.8 2.6-0.6 2.6z"/>
			</g>
			<g id="&lt;Group&gt;">
				<path id="&lt;Path&gt;" class="s7" d="m284.2 174.2q-0.1 0-0.2 0c-2.1 0.2-2.2-3.1-0.1-3.3q0.1 0 0.2 0c2.9-0.2 1.7 4.7-0.7 3.2q-0.1 0-0.2-0.1c-1.8-1.1-0.3-4 1.6-2.9q0.1 0.1 0.1 0.1c1.4 0.8 0.9 2.9-0.7 3z"/>
			</g>
			<g id="&lt;Group&gt;">
				<path id="&lt;Path&gt;" class="s7" d="m281.3 179c1.4 0.3 0.9 2.6-0.5 2.2-1.5-0.3-1-2.5 0.5-2.2z"/>
			</g>
			<g id="&lt;Group&gt;">
				<path id="&lt;Path&gt;" class="s7" d="m281.2 161.2q-0.1 0.2-0.1 0.4c0 0.4-0.1 0.8-0.6 1q-0.4 0.3-0.9 0.2c-0.3-0.1-0.6-0.3-0.7-0.6-0.3-0.4-0.2-0.8-0.1-1.2q0.1-0.1 0.1-0.3c0.2-0.4 0.9-0.7 1.3-0.6 0.5 0.2 1 0.6 1 1.1z"/>
			</g>
			<g id="&lt;Group&gt;">
				<path id="&lt;Path&gt;" class="s7" d="m286.7 160.5q-0.2 0-0.3-0.1c-0.8-0.1-1.3-1-1.1-1.6 0.2-0.7 1-1.3 1.7-1.1q0.2 0.1 0.3 0.1c0.7 0.3 1.3 0.9 1.1 1.7-0.3 0.7-0.9 1.1-1.7 1z"/>
			</g>
			<g id="&lt;Group&gt;">
				<path id="&lt;Path&gt;" class="s7" d="m284.5 150.9c2.2 0.5 1.4 3.9-0.8 3.4-2.2-0.5-1.4-3.9 0.8-3.4z"/>
			</g>
			<g id="&lt;Group&gt;">
				<path id="&lt;Path&gt;" class="s7" d="m290 142.2c2.3 0.5 1.4 4-0.8 3.5-2.3-0.5-1.5-4.1 0.8-3.5z"/>
			</g>
			<g id="&lt;Group&gt;">
				<path id="&lt;Path&gt;" class="s7" d="m288.3 132c1.6 0.3 1 2.9-0.6 2.5-1.6-0.4-1-2.9 0.6-2.5z"/>
			</g>
			<g id="&lt;Group&gt;">
				<path id="&lt;Path&gt;" class="s7" d="m293.6 128.4q0.2 0 0.3 0.1c0.9 0.2 1.5 1.1 1.3 1.9-0.3 0.9-1.1 1.5-2 1.3q-0.2-0.1-0.3-0.1c-0.9-0.2-1.5-1.1-1.3-2 0.3-0.9 1.1-1.4 2-1.2z"/>
			</g>
			<g id="&lt;Group&gt;">
				<path id="&lt;Path&gt;" class="s7" d="m289 121.8c1.6 0.4 1 2.9-0.6 2.5-1.7-0.4-1.1-2.9 0.6-2.5z"/>
			</g>
			<g id="&lt;Group&gt;">
				<path id="&lt;Path&gt;" class="s7" d="m294.4 116.2q0.2 0 0.3 0c1-0.1 1.7 0.9 1.5 1.7-0.2 0.9-1.3 1.5-2.1 1q-0.1-0.1-0.3-0.2c-1.1-0.7-0.7-2.4 0.6-2.5z"/>
			</g>
			<g id="&lt;Group&gt;">
				<path id="&lt;Path&gt;" class="s7" d="m296.3 121.5c2 0.4 1.3 3.6-0.8 3.1-2-0.5-1.2-3.6 0.8-3.1z"/>
			</g>
			<g id="&lt;Group&gt;">
				<path id="&lt;Path&gt;" class="s7" d="m237.7 245.2c1.9 0.4 1.2 3.2-0.6 2.8-1.9-0.4-1.2-3.3 0.6-2.8z"/>
			</g>
			<g id="&lt;Group&gt;">
				<path id="&lt;Path&gt;" class="s7" d="m243.2 241.1c2.1 0.5 1.3 3.7-0.8 3.2-2.1-0.5-1.3-3.7 0.8-3.2z"/>
			</g>
			<g id="&lt;Group&gt;">
				<path id="&lt;Path&gt;" class="s7" d="m237.9 234.4c2 0.5 1.2 3.6-0.8 3.1-1.9-0.5-1.2-3.6 0.8-3.1z"/>
			</g>
			<g id="&lt;Group&gt;">
				<path id="&lt;Path&gt;" class="s7" d="m244.7 227.5c1.9 0.4 1.2 3.4-0.7 2.9-1.9-0.4-1.2-3.4 0.7-2.9z"/>
			</g>
			<g id="&lt;Group&gt;">
				<path id="&lt;Path&gt;" class="s7" d="m236.4 225.3q0.1-0.1 0.1-0.3c0.3-0.7 1-1.3 1.8-1.1 0.8 0.3 1.2 1 1.1 1.8q-0.1 0.2-0.1 0.3c-0.1 0.8-1.1 1.3-1.8 1.1-0.7-0.2-1.4-1-1.1-1.8z"/>
			</g>
			<g id="&lt;Group&gt;">
				<path id="&lt;Path&gt;" class="s7" d="m245.6 214.8c1.6 0.4 1 2.9-0.6 2.5-1.6-0.3-1-2.8 0.6-2.5z"/>
			</g>
			<g id="&lt;Group&gt;">
				<path id="&lt;Path&gt;" class="s7" d="m244.7 220c1.8 0.4 1.2 3.2-0.6 2.8-1.8-0.5-1.2-3.2 0.6-2.8z"/>
			</g>
			<g id="&lt;Group&gt;">
				<path id="&lt;Path&gt;" class="s7" d="m242.6 205.6c1.6 0.3 1 2.8-0.5 2.4-1.6-0.4-1-2.8 0.5-2.4z"/>
			</g>
			<g id="&lt;Group&gt;">
				<path id="&lt;Path&gt;" class="s7" d="m250.1 204.5c1.7 0.4 1.1 3-0.6 2.6-1.7-0.4-1.1-3 0.6-2.6z"/>
			</g>
			<g id="&lt;Group&gt;">
				<path id="&lt;Path&gt;" class="s7" d="m253.2 194.4c1.8 0.4 1.1 3.3-0.7 2.9-1.8-0.5-1.1-3.3 0.7-2.9z"/>
			</g>
			<g id="&lt;Group&gt;">
				<path id="&lt;Path&gt;" class="s7" d="m245.6 196.5q0 0.2-0.1 0.4c-0.1 0.7-1 1.3-1.8 1.1-0.7-0.2-1.3-1-1.1-1.8q0.1-0.2 0.1-0.4c0.2-0.7 1-1.3 1.8-1.1 0.8 0.3 1.3 1 1.1 1.8z"/>
			</g>
			<g id="&lt;Group&gt;">
				<path id="&lt;Path&gt;" class="s7" d="m249.8 183.8c1.6 0.4 1.1 2.9-0.5 2.5-1.6-0.4-1.1-2.8 0.5-2.5z"/>
			</g>
			<g id="&lt;Group&gt;">
				<path id="&lt;Path&gt;" class="s7" d="m249.7 188.9c1.3 0.3 0.8 2.3-0.5 2-1.3-0.3-0.8-2.4 0.5-2z"/>
			</g>
			<g id="&lt;Group&gt;">
				<path id="&lt;Path&gt;" class="s7" d="m256.8 177.8c1.7 0.4 1.1 3.1-0.7 2.7-1.7-0.4-1.1-3.1 0.7-2.7z"/>
			</g>
			<g id="&lt;Group&gt;">
				<path id="&lt;Path&gt;" class="s7" d="m253 173.7c-0.3 0.1-0.5 0.1-0.7 0.1-0.6 0-1.1-0.2-1.4-0.7-0.2-0.4-0.3-0.8-0.2-1.2 0.1-0.4 0.4-0.7 0.7-1 0.5-0.3 1.1-0.2 1.6 0 0.2 0.1 0.4 0.3 0.5 0.4 0.8 0.7 0.5 2.1-0.5 2.4z"/>
			</g>
			<g id="&lt;Group&gt;">
				<path id="&lt;Path&gt;" class="s7" d="m260.1 168.2c1.8 0.4 1.1 3.2-0.7 2.8-1.8-0.4-1.1-3.3 0.7-2.8z"/>
			</g>
			<g id="&lt;Group&gt;">
				<path id="&lt;Path&gt;" class="s7" d="m257.7 161.2q-0.1 0-0.2 0c-1.7 0.3-2-2-0.9-2.7q0.1-0.1 0.1-0.1c1.2-0.9 2.8 0.4 2.5 1.8-0.3 1.3-2.3 1.7-3 0.4q0 0-0.1-0.1c-0.6-1.2 0.7-3 2-2.1q0.1 0.1 0.2 0.1c1.2 0.9 0.8 2.5-0.6 2.7z"/>
			</g>
			<g id="&lt;Group&gt;">
				<path id="&lt;Path&gt;" class="s7" d="m264.4 150.1c1.5 0.4 1 2.8-0.6 2.4-1.6-0.3-1-2.8 0.6-2.4z"/>
			</g>
			<g id="&lt;Group&gt;">
				<path id="&lt;Path&gt;" class="s7" d="m264.3 141.6c1.8 0.5 1.2 3.3-0.7 2.8-1.8-0.4-1.1-3.2 0.7-2.8z"/>
			</g>
			<g id="&lt;Group&gt;">
				<path id="&lt;Path&gt;" class="s7" d="m259.3 145.2c1.6 0.3 1 2.7-0.5 2.3-1.5-0.3-1-2.7 0.5-2.3z"/>
			</g>
			<g id="&lt;Group&gt;">
				<path id="&lt;Path&gt;" class="s7" d="m263.1 129.4c1.6 0.4 1 2.9-0.6 2.6-1.7-0.4-1.1-3 0.6-2.6z"/>
			</g>
			<g id="&lt;Group&gt;">
				<path id="&lt;Path&gt;" class="s7" d="m269.6 125.1c1.7 0.4 1.1 3-0.6 2.6-1.7-0.4-1.1-3.1 0.6-2.6z"/>
			</g>
			<g id="&lt;Group&gt;">
				<path id="&lt;Path&gt;" class="s7" d="m268.3 133.7c1.7 0.4 1.1 3.1-0.7 2.7-1.7-0.5-1.1-3.1 0.7-2.7z"/>
			</g>
			<g id="&lt;Group&gt;">
				<path id="&lt;Path&gt;" class="s7" d="m265.3 117.2c1.6 0.4 1 2.9-0.6 2.5-1.6-0.4-1-2.9 0.6-2.5z"/>
			</g>
			<g id="&lt;Group&gt;">
				<path id="&lt;Path&gt;" class="s7" d="m273.4 116.2c1.8 0.5 1.2 3.3-0.6 2.8-1.9-0.4-1.2-3.2 0.6-2.8z"/>
			</g>
			<g id="&lt;Group&gt;">
				<path id="&lt;Path&gt;" class="s7" d="m271.1 111.3c1.7 0.4 1.1 3-0.6 2.6-1.7-0.4-1-3 0.6-2.6z"/>
			</g>
			<g id="&lt;Group&gt;">
				<path id="&lt;Path&gt;" class="s7" d="m265.2 223.7c1.5 0.4 0.9 2.7-0.6 2.3-1.4-0.3-0.9-2.6 0.6-2.3z"/>
			</g>
			<g id="&lt;Group&gt;">
				<path id="&lt;Path&gt;" class="s8" d="m268.7 245.3c1.7 0.4 1.1 3.2-0.7 2.7-1.7-0.4-1.1-3.1 0.7-2.7z"/>
			</g>
			<g id="&lt;Group&gt;">
				<path id="&lt;Path&gt;" class="s8" d="m260.3 245.7c1.8 0.4 1.2 3.3-0.6 2.8-1.8-0.4-1.2-3.2 0.6-2.8z"/>
			</g>
			<g id="&lt;Group&gt;">
				<path id="&lt;Path&gt;" class="s8" d="m271.1 230.7c1.8 0.4 1.2 3.3-0.7 2.8-1.8-0.4-1.1-3.2 0.7-2.8z"/>
			</g>
			<g id="&lt;Group&gt;">
				<path id="&lt;Path&gt;" class="s8" d="m271.4 209.2c2 0.5 1.3 3.7-0.8 3.2-2-0.5-1.3-3.6 0.8-3.2z"/>
			</g>
			<g id="&lt;Group&gt;">
				<path id="&lt;Path&gt;" class="s8" d="m281.1 186.9c1.5 0.3 1 2.6-0.5 2.3-1.5-0.4-0.9-2.7 0.5-2.3z"/>
			</g>
			<g id="&lt;Group&gt;">
				<path id="&lt;Path&gt;" class="s8" d="m273.1 190.1c1.5 0.4 1 2.7-0.5 2.3-1.5-0.3-1-2.6 0.5-2.3z"/>
			</g>
			<g id="&lt;Group&gt;">
				<path id="&lt;Path&gt;" class="s8" d="m276.8 170.1c2.2 0.6 1.4 3.9-0.7 3.4-2.2-0.5-1.4-3.9 0.7-3.4z"/>
			</g>
			<g id="&lt;Group&gt;">
				<path id="&lt;Path&gt;" class="s8" d="m286.3 163.8c1.7 0.4 1.1 3.1-0.7 2.7-1.7-0.5-1.1-3.1 0.7-2.7z"/>
			</g>
			<g id="&lt;Group&gt;">
				<path id="&lt;Path&gt;" class="s8" d="m283.9 144.9c1.8 0.4 1.1 3.2-0.7 2.8-1.8-0.4-1.2-3.3 0.7-2.8z"/>
			</g>
			<g id="&lt;Group&gt;">
				<path id="&lt;Path&gt;" class="s8" d="m289.6 151.1c1.4 0.3 0.9 2.5-0.5 2.1-1.4-0.3-0.9-2.5 0.5-2.1z"/>
			</g>
			<g id="&lt;Group&gt;">
				<path id="&lt;Path&gt;" class="s8" d="m290.1 135.8c1.7 0.4 1.1 3-0.6 2.6-1.7-0.4-1-3 0.6-2.6z"/>
			</g>
			<g id="&lt;Group&gt;">
				<path id="&lt;Path&gt;" class="s8" d="m297.9 126.4c1.4 0.4 0.9 2.7-0.6 2.3-1.4-0.3-0.9-2.6 0.6-2.3z"/>
			</g>
			<g id="&lt;Group&gt;">
				<path id="&lt;Path&gt;" class="s8" d="m291.5 120c1.5 0.4 1 2.8-0.6 2.4-1.6-0.3-1-2.7 0.6-2.4z"/>
			</g>
			<g id="&lt;Group&gt;">
				<path id="&lt;Path&gt;" class="s8" d="m235.8 240c1.7 0.4 1.1 3-0.6 2.6-1.6-0.4-1-3 0.6-2.6z"/>
			</g>
			<g id="&lt;Group&gt;">
				<path id="&lt;Path&gt;" class="s8" d="m241.9 246.3c1.3 0.3 0.8 2.2-0.4 1.9-1.3-0.3-0.8-2.2 0.4-1.9z"/>
			</g>
			<g id="&lt;Group&gt;">
				<path id="&lt;Path&gt;" class="s8" d="m246 235.9q0 0.2 0 0.3c-0.2 0.9-1.1 1.5-2 1.2-0.8-0.2-1.4-1.1-1.2-1.9q0.1-0.2 0.1-0.3c0.3-0.8 1.1-1.5 2-1.2 0.8 0.2 1.3 1 1.1 1.9z"/>
			</g>
			<g id="&lt;Group&gt;">
				<path id="&lt;Path&gt;" class="s8" d="m240.3 216.2q0 0.1 0 0.2c0 2.1-3.3 2.2-3.3 0.1q0-0.1 0-0.2c0-2.8 4.4-1.7 3.2 0.8q-0.1 0-0.1 0.1c-0.9 1.9-3.8 0.4-2.9-1.5q0.1-0.1 0.1-0.2c0.7-1.4 3-0.9 3 0.7z"/>
			</g>
			<g id="&lt;Group&gt;">
				<path id="&lt;Path&gt;" class="s8" d="m249.2 215.5q-0.1 0-0.3 0c-0.8-0.2-1.4-1.1-1.2-1.9 0.2-0.8 1.1-1.5 1.9-1.2q0.2 0 0.3 0.1c0.8 0.2 1.5 1 1.2 1.9-0.2 0.8-1 1.3-1.9 1.1z"/>
			</g>
			<g id="&lt;Group&gt;">
				<path id="&lt;Path&gt;" class="s8" d="m247.9 199.3c1.4 0.4 0.9 2.6-0.5 2.3-1.5-0.4-0.9-2.6 0.5-2.3z"/>
			</g>
			<g id="&lt;Group&gt;">
				<path id="&lt;Path&gt;" class="s8" d="m256 187c1.6 0.3 1 2.9-0.6 2.5-1.7-0.4-1.1-2.9 0.6-2.5z"/>
			</g>
			<g id="&lt;Group&gt;">
				<path id="&lt;Path&gt;" class="s8" d="m249.7 177.1c2.2 0.5 1.4 3.9-0.8 3.4-2.2-0.5-1.4-3.9 0.8-3.4z"/>
			</g>
			<g id="&lt;Group&gt;">
				<path id="&lt;Path&gt;" class="s8" d="m253.9 163.6c1.9 0.4 1.2 3.3-0.6 2.8-1.9-0.4-1.2-3.2 0.6-2.8z"/>
			</g>
			<g id="&lt;Group&gt;">
				<path id="&lt;Path&gt;" class="s8" d="m262.4 159.9c1.6 0.4 1 2.9-0.6 2.5-1.6-0.3-1-2.9 0.6-2.5z"/>
			</g>
			<g id="&lt;Group&gt;">
				<path id="&lt;Path&gt;" class="s8" d="m259.9 151.3c1.8 0.4 1.1 3.1-0.6 2.7-1.7-0.4-1.1-3.1 0.6-2.7z"/>
			</g>
			<g id="&lt;Group&gt;">
				<path id="&lt;Path&gt;" class="s8" d="m268.3 139.1c1.9 0.5 1.2 3.3-0.6 2.9-1.9-0.5-1.2-3.3 0.6-2.9z"/>
			</g>
			<g id="&lt;Group&gt;">
				<path id="&lt;Path&gt;" class="s8" d="m260.2 135.9c1.6 0.4 1 3-0.7 2.6-1.7-0.4-1-3 0.7-2.6z"/>
			</g>
			<g id="&lt;Group&gt;">
				<path id="&lt;Path&gt;" class="s8" d="m266.3 124q0 0.1 0 0.2c0.1 1.3-1.9 1.4-2 0.1q0-0.1 0-0.2c-0.1-1.8 2.9-1.1 2 0.5q-0.1 0.1-0.1 0.2c-0.7 1-2.4 0.1-1.7-1q0-0.1 0.1-0.2c0.4-0.8 1.6-0.5 1.7 0.4z"/>
			</g>
			<g id="&lt;Group&gt;">
				<path id="&lt;Path&gt;" class="s8" d="m267.8 118.8q0-0.2 0.1-0.3c0.1-0.6 0.8-1.1 1.4-0.9 0.6 0.2 1.1 0.8 0.9 1.4q0 0.2-0.1 0.3c-0.2 0.6-0.8 1.1-1.4 0.9-0.6-0.2-1-0.8-0.9-1.4z"/>
			</g>
			<g id="&lt;Group&gt;">
				<path id="&lt;Path&gt;" class="s8" d="m269 129.3c1.8 0.4 1.1 3.3-0.7 2.8-1.9-0.4-1.2-3.3 0.7-2.8z"/>
			</g>
			<g id="&lt;Group&gt;">
				<path id="&lt;Path&gt;" class="s8" d="m247.9 222.4c1.5 0.4 1 2.6-0.5 2.3-1.5-0.4-0.9-2.6 0.5-2.3z"/>
			</g>
			<path id="&lt;Path&gt;" class="s5" d="m259.8 191.3c-4.3 18.7-8.7 37.2-13.4 55.8-1.6 5.5-8.3 8.5-13.8 8.2q-0.6-0.1-1.3-0.2c0.4-3.8 3.8-6.9 4.6-10.6 1.4-6.2 2.1-12.5 3.3-18.7 1.2-6 3-11.9 4.7-17.8 1.5-5.7 3.8-11.1 5.5-16.7 3.3-10.9 5.2-22.1 6.7-33.3 0.8-5.5 1.5-11 2.9-16.4 1.4-5.4 3.9-10.4 5.7-15.7 1.4-4.4 2-8.8 2.9-13.3 0.4-2.4-1.6-5.4-0.5-7.5 1.5 0.6 2.8 1.4 3.9 2.3 3.7 3 6.6 6.8 5.7 11.7-1.6 8.2-3.7 16.4-5.6 24.6-3.7 15.9-7.6 31.7-11.3 47.6z"/>
			<path id="&lt;Path&gt;" class="s5" d="m294.7 121.1c-1.9 5.3-2.1 11.1-3.2 16.6-1.3 6.1-3.8 11.9-5.8 17.8-2.1 6.4-2.8 12.7-3.5 19.4-0.7 6.6-1.6 13.2-3.1 19.7-1.5 6.4-3.9 12.5-5.9 18.8-1.6 5.2-2.6 10.4-2.9 15.9-0.3 7-3.9 12.9-5.6 19.6-1 3.5-0.7 6.6-0.3 10.1q0.2 2 0.4 4.1-0.7-0.3-1.3-0.5c-5.2-2.2-9.8-7.9-8.7-13.5 7.2-32.8 15.1-65.3 22.9-97.9q2.9-12.1 5.9-24.1c0.7-2.9 1.1-6.5 2.8-9.1 1.3-2 3.7-2.8 5.8-3.7 2.5-1.1 5.1-1.4 7.7-1.3-2.3 2.3-4.1 5-5.2 8.1z"/>
		</g>
		<g id="&lt;Group&gt;">
			<path id="&lt;Path&gt;" class="s9" d="m174.2 87.5c-7.9 6.3-12.2 12.7-15.8 21.9-1.8 5.3-3.7 13.4-1.3 18.7 0.4 0.9 1 0.6 1.9 0.4 17.6-4.5 33.6-20.7 29.5-39.6-1.8-8.4-9.4-5.2-14.3-1.4z"/>
			<g id="&lt;Group&gt;">
				<path id="&lt;Path&gt;" class="s10" d="m180.6 91.1c-4.3 12.7-18.9 30.7-23.1 34.9-0.7 0.7-1.8 3.4-1.2 3.9 0.6 0.5 2.8-1.1 3.4-1.8 6.2-6.8 19.2-22.7 22.9-36.4 0.3-1.3-1.6-1.9-2-0.6z"/>
			</g>
			<path id="&lt;Path&gt;" class="s9" d="m139 82.8c8.9 7.4 13.6 18.3 17.4 29 2 6 2 15.6 0.8 17.6-0.6 1-0.4 1.2-1.5 0.9-19.9-5.6-38.4-24.9-33.1-46.4 2.3-9.6 10.9-5.7 16.4-1.1z"/>
			<g id="&lt;Group&gt;">
				<path id="&lt;Path&gt;" class="s10" d="m130.8 88.5c4.5 14.7 15.5 27.9 26.1 38.7 0.9 0.9 1.2 2.8 0.3 3.1-1.1 0.4-1.5 0-2.1-0.7-10.9-11.6-22.9-24.7-26.6-40.5-0.4-1.5 1.8-2 2.3-0.6z"/>
			</g>
			<path id="&lt;Path&gt;" class="s11" d="m156.1 127.8c-3-7.7-5.6-13.9-5.4-22.3 0-3.8 0.8-7.9 3.6-10.8 2.3-2.4 5.8-3.9 8.3-0.9q0.1 0.1 0.2 0.3 0 0 0.1 0.1c6.3 10.2-0.7 25.3-4.5 32.5-0.6 1.3-1.7 2.6-2.3 1.1z"/>
			<g id="&lt;Group&gt;">
				<path id="&lt;Path&gt;" class="s10" d="m159.2 99.2c1.1 4.1 0.6 8.6 0.4 12.8-0.2 5-1 11.9-1.3 16.8-0.1 0.8-0.8 1.3-1.4 1.2-0.5-0.1-0.9-0.7-0.8-1.3 0.4-4.9 1.3-11.8 1.6-16.8 0.3-4.2 0.2-8.7 1.2-12.8 0-0.1 0.3-0.1 0.3 0.1z"/>
			</g>
		</g>
		<g id="&lt;Group&gt;">
			<path id="&lt;Path&gt;" class="s2" d="m204.9 133.2c-0.9-3.9-4-7-10.2-8.2-6.3-1.3-10.3-1.1-21.7 1.6-9.4 2.2-15.3 6.3-15.9 14.2-0.4 5.4-0.8 10.7 0 15.9q3.6 20.8 7.1 41.5l-0.2 0.1q0.3 1.5 0.7 3 0.3 1.6 0.5 3.2l0.2-0.1q4.9 20.5 9.8 41c1.2 5.1 3.7 9.8 6.1 14.6 3.7 7.1 10.7 8.5 20.2 6.9 11.6-1.9 15.3-3.4 20.7-7 5.2-3.5 6.8-7.6 6.1-11.5-3.1-18.3-7.2-39.3-11.4-57.7-3.3-18.5-7.7-39.4-12-57.5z"/>
			<path id="&lt;Path&gt;" class="s3" d="m179 149c-0.9-6-5.8-22.5-6-22.4-9.4 2.2-15.3 6.3-15.9 14.2-0.4 5.4-0.8 10.7 0 15.9q3.6 20.8 7.1 41.5l-0.2 0.1q0.3 1.5 0.7 3 0.3 1.6 0.5 3.2l0.2-0.1q4.9 20.5 9.8 41c1.2 5.1 3.7 9.8 6.1 14.6 3.7 7.1 10.7 8.5 20.2 6.9q0.2 0 0.4 0c0.4-2.4-1.8-13.9-2.5-17.7-1.5-7.6-19.1-91.6-20.4-100.2z"/>
			<path id="&lt;Path&gt;" class="s3" d="m204.9 133.2c-0.9-3.9-4-7-10.2-8.2-3.3-0.7-6.1-1-9.6-0.7-6.9 3.4-4 13-2.6 19.3 2.3 10.1 20.2 101.5 20.3 102 1.6 7 4.9 20.5 7.8 19.5 5-1.3 8-2.7 11.6-5.2 5.2-3.5 6.8-7.6 6.1-11.5-3.1-18.3-7.2-39.3-11.4-57.7-3.3-18.5-7.7-39.4-12-57.5z"/>
			<path id="&lt;Path&gt;" class="s4" d="m185.2 188.6c-3.7-18.8-7.6-37.5-11.7-56.2-1.4-5.6-7.9-8.7-13.5-8.6-6.1 0.2-13 2.5-14.9 8.9-1.2 4.2-0.5 8.9-0.2 13.2 0.4 6.1 1.5 12 2.6 18q3.3 17.8 6.6 35.7-0.1 0.2 0 0.5 0.7 3.3 1.3 6.6 0 0.2 0.2 0.4 3.2 14.5 6.4 29.1c2 8.9 3.9 17.9 7 26.5 1.9 5.4 4 11.7 10.2 13.2 4.5 1 10.8-0.3 14.5-3.1 3.8-2.9 6.8-6.6 6-11.5-1.2-8.3-3.1-16.5-4.7-24.7-3.2-16-6.7-32-9.8-48z"/>
			<path id="&lt;Path&gt;" class="s5" d="m153.5 150.6c-0.9-2.6-3.2-9.8-6.8-9.7-0.9 0-1.6 0.4-2.1 1.1 0.1 1.3 0.2 2.7 0.3 3.9 0.4 6.1 1.5 12 2.6 18q3.3 17.8 6.6 35.7-0.1 0.2 0 0.5 0.7 3.3 1.3 6.6 0 0.2 0.2 0.4 3.2 14.5 6.4 29.1c1.2 5.1 2.3 10.1 3.6 15.2 1.3 2.4 2.9 4.8 4.9 6.8 5.5 0.1 2.2-7.2 2.1-10.6-0.2-5.3-1.2-10.5-2.3-15.6-1.7-7.6-4.2-15-6-22.6-1.7-7-3.4-14.1-4.9-21.2-1.6-7.5-2.1-15-2.7-22.6-0.4-5.2-1.4-10.1-3.2-15z"/>
			<path id="&lt;Path&gt;" class="s4" d="m226.4 185.4q-0.1-0.3-0.3-0.5-3.9-17.7-7.8-35.4c-1.3-6-2.6-11.8-4.6-17.5-1.4-4.1-2.6-8.7-5.4-12.1-4.3-5.2-11.5-4.6-17.2-2.4-5.2 2-10 7.5-9.1 13.2 6.2 32.9 13 65.8 19.8 98.6q2.5 12.1 5.1 24.2c0.6 3 0.9 6.6 2.5 9.2 1.2 2.1 3.6 3 5.7 3.9 4.8 2.3 9.9 1.8 14.8-0.1 4.7-1.8 7-5.9 7.3-10.7 0.8-10.1-1.6-20.4-3.4-30.2q-3.1-16.6-6.1-33.2 0.1-0.2 0-0.4-0.7-3.3-1.3-6.6z"/>
			<path id="&lt;Path&gt;" class="s6" d="m225 230.7c0.9 3.7 2 7.5 3.4 11.1 1.1 2.9 2.7 6 5.5 7.4 1.4 0.8 2.5 0.8 3.4 0.4-0.3-8-2-16.2-3.5-24q-3.1-16.6-6.1-33.2 0.1-0.2 0-0.4-0.7-3.3-1.3-6.6-0.1-0.3-0.3-0.5-3.9-17.7-7.8-35.4c-1.3-6-2.6-11.8-4.6-17.5-1.1-3-2-6.3-3.5-9.2-3.9 0.2-4.7 3.7-4.5 6.9 0.2 5.3 2.1 10.6 3.8 15.6 4.3 13.3 6.5 27.4 8.6 41.1 2.2 14.7 3.5 29.8 6.9 44.3z"/>
			<g id="&lt;Group&gt;">
				<path id="&lt;Path&gt;" class="s7" d="m186.4 129.1c1.6-0.3 1.1-2.8-0.5-2.4-1.6 0.3-1.1 2.8 0.5 2.4z"/>
			</g>
			<g id="&lt;Group&gt;">
				<path id="&lt;Path&gt;" class="s7" d="m191.7 136.5c1.4-0.3 1-2.5-0.5-2.2-1.4 0.2-1 2.5 0.5 2.2z"/>
			</g>
			<g id="&lt;Group&gt;">
				<path id="&lt;Path&gt;" class="s7" d="m193 128.2c1.3-0.3 0.9-2.2-0.3-1.9-1.2 0.2-0.9 2.1 0.3 1.9z"/>
			</g>
			<g id="&lt;Group&gt;">
				<path id="&lt;Path&gt;" class="s7" d="m192 148.1c2.3-0.5 1.5-4.1-0.8-3.6-2.3 0.5-1.5 4 0.8 3.6z"/>
			</g>
			<g id="&lt;Group&gt;">
				<path id="&lt;Path&gt;" class="s7" d="m198.8 143.2c1.8-0.4 1.3-3.2-0.5-2.8-1.8 0.4-1.3 3.2 0.5 2.8z"/>
			</g>
			<g id="&lt;Group&gt;">
				<path id="&lt;Path&gt;" class="s7" d="m199.3 157.2c1.9-0.4 1.3-3.4-0.6-3-2 0.4-1.3 3.4 0.6 3z"/>
			</g>
			<g id="&lt;Group&gt;">
				<path id="&lt;Path&gt;" class="s7" d="m194.8 167c2.3-0.5 1.5-4-0.7-3.6-2.3 0.5-1.6 4 0.7 3.6z"/>
			</g>
			<g id="&lt;Group&gt;">
				<path id="&lt;Path&gt;" class="s7" d="m203.3 168.5c1.6-0.4 1.1-2.9-0.5-2.5-1.6 0.3-1.1 2.8 0.5 2.5z"/>
			</g>
			<g id="&lt;Group&gt;">
				<path id="&lt;Path&gt;" class="s7" d="m198.5 176.8c1.8-0.4 1.2-3.2-0.6-2.8-1.8 0.4-1.2 3.1 0.6 2.8z"/>
			</g>
			<g id="&lt;Group&gt;">
				<path id="&lt;Path&gt;" class="s7" d="m204.1 179.2c1.6-0.3 1.1-2.7-0.5-2.4-1.6 0.3-1.1 2.7 0.5 2.4z"/>
			</g>
			<g id="&lt;Group&gt;">
				<path id="&lt;Path&gt;" class="s7" d="m201.6 183.9q-0.1 0-0.2-0.1c-1.7-0.6-2.5 2.4-0.5 2.6q0.1 0 0.2 0c2.3 0.3 1.5-3.7-0.5-2.6q-0.1 0-0.2 0.1c-1.7 0.9 0.1 3.5 1.5 2.2q0-0.1 0.1-0.2c0.7-0.6 0.4-1.7-0.4-2z"/>
			</g>
			<g id="&lt;Group&gt;">
				<path id="&lt;Path&gt;" class="s7" d="m206.1 189.1c2.1-0.4 1.5-3.6-0.6-3.2-2.1 0.4-1.5 3.7 0.6 3.2z"/>
			</g>
			<g id="&lt;Group&gt;">
				<path id="&lt;Path&gt;" class="s7" d="m201.6 195.2q-0.3 0 0 0.1c-1-0.4-2.1 0.6-1.9 1.7 0.2 1 1.6 1.6 2.4 0.8q-0.2 0.1 0 0c1.2-0.5 0.8-2.5-0.5-2.6z"/>
			</g>
			<g id="&lt;Group&gt;">
				<path id="&lt;Path&gt;" class="s7" d="m209.1 206.5q-0.1 0-0.2 0c-2.2-0.3-2.4 3-0.3 3.3q0.1 0 0.2 0c2.9 0.3 1.9-4.7-0.6-3.3q-0.1 0.1-0.2 0.1c-1.9 1.1-0.4 4 1.5 3q0.1-0.1 0.2-0.1c1.3-0.8 0.9-2.8-0.6-3z"/>
			</g>
			<g id="&lt;Group&gt;">
				<path id="&lt;Path&gt;" class="s7" d="m206.3 201.6c1.4-0.3 0.9-2.6-0.5-2.3-1.4 0.3-1 2.6 0.5 2.3z"/>
			</g>
			<g id="&lt;Group&gt;">
				<path id="&lt;Path&gt;" class="s7" d="m205.6 219.3q-0.1-0.1-0.1-0.3c0-0.4-0.1-0.8-0.5-1.1q-0.4-0.3-0.9-0.2c-0.3 0.1-0.6 0.3-0.8 0.6-0.3 0.4-0.2 0.8-0.1 1.2q0.1 0.1 0.1 0.3c0.2 0.5 0.9 0.7 1.3 0.6 0.5-0.1 1-0.5 1-1.1z"/>
			</g>
			<g id="&lt;Group&gt;">
				<path id="&lt;Path&gt;" class="s7" d="m211.1 220.3q-0.2 0-0.4 0c-0.7 0.1-1.2 1-1 1.7 0.1 0.6 0.9 1.3 1.6 1q0.2 0 0.3-0.1c0.7-0.2 1.3-0.8 1.1-1.6-0.2-0.7-0.9-1.1-1.6-1z"/>
			</g>
			<g id="&lt;Group&gt;">
				<path id="&lt;Path&gt;" class="s7" d="m208.6 229.8c2.2-0.5 1.5-3.9-0.7-3.5-2.3 0.5-1.6 3.9 0.7 3.5z"/>
			</g>
			<g id="&lt;Group&gt;">
				<path id="&lt;Path&gt;" class="s7" d="m213.8 238.7c2.3-0.5 1.6-4-0.7-3.6-2.3 0.5-1.6 4 0.7 3.6z"/>
			</g>
			<g id="&lt;Group&gt;">
				<path id="&lt;Path&gt;" class="s7" d="m211.8 248.8c1.6-0.3 1.1-2.8-0.6-2.5-1.6 0.3-1.1 2.9 0.6 2.5z"/>
			</g>
			<g id="&lt;Group&gt;">
				<path id="&lt;Path&gt;" class="s7" d="m217 252.6q0.1-0.1 0.3-0.1c0.8-0.2 1.5-1.1 1.3-1.9-0.2-0.9-1.1-1.5-2-1.3q-0.1 0-0.3 0c-0.8 0.2-1.5 1.1-1.3 2 0.2 0.9 1.1 1.5 2 1.3z"/>
			</g>
			<g id="&lt;Group&gt;">
				<path id="&lt;Path&gt;" class="s7" d="m212.1 259c1.7-0.3 1.2-2.9-0.5-2.5-1.7 0.3-1.1 2.9 0.5 2.5z"/>
			</g>
			<g id="&lt;Group&gt;">
				<path id="&lt;Path&gt;" class="s7" d="m217.4 264.8q0.1 0 0.3 0c0.9 0.1 1.7-0.8 1.5-1.7-0.2-0.9-1.2-1.5-2.1-1q-0.1 0.1-0.2 0.2c-1.2 0.6-0.8 2.3 0.5 2.5z"/>
			</g>
			<g id="&lt;Group&gt;">
				<path id="&lt;Path&gt;" class="s7" d="m219.4 259.6c2.1-0.4 1.4-3.6-0.6-3.2-2.1 0.4-1.4 3.6 0.6 3.2z"/>
			</g>
			<g id="&lt;Group&gt;">
				<path id="&lt;Path&gt;" class="s7" d="m164.8 134.1c1.9-0.4 1.3-3.3-0.5-2.9-1.9 0.4-1.3 3.2 0.5 2.9z"/>
			</g>
			<g id="&lt;Group&gt;">
				<path id="&lt;Path&gt;" class="s7" d="m170.2 138.3c2.1-0.4 1.4-3.7-0.7-3.3-2.1 0.5-1.5 3.8 0.7 3.3z"/>
			</g>
			<g id="&lt;Group&gt;">
				<path id="&lt;Path&gt;" class="s7" d="m164.6 144.8c2-0.4 1.4-3.5-0.6-3.1-2 0.4-1.4 3.5 0.6 3.1z"/>
			</g>
			<g id="&lt;Group&gt;">
				<path id="&lt;Path&gt;" class="s7" d="m171.2 152c1.9-0.4 1.3-3.4-0.6-3-1.9 0.4-1.3 3.4 0.6 3z"/>
			</g>
			<g id="&lt;Group&gt;">
				<path id="&lt;Path&gt;" class="s7" d="m162.9 153.8q0 0.2 0.1 0.4c0.2 0.7 0.9 1.3 1.7 1.1 0.8-0.2 1.2-0.9 1.1-1.7q0-0.2 0-0.4c-0.1-0.7-1-1.3-1.7-1.1-0.8 0.2-1.5 0.9-1.2 1.7z"/>
			</g>
			<g id="&lt;Group&gt;">
				<path id="&lt;Path&gt;" class="s7" d="m171.7 164.6c1.7-0.3 1.1-2.8-0.5-2.5-1.6 0.3-1.1 2.9 0.5 2.5z"/>
			</g>
			<g id="&lt;Group&gt;">
				<path id="&lt;Path&gt;" class="s7" d="m171 159.5c1.8-0.4 1.3-3.2-0.5-2.8-1.9 0.3-1.3 3.1 0.5 2.8z"/>
			</g>
			<g id="&lt;Group&gt;">
				<path id="&lt;Path&gt;" class="s7" d="m168.5 173.8c1.5-0.3 1-2.8-0.5-2.4-1.6 0.3-1.1 2.7 0.5 2.4z"/>
			</g>
			<g id="&lt;Group&gt;">
				<path id="&lt;Path&gt;" class="s7" d="m175.9 175.1c1.7-0.3 1.2-3-0.5-2.6-1.7 0.3-1.2 3 0.5 2.6z"/>
			</g>
			<g id="&lt;Group&gt;">
				<path id="&lt;Path&gt;" class="s7" d="m178.7 185.3c1.8-0.4 1.2-3.3-0.6-2.9-1.9 0.4-1.3 3.3 0.6 2.9z"/>
			</g>
			<g id="&lt;Group&gt;">
				<path id="&lt;Path&gt;" class="s7" d="m171.2 182.9q-0.1-0.1-0.1-0.3c-0.1-0.8-1-1.4-1.8-1.2-0.7 0.2-1.4 1-1.1 1.8q0 0.2 0 0.3c0.2 0.8 1 1.4 1.8 1.2 0.8-0.2 1.3-0.9 1.2-1.8z"/>
			</g>
			<g id="&lt;Group&gt;">
				<path id="&lt;Path&gt;" class="s7" d="m175 195.8c1.6-0.4 1.1-2.9-0.5-2.5-1.6 0.3-1.1 2.8 0.5 2.5z"/>
			</g>
			<g id="&lt;Group&gt;">
				<path id="&lt;Path&gt;" class="s7" d="m175 190.7c1.3-0.2 0.9-2.3-0.4-2-1.3 0.3-0.9 2.3 0.4 2z"/>
			</g>
			<g id="&lt;Group&gt;">
				<path id="&lt;Path&gt;" class="s7" d="m181.7 202c1.8-0.3 1.2-3-0.5-2.7-1.8 0.4-1.2 3.1 0.5 2.7z"/>
			</g>
			<g id="&lt;Group&gt;">
				<path id="&lt;Path&gt;" class="s7" d="m177.8 206c-0.2-0.1-0.4-0.2-0.7-0.2-0.5 0-1.1 0.2-1.4 0.7-0.2 0.4-0.3 0.8-0.2 1.2 0.1 0.4 0.3 0.8 0.6 1 0.5 0.3 1.1 0.3 1.6 0.1 0.2-0.1 0.4-0.3 0.6-0.4 0.8-0.7 0.5-2.1-0.5-2.4z"/>
			</g>
			<g id="&lt;Group&gt;">
				<path id="&lt;Path&gt;" class="s7" d="m184.7 211.7c1.8-0.3 1.3-3.2-0.5-2.8-1.9 0.4-1.3 3.2 0.5 2.8z"/>
			</g>
			<g id="&lt;Group&gt;">
				<path id="&lt;Path&gt;" class="s7" d="m182.1 218.6q-0.1 0-0.2 0c-1.6-0.3-2 1.9-1 2.7q0.1 0.1 0.2 0.1c1.1 0.9 2.8-0.3 2.5-1.7-0.3-1.3-2.3-1.8-3-0.6q0 0.1-0.1 0.2c-0.6 1.1 0.6 3 1.9 2.1q0.1 0 0.2-0.1c1.2-0.8 0.9-2.4-0.5-2.7z"/>
			</g>
			<g id="&lt;Group&gt;">
				<path id="&lt;Path&gt;" class="s7" d="m188.4 229.9c1.6-0.3 1.1-2.7-0.5-2.4-1.5 0.3-1 2.7 0.5 2.4z"/>
			</g>
			<g id="&lt;Group&gt;">
				<path id="&lt;Path&gt;" class="s7" d="m188.1 238.4c1.8-0.4 1.2-3.2-0.6-2.8-1.8 0.3-1.2 3.2 0.6 2.8z"/>
			</g>
			<g id="&lt;Group&gt;">
				<path id="&lt;Path&gt;" class="s7" d="m183.2 234.7c1.6-0.3 1.1-2.7-0.4-2.4-1.6 0.3-1.1 2.7 0.4 2.4z"/>
			</g>
			<g id="&lt;Group&gt;">
				<path id="&lt;Path&gt;" class="s7" d="m186.5 250.6c1.6-0.4 1.1-2.9-0.6-2.6-1.6 0.3-1.1 2.9 0.6 2.6z"/>
			</g>
			<g id="&lt;Group&gt;">
				<path id="&lt;Path&gt;" class="s7" d="m192.9 255.1c1.7-0.3 1.1-3-0.6-2.6-1.7 0.3-1.2 3 0.6 2.6z"/>
			</g>
			<g id="&lt;Group&gt;">
				<path id="&lt;Path&gt;" class="s7" d="m191.8 246.5c1.7-0.4 1.2-3.1-0.6-2.7-1.7 0.3-1.2 3 0.6 2.7z"/>
			</g>
			<g id="&lt;Group&gt;">
				<path id="&lt;Path&gt;" class="s7" d="m188.3 262.8c1.6-0.3 1.1-2.8-0.5-2.5-1.7 0.3-1.2 2.9 0.5 2.5z"/>
			</g>
			<g id="&lt;Group&gt;">
				<path id="&lt;Path&gt;" class="s7" d="m196.4 264.1c1.8-0.4 1.2-3.2-0.6-2.9-1.8 0.4-1.2 3.2 0.6 2.9z"/>
			</g>
			<g id="&lt;Group&gt;">
				<path id="&lt;Path&gt;" class="s7" d="m194 268.9c1.7-0.3 1.1-3-0.6-2.6-1.7 0.3-1.2 3 0.6 2.6z"/>
			</g>
			<g id="&lt;Group&gt;">
				<path id="&lt;Path&gt;" class="s7" d="m191.6 156.4c1.5-0.3 1-2.6-0.5-2.3-1.5 0.3-1 2.6 0.5 2.3z"/>
			</g>
			<g id="&lt;Group&gt;">
				<path id="&lt;Path&gt;" class="s8" d="m195.8 134.9c1.7-0.4 1.2-3.1-0.6-2.7-1.7 0.3-1.2 3.1 0.6 2.7z"/>
			</g>
			<g id="&lt;Group&gt;">
				<path id="&lt;Path&gt;" class="s8" d="m187.4 134.2c1.9-0.3 1.3-3.2-0.5-2.8-1.9 0.4-1.3 3.2 0.5 2.8z"/>
			</g>
			<g id="&lt;Group&gt;">
				<path id="&lt;Path&gt;" class="s8" d="m197.7 149.6c1.9-0.4 1.3-3.2-0.5-2.9-1.9 0.4-1.3 3.3 0.5 2.9z"/>
			</g>
			<g id="&lt;Group&gt;">
				<path id="&lt;Path&gt;" class="s8" d="m197.3 171.1c2.1-0.5 1.4-3.6-0.6-3.2-2.1 0.4-1.4 3.6 0.6 3.2z"/>
			</g>
			<g id="&lt;Group&gt;">
				<path id="&lt;Path&gt;" class="s8" d="m206.4 193.7c1.5-0.3 1-2.6-0.5-2.3-1.5 0.3-1 2.6 0.5 2.3z"/>
			</g>
			<g id="&lt;Group&gt;">
				<path id="&lt;Path&gt;" class="s8" d="m198.5 190.2c1.5-0.3 1-2.6-0.5-2.3-1.5 0.3-1 2.6 0.5 2.3z"/>
			</g>
			<g id="&lt;Group&gt;">
				<path id="&lt;Path&gt;" class="s8" d="m201.5 210.3c2.2-0.4 1.5-3.8-0.6-3.4-2.2 0.5-1.5 3.8 0.6 3.4z"/>
			</g>
			<g id="&lt;Group&gt;">
				<path id="&lt;Path&gt;" class="s8" d="m210.8 217c1.7-0.4 1.2-3.1-0.6-2.7-1.7 0.3-1.2 3 0.6 2.7z"/>
			</g>
			<g id="&lt;Group&gt;">
				<path id="&lt;Path&gt;" class="s8" d="m207.7 235.8c1.9-0.4 1.3-3.2-0.5-2.8-1.9 0.3-1.3 3.2 0.5 2.8z"/>
			</g>
			<g id="&lt;Group&gt;">
				<path id="&lt;Path&gt;" class="s8" d="m213.7 229.8c1.4-0.3 1-2.5-0.4-2.2-1.5 0.3-1 2.5 0.4 2.2z"/>
			</g>
			<g id="&lt;Group&gt;">
				<path id="&lt;Path&gt;" class="s8" d="m213.7 245.1c1.7-0.4 1.2-3-0.5-2.7-1.7 0.4-1.2 3 0.5 2.7z"/>
			</g>
			<g id="&lt;Group&gt;">
				<path id="&lt;Path&gt;" class="s8" d="m221.2 254.7c1.4-0.3 1-2.6-0.5-2.3-1.5 0.3-1 2.6 0.5 2.3z"/>
			</g>
			<g id="&lt;Group&gt;">
				<path id="&lt;Path&gt;" class="s8" d="m214.5 260.9c1.6-0.4 1.1-2.8-0.4-2.5-1.6 0.3-1.1 2.8 0.4 2.5z"/>
			</g>
			<g id="&lt;Group&gt;">
				<path id="&lt;Path&gt;" class="s8" d="m162.8 139.1c1.7-0.3 1.1-2.9-0.5-2.6-1.7 0.4-1.2 3 0.5 2.6z"/>
			</g>
			<g id="&lt;Group&gt;">
				<path id="&lt;Path&gt;" class="s8" d="m169.1 133.1c1.2-0.3 0.9-2.2-0.4-2-1.3 0.3-0.9 2.2 0.4 2z"/>
			</g>
			<g id="&lt;Group&gt;">
				<path id="&lt;Path&gt;" class="s8" d="m172.9 143.6q-0.1-0.2-0.1-0.3c-0.1-0.9-1.1-1.5-1.9-1.3-0.8 0.2-1.5 1-1.3 1.9q0.1 0.2 0.1 0.3c0.2 0.9 1 1.5 1.9 1.3 0.9-0.2 1.4-1 1.3-1.9z"/>
			</g>
			<g id="&lt;Group&gt;">
				<path id="&lt;Path&gt;" class="s8" d="m166.5 163.1q0-0.1 0-0.2c0.1-2.1-3.2-2.3-3.3-0.2q0 0.1 0 0.2c-0.1 2.8 4.4 1.9 3.2-0.7q0-0.1-0.1-0.1c-0.9-2-3.8-0.5-2.9 1.4q0 0.1 0.1 0.2c0.6 1.4 2.9 1 3-0.6z"/>
			</g>
			<g id="&lt;Group&gt;">
				<path id="&lt;Path&gt;" class="s8" d="m175.4 164.1q-0.2 0-0.4 0c-0.8 0.1-1.4 1.1-1.2 1.9 0.2 0.8 1 1.4 1.9 1.2q0.1 0 0.3-0.1c0.8-0.2 1.4-1 1.2-1.8-0.2-0.9-1-1.4-1.8-1.2z"/>
			</g>
			<g id="&lt;Group&gt;">
				<path id="&lt;Path&gt;" class="s8" d="m173.5 180.2c1.5-0.3 1-2.5-0.4-2.3-1.5 0.3-1 2.6 0.4 2.3z"/>
			</g>
			<g id="&lt;Group&gt;">
				<path id="&lt;Path&gt;" class="s8" d="m181.2 192.8c1.7-0.3 1.2-2.9-0.5-2.6-1.7 0.4-1.1 3 0.5 2.6z"/>
			</g>
			<g id="&lt;Group&gt;">
				<path id="&lt;Path&gt;" class="s8" d="m174.6 202.5c2.3-0.5 1.6-3.9-0.7-3.5-2.2 0.5-1.5 3.9 0.7 3.5z"/>
			</g>
			<g id="&lt;Group&gt;">
				<path id="&lt;Path&gt;" class="s8" d="m178.4 216.1c1.9-0.4 1.3-3.2-0.5-2.9-1.9 0.4-1.3 3.3 0.5 2.9z"/>
			</g>
			<g id="&lt;Group&gt;">
				<path id="&lt;Path&gt;" class="s8" d="m186.8 220.1c1.6-0.4 1.1-2.9-0.6-2.6-1.6 0.3-1.1 2.9 0.6 2.6z"/>
			</g>
			<g id="&lt;Group&gt;">
				<path id="&lt;Path&gt;" class="s8" d="m184 228.6c1.8-0.4 1.2-3.1-0.5-2.7-1.8 0.3-1.2 3 0.5 2.7z"/>
			</g>
			<g id="&lt;Group&gt;">
				<path id="&lt;Path&gt;" class="s8" d="m192 241c1.9-0.3 1.3-3.2-0.5-2.8-1.9 0.4-1.3 3.2 0.5 2.8z"/>
			</g>
			<g id="&lt;Group&gt;">
				<path id="&lt;Path&gt;" class="s8" d="m183.8 244c1.7-0.4 1.1-3-0.6-2.7-1.7 0.4-1.1 3 0.6 2.7z"/>
			</g>
			<g id="&lt;Group&gt;">
				<path id="&lt;Path&gt;" class="s8" d="m189.5 256q0-0.1 0-0.2c0.2-1.2-1.8-1.4-1.9-0.1q0 0.1-0.1 0.2c-0.1 1.8 2.9 1.2 2-0.4q0-0.1-0.1-0.2c-0.6-1.1-2.4-0.2-1.7 0.9q0 0.1 0.1 0.2c0.4 0.8 1.6 0.6 1.7-0.4z"/>
			</g>
			<g id="&lt;Group&gt;">
				<path id="&lt;Path&gt;" class="s8" d="m190.9 261.3q0 0.2 0 0.4c0.1 0.6 0.8 1 1.4 0.9 0.6-0.2 1.1-0.8 1-1.4q-0.1-0.2-0.1-0.3c-0.2-0.6-0.8-1.1-1.4-1-0.7 0.2-1 0.8-0.9 1.4z"/>
			</g>
			<g id="&lt;Group&gt;">
				<path id="&lt;Path&gt;" class="s8" d="m192.3 250.9c1.9-0.4 1.3-3.3-0.5-2.9-1.9 0.4-1.3 3.3 0.5 2.9z"/>
			</g>
			<g id="&lt;Group&gt;">
				<path id="&lt;Path&gt;" class="s8" d="m174.3 157.1c1.5-0.3 1-2.5-0.4-2.2-1.5 0.3-1.1 2.5 0.4 2.2z"/>
			</g>
			<path id="&lt;Path&gt;" class="s5" d="m185.2 188.6c-3.7-18.8-7.6-37.5-11.7-56.2-1.4-5.6-7.9-8.7-13.5-8.6q-0.6 0-1.2 0.1c0.2 3.8 3.5 7.1 4.2 10.8 1.2 6.2 1.7 12.5 2.7 18.7 1 6.1 2.6 12 4.1 18 1.4 5.7 3.5 11.2 5 16.9 2.9 11 4.5 22.2 5.6 33.5 0.6 5.5 1.2 11 2.4 16.5 1.2 5.4 3.6 10.5 5.2 15.8 1.3 4.4 1.7 8.9 2.4 13.4 0.4 2.4-1.7 5.4-0.7 7.5 1.5-0.6 2.9-1.3 4-2.2 3.8-2.9 6.8-6.6 6-11.5-1.2-8.3-3.1-16.5-4.7-24.7-3.2-16-6.7-32-9.8-48z"/>
			<path id="&lt;Path&gt;" class="s5" d="m217.8 259.9c-1.8-5.4-1.8-11.2-2.7-16.7-1-6.2-3.3-12-5.2-17.9-1.9-6.5-2.4-12.9-2.9-19.6-0.5-6.6-1.1-13.3-2.4-19.8-1.3-6.5-3.5-12.6-5.3-18.9-1.5-5.3-2.3-10.5-2.4-16-0.1-7.1-3.5-13-5-19.8-0.8-3.5-0.4-6.6 0-10.1q0.3-2 0.6-4.1-0.7 0.2-1.4 0.5c-5.2 2-10 7.5-9.1 13.2 6.2 32.9 13 65.8 19.8 98.6q2.5 12.1 5.1 24.2c0.6 3 0.9 6.6 2.5 9.2 1.2 2.1 3.6 3 5.7 3.9 2.5 1.2 5 1.6 7.6 1.5-2.2-2.3-3.8-5-4.9-8.2z"/>
		</g>
		<g id="&lt;Group&gt;">
			<path id="&lt;Path&gt;" class="s2" d="m134.9 128.7c-0.7-3.9-3.6-7.3-9.7-8.8-6.2-1.6-10.3-1.7-21.8 0.4-9.5 1.8-15.6 5.5-16.6 13.4-0.7 5.3-1.5 10.6-0.9 15.8q2.4 21 4.8 41.9h-0.2q0.3 1.6 0.5 3.1 0.2 1.6 0.4 3.2l0.2-0.1q3.7 20.8 7.5 41.5c0.9 5.1 3.2 10 5.3 14.9 3.3 7.3 10.3 9.1 19.8 8 11.6-1.3 15.5-2.5 21-5.8 5.4-3.2 7.3-7.3 6.8-11.2-2.1-18.5-5.1-39.6-8.3-58.2-2.3-18.7-5.5-39.9-8.8-58.1z"/>
			<path id="&lt;Path&gt;" class="s3" d="m108.2 143.1c-0.6-6.1-4.6-22.8-4.8-22.8-9.5 1.8-15.6 5.5-16.6 13.4-0.7 5.3-1.5 10.6-0.9 15.8q2.4 21 4.8 41.9h-0.2q0.3 1.6 0.5 3.1 0.2 1.6 0.4 3.2l0.2-0.1q3.7 20.8 7.5 41.5c0.9 5.1 3.2 10 5.3 14.9 3.3 7.3 10.3 9.1 19.8 8q0.2 0 0.4 0c0.5-2.4-1-14-1.6-17.8-1-7.7-14-92.5-14.8-101.1z"/>
			<path id="&lt;Path&gt;" class="s3" d="m134.9 128.7c-0.7-3.9-3.6-7.3-9.7-8.8-3.3-0.8-6.1-1.3-9.6-1.1-7.1 3-4.7 12.7-3.6 19.1 1.7 10.1 14.6 102.4 14.6 102.9 1.2 7 3.9 20.8 6.7 19.9 5.2-1 8.2-2.3 11.9-4.5 5.4-3.2 7.3-7.3 6.8-11.2-2.1-18.5-5.1-39.6-8.3-58.2-2.3-18.7-5.5-39.9-8.8-58.1z"/>
			<path id="&lt;Path&gt;" class="s4" d="m112.2 182.9c-2.7-18.9-5.5-37.8-8.6-56.7-1.1-5.7-7.5-9.2-13-9.3-6.1-0.2-13.1 1.7-15.4 8-1.4 4.2-1 8.9-0.9 13.2 0 6.1 0.8 12 1.6 18.1q2.3 18 4.6 36-0.1 0.2 0 0.5 0.5 3.3 0.9 6.6 0.1 0.3 0.2 0.5 2.5 14.7 4.9 29.3c1.5 9.1 2.8 18.1 5.5 27 1.6 5.4 3.4 11.8 9.4 13.6 4.5 1.4 10.9 0.4 14.7-2.2 4-2.7 7.1-6.2 6.6-11.2-0.8-8.3-2.2-16.6-3.4-24.9-2.3-16.2-4.9-32.3-7.1-48.5z"/>
			<path id="&lt;Path&gt;" class="s6" d="m82.7 143.3c-0.9-2.7-2.7-10-6.3-10.1-1-0.1-1.7 0.3-2.2 1 0 1.3 0 2.6 0.1 3.9 0 6.1 0.8 12 1.6 18.1q2.3 18 4.6 36-0.1 0.2 0 0.5 0.5 3.3 0.9 6.6 0.1 0.3 0.2 0.5 2.5 14.7 4.9 29.3c0.8 5.2 1.6 10.3 2.7 15.4 1.2 2.6 2.6 5 4.5 7.1 5.5 0.4 2.6-7 2.7-10.5 0.1-5.2-0.6-10.5-1.5-15.7-1.2-7.7-3.3-15.2-4.7-22.9-1.3-7.1-2.6-14.2-3.7-21.4-1.2-7.6-1.3-15-1.5-22.7-0.1-5.2-0.8-10.2-2.3-15.1z"/>
			<path id="&lt;Path&gt;" class="s4" d="m153.5 182q-0.1-0.3-0.2-0.5-3-17.9-5.9-35.8c-1-6-2-11.9-3.7-17.8-1.2-4.1-2.1-8.8-4.7-12.3-4-5.4-11.2-5.3-17-3.3-5.3 1.7-10.4 6.9-9.8 12.7 4.3 33.2 9.4 66.3 14.3 99.4q1.9 12.3 3.8 24.6c0.5 2.9 0.5 6.6 2 9.2 1.1 2.2 3.4 3.2 5.5 4.3 4.7 2.5 9.8 2.3 14.8 0.6 4.8-1.5 7.3-5.5 7.9-10.3 1.3-10-0.5-20.4-1.8-30.3q-2.1-16.7-4.3-33.4 0.1-0.3 0.1-0.5-0.6-3.3-1-6.6z"/>
			<path id="&lt;Path&gt;" class="s6" d="m149.6 227.1c0.7 3.8 1.6 7.6 2.8 11.3 1 2.9 2.4 6.1 5.1 7.7 1.3 0.8 2.5 1 3.4 0.6 0.2-8.1-1.2-16.3-2.2-24.2q-2.1-16.7-4.3-33.4 0.1-0.3 0.1-0.5-0.6-3.3-1-6.6-0.1-0.3-0.2-0.5-3-17.9-5.9-35.8c-1-6-2-11.9-3.7-17.8-0.8-3-1.6-6.4-2.9-9.3-4 0-4.9 3.4-5 6.6 0 5.4 1.6 10.7 3 15.8 3.6 13.5 5 27.7 6.4 41.6 1.4 14.8 1.8 29.8 4.4 44.5z"/>
			<g id="&lt;Group&gt;">
				<path id="&lt;Path&gt;" class="s7" d="m116.6 123.6c1.6-0.2 1.3-2.7-0.3-2.5-1.6 0.3-1.3 2.7 0.3 2.5z"/>
			</g>
			<g id="&lt;Group&gt;">
				<path id="&lt;Path&gt;" class="s7" d="m121.5 131.3c1.5-0.3 1.1-2.5-0.3-2.3-1.5 0.2-1.2 2.5 0.3 2.3z"/>
			</g>
			<g id="&lt;Group&gt;">
				<path id="&lt;Path&gt;" class="s7" d="m123.3 123c1.2-0.2 1-2.1-0.2-1.9-1.3 0.2-1 2.1 0.2 1.9z"/>
			</g>
			<g id="&lt;Group&gt;">
				<path id="&lt;Path&gt;" class="s7" d="m121.2 142.8c2.3-0.3 1.8-3.9-0.6-3.6-2.3 0.4-1.8 4 0.6 3.6z"/>
			</g>
			<g id="&lt;Group&gt;">
				<path id="&lt;Path&gt;" class="s7" d="m128.3 138.3c1.8-0.2 1.4-3.1-0.4-2.8-1.8 0.3-1.4 3.1 0.4 2.8z"/>
			</g>
			<g id="&lt;Group&gt;">
				<path id="&lt;Path&gt;" class="s7" d="m128 152.4c1.9-0.3 1.5-3.4-0.5-3.1-1.9 0.3-1.5 3.4 0.5 3.1z"/>
			</g>
			<g id="&lt;Group&gt;">
				<path id="&lt;Path&gt;" class="s7" d="m122.9 161.9c2.3-0.4 1.8-4-0.5-3.6-2.3 0.3-1.8 3.9 0.5 3.6z"/>
			</g>
			<g id="&lt;Group&gt;">
				<path id="&lt;Path&gt;" class="s7" d="m131.4 163.8c1.6-0.2 1.2-2.8-0.4-2.5-1.6 0.2-1.3 2.7 0.4 2.5z"/>
			</g>
			<g id="&lt;Group&gt;">
				<path id="&lt;Path&gt;" class="s7" d="m126.1 171.8c1.8-0.2 1.4-3-0.4-2.8-1.8 0.3-1.4 3.1 0.4 2.8z"/>
			</g>
			<g id="&lt;Group&gt;">
				<path id="&lt;Path&gt;" class="s7" d="m131.6 174.6c1.6-0.3 1.2-2.7-0.4-2.5-1.6 0.3-1.2 2.7 0.4 2.5z"/>
			</g>
			<g id="&lt;Group&gt;">
				<path id="&lt;Path&gt;" class="s7" d="m128.8 179.1q-0.1 0-0.2-0.1c-1.7-0.7-2.6 2.3-0.6 2.6q0.1 0 0.2 0c2.3 0.4 1.7-3.7-0.4-2.6q-0.1 0-0.2 0.1c-1.7 0.8-0.1 3.4 1.4 2.2q0-0.1 0.1-0.1c0.7-0.6 0.5-1.7-0.3-2.1z"/>
			</g>
			<g id="&lt;Group&gt;">
				<path id="&lt;Path&gt;" class="s7" d="m133.1 184.6c2.1-0.3 1.6-3.6-0.5-3.3-2.1 0.3-1.7 3.6 0.5 3.3z"/>
			</g>
			<g id="&lt;Group&gt;">
				<path id="&lt;Path&gt;" class="s7" d="m128.2 190.4q-0.3 0 0 0.1c-1-0.5-2.2 0.5-2 1.6 0.2 1.1 1.5 1.6 2.4 0.9q-0.2 0.2 0 0.1c1.2-0.5 0.9-2.6-0.4-2.7z"/>
			</g>
			<g id="&lt;Group&gt;">
				<path id="&lt;Path&gt;" class="s7" d="m135 202.1q-0.1 0-0.2 0c-2.1-0.4-2.5 2.9-0.4 3.2q0.1 0 0.2 0.1c2.9 0.4 2.2-4.6-0.4-3.3q-0.1 0-0.2 0.1c-1.9 0.9-0.6 3.9 1.3 3q0.1 0 0.2-0.1c1.4-0.7 1.1-2.8-0.5-3z"/>
			</g>
			<g id="&lt;Group&gt;">
				<path id="&lt;Path&gt;" class="s7" d="m132.5 197c1.5-0.2 1.1-2.4-0.3-2.2-1.5 0.2-1.1 2.5 0.3 2.2z"/>
			</g>
			<g id="&lt;Group&gt;">
				<path id="&lt;Path&gt;" class="s7" d="m130.8 214.7q0-0.1 0-0.3c0-0.4-0.1-0.9-0.4-1.1q-0.5-0.3-1-0.3c-0.3 0.1-0.6 0.3-0.8 0.5-0.2 0.4-0.2 0.8-0.1 1.2q0 0.2 0.1 0.4c0.1 0.4 0.8 0.7 1.2 0.7 0.5-0.1 1-0.5 1-1.1z"/>
			</g>
			<g id="&lt;Group&gt;">
				<path id="&lt;Path&gt;" class="s7" d="m136.3 216q-0.2 0-0.3 0c-0.8 0-1.3 0.9-1.2 1.6 0.1 0.6 0.8 1.3 1.6 1.1q0.1 0 0.3 0c0.7-0.2 1.3-0.8 1.2-1.6-0.2-0.8-0.8-1.2-1.6-1.1z"/>
			</g>
			<g id="&lt;Group&gt;">
				<path id="&lt;Path&gt;" class="s7" d="m133.3 225.3c2.2-0.3 1.7-3.8-0.5-3.5-2.3 0.4-1.8 3.8 0.5 3.5z"/>
			</g>
			<g id="&lt;Group&gt;">
				<path id="&lt;Path&gt;" class="s7" d="m138 234.5c2.3-0.3 1.8-3.9-0.5-3.6-2.3 0.4-1.8 3.9 0.5 3.6z"/>
			</g>
			<g id="&lt;Group&gt;">
				<path id="&lt;Path&gt;" class="s7" d="m135.4 244.5c1.7-0.2 1.3-2.8-0.4-2.6-1.6 0.3-1.2 2.9 0.4 2.6z"/>
			</g>
			<g id="&lt;Group&gt;">
				<path id="&lt;Path&gt;" class="s7" d="m140.4 248.5q0.2 0 0.4 0c0.8-0.1 1.5-1 1.3-1.9-0.1-0.9-0.9-1.5-1.8-1.4q-0.2 0.1-0.4 0.1c-0.8 0.1-1.5 1-1.4 1.9 0.2 0.8 1 1.5 1.9 1.3z"/>
			</g>
			<g id="&lt;Group&gt;">
				<path id="&lt;Path&gt;" class="s7" d="m135.2 254.7c1.7-0.2 1.3-2.8-0.4-2.6-1.6 0.3-1.3 2.9 0.4 2.6z"/>
			</g>
			<g id="&lt;Group&gt;">
				<path id="&lt;Path&gt;" class="s7" d="m140.2 260.7q0.1 0.1 0.3 0.1c0.9 0.2 1.7-0.8 1.6-1.6-0.2-0.9-1.2-1.6-2-1.1q-0.2 0-0.3 0.1c-1.2 0.6-0.9 2.3 0.4 2.5z"/>
			</g>
			<g id="&lt;Group&gt;">
				<path id="&lt;Path&gt;" class="s7" d="m142.5 255.7c2-0.3 1.6-3.5-0.5-3.2-2 0.3-1.6 3.5 0.5 3.2z"/>
			</g>
			<g id="&lt;Group&gt;">
				<path id="&lt;Path&gt;" class="s7" d="m94.8 127.4c1.9-0.3 1.5-3.2-0.4-2.9-1.8 0.2-1.4 3.1 0.4 2.9z"/>
			</g>
			<g id="&lt;Group&gt;">
				<path id="&lt;Path&gt;" class="s7" d="m99.9 131.9c2.2-0.3 1.7-3.6-0.5-3.3-2.1 0.3-1.6 3.6 0.5 3.3z"/>
			</g>
			<g id="&lt;Group&gt;">
				<path id="&lt;Path&gt;" class="s7" d="m94 138.1c2.1-0.3 1.6-3.4-0.4-3.1-2 0.3-1.6 3.4 0.4 3.1z"/>
			</g>
			<g id="&lt;Group&gt;">
				<path id="&lt;Path&gt;" class="s7" d="m100.2 145.6c1.9-0.3 1.5-3.3-0.4-3-1.9 0.3-1.5 3.3 0.4 3z"/>
			</g>
			<g id="&lt;Group&gt;">
				<path id="&lt;Path&gt;" class="s7" d="m91.8 147q0.1 0.2 0.1 0.3c0.2 0.8 0.8 1.4 1.7 1.2 0.8-0.1 1.2-0.8 1.2-1.6q0-0.2 0-0.3c-0.1-0.8-1-1.4-1.7-1.3-0.8 0.1-1.5 0.9-1.3 1.7z"/>
			</g>
			<g id="&lt;Group&gt;">
				<path id="&lt;Path&gt;" class="s7" d="m100.1 158.3c1.6-0.3 1.2-2.8-0.4-2.6-1.7 0.2-1.3 2.8 0.4 2.6z"/>
			</g>
			<g id="&lt;Group&gt;">
				<path id="&lt;Path&gt;" class="s7" d="m99.6 153c1.9-0.2 1.4-3.1-0.4-2.8-1.8 0.3-1.4 3.1 0.4 2.8z"/>
			</g>
			<g id="&lt;Group&gt;">
				<path id="&lt;Path&gt;" class="s7" d="m96.3 167.2c1.6-0.2 1.2-2.7-0.4-2.4-1.5 0.2-1.2 2.7 0.4 2.4z"/>
			</g>
			<g id="&lt;Group&gt;">
				<path id="&lt;Path&gt;" class="s7" d="m103.7 169c1.7-0.3 1.3-3-0.4-2.7-1.7 0.2-1.4 2.9 0.4 2.7z"/>
			</g>
			<g id="&lt;Group&gt;">
				<path id="&lt;Path&gt;" class="s7" d="m105.9 179.3c1.8-0.3 1.4-3.2-0.5-2.9-1.8 0.2-1.4 3.1 0.5 2.9z"/>
			</g>
			<g id="&lt;Group&gt;">
				<path id="&lt;Path&gt;" class="s7" d="m98.5 176.5q0-0.2 0-0.3c-0.1-0.8-1-1.5-1.8-1.3-0.7 0.1-1.4 0.9-1.2 1.7q0 0.2 0 0.3c0.2 0.8 0.9 1.4 1.7 1.3 0.9-0.2 1.4-0.9 1.3-1.7z"/>
			</g>
			<g id="&lt;Group&gt;">
				<path id="&lt;Path&gt;" class="s7" d="m101.6 189.5c1.6-0.2 1.3-2.7-0.4-2.5-1.6 0.2-1.2 2.8 0.4 2.5z"/>
			</g>
			<g id="&lt;Group&gt;">
				<path id="&lt;Path&gt;" class="s7" d="m101.9 184.5c1.3-0.2 1-2.3-0.3-2.1-1.3 0.2-1 2.3 0.3 2.1z"/>
			</g>
			<g id="&lt;Group&gt;">
				<path id="&lt;Path&gt;" class="s7" d="m108 196.1c1.8-0.2 1.4-3-0.4-2.7-1.8 0.3-1.4 3 0.4 2.7z"/>
			</g>
			<g id="&lt;Group&gt;">
				<path id="&lt;Path&gt;" class="s7" d="m103.8 199.9c-0.2-0.1-0.4-0.2-0.6-0.2-0.6 0-1.1 0.1-1.5 0.6-0.2 0.3-0.3 0.7-0.3 1.2 0.1 0.4 0.3 0.7 0.7 1 0.4 0.3 1 0.3 1.5 0.2 0.2-0.1 0.4-0.3 0.6-0.4 0.8-0.7 0.6-2-0.4-2.4z"/>
			</g>
			<g id="&lt;Group&gt;">
				<path id="&lt;Path&gt;" class="s7" d="m110.5 206c1.8-0.3 1.4-3.1-0.5-2.9-1.8 0.3-1.4 3.2 0.5 2.9z"/>
			</g>
			<g id="&lt;Group&gt;">
				<path id="&lt;Path&gt;" class="s7" d="m107.4 212.8q-0.1-0.1-0.2-0.1c-1.5-0.4-2 1.8-1 2.7q0 0 0.1 0.1c1.1 0.9 2.8-0.2 2.6-1.6-0.2-1.3-2.2-2-3-0.7q0 0 0 0.1c-0.8 1.1 0.3 3.1 1.8 2.2q0 0 0.1-0.1c1.3-0.7 1-2.3-0.4-2.6z"/>
			</g>
			<g id="&lt;Group&gt;">
				<path id="&lt;Path&gt;" class="s7" d="m113.2 224.4c1.5-0.3 1.2-2.7-0.4-2.5-1.6 0.2-1.2 2.7 0.4 2.5z"/>
			</g>
			<g id="&lt;Group&gt;">
				<path id="&lt;Path&gt;" class="s7" d="m112.4 232.8c1.8-0.3 1.4-3.1-0.5-2.8-1.8 0.2-1.4 3.1 0.5 2.8z"/>
			</g>
			<g id="&lt;Group&gt;">
				<path id="&lt;Path&gt;" class="s7" d="m107.7 228.9c1.6-0.3 1.2-2.7-0.3-2.4-1.6 0.2-1.2 2.6 0.3 2.4z"/>
			</g>
			<g id="&lt;Group&gt;">
				<path id="&lt;Path&gt;" class="s7" d="m110.1 244.9c1.6-0.3 1.3-2.9-0.4-2.6-1.7 0.2-1.3 2.8 0.4 2.6z"/>
			</g>
			<g id="&lt;Group&gt;">
				<path id="&lt;Path&gt;" class="s7" d="m116.2 249.8c1.8-0.3 1.4-3-0.4-2.7-1.7 0.2-1.3 2.9 0.4 2.7z"/>
			</g>
			<g id="&lt;Group&gt;">
				<path id="&lt;Path&gt;" class="s7" d="m115.6 241.1c1.8-0.3 1.4-3-0.4-2.8-1.7 0.3-1.3 3 0.4 2.8z"/>
			</g>
			<g id="&lt;Group&gt;">
				<path id="&lt;Path&gt;" class="s7" d="m111.2 257.2c1.7-0.2 1.3-2.8-0.4-2.5-1.6 0.2-1.2 2.8 0.4 2.5z"/>
			</g>
			<g id="&lt;Group&gt;">
				<path id="&lt;Path&gt;" class="s7" d="m119.2 258.9c1.9-0.3 1.5-3.1-0.4-2.9-1.8 0.3-1.4 3.2 0.4 2.9z"/>
			</g>
			<g id="&lt;Group&gt;">
				<path id="&lt;Path&gt;" class="s7" d="m116.6 263.6c1.7-0.2 1.3-2.9-0.4-2.7-1.8 0.3-1.4 3 0.4 2.7z"/>
			</g>
			<g id="&lt;Group&gt;">
				<path id="&lt;Path&gt;" class="s7" d="m120.3 151.1c1.5-0.2 1.2-2.6-0.3-2.3-1.5 0.2-1.2 2.5 0.3 2.3z"/>
			</g>
			<g id="&lt;Group&gt;">
				<path id="&lt;Path&gt;" class="s8" d="m125.7 129.9c1.8-0.3 1.4-3.1-0.4-2.8-1.8 0.3-1.4 3 0.4 2.8z"/>
			</g>
			<g id="&lt;Group&gt;">
				<path id="&lt;Path&gt;" class="s8" d="m117.4 128.8c1.8-0.3 1.4-3.2-0.4-2.9-1.9 0.3-1.4 3.1 0.4 2.9z"/>
			</g>
			<g id="&lt;Group&gt;">
				<path id="&lt;Path&gt;" class="s8" d="m126.9 144.7c1.8-0.3 1.4-3.2-0.5-2.9-1.8 0.3-1.4 3.1 0.5 2.9z"/>
			</g>
			<g id="&lt;Group&gt;">
				<path id="&lt;Path&gt;" class="s8" d="m125.3 166.1c2-0.3 1.5-3.5-0.5-3.2-2.1 0.3-1.6 3.5 0.5 3.2z"/>
			</g>
			<g id="&lt;Group&gt;">
				<path id="&lt;Path&gt;" class="s8" d="m133.1 189.2c1.5-0.2 1.1-2.6-0.4-2.3-1.5 0.2-1.1 2.5 0.4 2.3z"/>
			</g>
			<g id="&lt;Group&gt;">
				<path id="&lt;Path&gt;" class="s8" d="m125.4 185.3c1.5-0.3 1.1-2.6-0.4-2.4-1.5 0.2-1.2 2.6 0.4 2.4z"/>
			</g>
			<g id="&lt;Group&gt;">
				<path id="&lt;Path&gt;" class="s8" d="m127.3 205.5c2.2-0.3 1.7-3.7-0.5-3.4-2.2 0.3-1.7 3.7 0.5 3.4z"/>
			</g>
			<g id="&lt;Group&gt;">
				<path id="&lt;Path&gt;" class="s8" d="m136.2 212.7c1.7-0.3 1.3-3-0.4-2.8-1.8 0.3-1.4 3 0.4 2.8z"/>
			</g>
			<g id="&lt;Group&gt;">
				<path id="&lt;Path&gt;" class="s8" d="m132.1 231.3c1.9-0.3 1.4-3.2-0.4-2.9-1.8 0.3-1.4 3.1 0.4 2.9z"/>
			</g>
			<g id="&lt;Group&gt;">
				<path id="&lt;Path&gt;" class="s8" d="m138.4 225.6c1.4-0.2 1.1-2.4-0.3-2.2-1.4 0.2-1.1 2.4 0.3 2.2z"/>
			</g>
			<g id="&lt;Group&gt;">
				<path id="&lt;Path&gt;" class="s8" d="m137.6 240.9c1.7-0.3 1.3-3-0.4-2.7-1.7 0.2-1.3 2.9 0.4 2.7z"/>
			</g>
			<g id="&lt;Group&gt;">
				<path id="&lt;Path&gt;" class="s8" d="m144.5 250.9c1.5-0.3 1.1-2.6-0.4-2.4-1.5 0.2-1.1 2.6 0.4 2.4z"/>
			</g>
			<g id="&lt;Group&gt;">
				<path id="&lt;Path&gt;" class="s8" d="m137.6 256.7c1.5-0.3 1.2-2.7-0.4-2.5-1.6 0.3-1.2 2.7 0.4 2.5z"/>
			</g>
			<g id="&lt;Group&gt;">
				<path id="&lt;Path&gt;" class="s8" d="m92.5 132.3c1.7-0.2 1.3-2.9-0.4-2.6-1.7 0.2-1.3 2.9 0.4 2.6z"/>
			</g>
			<g id="&lt;Group&gt;">
				<path id="&lt;Path&gt;" class="s8" d="m99.1 126.6c1.3-0.2 1-2.2-0.3-2-1.2 0.2-0.9 2.2 0.3 2z"/>
			</g>
			<g id="&lt;Group&gt;">
				<path id="&lt;Path&gt;" class="s8" d="m102.3 137.3q0-0.2 0-0.3c-0.1-0.9-1-1.5-1.8-1.4-0.9 0.2-1.6 1-1.4 1.9q0 0.1 0.1 0.3c0.1 0.8 0.9 1.5 1.8 1.3 0.9-0.1 1.4-0.9 1.3-1.8z"/>
			</g>
			<g id="&lt;Group&gt;">
				<path id="&lt;Path&gt;" class="s8" d="m94.9 156.4q0-0.1 0-0.2c0.2-2-3-2.5-3.2-0.4q0 0.1 0 0.2c-0.3 2.8 4.2 2.2 3.2-0.4q-0.1-0.1-0.1-0.2c-0.8-2-3.8-0.7-3 1.3q0 0.1 0.1 0.2c0.5 1.4 2.9 1.1 3-0.5z"/>
			</g>
			<g id="&lt;Group&gt;">
				<path id="&lt;Path&gt;" class="s8" d="m103.7 157.9q-0.1 0-0.3 0c-0.8 0.1-1.5 1-1.3 1.8 0.1 0.8 0.9 1.5 1.8 1.3q0.1 0 0.3 0c0.8-0.2 1.5-0.9 1.3-1.8-0.2-0.9-0.9-1.4-1.8-1.3z"/>
			</g>
			<g id="&lt;Group&gt;">
				<path id="&lt;Path&gt;" class="s8" d="m101 173.9c1.5-0.2 1.1-2.5-0.3-2.3-1.5 0.2-1.2 2.5 0.3 2.3z"/>
			</g>
			<g id="&lt;Group&gt;">
				<path id="&lt;Path&gt;" class="s8" d="m108 186.9c1.7-0.2 1.3-2.8-0.4-2.6-1.7 0.3-1.3 2.9 0.4 2.6z"/>
			</g>
			<g id="&lt;Group&gt;">
				<path id="&lt;Path&gt;" class="s8" d="m100.9 196.2c2.2-0.3 1.7-3.8-0.5-3.5-2.3 0.4-1.8 3.8 0.5 3.5z"/>
			</g>
			<g id="&lt;Group&gt;">
				<path id="&lt;Path&gt;" class="s8" d="m103.9 210c1.9-0.3 1.5-3.1-0.4-2.9-1.8 0.3-1.4 3.2 0.4 2.9z"/>
			</g>
			<g id="&lt;Group&gt;">
				<path id="&lt;Path&gt;" class="s8" d="m112 214.4c1.7-0.2 1.3-2.8-0.3-2.5-1.7 0.2-1.3 2.8 0.3 2.5z"/>
			</g>
			<g id="&lt;Group&gt;">
				<path id="&lt;Path&gt;" class="s8" d="m108.9 222.8c1.7-0.3 1.3-3-0.4-2.8-1.8 0.3-1.4 3 0.4 2.8z"/>
			</g>
			<g id="&lt;Group&gt;">
				<path id="&lt;Path&gt;" class="s8" d="m116.2 235.7c1.8-0.3 1.4-3.2-0.5-2.9-1.8 0.2-1.4 3.1 0.5 2.9z"/>
			</g>
			<g id="&lt;Group&gt;">
				<path id="&lt;Path&gt;" class="s8" d="m107.7 238.1c1.8-0.2 1.4-2.9-0.4-2.6-1.7 0.2-1.3 2.9 0.4 2.6z"/>
			</g>
			<g id="&lt;Group&gt;">
				<path id="&lt;Path&gt;" class="s8" d="m112.8 250.5q0-0.1 0.1-0.2c0.2-1.3-1.8-1.5-2-0.2q0 0.1 0 0.2c-0.3 1.7 2.7 1.3 2-0.3q-0.1-0.1-0.1-0.2c-0.6-1.2-2.4-0.4-1.8 0.8q0 0.1 0.1 0.2c0.4 0.8 1.6 0.6 1.7-0.3z"/>
			</g>
			<g id="&lt;Group&gt;">
				<path id="&lt;Path&gt;" class="s8" d="m113.9 255.9q0 0.1 0 0.3c0.1 0.6 0.8 1.1 1.4 1 0.6-0.1 1.1-0.7 1-1.4q-0.1-0.1-0.1-0.3c-0.1-0.6-0.7-1.1-1.3-1-0.7 0.1-1.1 0.7-1 1.4z"/>
			</g>
			<g id="&lt;Group&gt;">
				<path id="&lt;Path&gt;" class="s8" d="m115.9 245.5c1.9-0.2 1.5-3.2-0.4-2.9-1.9 0.3-1.5 3.2 0.4 2.9z"/>
			</g>
			<g id="&lt;Group&gt;">
				<path id="&lt;Path&gt;" class="s8" d="m103 150.9c1.5-0.2 1.2-2.5-0.3-2.3-1.5 0.2-1.1 2.5 0.3 2.3z"/>
			</g>
			<path id="&lt;Path&gt;" class="s5" d="m112.2 182.9c-2.7-18.9-5.5-37.8-8.6-56.7-1.1-5.7-7.5-9.2-13-9.3q-0.6 0-1.3 0c0.1 3.8 3.2 7.2 3.7 11 0.8 6.2 1 12.6 1.7 18.9 0.6 6.1 1.9 12.1 3 18.1 1.1 5.8 2.9 11.4 4.1 17.2 2.3 11.1 3.3 22.4 3.8 33.7 0.3 5.5 0.6 11.1 1.5 16.6 0.9 5.5 3 10.7 4.3 16.1 1.1 4.5 1.2 8.9 1.7 13.5 0.2 2.4-2 5.2-1.1 7.4 1.5-0.5 2.9-1.1 4.1-1.9 4-2.7 7.1-6.2 6.6-11.2-0.8-8.3-2.2-16.6-3.4-24.9-2.3-16.2-4.9-32.3-7.1-48.5z"/>
			<path id="&lt;Path&gt;" class="s5" d="m140.9 255.9c-1.5-5.5-1.2-11.3-1.8-16.8-0.7-6.2-2.7-12.2-4.2-18.2-1.6-6.6-1.7-13-1.8-19.7-0.2-6.6-0.5-13.3-1.4-19.9-0.9-6.5-2.8-12.8-4.2-19.2-1.2-5.4-1.7-10.6-1.6-16.1 0.3-7-2.7-13.2-3.9-20-0.6-3.5-0.1-6.6 0.6-10.1q0.4-2 0.8-4.1-0.7 0.2-1.4 0.5c-5.3 1.7-10.4 6.9-9.8 12.7 4.3 33.2 9.4 66.3 14.3 99.4q1.9 12.3 3.8 24.6c0.5 2.9 0.5 6.6 2 9.2 1.1 2.2 3.4 3.2 5.5 4.3 2.4 1.3 4.9 1.8 7.5 1.9-2-2.5-3.6-5.3-4.4-8.5z"/>
		</g>
		<path id="&lt;Path&gt;" class="s12" d="m304.4 209.6c-11 10.8-29.1 18.4-49.4 21.3-23.2 3.4-48.1 2.4-72.1-0.7-35.6-4.6-72.3-15.6-97.9-36.1-10.5-8.4-16.6-20.1-16.7-31.4-0.6 4.2-0.7 8.4-0.3 12.7 0.5 5.6 2.4 11.1 2.7 16.8 0.6 8.4 0.3 16.8 2 25.2 2.8 14.1 8.9 28.3 17.2 40.8 8.2 12.4 20.3 22.7 34.3 30.4 28.4 15.8 63.7 21.3 95.9 15.3 15.6-2.9 30.4-8.5 42.7-17 13.1-9.1 23.3-22 30.9-34.8 5.4-9.3 8.3-19 11.1-29 1.4-5.3 4.2-10 6.2-15.1 1.9-4.7 3.3-9.6 3.8-14.5-1.6 5.8-5.2 11.1-10.4 16.1z"/>
		<g id="&lt;Group&gt;">
			<path id="&lt;Path&gt;" class="s13" d="m75.2 198c4.5 6.8 10.3 12.9 17.5 16.9 3.9 2.2 7.7-4.4 3.9-6.8-6.3-3.9-12.3-7.8-17.4-13.3-2.2-2.5-5.9 0.4-4 3.2z"/>
		</g>
		<g id="&lt;Group&gt;">
			<path id="&lt;Path&gt;" class="s13" d="m103 221c0.4 0.2 0.8 0.4 1.1 0.7q-0.3-0.3-0.6-0.7 0 0.2 0.1 0.3c0.8 1 2.2 1.5 3.5 1.4 1.3-0.2 2.4-1.1 2.9-2.3 0.5-1.2 0.3-2.7-0.5-3.7-0.9-1.1-2.2-1.5-3.5-1.4q-0.1 0-0.3 0 0.5 0 1 0-0.1 0-0.1 0 0.4 0.1 0.9 0.2-0.6-0.2-1.2-0.4c-1.6-0.6-3.3 0-4.2 1.5-0.4 0.6-0.6 1.4-0.4 2.2 0.1 0.8 0.5 1.8 1.3 2.2z"/>
		</g>
		<g id="&lt;Group&gt;">
			<path id="&lt;Path&gt;" class="s13" d="m282.9 232.4c4.2-0.7 8.3-2.1 11.7-4.6 3.4-2.6-0.6-7.5-4.1-5.2-2.6 1.7-5.4 3.3-8.5 4.1-3.4 1-2.8 6.2 0.9 5.7z"/>
		</g>
		<g id="&lt;Group&gt;">
			<path id="&lt;Path&gt;" class="s13" d="m214.4 295.4q3.1 0.3 6.3 0.5c2.5 0.2 4.6-1.8 4.2-4.3-0.3-2.5-3-3.8-5.2-2.9q-3 1.1-6 2.3c-2.1 0.8-1.6 4.3 0.7 4.4z"/>
		</g>
		<g id="&lt;Group&gt;">
			<path id="&lt;Path&gt;" class="s13" d="m233 291.8q0.4-0.1 0.7-0.2c1.2-0.4 2.2-1.9 2.3-3.1 0.1-1-0.1-2-0.8-2.9-0.6-0.7-1.6-1.3-2.5-1.4-1.3-0.2-2.9 0.4-3.6 1.5q-0.2 0.3-0.4 0.6-0.2 0.4-0.4 0.8-0.3 0.7-0.3 1.4c0 0.8 0.3 1.6 0.8 2.2q0.6 0.7 1.4 1.1c0.9 0.4 1.9 0.3 2.8 0z"/>
		</g>
	</g>
</svg>